<svg xmlns="http://www.w3.org/2000/svg" xmlns:xlink="http://www.w3.org/1999/xlink" width="411" height="269.08" viewBox="0 0 411 269.08">
  <defs>
    <clipPath id="clip-path">
      <rect id="Rectangle_454975" data-name="Rectangle 454975" width="259" height="232.652" fill="none"/>
    </clipPath>
    <clipPath id="clip-path-3">
      <rect id="Rectangle_454973" data-name="Rectangle 454973" width="86.328" height="68.494" fill="none"/>
    </clipPath>
  </defs>
  <g id="img29" transform="translate(-498.711 -7343)">
    <g id="Group_1190424" data-name="Group 1190424" transform="translate(0.711 5130.991)">
      <g id="Group_1119664" data-name="Group 1119664" transform="translate(498 2212.009)">
        <rect id="Rectangle_402012" data-name="Rectangle 402012" width="410.52" height="269.08" fill="#c8eefe"/>
        <rect id="Rectangle_402030" data-name="Rectangle 402030" width="410.52" height="60.224" transform="translate(0.48 208.856)" fill="#68c8f2"/>
      </g>
    </g>
    <g id="Group_1190547" data-name="Group 1190547" transform="translate(0 -0.045)">
      <ellipse id="Ellipse_13619" data-name="Ellipse 13619" cx="134.5" cy="19" rx="134.5" ry="19" transform="translate(569.711 7561)" fill="#00a2da"/>
      <g id="Group_1190546" data-name="Group 1190546" transform="translate(574.711 7356.044)">
        <g id="Group_1190545" data-name="Group 1190545" clip-path="url(#clip-path)">
          <path id="Path_997917" data-name="Path 997917" d="M417.729,620.989l-2.886,3.737,3.738,2.886,6.2-4.164-.426-3.312-.426-3.312Z" transform="translate(-265.629 -394.961)" fill="#3b455a"/>
          <path id="Path_997918" data-name="Path 997918" d="M393.912,443.926l-4.78-42.239,5.751-47.287-1.293-10.059-25.688-.976-.927,16.372,4.312,42.014,16.224,44.333Z" transform="translate(-234.979 -219.862)" fill="#3b455a"/>
          <path id="Path_997919" data-name="Path 997919" d="M317.029,349.231l-.068,42.625,8.58,54.872,6.176-.062,3.394-50.744,7.945-50.789Z" transform="translate(-202.954 -220.993)" fill="#3b455a"/>
          <path id="Path_997920" data-name="Path 997920" d="M340.124,628.71l-6.645,3.406-3.372-3.306,3.306-3.372,6.678-.067Z" transform="translate(-211.372 -400.433)" fill="#3b455a"/>
          <g id="Group_1190544" data-name="Group 1190544">
            <g id="Group_1190543" data-name="Group 1190543" clip-path="url(#clip-path)">
              <path id="Path_997921" data-name="Path 997921" d="M356.206,278.9c-.059-1.847-.161-3.389-.176-3.939-.132-4.955-.574-9.9-1.194-14.819-.556-4.409-1.257-15.354-2.012-19.735-.623-3.618-2.794-12.648-4.362-16-3.9-8.345-2.7-9.116-19.829-11.593-7.509-1.086-9.284,3.594-15.423,8.975-.605.531-.572,3.691-.713,4.528-.247,1.474-.512,2.945-.816,4.409q-.358,1.727-.8,3.438c-3.055,11.8-6.569,23.141-7.286,35.371-.2,3.45-1.264,6.8-1.17,10.28a1.886,1.886,0,0,0,.292,1.143c1.037,1.307,6.76-.689,8.5-.86a127.641,127.641,0,0,1,13.379-.675,84.165,84.165,0,0,1,13.628,1.269,29.328,29.328,0,0,1,8.743,2.631c2.56,1.337,4.407,3.3,7,4.689a1.358,1.358,0,0,0,.8.228c1.492-.207,1.562-5.448,1.438-9.336" transform="translate(-193.643 -136.162)" fill="#26c7ff"/>
              <path id="Path_997922" data-name="Path 997922" d="M361.613,183.054a7.048,7.048,0,0,0,5.033-.254,1.113,1.113,0,0,0,.713-1.042,28.888,28.888,0,0,0-.311-3.863c1.6-.561,3.441-1.4,3.72-3.072a4.769,4.769,0,0,0-.094-1.588q-.563-3.257-1.126-6.514a5.811,5.811,0,0,0-.676-2.167,4.889,4.889,0,0,0-3.425-1.852,11.9,11.9,0,0,0-9.634,2.347,5.214,5.214,0,0,0-1.627,2.146,7.068,7.068,0,0,0,.237,4.127l.985,3.751c.378,1.438.923,3.072,2.308,3.612.736.286,1.6.2,2.27.626,1.175.747,1.016,2.494,1.628,3.744" transform="translate(-226.644 -104.056)" fill="#d5c6ab"/>
              <path id="Path_997923" data-name="Path 997923" d="M323.53,141.207c-.576-5.391,1.779-11.069,6.214-9.94,2.686.684,5.091,1.816,7.795.806,2.541-.949,4.376-.563,7.032.385,2.874,1.025,6.732,1.267,9.334,2.715a7.675,7.675,0,0,1,2.629,2.593,11.564,11.564,0,0,1,.032,12.228,16.541,16.541,0,0,1-1.8,2.268c-1.356,1.47-2.977,3.286-4.843,3.831-.044-1.669,1.475-6.93.194-8.3-2.034-2.17-6.632-1.413-9.154-.879-2.752.583-5.2,2.531-7.932,2.948-6.023.919-8.976-3.751-9.5-8.658" transform="translate(-207.106 -83.959)" fill="#3b3631"/>
              <path id="Path_997924" data-name="Path 997924" d="M292.877,2.188c-11.369-1.361-25.947,4.3-29.738,14.06C260.081,6.232,242.811-.5,231.372.03c-30.186,1.387-41.638,35.1-29.729,58.5,6.41,12.59,15.878,23.74,26.286,33.822,8.715,8.442,31.332,26.5,31.406,26.443.069.061,23.962-16.291,33.279-24.072C303.741,85.426,314.01,75,321.335,62.913c13.609-22.457,1.544-57.132-28.458-60.725" transform="translate(-126.148 -0.001)" fill="#ff9581"/>
              <g id="Group_1190542" data-name="Group 1190542" transform="translate(113.51 50.205)" opacity="0.12" style="mix-blend-mode: multiply;isolation: isolate">
                <g id="Group_1190541" data-name="Group 1190541">
                  <g id="Group_1190540" data-name="Group 1190540" clip-path="url(#clip-path-3)">
                    <path id="Path_997925" data-name="Path 997925" d="M390.666,154.436a165.071,165.071,0,0,1-26.551,24.324c-9.384,6.84-20.3,12.7-32.136,14.356a40.646,40.646,0,0,1-16.4-.96c9.319,7.877,19.467,15.953,19.516,15.916.069.061,23.962-16.291,33.279-24.072,11.126-9.292,21.395-19.719,28.72-31.805a38.3,38.3,0,0,0,4.813-12.616,120.684,120.684,0,0,1-11.242,14.858" transform="translate(-315.58 -139.578)"/>
                  </g>
                </g>
              </g>
              <path id="Path_997926" data-name="Path 997926" d="M122.528,413.449l-22.683-8.341,4.676,39.736-2.709,34.281-.073.228.054.006-.2,2.529h4.177l10.65-32.557,5.288-32.534Z" transform="translate(-63.932 -259.395)" fill="#e2bdaa"/>
              <path id="Path_997927" data-name="Path 997927" d="M106.666,617.07l-4.64-.117-1.185,3.915.117.035-.029,0,7.672,4.546,3.648.406.464-4.169-.986-.722Z" transform="translate(-64.569 -395.042)" fill="#3b455a"/>
              <path id="Path_997928" data-name="Path 997928" d="M163.8,421.146l-7.024,70.2h-4.032l-4.752-38.7-7.819-36.586Z" transform="translate(-89.755 -266.41)" fill="#e2bdaa"/>
              <path id="Path_997929" data-name="Path 997929" d="M177.583,623.737l5.947,3.372-.557,2.806-10.626-1.6.625-4.043Z" transform="translate(-110.356 -399.387)" fill="#3b455a"/>
              <path id="Path_997930" data-name="Path 997930" d="M118.08,320.471c1.435-1,1.466-2.732,1.464-4.47a43.422,43.422,0,0,0-1.34-9.771,146.76,146.76,0,0,1-3.749-20.825c-1.835-19.925-8.127-33.3-8.127-33.3L104.3,246.7q-.605-1.056-1.259-2.086c-2.536-3.979-6.939-10.741-11.647-11.848l-.3-.067c-4.951-1.087-11.295-.582-15.769,1.824a15.642,15.642,0,0,0-2.353,1.67c-2.188,1.765-3.972,2.72-4.915,5.41a49.2,49.2,0,0,0-1.461,7.3c-.917,4.916-1.465,9.891-2.2,14.836-1.374,9.273-2.54,18.576-4.009,27.834-.756,4.765-1.518,9.539-1.875,14.354-.315,4.257-4.157,8.58-6.315,12.395-.751,1.328,10.035,4.768,11,4.993,4.475,1.042,9.233.776,13.845.8q15.161.069,30.3-.934c3.352-.222,7.482-.862,10.455-2.531q.147-.083.278-.173" transform="translate(-33.4 -148.648)" fill="#474ebb"/>
              <path id="Path_997931" data-name="Path 997931" d="M156.8,184.466c.861,2.587-.385,5.345-1.48,7.7-.97,2.091-1.308,3.466,1.156,4.03,1.388.318,3.852.911,5.069-.152.922-.805.4-3.292-.045-4.28-.342-.754-1.249-1.137-1.571-1.9a2.673,2.673,0,0,1-.157-1.006,13.887,13.887,0,0,1,.57-4.129,14.063,14.063,0,0,0,.715-2.743c.118-1.368-.85-2.962-1.358-4.219-.946-2.339-4.238-5.476-6.995-3.64a4.03,4.03,0,0,0-1.3,1.814,3.352,3.352,0,0,0-.361,1.292c-.021,1.8,1.618,2.1,2.751,2.953a8.99,8.99,0,0,1,3,4.279" transform="translate(-96.714 -111.143)" fill="#292949"/>
              <path id="Path_997932" data-name="Path 997932" d="M135.651,199.508a7.774,7.774,0,0,0,5.159-4.858,15.566,15.566,0,0,0,.7-7.265c-.827-8.133-10.943-7.611-14.369-1.378-2.985,5.432,1.561,15.138,8.513,13.5" transform="translate(-80.811 -116.091)" fill="#e2bdaa"/>
              <path id="Path_997933" data-name="Path 997933" d="M143.882,225.871q-.06,1.39-.12,2.779a.425.425,0,0,1-.549.489l-2.265-.078a2.467,2.467,0,0,1-1.093-.207,2.076,2.076,0,0,1-.756-2.178,7.032,7.032,0,0,0,.234-2.43c1.559.768,3.039-.968,4.6-.2Z" transform="translate(-89.044 -143.331)" fill="#e2bdaa"/>
              <path id="Path_997934" data-name="Path 997934" d="M113.17,158.49c-2.656.9-4.36,3.589-6.952,4.662-1.487.615-3.246.693-4.459,1.751-2.718,2.369-.533,7.34-2.767,10.172-.464.589-1.09,1.034-1.556,1.621-1.006,1.266-1.137,2.995-1.227,4.609a5.1,5.1,0,0,0,.039,1.124c.349,3.729,5.762,3.491,7.912,3.253,2.36-.262,1.573-1.573,1.573-1.573l-.086-.1a4.514,4.514,0,0,1,1.585-4.093,5.539,5.539,0,0,0,1.275-1.118c.7-1.067.032-2.481.134-3.752.414-5.12,9.007-4.022,11.432-7.668,2.974-4.47-1.887-10.587-6.9-8.883" transform="translate(-61.595 -101.296)" fill="#292949"/>
              <path id="Path_997935" data-name="Path 997935" d="M51.45,252.163,23.706,276.889l4.677,7.9L54.8,267.7Z" transform="translate(-15.179 -161.463)" fill="#a0a1a3"/>
              <path id="Path_997936" data-name="Path 997936" d="M.151,177.719a5.635,5.635,0,0,1,10.967-2.6v.006l9.271,22.649a20.9,20.9,0,0,0,11.848,11.593l19.689,7.564-15.481-14.47a5.156,5.156,0,0,1-.7-.654l-.007-.007h0a5.175,5.175,0,0,1,6.274-8.014l0,0,20.006,11.108A35.252,35.252,0,0,1,79.2,227.523l2.56,10.716A13.509,13.509,0,0,1,61.69,252.964L20.906,232.908a20.33,20.33,0,0,1-10.8-13.52L.149,177.72Z" transform="translate(0 -109.362)" fill="#abacff"/>
              <path id="Path_997937" data-name="Path 997937" d="M223.345,365.03l-2.292,4.677-2.042-.893.86-3.55-1.161.026,2.449-3.763,2.248.641Z" transform="translate(-140.043 -231.49)" fill="#e2bdaa"/>
              <path id="Path_997938" data-name="Path 997938" d="M168.287,235.8l-7.079-2.1,3.408,9.176,16.517,18.876-.143-1.542,1.892,19.549,4.38,2.324,5.172-24.192Z" transform="translate(-103.224 -149.645)" fill="#474ebb"/>
              <path id="Path_997939" data-name="Path 997939" d="M25.354,319.914l3.686-.557-1-6.022-5.829-2.4-2.458,4.849Z" transform="translate(-12.646 -199.097)" fill="#e2bdaa"/>
              <path id="Path_997940" data-name="Path 997940" d="M250.637,232.806l.561-3.686,6.021,1.011,2.391,5.831-4.851,2.453Z" transform="translate(-160.486 -146.709)" fill="#e2bdaa"/>
              <path id="Path_997941" data-name="Path 997941" d="M481.917,234.041l.209-3.722-6.1-.25-3.54,5.214,4.243,3.4Z" transform="translate(-302.539 -147.316)" fill="#e2bdaa"/>
              <path id="Path_997942" data-name="Path 997942" d="M639.339,226.008,665.712,254.6l-20.045,17.019-2.964-3.574,7.85-16.314-15.376-13.557Z" transform="translate(-406.712 -144.716)" fill="#17428d"/>
              <path id="Path_997943" data-name="Path 997943" d="M624.692,417.342l1.19,27.609-3.489,46.944-5.222.371-6.344-42.636-8.776-36.078Z" transform="translate(-385.501 -264.802)" fill="#ff9581"/>
              <path id="Path_997944" data-name="Path 997944" d="M644.249,632.769l5.847,2.422,2.622-3.024-3.024-2.622-5.646.4Z" transform="translate(-412.392 -403.105)" fill="#3b455a"/>
              <path id="Path_997945" data-name="Path 997945" d="M560.2,393.109l-1.146,20.869,3.4,62.052,5.228.261,7.835-40.7,6.911-44.63Z" transform="translate(-357.966 -250.338)" fill="#ff9581"/>
              <path id="Path_997946" data-name="Path 997946" d="M567.55,628.78l-5.795,2.544-2.685-2.968,2.968-2.685,5.654.282Z" transform="translate(-357.979 -400.625)" fill="#3b455a"/>
              <path id="Path_997947" data-name="Path 997947" d="M582.183,222.9l-16.314-1.748s-9.076.97-15.234,22.523c-3.426,11.992-4.469,30.885-4.72,45.288.385,2.055,2.624,11.054,12.089,9.528,16.254-2.622,24.906-5.243,31.984-3.932,6.03,1.311,5.52-6.991,4.857-13.326l-2.4-19.6Z" transform="translate(-349.556 -141.604)" fill="#17428d"/>
              <path id="Path_997948" data-name="Path 997948" d="M608.646,167.344c-4.112-.906-8.344-1.719-12.461-.9a3.439,3.439,0,0,0-2.359,1.27,3.6,3.6,0,0,0-.382.993c-1.039,3.862-2.356,9.585.186,13.143a6.365,6.365,0,0,0,1.836,1.654,9.039,9.039,0,0,0,3.042,1.193,16.318,16.318,0,0,1-.921,2.8c.941,1.419,5.333,1.589,6.145.229q.068-1.766.136-3.533a8.719,8.719,0,0,0,1.536-.8,9.926,9.926,0,0,0,3.832-5.21c.782-2.285,1.882-4.457,2.6-6.786a3.284,3.284,0,0,0,.019-2.584,3.5,3.5,0,0,0-2.423-1.3l-.782-.173" transform="translate(-379.169 -106.358)" fill="#b77858"/>
              <path id="Path_997949" data-name="Path 997949" d="M586.53,152.941a12.818,12.818,0,0,1,6.993-1.731c5.778.418,7.894,4.662,8.2,9.974,1.592-2.023,4.579-4.568,4.759-7.171.147-2.131-.147-5.036-1.341-6.876-1.117-1.722-3.973-2.668-5.672-3.666l-4.8-2.821a2.428,2.428,0,0,0-2.406-.309l-11.353,2.934c-.727.188-1.555.462-1.823,1.164a2.388,2.388,0,0,0,.031,1.35,55.749,55.749,0,0,1,1.459,5.962c.231,1.156.92,7.082,2.968,6.4A26.617,26.617,0,0,0,584.7,154.9a4.705,4.705,0,0,1,1.828-1.961" transform="translate(-370.74 -89.748)" fill="#292949"/>
              <path id="Path_997950" data-name="Path 997950" d="M549.119,221.149l-6.03,1.835-22.022,23.071-1.311,7.6,10.528,17.382,2.843-6.372-4.457-12.846,7.078-4.981,9.438-21.236Z" transform="translate(-332.807 -141.604)" fill="#17428d"/>
              <path id="Path_997951" data-name="Path 997951" d="M571.331,173.569a5.635,5.635,0,0,0-11.136-1.736v.006l-7.482,23.3A20.9,20.9,0,0,1,541.8,207.62l-19.041,9.071,14.309-15.629a5.246,5.246,0,0,0,.646-.706l.007-.007h0a5.175,5.175,0,0,0-6.878-7.5l0,0-19.081,12.629a35.249,35.249,0,0,0-15.364,23.9l-1.719,10.882a13.51,13.51,0,0,0,21.153,13.121l39.1-23.167a20.332,20.332,0,0,0,9.719-14.318l6.685-42.316Z" transform="translate(-316.639 -106.981)" fill="#abacff"/>
              <path id="Path_997952" data-name="Path 997952" d="M492.72,327.6l3.239-1.846,2.942,5.35-3.091,5.493-4.933-2.283Z" transform="translate(-314.315 -208.582)" fill="#b77858"/>
              <path id="Path_997953" data-name="Path 997953" d="M663.555,333.621l.748-3.652-6-1.133-4.26,4.645,3.7,3.98Z" transform="translate(-418.792 -210.557)" fill="#b77858"/>
            </g>
          </g>
        </g>
      </g>
    </g>
  </g>
</svg>
