<svg xmlns="http://www.w3.org/2000/svg" xmlns:xlink="http://www.w3.org/1999/xlink" width="164.854" height="161.654" viewBox="0 0 164.854 161.654">
  <defs>
    <clipPath id="clip-path">
      <rect id="Rectangle_455216" data-name="Rectangle 455216" width="164.854" height="161.654" fill="#fff"/>
    </clipPath>
  </defs>
  <g id="img36_2" clip-path="url(#clip-path)">
    <path id="Path_998564" data-name="Path 998564" d="M114.1,154.335c2.528,7.7,9.252,4.475,16.652,5.162,3.1,7.432,9.177,4.73,15.555,5.635l-8.776,24.627a22.4,22.4,0,0,0-1.14,7.458l-.04,29.179-38.4-.1-.007-22.183a25.355,25.355,0,0,0-6.249-16.94,134.244,134.244,0,0,0-12.97-13.029c-6.441-5.742-9.361-13.684-6.541-22.132,2.377-7.122,9.085-13.643,17.518-13.679L119.8,138.2c-1.4,6.985-7.2,12.176-14.124,12.232l-9.529.076a3.035,3.035,0,0,0-2.816,2.371,2.977,2.977,0,0,0,1.884,3.308c13.483,6.35,28.616,17.257,30.365,33.234a3.074,3.074,0,0,0,6.1-.753c-1.1-14.4-12.029-25.176-23.333-32.607Z" transform="translate(-33.31 -64.742)" fill="#fff"/>
    <rect id="Rectangle_455215" data-name="Rectangle 455215" width="13.239" height="40.515" transform="translate(103.214 53.629)" fill="#fff"/>
    <path id="Path_998565" data-name="Path 998565" d="M161.315,133.236c-2.819-4.711,5.938-6.734,5.925-18.243-.006-4.963-5.671-2.729-8.705-3.494l0-15.069a1.978,1.978,0,0,1,1.923-1.984c7.66.02,11.149-1.2,11.139,2.973l-.084,35.881Z" transform="translate(-74.264 -44.172)" fill="#fff"/>
    <path id="Path_998566" data-name="Path 998566" d="M161.315,44.553a13.417,13.417,0,0,1-5.133.107l-.129-27.923a8.813,8.813,0,0,1-5.69-9.362,8.464,8.464,0,0,1,16.7-.562,8.757,8.757,0,0,1-5.677,9.953Z" transform="translate(-70.404 0)" fill="#fff"/>
    <path id="Path_998567" data-name="Path 998567" d="M241.844,236.675a8.435,8.435,0,0,1-11.265,4.4,8.74,8.74,0,0,1-4.073-11.851l-13.926-14a14.587,14.587,0,0,1,2.064-5.321l15.73,15.612a8.447,8.447,0,0,1,11.47,11.16" transform="translate(-99.584 -98.33)" fill="#fff"/>
    <path id="Path_998568" data-name="Path 998568" d="M218.677,68.629l-5.878-1L226.571,53.6a8.671,8.671,0,0,1,2.587-10.764,8.455,8.455,0,1,1,1.111,14.3Z" transform="translate(-99.686 -19.284)" fill="#fff"/>
    <path id="Path_998569" data-name="Path 998569" d="M57.2,233.41a8.535,8.535,0,0,1-2.552,10.726,8.456,8.456,0,1,1-1.194-14.327l11-10.838a9.954,9.954,0,0,1,3.584,3.218Z" transform="translate(-19.267 -102.577)" fill="#fff"/>
    <path id="Path_998570" data-name="Path 998570" d="M67.063,64.246c-1.837.591-3.481.766-5.065,2.057l-8.813-8.81A8.637,8.637,0,0,1,42.66,55.287a8.248,8.248,0,0,1,.578-11.139,8.348,8.348,0,0,1,10.875-.874A8.449,8.449,0,0,1,56.7,54.081Z" transform="translate(-19.097 -19.517)" fill="#fff"/>
    <path id="Path_998571" data-name="Path 998571" d="M135.269,107.911l-13.067.063-.052-18.623a2.04,2.04,0,0,1,2.072-2.085l9.046.01a2.009,2.009,0,0,1,2,2.075Z" transform="translate(-57.222 -40.88)" fill="#fff"/>
    <path id="Path_998572" data-name="Path 998572" d="M99.377,111.121a34.837,34.837,0,0,0-13.2,3.444L86.151,96.3a2.067,2.067,0,0,1,2.1-2.126l9.006-.013a2.056,2.056,0,0,1,2.1,2.126Z" transform="translate(-40.358 -44.111)" fill="#fff"/>
    <path id="Path_998573" data-name="Path 998573" d="M229.133,150.607a9.041,9.041,0,0,1-.135-5l26.247-.088c1.734-4.068,5.526-6.367,9.36-5.827a8.452,8.452,0,0,1,.6,16.672c-4.43.808-8.222-1.484-9.9-5.745Z" transform="translate(-107.141 -65.402)" fill="#fff"/>
    <path id="Path_998574" data-name="Path 998574" d="M36.617,145.619l-2.208,4.927-17.725.1c-1.674,4.209-5.465,6.538-9.9,5.732A8.453,8.453,0,0,1,7.378,139.7a8.79,8.79,0,0,1,9.4,5.842Z" transform="translate(0 -65.408)" fill="#fff"/>
  </g>
</svg>
