<svg xmlns="http://www.w3.org/2000/svg" xmlns:xlink="http://www.w3.org/1999/xlink" width="396" height="245.105" viewBox="0 0 396 245.105">
  <defs>
    <clipPath id="clip-path">
      <rect id="Rectangle_455191" data-name="Rectangle 455191" width="336.92" height="245.105" fill="none"/>
    </clipPath>
    <clipPath id="clip-path-2">
      <rect id="Rectangle_455190" data-name="Rectangle 455190" width="336.92" height="245.105" fill="#c8eefe"/>
    </clipPath>
    <clipPath id="clip-path-3">
      <rect id="Rectangle_455144" data-name="Rectangle 455144" width="187.959" height="179.993" fill="#c8eefe"/>
    </clipPath>
    <clipPath id="clip-path-4">
      <rect id="Rectangle_455145" data-name="Rectangle 455145" width="135.046" height="145.691" fill="#c8eefe"/>
    </clipPath>
    <clipPath id="clip-path-5">
      <rect id="Rectangle_455146" data-name="Rectangle 455146" width="323.215" height="17.949" fill="#abacff"/>
    </clipPath>
    <clipPath id="clip-path-6">
      <rect id="Rectangle_455147" data-name="Rectangle 455147" width="7.815" height="68.674" fill="none"/>
    </clipPath>
    <clipPath id="clip-path-7">
      <rect id="Rectangle_455148" data-name="Rectangle 455148" width="33.912" height="97.567" fill="none"/>
    </clipPath>
    <clipPath id="clip-path-8">
      <rect id="Rectangle_455149" data-name="Rectangle 455149" width="32.634" height="35.729" fill="none"/>
    </clipPath>
    <clipPath id="clip-path-9">
      <rect id="Rectangle_455150" data-name="Rectangle 455150" width="7.047" height="37.069" fill="none"/>
    </clipPath>
    <clipPath id="clip-path-10">
      <rect id="Rectangle_455151" data-name="Rectangle 455151" width="28.782" height="31.346" fill="none"/>
    </clipPath>
    <clipPath id="clip-path-11">
      <rect id="Rectangle_455152" data-name="Rectangle 455152" width="32.054" height="32.95" fill="none"/>
    </clipPath>
    <clipPath id="clip-path-12">
      <rect id="Rectangle_455153" data-name="Rectangle 455153" width="35.853" height="51.83" fill="none"/>
    </clipPath>
    <clipPath id="clip-path-13">
      <rect id="Rectangle_455154" data-name="Rectangle 455154" width="25.961" height="25.798" fill="none"/>
    </clipPath>
    <clipPath id="clip-path-14">
      <rect id="Rectangle_455155" data-name="Rectangle 455155" width="7.605" height="1.659" fill="none"/>
    </clipPath>
    <clipPath id="clip-path-15">
      <rect id="Rectangle_455156" data-name="Rectangle 455156" width="14.491" height="21.291" fill="none"/>
    </clipPath>
    <clipPath id="clip-path-16">
      <rect id="Rectangle_455157" data-name="Rectangle 455157" width="23.696" height="27.725" fill="none"/>
    </clipPath>
    <clipPath id="clip-path-17">
      <rect id="Rectangle_455158" data-name="Rectangle 455158" width="0.677" height="5.189" fill="none"/>
    </clipPath>
    <clipPath id="clip-path-18">
      <rect id="Rectangle_455159" data-name="Rectangle 455159" width="4.995" height="6.308" fill="none"/>
    </clipPath>
    <clipPath id="clip-path-19">
      <rect id="Rectangle_455160" data-name="Rectangle 455160" width="35.785" height="35.692" fill="none"/>
    </clipPath>
    <clipPath id="clip-path-20">
      <rect id="Rectangle_455161" data-name="Rectangle 455161" width="25.206" height="25.619" fill="none"/>
    </clipPath>
    <clipPath id="clip-path-21">
      <rect id="Rectangle_455162" data-name="Rectangle 455162" width="6.902" height="6.066" fill="none"/>
    </clipPath>
    <clipPath id="clip-path-22">
      <rect id="Rectangle_455163" data-name="Rectangle 455163" width="37.536" height="26.574" fill="none"/>
    </clipPath>
    <clipPath id="clip-path-23">
      <rect id="Rectangle_455164" data-name="Rectangle 455164" width="74.741" height="85.073" fill="none"/>
    </clipPath>
    <clipPath id="clip-path-24">
      <rect id="Rectangle_455165" data-name="Rectangle 455165" width="33.831" height="31.748" fill="none"/>
    </clipPath>
    <clipPath id="clip-path-25">
      <rect id="Rectangle_455166" data-name="Rectangle 455166" width="85.551" height="30.962" fill="none"/>
    </clipPath>
    <clipPath id="clip-path-26">
      <rect id="Rectangle_455167" data-name="Rectangle 455167" width="8.235" height="8.515" fill="none"/>
    </clipPath>
    <clipPath id="clip-path-27">
      <rect id="Rectangle_455168" data-name="Rectangle 455168" width="6.821" height="39.874" fill="none"/>
    </clipPath>
    <clipPath id="clip-path-28">
      <rect id="Rectangle_455169" data-name="Rectangle 455169" width="7.684" height="9.874" fill="none"/>
    </clipPath>
    <clipPath id="clip-path-29">
      <rect id="Rectangle_455170" data-name="Rectangle 455170" width="2.573" height="5.471" fill="none"/>
    </clipPath>
    <clipPath id="clip-path-30">
      <rect id="Rectangle_455171" data-name="Rectangle 455171" width="5.987" height="3.605" fill="none"/>
    </clipPath>
    <clipPath id="clip-path-31">
      <rect id="Rectangle_455172" data-name="Rectangle 455172" width="4.884" height="3.477" fill="none"/>
    </clipPath>
    <clipPath id="clip-path-32">
      <rect id="Rectangle_455173" data-name="Rectangle 455173" width="5.053" height="2.153" fill="none"/>
    </clipPath>
    <clipPath id="clip-path-33">
      <rect id="Rectangle_455174" data-name="Rectangle 455174" width="11.911" height="1.91" fill="none"/>
    </clipPath>
    <clipPath id="clip-path-34">
      <rect id="Rectangle_455175" data-name="Rectangle 455175" width="13.073" height="1.45" fill="none"/>
    </clipPath>
    <clipPath id="clip-path-35">
      <rect id="Rectangle_455176" data-name="Rectangle 455176" width="3.516" height="2.852" fill="none"/>
    </clipPath>
    <clipPath id="clip-path-36">
      <rect id="Rectangle_455177" data-name="Rectangle 455177" width="2.554" height="2.068" fill="none"/>
    </clipPath>
    <clipPath id="clip-path-37">
      <rect id="Rectangle_455178" data-name="Rectangle 455178" width="3.222" height="2.702" fill="none"/>
    </clipPath>
    <clipPath id="clip-path-38">
      <rect id="Rectangle_455179" data-name="Rectangle 455179" width="2.221" height="12.101" fill="none"/>
    </clipPath>
    <clipPath id="clip-path-40">
      <rect id="Rectangle_455181" data-name="Rectangle 455181" width="44.455" height="38.17" fill="none"/>
    </clipPath>
    <clipPath id="clip-path-41">
      <rect id="Rectangle_455182" data-name="Rectangle 455182" width="4.917" height="8.054" fill="none"/>
    </clipPath>
    <clipPath id="clip-path-42">
      <rect id="Rectangle_455183" data-name="Rectangle 455183" width="3.59" height="1.798" fill="none"/>
    </clipPath>
    <clipPath id="clip-path-43">
      <rect id="Rectangle_455184" data-name="Rectangle 455184" width="5.214" height="4.355" fill="none"/>
    </clipPath>
    <clipPath id="clip-path-44">
      <rect id="Rectangle_455185" data-name="Rectangle 455185" width="11.699" height="57.016" fill="none"/>
    </clipPath>
    <clipPath id="clip-path-45">
      <rect id="Rectangle_455189" data-name="Rectangle 455189" width="5.671" height="5.896" fill="none"/>
    </clipPath>
    <clipPath id="clip-path-46">
      <rect id="Rectangle_455186" data-name="Rectangle 455186" width="1.505" height="3.098" fill="none"/>
    </clipPath>
    <clipPath id="clip-path-47">
      <rect id="Rectangle_455187" data-name="Rectangle 455187" width="1.129" height="2.232" fill="none"/>
    </clipPath>
    <clipPath id="clip-path-48">
      <rect id="Rectangle_455188" data-name="Rectangle 455188" width="1.374" height="3.702" fill="none"/>
    </clipPath>
  </defs>
  <g id="img11" transform="translate(-186 -2984)">
    <rect id="Rectangle_455037" data-name="Rectangle 455037" width="396" height="245" transform="translate(186 2984)" fill="none"/>
    <g id="Group_1190931" data-name="Group 1190931" transform="translate(216 2984)">
      <g id="Group_1190930" data-name="Group 1190930" clip-path="url(#clip-path)">
        <g id="Group_1190929" data-name="Group 1190929">
          <g id="Group_1190928" data-name="Group 1190928" clip-path="url(#clip-path-2)">
            <g id="Group_1190792" data-name="Group 1190792" transform="translate(0 37.146)" opacity="0.49" style="mix-blend-mode: multiply;isolation: isolate">
              <g id="Group_1190791" data-name="Group 1190791">
                <g id="Group_1190790" data-name="Group 1190790" clip-path="url(#clip-path-3)">
                  <path id="Path_998325" data-name="Path 998325" d="M105.419,230.2q1.165-.059,2.329-.149c36.747-2.849,68.362-31.678,77.692-66.892,9.727-36.713-9.784-72.2-40.05-92.622-33.632-22.7-83.29-29.679-116.866-3.1C-3.761,92.991-7.346,141.108,11.259,175.879l.569,1.05c18.026,32.644,56.057,55.165,93.591,53.274" transform="translate(0 -50.321)" fill="#c8eefe"/>
                </g>
              </g>
            </g>
            <g id="Group_1190795" data-name="Group 1190795" transform="translate(201.691 63.805)" opacity="0.49" style="mix-blend-mode: multiply;isolation: isolate">
              <g id="Group_1190794" data-name="Group 1190794">
                <g id="Group_1190793" data-name="Group 1190793" clip-path="url(#clip-path-4)">
                  <path id="Path_998326" data-name="Path 998326" d="M277.571,189.646a63.713,63.713,0,0,0,19.557,26.568c24.769,20.183,63.045,22.412,86.676-.531,35.094-34.071,35.282-109.892-18.139-126.266-59.035-18.1-107.494,50.05-88.1,100.229" transform="translate(-273.227 -86.436)" fill="#c8eefe"/>
                </g>
              </g>
            </g>
            <g id="Group_1190798" data-name="Group 1190798" transform="translate(13.705 227.156)" opacity="0.41">
              <g id="Group_1190797" data-name="Group 1190797">
                <g id="Group_1190796" data-name="Group 1190796" clip-path="url(#clip-path-5)">
                  <path id="Path_998327" data-name="Path 998327" d="M341.781,316.7c0,4.957-72.354,8.975-161.607,8.975S18.567,321.656,18.567,316.7s72.354-8.975,161.608-8.975,161.607,4.018,161.607,8.975" transform="translate(-18.567 -307.724)" fill="#abacff"/>
                </g>
              </g>
            </g>
            <path id="Path_998328" data-name="Path 998328" d="M296.41,81.111a34.47,34.47,0,0,0,4.366-2.688c11.132-8.082,17.724-23.609,11.759-36.741-4.611-10.151-15.191-16.253-25.822-18.159-17.921-3.215-39.6,4.725-44.446,23.857a32.356,32.356,0,0,0-.961,11.034c1.95,20.624,26.1,30.694,46.136,25.988,7.405,13.483,25.641,11.1,25.641,11.1-9.6-.864-14.339-8.012-16.674-14.39" transform="translate(-63.146 -5.977)" fill="#abacff"/>
            <path id="Path_998329" data-name="Path 998329" d="M163.02,29.058a30.108,30.108,0,0,0-2.1-10.084c-6.572-17.137-27.46-22.1-43.657-17.163-9.608,2.925-18.711,9.718-21.857,19.6-4.07,12.78,3.718,26.4,14.884,32.642A33.663,33.663,0,0,0,120.519,57.7c-.9,8.2-4.493,21.327-18.138,24.2,0,0,27.338.326,29.777-23.783,16.165-1.733,31.249-12.785,30.862-29.064" transform="translate(-24.694 0)" fill="#26c7ff"/>
            <path id="Path_998330" data-name="Path 998330" d="M180.822,175.235c-.2,4.883.234,9.8.016,14.716-.269,6.1-.8,12.083-1.585,18.144-.774,5.977-1.561,11.947-2.412,17.913-.43,3.008-.813,6.019-1.208,9.031-.117.894-1.532,5.863-.9,6.691s-.631,1.819-1.264,1c-.667-.867-.3-2.044-.165-3.043.385-2.87.823-5.731,1.2-8.6.864-6.521,1.879-13.019,2.688-19.547.781-6.307,1.7-12.579,1.938-18.937.123-3.3.4-6.619.4-9.926.006-2.55-.422-5.078-.317-7.625.043-1.035,1.64-.841,1.6.189" transform="translate(-45.317 -45.651)" fill="#fce0e3"/>
            <g id="Group_1190801" data-name="Group 1190801" transform="translate(127.769 128.708)" style="mix-blend-mode: multiply;isolation: isolate">
              <g id="Group_1190800" data-name="Group 1190800">
                <g id="Group_1190799" data-name="Group 1190799" clip-path="url(#clip-path-6)">
                  <path id="Path_998331" data-name="Path 998331" d="M180.822,175.235c-.2,4.883.234,9.8.016,14.716-.269,6.1-.8,12.083-1.585,18.144-.774,5.977-1.561,11.947-2.412,17.913-.43,3.008-.813,6.019-1.208,9.031-.117.894-1.532,5.863-.9,6.691s-.631,1.819-1.264,1c-.667-.867-.3-2.044-.165-3.043.385-2.87.823-5.731,1.2-8.6.864-6.521,1.879-13.019,2.688-19.547.781-6.307,1.7-12.579,1.938-18.937.123-3.3.4-6.619.4-9.926.006-2.55-.422-5.078-.317-7.625.043-1.035,1.64-.841,1.6.189" transform="translate(-173.086 -174.359)" fill="#fce0e3"/>
                </g>
              </g>
            </g>
            <path id="Path_998332" data-name="Path 998332" d="M206.42,126.09c-2.484,2.916-5.119,5.447-7,8.864a115,115,0,0,0-5.891,13.481c-3.351,8.516-6.255,17.2-8.909,25.957-2.022,6.673-4.229,13.372-5.535,20.228-.962,5.052-1.513,10.16-2.139,15.26-.3,2.451-.74,4.834-1.252,7.247-.278,1.31-.394,3.918-1.421,4.784-.791.667.2,1.933,1,1.264,1.439-1.214,1.5-3.416,1.859-5.143,1.081-5.183,1.649-10.37,2.351-15.613,1.14-8.515,3.408-16.627,5.854-24.832s5.071-16.343,8.077-24.354c1.872-4.989,3.833-9.974,6.075-14.81,2.108-4.548,5.048-7.636,8.221-11.362.673-.791-.616-1.755-1.284-.97" transform="translate(-45.552 -32.936)" fill="#fce0e3"/>
            <g id="Group_1190804" data-name="Group 1190804" transform="translate(128.43 92.861)" opacity="0.49" style="mix-blend-mode: multiply;isolation: isolate">
              <g id="Group_1190803" data-name="Group 1190803">
                <g id="Group_1190802" data-name="Group 1190802" clip-path="url(#clip-path-7)">
                  <path id="Path_998333" data-name="Path 998333" d="M206.42,126.09c-2.484,2.916-5.119,5.447-7,8.864a115,115,0,0,0-5.891,13.481c-3.351,8.516-6.255,17.2-8.909,25.957-2.022,6.673-4.229,13.372-5.535,20.228-.962,5.052-1.513,10.16-2.139,15.26-.3,2.451-.74,4.834-1.252,7.247-.278,1.31-.394,3.918-1.421,4.784-.791.667.2,1.933,1,1.264,1.439-1.214,1.5-3.416,1.859-5.143,1.081-5.183,1.649-10.37,2.351-15.613,1.14-8.515,3.408-16.627,5.854-24.832s5.071-16.343,8.077-24.354c1.872-4.989,3.833-9.974,6.075-14.81,2.108-4.548,5.048-7.636,8.221-11.362.673-.791-.616-1.755-1.284-.97" transform="translate(-173.982 -125.797)" fill="#fce0e3"/>
                </g>
              </g>
            </g>
            <path id="Path_998334" data-name="Path 998334" d="M242.3,143.057c-1.083-8.846-4.744-15.605-12.164-20.216-2.562-1.592-7.774-4.489-10.775-5.057-2.663-.5-1.914,2.378.013,2.432l-.8-.094c-.146-.513-4.459-.618-5.252-.457-2.718.551-3.319,2.158-3.494,4.757a15.133,15.133,0,0,0,1.273,6.294c.618,1.54,2.726,4.727,4.486,5.112.354-2.334-2.1-6.326.22-8.325,3.138,2.051,3.089,5.039,3.189,8.5.03,1.042-.244,1.353.492,1.92a12.214,12.214,0,0,0,2.279.791c2.046.678,2.045-.9,2.208-2.623.193-2.038-.259-4.018-.216-6.039,1.727,1.839,3.054,2.7,3.383,5.4a17.033,17.033,0,0,1-.337,5.908c1.675.931,3.23,1.979,4.879,2.962,1.036-2.1.56-4.834,1.558-6.756,2.688,2.189,1.713,4.922,2.063,7.772.152,1.238,1.511,2.468,2.416,3.52a24.32,24.32,0,0,1,2.7,4.6,17.115,17.115,0,0,0,1.876-10.4" transform="translate(-54.933 -30.823)" fill="#fce0e3"/>
            <g id="Group_1190807" data-name="Group 1190807" transform="translate(154.88 86.903)" style="mix-blend-mode: multiply;isolation: isolate">
              <g id="Group_1190806" data-name="Group 1190806">
                <g id="Group_1190805" data-name="Group 1190805" clip-path="url(#clip-path-8)">
                  <path id="Path_998335" data-name="Path 998335" d="M242.3,143.057c-1.083-8.846-4.744-15.605-12.164-20.216-2.562-1.592-7.774-4.489-10.775-5.057-2.663-.5-1.914,2.378.013,2.432l-.8-.094c-.146-.513-4.459-.618-5.252-.457-2.718.551-3.319,2.158-3.494,4.757a15.133,15.133,0,0,0,1.273,6.294c.618,1.54,2.726,4.727,4.486,5.112.354-2.334-2.1-6.326.22-8.325,3.138,2.051,3.089,5.039,3.189,8.5.03,1.042-.244,1.353.492,1.92a12.214,12.214,0,0,0,2.279.791c2.046.678,2.045-.9,2.208-2.623.193-2.038-.259-4.018-.216-6.039,1.727,1.839,3.054,2.7,3.383,5.4a17.033,17.033,0,0,1-.337,5.908c1.675.931,3.23,1.979,4.879,2.962,1.036-2.1.56-4.834,1.558-6.756,2.688,2.189,1.713,4.922,2.063,7.772.152,1.238,1.511,2.468,2.416,3.52a24.32,24.32,0,0,1,2.7,4.6,17.115,17.115,0,0,0,1.876-10.4" transform="translate(-209.813 -117.726)" fill="#fce0e3"/>
                </g>
              </g>
            </g>
            <path id="Path_998336" data-name="Path 998336" d="M160.311,211.458c1.98,6.093,2.582,12.878,3.607,19.2.876,5.4,2.263,11.2,1.841,16.7-.08,1.033-1.677.842-1.6-.189.41-5.33-.985-11.033-1.834-16.264-1-6.154-1.566-12.869-3.492-18.8-.317-.978,1.155-1.628,1.476-.643" transform="translate(-41.575 -55.236)" fill="#fce0e3"/>
            <g id="Group_1190810" data-name="Group 1190810" transform="translate(117.216 155.733)" style="mix-blend-mode: multiply;isolation: isolate">
              <g id="Group_1190809" data-name="Group 1190809">
                <g id="Group_1190808" data-name="Group 1190808" clip-path="url(#clip-path-9)">
                  <path id="Path_998337" data-name="Path 998337" d="M160.311,211.458c1.98,6.093,2.582,12.878,3.607,19.2.876,5.4,2.263,11.2,1.841,16.7-.08,1.033-1.677.842-1.6-.189.41-5.33-.985-11.033-1.834-16.264-1-6.154-1.566-12.869-3.492-18.8-.317-.978,1.155-1.628,1.476-.643" transform="translate(-158.791 -210.969)" fill="#fce0e3"/>
                </g>
              </g>
            </g>
            <path id="Path_998338" data-name="Path 998338" d="M146.214,206.148a6.3,6.3,0,0,1,8.636,2.088c.012-.2.091-.151.189-.234l.063-.532c1.643-1.28,6.286-.925,8.389-.233a10.146,10.146,0,0,1,6.221,7.986,6.165,6.165,0,0,1-1.473,4.742c-.579-1.846-.669-3.76-2.265-5.138-.874-.756-5.135-1.858-4.575.466.162.672,1.767,1.916,2.139,2.766a7.614,7.614,0,0,1,.621,2.934c.027.765.173,2.121-.348,2.77-.568.709-2.06.815-2.842,1.315-.269-1.518.249-3.16-.1-4.735-.359-1.631-1.045-3.695-2.387-4.765-.357,1.08-1.127,1.944-1.467,3.061a21.687,21.687,0,0,0-.664,4.484c-.07.878.331,2.26.159,3.014-.22.962-1.817,2.024-2.466,2.783-1.028-1.431-.754-3.582-1.676-5.125-4.63,2.226.391,10.163-4.486,12.8,1.588-3.314-1.835-5.522-2.947-8.256-1.359-3.341,1.2-5.773,3.089-8.214-1.307-.678-2.962.047-3.993.96s-.862,1.721-1.443,2.79c-.877-3.5-2.278-8.79,2.722-9.3,1.057-.108,2.185.476,2.648-.418a1.69,1.69,0,0,0-.923-2.21c-2.212-1.225-4.867.106-6.085,2.021.083-2.723,2.989-6.551,5.26-7.82" transform="translate(-36.905 -53.739)" fill="#fce0e3"/>
            <g id="Group_1190813" data-name="Group 1190813" transform="translate(104.049 151.512)" style="mix-blend-mode: multiply;isolation: isolate">
              <g id="Group_1190812" data-name="Group 1190812">
                <g id="Group_1190811" data-name="Group 1190811" clip-path="url(#clip-path-10)">
                  <path id="Path_998339" data-name="Path 998339" d="M146.214,206.148a6.3,6.3,0,0,1,8.636,2.088c.012-.2.091-.151.189-.234l.063-.532c1.643-1.28,6.286-.925,8.389-.233a10.146,10.146,0,0,1,6.221,7.986,6.165,6.165,0,0,1-1.473,4.742c-.579-1.846-.669-3.76-2.265-5.138-.874-.756-5.135-1.858-4.575.466.162.672,1.767,1.916,2.139,2.766a7.614,7.614,0,0,1,.621,2.934c.027.765.173,2.121-.348,2.77-.568.709-2.06.815-2.842,1.315-.269-1.518.249-3.16-.1-4.735-.359-1.631-1.045-3.695-2.387-4.765-.357,1.08-1.127,1.944-1.467,3.061a21.687,21.687,0,0,0-.664,4.484c-.07.878.331,2.26.159,3.014-.22.962-1.817,2.024-2.466,2.783-1.028-1.431-.754-3.582-1.676-5.125-4.63,2.226.391,10.163-4.486,12.8,1.588-3.314-1.835-5.522-2.947-8.256-1.359-3.341,1.2-5.773,3.089-8.214-1.307-.678-2.962.047-3.993.96s-.862,1.721-1.443,2.79c-.877-3.5-2.278-8.79,2.722-9.3,1.057-.108,2.185.476,2.648-.418a1.69,1.69,0,0,0-.923-2.21c-2.212-1.225-4.867.106-6.085,2.021.083-2.723,2.989-6.551,5.26-7.82" transform="translate(-140.954 -205.251)" fill="#fce0e3"/>
                </g>
              </g>
            </g>
            <path id="Path_998340" data-name="Path 998340" d="M208.8,197.986a9.619,9.619,0,0,0,.8,4.62c.7,1.377,1.342,3.341,2.546,4.373.366-1.391.007-3.018.23-4.489.124-.822.179-1.479,1.084-1.638a1.526,1.526,0,0,1,1.641.875c.395,1.016-.315,2.689-.639,3.616-.658,1.886-.24,2.908,1.55,3.785a12.968,12.968,0,0,0,4.2,1.371,6.774,6.774,0,0,1-.926-4.2c.077-.823.706-3.3,1.921-2.855,1,.371.423,2.68.606,3.526.584,2.686,3.469,4.128,6,4.3a8.575,8.575,0,0,0,.117-4.232c-.195-.715-2.04-3.117-.637-3.506.9-.249,1.955,2.152,2.771,4.461A10.624,10.624,0,0,0,235.2,213.9l3.784,1.952s.69-4.546.8-5.327c.377-2.773.8-4.6-1.871-6.045-.9-.488-4-1.448-3.762-2.866.249-1.512,2.6-.345,3.275.155.887.658,1.966,3.335,2.924,1.74,1.638-2.726-1.265-5.735-3.248-7.225-1.953-1.466-4.356-2.112-6.62-2.952a3.418,3.418,0,0,1-.966-.48c-1.057-.843-.461-2.612.7-3.018a2.531,2.531,0,0,1,2.2.361c1.157.778,2.674,4.426,4.413,3.96,1.1-.3.45-2.481.245-3.217-.851-3.062-4.213-5-6.851-6.412-2.378-1.272-4.72-2.072-7.4-1.351-2.064.555-4.929,3.049-4.4,5.474a11.407,11.407,0,0,0-3.957,1.113,10.233,10.233,0,0,0-5.66,8.223m28.274-7.047c-.851-3.062-4.213-5-6.851-6.412m-10.876,4.107.142-.011.492.058c-.213-.026-.424-.039-.634-.047" transform="translate(-54.662 -47.888)" fill="#fce0e3"/>
            <g id="Group_1190816" data-name="Group 1190816" transform="translate(154.116 135.016)" style="mix-blend-mode: multiply;isolation: isolate">
              <g id="Group_1190815" data-name="Group 1190815">
                <g id="Group_1190814" data-name="Group 1190814" clip-path="url(#clip-path-11)">
                  <path id="Path_998341" data-name="Path 998341" d="M208.8,197.986a9.619,9.619,0,0,0,.8,4.62c.7,1.377,1.342,3.341,2.546,4.373.366-1.391.007-3.018.23-4.489.124-.822.179-1.479,1.084-1.638a1.526,1.526,0,0,1,1.641.875c.395,1.016-.315,2.689-.639,3.616-.658,1.886-.24,2.908,1.55,3.785a12.968,12.968,0,0,0,4.2,1.371,6.774,6.774,0,0,1-.926-4.2c.077-.823.706-3.3,1.921-2.855,1,.371.423,2.68.606,3.526.584,2.686,3.469,4.128,6,4.3a8.575,8.575,0,0,0,.117-4.232c-.195-.715-2.04-3.117-.637-3.506.9-.249,1.955,2.152,2.771,4.461A10.624,10.624,0,0,0,235.2,213.9l3.784,1.952s.69-4.546.8-5.327c.377-2.773.8-4.6-1.871-6.045-.9-.488-4-1.448-3.762-2.866.249-1.512,2.6-.345,3.275.155.887.658,1.966,3.335,2.924,1.74,1.638-2.726-1.265-5.735-3.248-7.225-1.953-1.466-4.356-2.112-6.62-2.952a3.418,3.418,0,0,1-.966-.48c-1.057-.843-.461-2.612.7-3.018a2.531,2.531,0,0,1,2.2.361c1.157.778,2.674,4.426,4.413,3.96,1.1-.3.45-2.481.245-3.217-.851-3.062-4.213-5-6.851-6.412-2.378-1.272-4.72-2.072-7.4-1.351-2.064.555-4.929,3.049-4.4,5.474a11.407,11.407,0,0,0-3.957,1.113,10.233,10.233,0,0,0-5.66,8.223m28.274-7.047c-.851-3.062-4.213-5-6.851-6.412m-10.876,4.107.142-.011.492.058c-.213-.026-.424-.039-.634-.047" transform="translate(-208.778 -182.904)" fill="#fce0e3"/>
                </g>
              </g>
            </g>
            <path id="Path_998342" data-name="Path 998342" d="M217.469,195.143c-4.851-5.691-11.589-3.677-16.791.177a32.254,32.254,0,0,0-10.8,13.718,63.092,63.092,0,0,0-4.781,16.309,61.65,61.65,0,0,0-.64,8.111,40.093,40.093,0,0,1-.125,4.458,9.407,9.407,0,0,0-.227,3.489c.183.787-1.058.97-1.24.189a8.084,8.084,0,0,1,.113-3.135,39.041,39.041,0,0,0,.234-5.149,60.55,60.55,0,0,1,1.087-10.8,61.223,61.223,0,0,1,6.91-18.868c4.911-8.5,18.567-19.45,27.242-9.272.525.616-.461,1.391-.985.777" transform="translate(-47.848 -49.816)" fill="#fce0e3"/>
            <g id="Group_1190819" data-name="Group 1190819" transform="translate(134.902 140.451)" style="mix-blend-mode: multiply;isolation: isolate">
              <g id="Group_1190818" data-name="Group 1190818">
                <g id="Group_1190817" data-name="Group 1190817" clip-path="url(#clip-path-12)">
                  <path id="Path_998343" data-name="Path 998343" d="M217.469,195.143c-4.851-5.691-11.589-3.677-16.791.177a32.254,32.254,0,0,0-10.8,13.718,63.092,63.092,0,0,0-4.781,16.309,61.65,61.65,0,0,0-.64,8.111,40.093,40.093,0,0,1-.125,4.458,9.407,9.407,0,0,0-.227,3.489c.183.787-1.058.97-1.24.189a8.084,8.084,0,0,1,.113-3.135,39.041,39.041,0,0,0,.234-5.149,60.55,60.55,0,0,1,1.087-10.8,61.223,61.223,0,0,1,6.91-18.868c4.911-8.5,18.567-19.45,27.242-9.272.525.616-.461,1.391-.985.777" transform="translate(-182.75 -190.266)" fill="#fce0e3"/>
                </g>
              </g>
            </g>
            <g id="Group_1190822" data-name="Group 1190822" transform="translate(156.32 137.792)" opacity="0.49" style="mix-blend-mode: multiply;isolation: isolate">
              <g id="Group_1190821" data-name="Group 1190821">
                <g id="Group_1190820" data-name="Group 1190820" clip-path="url(#clip-path-13)">
                  <path id="Path_998344" data-name="Path 998344" d="M220.065,190.249c-.241-.111-.478-.227-.723-.331a.113.113,0,0,1,.086-.21c.726.308,1.428.656,2.118,1.028,1.093-2.741,4.942-3.528,7.5-4.067.143-.03.176.194.035.224-2.461.519-6.287,1.3-7.338,3.951a25.075,25.075,0,0,1,2.8,1.778,5.923,5.923,0,0,1,4.6-3.2c.145-.017.179.207.034.224a5.7,5.7,0,0,0-4.445,3.111,23.532,23.532,0,0,1,4.407,4.306c.506-.88,5.753,1.5,6.28,1.8.126.072-.012.252-.137.181a16.348,16.348,0,0,0-2.756-1.27c-.151-.052-3.209-.941-3.2-.525a.022.022,0,0,1-.005.012s0,.007,0,.011l0,.013c.089.115.183.223.269.34a51.5,51.5,0,0,1,4.346,7.393.1.1,0,0,1,.083.115c0,.013,0,.026-.005.038l.058.117a10.345,10.345,0,0,1,3.653,4.975c.047.137-.16.229-.208.091a10.125,10.125,0,0,0-3.208-4.588c.873,1.757,1.72,3.522,2.6,5.231.067.13-.141.22-.208.091-.931-1.8-1.824-3.66-2.749-5.5a16.13,16.13,0,0,0,.464,6.758c.041.14-.185.173-.224.035a16.211,16.211,0,0,1-.419-7.148,59.181,59.181,0,0,0-3.912-6.829c-.192-.28-.392-.554-.595-.823a18.672,18.672,0,0,0-.087,6.514.113.113,0,0,1-.224.034,18.78,18.78,0,0,1,.014-6.182,11.775,11.775,0,0,0-3.387,8.747c.005.145-.219.18-.224.035a12.037,12.037,0,0,1,3.662-9.157.114.114,0,0,1,.02-.013c.013-.073.025-.146.04-.219a23.422,23.422,0,0,0-4.6-4.486,45.307,45.307,0,0,0-4.211,11.107c-.033.14-.258.115-.225-.027a45.587,45.587,0,0,1,4.25-11.211,24.723,24.723,0,0,0-2.629-1.657v0a.1.1,0,0,1-.139.061c0,.012.005.021,0,.034a30.764,30.764,0,0,0-2.668,9.589.113.113,0,0,1-.225-.027,30.873,30.873,0,0,1,2.683-9.648.111.111,0,0,1,.143-.057c0-.013-.008-.024,0-.038s.009-.018.012-.028c-.393-.211-.789-.415-1.194-.606a.109.109,0,0,1-.061.088,17.159,17.159,0,0,0-8.224,9.355c-.051.137-.261.052-.21-.086a17.392,17.392,0,0,1,8.294-9.449" transform="translate(-211.764 -186.665)" fill="#fce0e3"/>
                </g>
              </g>
            </g>
            <g id="Group_1190825" data-name="Group 1190825" transform="translate(105.58 163.876)" opacity="0.49" style="mix-blend-mode: multiply;isolation: isolate">
              <g id="Group_1190824" data-name="Group 1190824">
                <g id="Group_1190823" data-name="Group 1190823" clip-path="url(#clip-path-14)">
                  <path id="Path_998345" data-name="Path 998345" d="M143.1,223.373a10.04,10.04,0,0,1,7.408-1.1c.18.042.148.331-.034.289a9.8,9.8,0,0,0-7.258,1.076c-.162.094-.277-.174-.117-.266" transform="translate(-143.027 -222)" fill="#fce0e3"/>
                </g>
              </g>
            </g>
            <g id="Group_1190828" data-name="Group 1190828" transform="translate(110.573 153.003)" opacity="0.49" style="mix-blend-mode: multiply;isolation: isolate">
              <g id="Group_1190827" data-name="Group 1190827">
                <g id="Group_1190826" data-name="Group 1190826" clip-path="url(#clip-path-15)">
                  <path id="Path_998346" data-name="Path 998346" d="M150.093,210.437a6.45,6.45,0,0,1,2.872-.529,6.132,6.132,0,0,1,1.357.226,12.949,12.949,0,0,0,1.511.578l.058-.034a.117.117,0,0,1,.168.047,1.046,1.046,0,0,0,.136-.007.122.122,0,0,1,.08.019c.06-.125.115-.249.174-.374l0,0c-.766-.856-3.644-3.7-4.958-2.55-.141.123-.32-.106-.18-.229.753-.661,1.738-.125,2.491.285a10.73,10.73,0,0,1,2.782,2.217c.151-.32.3-.64.447-.957.078-.17.348-.061.269.11-.159.353-.332.71-.5,1.066a.139.139,0,0,1,.173-.072c1.311.461,2.945-.063,4.33.255a7.767,7.767,0,0,1,2.923,1.4.146.146,0,0,1-.175.233,7.281,7.281,0,0,0-3.935-1.513c-1.135-.073-2.163.277-3.253-.106a.126.126,0,0,1-.078-.165c-.147.312-.288.622-.439.937a10.085,10.085,0,0,1,5.3,3.551.146.146,0,0,1-.229.18,9.827,9.827,0,0,0-5.2-3.467c-.206.424-.418.858-.627,1.286a.116.116,0,0,1,.02.061c-.018.207-.024.413-.038.62a.127.127,0,0,1,.179.03,11.1,11.1,0,0,1,1.712,3.407c.054.177-.213.3-.267.116a10.875,10.875,0,0,0-1.639-3.292,24.793,24.793,0,0,0,.2,4.758.146.146,0,0,1-.288.044,25.093,25.093,0,0,1-.18-5.117c-.631,1.289-1.265,2.588-1.868,3.908a.14.14,0,0,1,.109.077,52.229,52.229,0,0,1,2.736,6.21c.064.175-.2.292-.266.116a52.238,52.238,0,0,0-2.7-6.134,33.221,33.221,0,0,0-3.216,10.817c-.015.187-.3.152-.289-.035.436-5.365,2.981-10.492,5.395-15.418a13.085,13.085,0,0,0-3.573,2.061c-.145.119-.326-.11-.18-.228a13.271,13.271,0,0,1,3.781-2.159.133.133,0,0,1,.125.014q.41-.836.808-1.664a1.417,1.417,0,0,1-.25,0l-3.257,1.859c-.163.092-.278-.175-.117-.267l2.94-1.678c-.531-.161-1.054-.487-1.584-.6a6.057,6.057,0,0,0-3.669.383.146.146,0,0,1-.117-.266" transform="translate(-149.791 -207.27)" fill="#fce0e3"/>
                </g>
              </g>
            </g>
            <g id="Group_1190831" data-name="Group 1190831" transform="translate(162.214 89.032)" opacity="0.49" style="mix-blend-mode: multiply;isolation: isolate">
              <g id="Group_1190830" data-name="Group 1190830">
                <g id="Group_1190829" data-name="Group 1190829" clip-path="url(#clip-path-16)">
                  <path id="Path_998347" data-name="Path 998347" d="M224.3,121.422a11.327,11.327,0,0,0-2.64-.523c-.187-.013-.152-.3.034-.289a14.432,14.432,0,0,1,5.787,1.835.135.135,0,0,1,.228.12,39.9,39.9,0,0,1,6.83,5.04c.075-.137.306-.038.252.129-.007.024-.014.049-.021.074l.6.533a20.948,20.948,0,0,1,4.829,6.1.13.13,0,0,1,.061.123v0a14.387,14.387,0,0,1,1.5,5.822.142.142,0,0,1-.049.116,11.812,11.812,0,0,1,1.637,7.705.146.146,0,0,1-.289-.034,11.475,11.475,0,0,0-1.389-7.16l.948,7.066a.145.145,0,0,1-.287.044q-.478-3.568-.957-7.134a.143.143,0,0,1,.2-.147c-.059-.1-.109-.2-.171-.3a.158.158,0,0,1,.064-.221,14.087,14.087,0,0,0-1.242-5.135,40.413,40.413,0,0,0,.156,7.159c.021.186-.267.23-.288.044a40.846,40.846,0,0,1-.129-7.746,16.813,16.813,0,0,0-.936-1.632q-.269,2.037-.54,4.076a.145.145,0,0,1-.289-.035q.292-2.207.584-4.414a22.041,22.041,0,0,0-2.911-3.416,47.965,47.965,0,0,0-.6,6.124c-.006.187-.3.152-.289-.035a47.966,47.966,0,0,1,.608-6.182.131.131,0,0,1,.086-.1c-.325-.309-.663-.605-1-.9a35.467,35.467,0,0,0-1.572,12.2c.008.185-.28.23-.288.044a36,36,0,0,1,1.622-12.46c-.4-.34-.819-.69-1.245-1.043a20.872,20.872,0,0,0-.67,4.237c-.01.187-.3.152-.289-.035a21.3,21.3,0,0,1,.712-4.406,37.781,37.781,0,0,0-5.358-3.807A26.1,26.1,0,0,0,225,133.753c0,.188-.292.152-.289-.034a26.14,26.14,0,0,1,2.612-11c-.383-.209-.771-.4-1.163-.582a43.381,43.381,0,0,1-1.772,4.721c-.076.171-.346.062-.27-.109a43.165,43.165,0,0,0,1.776-4.734c-.4-.175-.8-.328-1.2-.468a.117.117,0,0,1-.114.13c-2.884.195-4.153,2.9-4.547,5.427-.03.185-.318.151-.289-.034.4-2.574,1.716-5.312,4.549-5.65" transform="translate(-219.748 -120.61)" fill="#fce0e3"/>
                </g>
              </g>
            </g>
            <g id="Group_1190834" data-name="Group 1190834" transform="translate(171.24 92.343)" opacity="0.49" style="mix-blend-mode: multiply;isolation: isolate">
              <g id="Group_1190833" data-name="Group 1190833">
                <g id="Group_1190832" data-name="Group 1190832" clip-path="url(#clip-path-17)">
                  <path id="Path_998348" data-name="Path 998348" d="M232.236,125.216c.042-.18.331-.148.289.034a9.358,9.358,0,0,0,.121,4.829c.052.178-.215.3-.267.117a9.641,9.641,0,0,1-.143-4.98" transform="translate(-231.976 -125.096)" fill="#fce0e3"/>
                </g>
              </g>
            </g>
            <g id="Group_1190837" data-name="Group 1190837" transform="translate(160.536 89.519)" opacity="0.49" style="mix-blend-mode: multiply;isolation: isolate">
              <g id="Group_1190836" data-name="Group 1190836">
                <g id="Group_1190835" data-name="Group 1190835" clip-path="url(#clip-path-18)">
                  <path id="Path_998349" data-name="Path 998349" d="M222.265,121.279c.176-.059.294.207.117.266a6.758,6.758,0,0,0-4.617,5.908c-.015.187-.3.152-.289-.035a7.038,7.038,0,0,1,4.789-6.14" transform="translate(-217.475 -121.27)" fill="#fce0e3"/>
                </g>
              </g>
            </g>
            <path id="Path_998350" data-name="Path 998350" d="M162.355,162.781a15.013,15.013,0,0,1,4.867-.113c-1.143-2.711-6.523-1.806-8.4-.616a50.374,50.374,0,0,0,4.533-4.416c1.547-1.8,2.348-3.1,4.839-3.511a9.459,9.459,0,0,1,5.56.794c2.174.983,2.949,3.182,3.328,5.42l.024-1.347c.5.094,1.527-1,2.186-1.293a8.271,8.271,0,0,1,2.773-.678,15.454,15.454,0,0,1,6.358.712c4.635,1.8,6.227,7.27,5.127,11.716a17.137,17.137,0,0,1-3.966,7c-.163-1.7.407-3.329-.039-5.04-.289-1.108-3.138-5.608-4.428-3.158-.379.718.774,1.456,1.129,2.223a12.051,12.051,0,0,1,.673,2.584,15.427,15.427,0,0,1,.145,5.618c-.5,2.618-2.9,3.412-4.984,4.636.123-1.9.926-3.772.382-5.719-.484-1.73-2.093-4-4-2.372,1.968,1.49,1.95,5.229,1.383,7.457-.723,2.838-3.433,3.42-5.905,4.358.715-2.074,2.189-6.542-.664-7.583-2.639-.963-4.225,4.573-4,6.6-2.34.593-3.354,2.181-5.11,3.639-2.057-1.967-4.879-7.229-4.173-10.179.783-3.269,4.067-5.593,5.939-8.216-2.921-3.473-6.537,2.72-7.825,4.754.272-3.308-.065-6.531.334-9.891.3-2.515,1.492-2.834,3.918-3.378" transform="translate(-41.395 -40.32)" fill="#fce0e3"/>
            <g id="Group_1190840" data-name="Group 1190840" transform="translate(116.709 113.679)" style="mix-blend-mode: multiply;isolation: isolate">
              <g id="Group_1190839" data-name="Group 1190839">
                <g id="Group_1190838" data-name="Group 1190838" clip-path="url(#clip-path-19)">
                  <path id="Path_998351" data-name="Path 998351" d="M162.355,162.781a15.013,15.013,0,0,1,4.867-.113c-1.143-2.711-6.523-1.806-8.4-.616a50.374,50.374,0,0,0,4.533-4.416c1.547-1.8,2.348-3.1,4.839-3.511a9.459,9.459,0,0,1,5.56.794c2.174.983,2.949,3.182,3.328,5.42l.024-1.347c.5.094,1.527-1,2.186-1.293a8.271,8.271,0,0,1,2.773-.678,15.454,15.454,0,0,1,6.358.712c4.635,1.8,6.227,7.27,5.127,11.716a17.137,17.137,0,0,1-3.966,7c-.163-1.7.407-3.329-.039-5.04-.289-1.108-3.138-5.608-4.428-3.158-.379.718.774,1.456,1.129,2.223a12.051,12.051,0,0,1,.673,2.584,15.427,15.427,0,0,1,.145,5.618c-.5,2.618-2.9,3.412-4.984,4.636.123-1.9.926-3.772.382-5.719-.484-1.73-2.093-4-4-2.372,1.968,1.49,1.95,5.229,1.383,7.457-.723,2.838-3.433,3.42-5.905,4.358.715-2.074,2.189-6.542-.664-7.583-2.639-.963-4.225,4.573-4,6.6-2.34.593-3.354,2.181-5.11,3.639-2.057-1.967-4.879-7.229-4.173-10.179.783-3.269,4.067-5.593,5.939-8.216-2.921-3.473-6.537,2.72-7.825,4.754.272-3.308-.065-6.531.334-9.891.3-2.515,1.492-2.834,3.918-3.378" transform="translate(-158.104 -153.999)" fill="#fce0e3"/>
                </g>
              </g>
            </g>
            <g id="Group_1190843" data-name="Group 1190843" transform="translate(121.618 118.744)" opacity="0.49" style="mix-blend-mode: multiply;isolation: isolate">
              <g id="Group_1190842" data-name="Group 1190842">
                <g id="Group_1190841" data-name="Group 1190841" clip-path="url(#clip-path-20)">
                  <path id="Path_998352" data-name="Path 998352" d="M164.784,180.364a30.861,30.861,0,0,1,6.286-6.241c.94-1.358,1.865-2.722,2.756-4.1l-4.507,1.638c-.176.063-.292-.2-.117-.267l4.1-1.49-6.619-1.011c-.185-.028-.151-.317.034-.289l7.3,1.115c.441-.687.866-1.383,1.291-2.08l-5.006-1.163c-.181-.041-.148-.331.034-.289l5.134,1.193c.633-1.046,1.255-2.1,1.854-3.172a14.215,14.215,0,0,0-8.554-3.057c-.187,0-.152-.294.034-.289a14.493,14.493,0,0,1,8.664,3.091c.029-.052.056-.106.085-.159a.141.141,0,0,1,.1-.192c.392-.713.782-1.428,1.155-2.158.084-.165.354-.058.269.11q-.559,1.094-1.144,2.175l.055.037c3.947-.922,9.7-.24,11.944,3.427.1.159-.131.34-.229.181-2.1-3.428-7.555-4.171-11.377-3.386a31.653,31.653,0,0,1,5.455,4.419c.131.133-.1.312-.229.18a31.277,31.277,0,0,0-5.62-4.511c-.072.018-.148.032-.219.05-.6,1.1-1.228,2.195-1.869,3.276a43.778,43.778,0,0,1,1.611,7.1.146.146,0,0,1-.288.044,43.229,43.229,0,0,0-1.527-6.81c-.436.727-.871,1.455-1.327,2.17a.134.134,0,0,1-.072.109c-.5.778-1,1.552-1.524,2.315-.359.526-.734,1.05-1.113,1.576a.125.125,0,0,1,.072.049.124.124,0,0,1,.1.031,37.921,37.921,0,0,1,5.627,5.9c.114.149-.114.329-.229.18a37.543,37.543,0,0,0-5.507-5.786,60.505,60.505,0,0,0-.655,6.529c-.009.188-.3.152-.289-.034a60.334,60.334,0,0,1,.656-6.521l-.052.039c-2.605,3.605-5.277,7.307-4.451,12.027a.145.145,0,0,1-.287.044c-.73-4.169,1.233-7.616,3.559-10.913.13-.184.254-.369.383-.553a30.629,30.629,0,0,0-5.522,5.646.146.146,0,0,1-.232-.176" transform="translate(-164.754 -160.86)" fill="#fce0e3"/>
                </g>
              </g>
            </g>
            <g id="Group_1190846" data-name="Group 1190846" transform="translate(132.759 125.231)" opacity="0.49" style="mix-blend-mode: multiply;isolation: isolate">
              <g id="Group_1190845" data-name="Group 1190845">
                <g id="Group_1190844" data-name="Group 1190844" clip-path="url(#clip-path-21)">
                  <path id="Path_998353" data-name="Path 998353" d="M180.044,169.66a13.1,13.1,0,0,1,6.686,5.86c.092.163-.176.278-.267.116a12.8,12.8,0,0,0-6.529-5.706.146.146,0,0,1,.11-.269" transform="translate(-179.847 -169.649)" fill="#fce0e3"/>
                </g>
              </g>
            </g>
            <path id="Path_998354" data-name="Path 998354" d="M188.135,250.033l-1.02,5.126-2.874,43.218a2.981,2.981,0,0,1-3.019,2.167H157.869a3,3,0,0,1-3.052-2.234l-3.1-41.73-1.121-6.548Z" transform="translate(-39.43 -65.464)" fill="#f46b75"/>
            <g id="Group_1190849" data-name="Group 1190849" transform="translate(111.169 184.569)" opacity="0.48" style="mix-blend-mode: multiply;isolation: isolate">
              <g id="Group_1190848" data-name="Group 1190848">
                <g id="Group_1190847" data-name="Group 1190847" clip-path="url(#clip-path-22)">
                  <path id="Path_998355" data-name="Path 998355" d="M153.206,276.607c1.7-.5,3.4-.968,5.086-1.519,2.172-.712,4.323-1.5,6.418-2.421a51.47,51.47,0,0,0,10.865-6.514,50.53,50.53,0,0,0,8.294-7.82,21.476,21.476,0,0,0,4-6.988l.261-1.313H150.6l1.121,6.548Z" transform="translate(-150.599 -250.033)" fill="#f46b75"/>
                </g>
              </g>
            </g>
            <path id="Path_998356" data-name="Path 998356" d="M152.772,256.038h30.935a5.118,5.118,0,0,0,4.835-2.917l1.793-4.888c.345-.94-.423-1.81-1.608-1.81H147.5c-1.217,0-1.986.914-1.585,1.871L148,253.263a5.168,5.168,0,0,0,4.775,2.775" transform="translate(-38.176 -64.519)" fill="#f46b75"/>
            <path id="Path_998357" data-name="Path 998357" d="M96.939,220.263l61.7-7.591c1.94-.238,3.64,1.6,3.676,3.976.034,2.235-1.425,4.07-3.261,4.1l-7.907.121,5.722,68.051a1.693,1.693,0,0,1-1.687,1.841H150.1a1.693,1.693,0,0,1-1.691-1.611l-3.118-66.889-26.465.729-1.81,66.126a1.693,1.693,0,0,1-1.693,1.645h-2.746a1.664,1.664,0,0,1-1.662-1.725l2.306-65.309-16.087.244A1.782,1.782,0,0,1,95.6,221.8a1.68,1.68,0,0,1,1.343-1.538" transform="translate(-25.024 -55.676)" fill="#47333c"/>
            <path id="Path_998358" data-name="Path 998358" d="M140.449,214.243l-38.983.593L86.7,154.538c-1.2-4.891-4.708-8.2-8.632-8.141l-46.8.712,18.914,77.233,41.655-.635c.159,4.154,3,7.446,6.433,7.394l42.423-.646c3.5-.053,6.275-3.546,6.211-7.8l-.013-.8c-.065-4.256-2.951-7.663-6.445-7.61" transform="translate(-8.187 -38.329)" fill="#5e85ff"/>
            <path id="Path_998359" data-name="Path 998359" d="M49.4,212.043l-14.358-59.4c-.763-3.158-3.162-5.318-5.86-5.277-3.686.056-6.428,4.114-5.791,8.541,3.763,26.166,9.492,50.428,17.731,72.258a6.07,6.07,0,0,0,5.555,4.273l1.741-.027,5.883-.089,37.857-.577c3.31-.05,5.943-3.359,5.882-7.39l-.006-.382c-.061-4.03-2.794-7.257-6.1-7.207l-36.668.558c-2.7.041-5.1-2.119-5.86-5.276" transform="translate(-6.1 -38.582)" fill="#5e85ff"/>
            <g id="Group_1190852" data-name="Group 1190852" transform="translate(17.2 108.779)" style="mix-blend-mode: multiply;isolation: isolate">
              <g id="Group_1190851" data-name="Group 1190851">
                <g id="Group_1190850" data-name="Group 1190850" clip-path="url(#clip-path-23)">
                  <path id="Path_998360" data-name="Path 998360" d="M49.4,212.043l-14.358-59.4c-.763-3.158-3.162-5.318-5.86-5.277-3.686.056-6.428,4.114-5.791,8.541,3.763,26.166,9.492,50.428,17.731,72.258a6.07,6.07,0,0,0,5.555,4.273l1.741-.027,5.883-.089,37.857-.577c3.31-.05,5.943-3.359,5.882-7.39l-.006-.382c-.061-4.03-2.794-7.257-6.1-7.207l-36.668.558c-2.7.041-5.1-2.119-5.86-5.276" transform="translate(-23.3 -147.361)" fill="#5e85ff"/>
                </g>
              </g>
            </g>
            <path id="Path_998361" data-name="Path 998361" d="M91.48,145.914a2.677,2.677,0,0,1-2.771-.194,5.708,5.708,0,0,1-1.828-2.246c-2.226-4.321-2-9.477-1.259-14.282s1.936-9.626,1.463-14.464-3.074-9.86-7.648-11.5l-17.652,8.834c.691,5.777,1.481,10.236-1.7,15.107-2.056,3.149-5.416,5.218-7.743,8.174a16,16,0,0,0-.713,18.283,9.671,9.671,0,0,1,.224-5.6,11.092,11.092,0,0,0,4.084,9.28c2.429,1.935,5.836,3.017,7.039,5.88a5.022,5.022,0,0,1-4.767,6.967c6.58,2.841,14.684.475,19.658-4.685s7.077-12.608,6.9-19.774a5.012,5.012,0,0,0,6.715.221" transform="translate(-12.856 -27.026)" fill="#47333c"/>
            <path id="Path_998362" data-name="Path 998362" d="M143.18,185.154s12.339-5.176,15.795,2.218c.4.9-.909,1.183-3.241-1.221l-2.519-.419s4.419,2.638,4.851,3.769c.22.574-.612,1.752-5.525-2.447,0,0,2.615,2.37,3.053,3.935a.666.666,0,0,1-1.133.628l-3.255-3.578,2.2,3.94a.7.7,0,0,1-.134.875c-.43.354-1.391.19-3.4-3.5-.013.013-.021.032-.038.037-2.356.741-4.381,1.039-6.658-.123l-.425-.392Z" transform="translate(-37.374 -48.016)" fill="#f8b58e"/>
            <path id="Path_998363" data-name="Path 998363" d="M129.277,174.385l-.517,4.394-.027.007-4.227.489-11.352,1.315a6.086,6.086,0,0,1-5.829-2.711.1.1,0,0,1-.027-.047l-1.006-1.61-.732-1.167-10.7-17.189-4.18-8.99L88.508,144.2l-.182-.382.389-.02,3.207-.134a9.135,9.135,0,0,1,5.716,1.651.5.5,0,0,0,.08.047,11.954,11.954,0,0,1,4.005,5.293,106.253,106.253,0,0,0,9.775,18.718c.221.335.442.664.664,1,.41.6.819,1.2,1.235,1.8l15.839,2.214Z" transform="translate(-23.126 -37.612)" fill="#f8b400"/>
            <path id="Path_998364" data-name="Path 998364" d="M99.205,147.761a5.752,5.752,0,0,0-3.933-3.07c.065-.819,1.2-1.346,1.047-2.153a1.4,1.4,0,0,0-.436-.686,12.372,12.372,0,0,0-7.684-3.238l.017.459a4.139,4.139,0,0,0,.109,2.532c.331.661,1.466.9,2.108,1.264,4,2.282,6.792,6.151,9.421,9.927a8.053,8.053,0,0,0-.649-5.036" transform="translate(-23.059 -36.292)" fill="#8d74ff"/>
            <g id="Group_1190855" data-name="Group 1190855" transform="translate(67.553 111.268)" opacity="0.41" style="mix-blend-mode: multiply;isolation: isolate">
              <g id="Group_1190854" data-name="Group 1190854">
                <g id="Group_1190853" data-name="Group 1190853" clip-path="url(#clip-path-24)">
                  <path id="Path_998365" data-name="Path 998365" d="M91.514,150.733l4.181,8.985,10.7,17.189.731,1.169,1.011,1.614a.1.1,0,0,0,.025.044,6.071,6.071,0,0,0,5.827,2.707l11.355-1.315-14.183-1.983c-.413-.591-.826-1.194-1.226-1.8-.229-.33-.451-.661-.667-1a105.875,105.875,0,0,1-9.779-18.72,11.919,11.919,0,0,0-4-5.287.849.849,0,0,1-.076-.051,9.148,9.148,0,0,0-3.9-1.557" transform="translate(-91.514 -150.733)" fill="#f8b400"/>
                </g>
              </g>
            </g>
            <path id="Path_998366" data-name="Path 998366" d="M108.594,195.142c-1.273-4.479-5.3-7.895-6.08-12.486-.57-3.371.728-6.83.29-10.221a10.134,10.134,0,0,0-2.175-5.067L90.88,194.307a9.525,9.525,0,0,0,7.619,2.107c1.375-.228,2.683-.76,4.048-1.045a5.524,5.524,0,0,1,4.055.446,5.064,5.064,0,0,0,.94.563.894.894,0,0,0,1.005-.2,1.184,1.184,0,0,0,.047-1.033" transform="translate(-23.794 -43.821)" fill="#f8b400"/>
            <path id="Path_998367" data-name="Path 998367" d="M190.281,285.727c-.2.637-.993.873-1.658.919l-18.812,1.234c-4.307.282-2.415-5.649-2.415-5.649l-6.743-10.385c-11.485-16.357-20.67-31.122-23.594-41.529L102.2,230.6l-10.01.08c-18.5-2.181-26-6.91-20.133-24.393l22.83-4.589,7.32,3.951,40.052,8.071a13.4,13.4,0,0,1,8.453,6.655l4.938,12.284,15.209,37.832,3.884,9.654s16.45,2.556,15.539,5.582" transform="translate(-18.353 -52.809)" fill="#f699d5"/>
            <g id="Group_1190858" data-name="Group 1190858" transform="translate(51.745 148.889)" opacity="0.45" style="mix-blend-mode: multiply;isolation: isolate">
              <g id="Group_1190857" data-name="Group 1190857">
                <g id="Group_1190856" data-name="Group 1190856" clip-path="url(#clip-path-25)">
                  <path id="Path_998368" data-name="Path 998368" d="M155.649,232.66c-3.536-3.382-16.39-14.115-20.308-13.485A28.678,28.678,0,0,0,129.5,220.3c-2.9.906-5.77,1.959-8.607,3.073-5.6,2.186-11.1,4.6-16.772,6.594-.638.221-1.275.436-1.919.631l-10.01.08c-18.5-2.181-26-6.91-20.133-24.394l22.83-4.589,7.319,3.951,40.052,8.071a13.4,13.4,0,0,1,8.454,6.655Z" transform="translate(-70.098 -201.698)" fill="#f699d5"/>
                </g>
              </g>
            </g>
            <path id="Path_998369" data-name="Path 998369" d="M208.988,307c-2.825,1.073-4.4,1.922-7.259,2.893-.213.732-1.557,5.821,2.443,5.556l18.815-1.233c.661-.044,1.446-.284,1.652-.921,1.124-3.475-11.391-5.611-15.652-6.294" transform="translate(-52.715 -80.379)" fill="#47333c"/>
            <path id="Path_998370" data-name="Path 998370" d="M98.874,224.429,135.1,213.05l33.739,23.081,9.153,6.256s.534,6.211,4.4,4.292l16.89-8.376c.592-.294,1.236-.826,1.17-1.488-.311-3.144-16.487.821-16.487.821l-7.1-6.915-36.111-35.2a13.31,13.31,0,0,0-10.355-2.887l-33.567,9.276L89.8,195.3l-17.676,8.583c-7.766,22.5,11.915,25.745,26.749,20.55" transform="translate(-18.425 -50.399)" fill="#f699d5"/>
            <path id="Path_998371" data-name="Path 998371" d="M238.649,251.8c-.758-4.176-15.16-.827-17.3-.306a19.017,19.017,0,0,0-3.413,3.932c-.568.808-1.12,1.631-1.688,2.442.224,1.431,1.146,5.379,4.34,3.8l16.891-8.376c.592-.294,1.289-.833,1.17-1.488" transform="translate(-56.618 -65.385)" fill="#47333c"/>
            <path id="Path_998372" data-name="Path 998372" d="M92.418,178.616a15.281,15.281,0,0,0-.147,1.929,32.97,32.97,0,0,0,1.8,5.79,3.118,3.118,0,0,1-2.461,4.272,68.564,68.564,0,0,1-8.56.541c-3.861.041-8.021-.081-13.12.029,1.038-4.029,2.288-8.622,2.313-8.793a19.7,19.7,0,0,0,.11-4.981c-.535-4.634-2.215-9.1-3.3-13.689-.237-.964-.445-1.933-.6-2.914a53.8,53.8,0,0,1-.85-7.7,27.726,27.726,0,0,1,.073-2.795,1.577,1.577,0,0,0-.238-.949A3.041,3.041,0,0,1,68.743,145c.892-.4,1.89-.822,2.868-1.174.106-.045.221-.086.331-.123l.012,0c.813-.213,2.636-.666,2.762-.69a10.323,10.323,0,0,0,2.791.184c1.716-.013,3.428-.164,5.128-.119.376.013.748.029,1.12.066a.071.071,0,0,1,.041,0c.359.033,5.46,3.078,7.657,6.61a48.424,48.424,0,0,0,2.967,3.887c1.063,1.405,1.8,2.374,1.8,2.374a8.44,8.44,0,0,1-.5,9.726l-1.843,2.652Z" transform="translate(-17.538 -37.443)" fill="#473db1"/>
            <g id="Group_1190861" data-name="Group 1190861" transform="translate(61.083 123.309)" style="mix-blend-mode: multiply;isolation: isolate">
              <g id="Group_1190860" data-name="Group 1190860">
                <g id="Group_1190859" data-name="Group 1190859" clip-path="url(#clip-path-26)">
                  <path id="Path_998373" data-name="Path 998373" d="M83,175.017a8.876,8.876,0,0,0,7.46-7.772c.038-.344.562-.209.523.132a9.286,9.286,0,0,1-7.971,8.179c-.343.051-.351-.489-.012-.539" transform="translate(-82.748 -167.045)" fill="#473db1"/>
                </g>
              </g>
            </g>
            <path id="Path_998374" data-name="Path 998374" d="M84.561,169.086c-.952,5.971-1.086,17.431-.8,24.149a1.206,1.206,0,0,1-1.274,1.246c-6.171-.268-9.562,5.92-13.07,3.255a2.674,2.674,0,0,1-.956-2.767c1.084-4.421,2.721-11.822,2.743-11.976a19.665,19.665,0,0,0,.11-4.981A122.962,122.962,0,0,0,68.653,164c-.237-.965-.445-1.933-.6-2.914-.417-2.472-2.519-12.607-2.576-15.215l5.743-1.759s5.57,6.5,9.819,11.772a16.768,16.768,0,0,1,3.526,13.2" transform="translate(-17.142 -37.732)" fill="#f8b400"/>
            <g id="Group_1190864" data-name="Group 1190864" transform="translate(50.43 120.796)" opacity="0.41" style="mix-blend-mode: multiply;isolation: isolate">
              <g id="Group_1190863" data-name="Group 1190863">
                <g id="Group_1190862" data-name="Group 1190862" clip-path="url(#clip-path-27)">
                  <path id="Path_998375" data-name="Path 998375" d="M72.2,203.509c.5-2.627,1.022-5.251,1.487-7.885,1.295-7.349,2.176-14.9.621-22.276a26.572,26.572,0,0,0-1.465-4.893,9.263,9.263,0,0,0-2.666-3.42c-.6-.5-1.227-.95-1.862-1.394.213,1.115.385,2.021.476,2.562.159.98.368,1.949.6,2.913a123.109,123.109,0,0,1,2.657,14.009,19.694,19.694,0,0,1-.111,4.98c-.021.154-1.658,7.556-2.742,11.977a2.673,2.673,0,0,0,.955,2.766,3,3,0,0,0,2.045.661" transform="translate(-68.317 -163.64)" fill="#f8b400"/>
                </g>
              </g>
            </g>
            <path id="Path_998376" data-name="Path 998376" d="M73.225,139.949a.055.055,0,0,1,.018.024c2.62,3.127,4.83,6.165,8.361,8.133a6.343,6.343,0,0,0,3.075.911,3.654,3.654,0,0,0,2.87-1.276c2.38-2.984-1.855-8.412-1.855-8.412-.092-.013-.177-.025-.263-.039a.106.106,0,0,0-.042-.006l-.017,0a.979.979,0,0,1-.844-1.013l.188-4.22.246-5.737-4.549-.011-3.379-.008-.312,0-.087,1.614-.247,5.28-.032,3.208a.978.978,0,0,1-.744.94c-.634.157-1.522.381-2.026.513l-.013,0c-.179.052-.311.088-.35.1" transform="translate(-19.172 -33.589)" fill="#f8b58e"/>
            <g id="Group_1190867" data-name="Group 1190867" transform="translate(57.861 94.178)" style="mix-blend-mode: multiply;isolation: isolate">
              <g id="Group_1190866" data-name="Group 1190866">
                <g id="Group_1190865" data-name="Group 1190865" clip-path="url(#clip-path-28)">
                  <path id="Path_998377" data-name="Path 998377" d="M85.939,136.765v.69c-6.78-.264-7.486-7.349-7.552-9.351-.007-.334,0-.523,0-.523l3.379.534,3.836.6.467,5.149Z" transform="translate(-78.383 -127.581)" fill="#f8b58e"/>
                </g>
              </g>
            </g>
            <path id="Path_998378" data-name="Path 998378" d="M89.822,116.405c-.178-1.341-.35-2.674-.43-4.024A11.548,11.548,0,0,0,87,106.876a10.614,10.614,0,0,0-2.631-2.682,10.864,10.864,0,0,0-9.9-.971c-4.292,1.8-4.724,6.142-3.551,10.038-2.756-1.361-2.877,2.159-2.877,2.159a3.242,3.242,0,0,0,3.318,3.5,12.821,12.821,0,0,0,3.3,5.409,17.115,17.115,0,0,0,5.613,3.619,6.957,6.957,0,0,0,8.28-2.866,11.075,11.075,0,0,0,1.428-7.452c-.052-.41-.108-.819-.162-1.228" transform="translate(-17.815 -26.826)" fill="#f8b58e"/>
            <path id="Path_998379" data-name="Path 998379" d="M83.159,121.8c.117.6.544,1.048.954,1s.647-.583.53-1.186-.543-1.048-.954-1-.647.583-.53,1.186" transform="translate(-21.765 -31.577)" fill="#47333c"/>
            <path id="Path_998380" data-name="Path 998380" d="M91.946,121.262c.117.6.543,1.048.954,1s.647-.583.53-1.186-.543-1.049-.954-1-.647.583-.53,1.186" transform="translate(-24.066 -31.437)" fill="#47333c"/>
            <g id="Group_1190870" data-name="Group 1190870" transform="translate(65.583 89.353)" style="mix-blend-mode: multiply;isolation: isolate">
              <g id="Group_1190869" data-name="Group 1190869">
                <g id="Group_1190868" data-name="Group 1190868" clip-path="url(#clip-path-29)">
                  <path id="Path_998381" data-name="Path 998381" d="M91.3,124.707a3.808,3.808,0,0,0-.534-.707,5.394,5.394,0,0,1-.553-.828A5.6,5.6,0,0,1,89.6,121.3a.349.349,0,0,0-.4-.254.32.32,0,0,0-.233.391,6.2,6.2,0,0,0,1.341,3c.272.334.664.689.321,1.092s-.971.335-1.458.3c-.424-.03-.43.628-.007.658a2.476,2.476,0,0,0,1.812-.359,1.172,1.172,0,0,0,.329-1.429" transform="translate(-88.845 -121.045)" fill="#f8b58e"/>
                </g>
              </g>
            </g>
            <path id="Path_998382" data-name="Path 998382" d="M79.218,123.471c-.915-.048-1.828-.136-2.734-.269a.309.309,0,0,0-.368.209.3.3,0,0,0,.209.368c.96.141,1.924.24,2.893.29.385.02.384-.578,0-.6" transform="translate(-19.926 -32.256)" fill="#473db1"/>
            <path id="Path_998383" data-name="Path 998383" d="M91.82,123.489c-.173-.789-1.245-.723-1.858-.676a6.374,6.374,0,0,0-2.223.589.3.3,0,0,0-.107.41.305.305,0,0,0,.409.107,5.541,5.541,0,0,1,1.726-.489,5.806,5.806,0,0,1,.913-.03c.2.01.511.01.563.248.082.376.658.217.577-.159" transform="translate(-22.934 -32.148)" fill="#473db1"/>
            <g id="Group_1190873" data-name="Group 1190873" transform="translate(58.96 89.868)" opacity="0.58">
              <g id="Group_1190872" data-name="Group 1190872">
                <g id="Group_1190871" data-name="Group 1190871" clip-path="url(#clip-path-30)">
                  <path id="Path_998384" data-name="Path 998384" d="M85.859,123.546c0,1-1.34,1.8-2.993,1.8s-2.993-.807-2.993-1.8,1.34-1.8,2.993-1.8,2.993.807,2.993,1.8" transform="translate(-79.872 -121.743)" fill="#fff"/>
                </g>
              </g>
            </g>
            <g id="Group_1190876" data-name="Group 1190876" transform="translate(68.155 89.599)" opacity="0.58">
              <g id="Group_1190875" data-name="Group 1190875">
                <g id="Group_1190874" data-name="Group 1190874" clip-path="url(#clip-path-31)">
                  <path id="Path_998385" data-name="Path 998385" d="M97.213,123.116c0,.96-1.093,1.738-2.442,1.738s-2.442-.778-2.442-1.738,1.093-1.738,2.442-1.738,2.442.778,2.442,1.738" transform="translate(-92.329 -121.378)" fill="#fff"/>
                </g>
              </g>
            </g>
            <path id="Path_998386" data-name="Path 998386" d="M91.856,115.8a.73.73,0,0,1,.426-.071,2.089,2.089,0,0,1,1.8,1.85,1.1,1.1,0,0,0-.241-.362.108.108,0,0,0-.019-.013.916.916,0,0,0-.19-.169,2.037,2.037,0,0,0-.885-.262,3.056,3.056,0,0,1-.911-.2.384.384,0,0,1-.261-.359.547.547,0,0,1,.278-.414" transform="translate(-23.977 -30.299)" fill="#47333c"/>
            <path id="Path_998387" data-name="Path 998387" d="M83.516,115.855a.77.77,0,0,0-.423-.124,1.853,1.853,0,0,0-1.855,1.62.947.947,0,0,1,.251-.331.173.173,0,0,1,.02-.011.835.835,0,0,1,.195-.145,1.927,1.927,0,0,1,.892-.151,2.945,2.945,0,0,0,.915-.085.341.341,0,0,0,.271-.326.618.618,0,0,0-.266-.448" transform="translate(-21.27 -30.3)" fill="#47333c"/>
            <g id="Group_1190879" data-name="Group 1190879" transform="translate(61.119 94.776)" style="mix-blend-mode: multiply;isolation: isolate">
              <g id="Group_1190878" data-name="Group 1190878">
                <g id="Group_1190877" data-name="Group 1190877" clip-path="url(#clip-path-32)">
                  <path id="Path_998388" data-name="Path 998388" d="M83.388,128.5a4.642,4.642,0,0,0,4.081,1.314.332.332,0,0,1,.13.651,5.347,5.347,0,0,1-4.707-1.557c-.3-.31.193-.715.5-.408" transform="translate(-82.797 -128.392)" fill="#f8b58e"/>
                </g>
              </g>
            </g>
            <path id="Path_998389" data-name="Path 998389" d="M128.945,195.057l-34.59,9.328.5,1.746,34.772-9.657Z" transform="translate(-24.704 -51.07)" fill="#fce0e3"/>
            <path id="Path_998390" data-name="Path 998390" d="M127.792,191.861l-32.912,9.29-.526,2.4,34.59-9.328Z" transform="translate(-24.704 -50.233)" fill="#fff"/>
            <path id="Path_998391" data-name="Path 998391" d="M139.266,191.344l1.834,3.776,1.217-.4a.3.3,0,0,0,.183-.405l-1.6-3.746a1.129,1.129,0,0,0-1.409-.623l-.554.193a1.129,1.129,0,0,0-.678,1.486Z" transform="translate(-36.178 -49.716)" fill="#47333c"/>
            <path id="Path_998392" data-name="Path 998392" d="M109.69,194.163l-.039,1.631-1.36-.9-6.933-13.283a.789.789,0,0,1,1.4-.731Z" transform="translate(-26.514 -47.247)" fill="#fce0e3"/>
            <path id="Path_998393" data-name="Path 998393" d="M82.094,180.815,66.12,178.434l-.044-.007-2.113-.2.125-.649,2.045-12.424a55.567,55.567,0,0,0,1.51-8.873c.016-.182.027-.365.041-.548L68.3,152a30.781,30.781,0,0,0-.242-7.887c-1.484-.142-7.534,1.822-8.6,2.681a5.458,5.458,0,0,0-1.958,3.213,2.8,2.8,0,0,0-.057.326l-1.445,10.4L53.5,178.564a7.743,7.743,0,0,0,.045,2.562,7.821,7.821,0,0,0,8.578,6.314s23.548-1.916,23.579-1.91Z" transform="translate(-13.985 -37.73)" fill="#f8b400"/>
            <g id="Group_1190882" data-name="Group 1190882" transform="translate(54.439 141.071)" style="mix-blend-mode: multiply;isolation: isolate">
              <g id="Group_1190881" data-name="Group 1190881">
                <g id="Group_1190880" data-name="Group 1190880" clip-path="url(#clip-path-33)">
                  <path id="Path_998394" data-name="Path 998394" d="M85.512,192.617a68.989,68.989,0,0,0-11.568-1.511c-.263-.012-.262.4,0,.409a68.317,68.317,0,0,1,11.46,1.5c.256.055.365-.338.109-.394" transform="translate(-73.747 -191.106)" fill="#f8b400"/>
                </g>
              </g>
            </g>
            <g id="Group_1190885" data-name="Group 1190885" transform="translate(53.215 148.153)" style="mix-blend-mode: multiply;isolation: isolate">
              <g id="Group_1190884" data-name="Group 1190884">
                <g id="Group_1190883" data-name="Group 1190883" clip-path="url(#clip-path-34)">
                  <path id="Path_998395" data-name="Path 998395" d="M84.964,200.7a123.239,123.239,0,0,0-12.728,1.053c-.259.035-.149.429.109.394a122.165,122.165,0,0,1,12.619-1.039c.262-.007.264-.416,0-.408" transform="translate(-72.089 -200.701)" fill="#f8b400"/>
                </g>
              </g>
            </g>
            <path id="Path_998396" data-name="Path 998396" d="M108.734,196.673l-2.256-4.456a.73.73,0,0,0-.367-.343l-3.907-1.65a2.744,2.744,0,0,0-2.206.031l-5.694,2.6-3.969-.263.008,5.4,5.026-.441a6.191,6.191,0,0,0,1.011-.173l2.855-.74,1.112.791c1.753,1.008,2.121-.7,2.121-.7a1.492,1.492,0,0,0,1.948-1.032,1.3,1.3,0,0,0,1.2-1.31c1.016,1.563,1.969,2.818,2.689,2.936a.441.441,0,0,0,.432-.646" transform="translate(-23.652 -49.748)" fill="#f8b58e"/>
            <g id="Group_1190888" data-name="Group 1190888" transform="translate(77.384 143.222)" opacity="0.47" style="mix-blend-mode: multiply;isolation: isolate">
              <g id="Group_1190887" data-name="Group 1190887">
                <g id="Group_1190886" data-name="Group 1190886" clip-path="url(#clip-path-35)">
                  <path id="Path_998397" data-name="Path 998397" d="M108.344,196.716c-.353-1.579-2.006-2.22-3.368-2.688-.15-.052-.207.188-.058.239,1.281.44,2.857,1.032,3.19,2.52.035.154.27.083.235-.072" transform="translate(-104.831 -194.021)" fill="#f8b58e"/>
                </g>
              </g>
            </g>
            <g id="Group_1190891" data-name="Group 1190891" transform="translate(76.41 145.099)" opacity="0.47" style="mix-blend-mode: multiply;isolation: isolate">
              <g id="Group_1190890" data-name="Group 1190890">
                <g id="Group_1190889" data-name="Group 1190889" clip-path="url(#clip-path-36)">
                  <path id="Path_998398" data-name="Path 998398" d="M106.057,198.48a3.2,3.2,0,0,0-2.395-1.915c-.156-.027-.214.213-.058.239a2.955,2.955,0,0,1,2.217,1.747c.06.145.3.076.235-.071" transform="translate(-103.512 -196.563)" fill="#f8b58e"/>
                </g>
              </g>
            </g>
            <g id="Group_1190894" data-name="Group 1190894" transform="translate(78.838 142.094)" opacity="0.47" style="mix-blend-mode: multiply;isolation: isolate">
              <g id="Group_1190893" data-name="Group 1190893">
                <g id="Group_1190892" data-name="Group 1190892" clip-path="url(#clip-path-37)">
                  <path id="Path_998399" data-name="Path 998399" d="M110.023,195.072a1.777,1.777,0,0,0-1.007-1.434c-.66-.4-1.357-.756-2.034-1.129a.123.123,0,0,0-.119.216c.616.34,1.237.673,1.849,1.021.5.286,1.067.691,1.065,1.335,0,.159.245.151.246-.008" transform="translate(-106.801 -192.493)" fill="#f8b58e"/>
                </g>
              </g>
            </g>
            <g id="Group_1190897" data-name="Group 1190897" transform="translate(51.743 116.263)" style="mix-blend-mode: multiply;isolation: isolate">
              <g id="Group_1190896" data-name="Group 1190896">
                <g id="Group_1190895" data-name="Group 1190895" clip-path="url(#clip-path-38)">
                  <path id="Path_998400" data-name="Path 998400" d="M71.907,157.7a94.625,94.625,0,0,1-1.806,11.65c-.056.257.337.366.394.109a95.656,95.656,0,0,0,1.82-11.758c.024-.262-.385-.26-.409,0" transform="translate(-70.095 -157.5)" fill="#f8b400"/>
                </g>
              </g>
            </g>
            <path id="Path_998401" data-name="Path 998401" d="M92.652,107.959a1.07,1.07,0,0,1-1.235.141,2.767,2.767,0,0,1-.947-.918c-1.217-1.69-2.083-3.623-3.4-5.235a11.721,11.721,0,0,0-20.514,9.977c.267,1.2.722,2.348.955,3.552a5.211,5.211,0,0,1-.388,3.579l1.191-.356c.776,2.416,3.882,5.107,6.4,4.833-1.26-.772-2.247-3.412-2.144-4.886a22.962,22.962,0,0,1,1.033-4.245,12.3,12.3,0,0,0,3.079-6.482,4.521,4.521,0,0,1-.582,4.115,12.731,12.731,0,0,0,7.514-5.395,9,9,0,0,1-2.012,4.286,7.334,7.334,0,0,0,4.774-2.86c-.334,3.684,3.441,6.814,3.083,10.5a8.33,8.33,0,0,0,.608-9.652,2.364,2.364,0,0,0,2.581-.95" transform="translate(-17.354 -25.565)" fill="#47333c"/>
            <path id="Path_998402" data-name="Path 998402" d="M38.262,221.156l61.7-7.591c1.939-.239,3.64,1.6,3.676,3.976.034,2.235-1.426,4.07-3.261,4.1l-7.907.121,1.863,67.49a1.693,1.693,0,0,1-1.693,1.742H90.4a1.694,1.694,0,0,1-1.693-1.637l-2.1-66.2-26.465.729L44.022,289.717a1.693,1.693,0,0,1-1.64,1.274H39.995a1.694,1.694,0,0,1-1.637-2.124l16.182-64.251-16.087.244a1.782,1.782,0,0,1-1.533-2.166,1.68,1.68,0,0,1,1.343-1.538" transform="translate(-9.661 -55.91)" fill="#47333c"/>
            <path id="Path_998403" data-name="Path 998403" d="M349.975,225.335l-61.7-7.591c-1.94-.238-3.64,1.6-3.676,3.976-.034,2.235,1.425,4.07,3.261,4.1l7.907.12-5.722,65.35a1.693,1.693,0,0,0,1.687,1.841h5.089a1.693,1.693,0,0,0,1.691-1.611l3.118-64.188,26.465.729,1.81,63.425a1.693,1.693,0,0,0,1.693,1.645h2.746A1.664,1.664,0,0,0,336,291.4L333.7,228.795l16.087.245a1.783,1.783,0,0,0,1.533-2.167,1.68,1.68,0,0,0-1.343-1.538" transform="translate(-74.513 -57.004)" fill="#47333c"/>
            <path id="Path_998404" data-name="Path 998404" d="M289.123,219.316l38.983.593,14.767-60.3c1.2-4.891,4.708-8.2,8.632-8.141l46.8.712-18.914,77.232-41.655-.634c-.159,4.154-3,7.446-6.433,7.394l-42.424-.646c-3.495-.053-6.275-3.547-6.21-7.8l.013-.8c.065-4.256,2.951-7.663,6.445-7.61" transform="translate(-74.007 -39.658)" fill="#f699d5"/>
            <path id="Path_998405" data-name="Path 998405" d="M394.676,217.116l14.358-59.4c.763-3.158,3.162-5.318,5.86-5.277,3.686.056,6.428,4.113,5.791,8.541-3.764,26.166-9.492,50.428-17.732,72.258a6.069,6.069,0,0,1-5.554,4.272l-1.741-.026-5.882-.09-37.857-.577c-3.31-.05-5.943-3.359-5.882-7.39l.006-.382c.061-4.031,2.794-7.258,6.1-7.208l36.668.558c2.7.041,5.1-2.119,5.86-5.277" transform="translate(-90.599 -39.91)" fill="#f699d5"/>
            <g id="Group_1190900" data-name="Group 1190900" transform="translate(255.437 112.524)" style="mix-blend-mode: multiply;isolation: isolate">
              <g id="Group_1190899" data-name="Group 1190899">
                <g id="Group_1190898" data-name="Group 1190898" clip-path="url(#clip-path-23)">
                  <path id="Path_998406" data-name="Path 998406" d="M394.676,217.116l14.358-59.4c.763-3.158,3.162-5.318,5.86-5.277,3.686.056,6.428,4.113,5.791,8.541-3.764,26.166-9.492,50.428-17.732,72.258a6.069,6.069,0,0,1-5.554,4.272l-1.741-.026-5.882-.09-37.857-.577c-3.31-.05-5.943-3.359-5.882-7.39l.006-.382c.061-4.031,2.794-7.258,6.1-7.208l36.668.558c2.7.041,5.1-2.119,5.86-5.277" transform="translate(-346.036 -152.434)" fill="#f699d5"/>
                </g>
              </g>
            </g>
            <path id="Path_998407" data-name="Path 998407" d="M286.466,202.9l-.871-.675-3.325,5.268s-3.123.951,2.436-6.2l-1-.874L277.834,205s-3.187-.4,4.842-5.716l-.8-1-6.26,3.867s-3.5-.743,6.042-6.088l2.652-3.151-1.245-1.675s-4.81.951-4.955-1.589a11.254,11.254,0,0,0,5.707-.562,6.545,6.545,0,0,1,3.9-.187l2.786.753,28.747-12.759,11.859-21.7a6.344,6.344,0,1,1,9.874,7.947l-10.82,17.022a25.962,25.962,0,0,1-8.245,6.572L293.76,193.2s-.1,3.675-4.7,7.28l-2.772,6.146s-2.413,1.6.174-3.732" transform="translate(-71.997 -39.95)" fill="#f8b58e"/>
            <path id="Path_998408" data-name="Path 998408" d="M345.374,152.749h0a6.345,6.345,0,0,0-6.558,2.44l-11.859,21.7-22.54,10a50.263,50.263,0,0,1,1.839,5.209l23.368-5.373a25.964,25.964,0,0,0,8.246-6.572l10.819-17.022a6.344,6.344,0,0,0-3.315-10.387" transform="translate(-79.703 -39.95)" fill="#5e85ff"/>
            <g id="Group_1190903" data-name="Group 1190903" transform="translate(226.129 113.984)" style="mix-blend-mode: multiply;isolation: isolate">
              <g id="Group_1190902" data-name="Group 1190902">
                <g id="Group_1190901" data-name="Group 1190901" clip-path="url(#clip-path-40)">
                  <path id="Path_998409" data-name="Path 998409" d="M348.352,154.412c-1.891,3.8-4.9,6.942-7.417,10.32a68.782,68.782,0,0,0-6.385,11.1c-.473.966-.956,1.927-1.436,2.89-.45.9-.831,1.835-1.3,2.727a11.137,11.137,0,0,1-1.656,2.423,7.742,7.742,0,0,1-2.18,1.555,45.9,45.9,0,0,1-5.359,2.02,46.6,46.6,0,0,1-6.468,1.716c-3.271.68-6.584,1.211-9.818,2.05q.219.68.425,1.363l23.369-5.373a25.96,25.96,0,0,0,8.245-6.571l10.819-17.023a6.346,6.346,0,0,0-.839-9.2" transform="translate(-306.333 -154.412)" fill="#5e85ff"/>
                </g>
              </g>
            </g>
            <path id="Path_998410" data-name="Path 998410" d="M301.624,198.941l3.516-3.069a.655.655,0,0,1,1.034.234,27.99,27.99,0,0,1,2.173,7.373.658.658,0,0,1-.658.71H303.2a.656.656,0,0,1-.633-.481l-1.139-4.1a.656.656,0,0,1,.2-.67" transform="translate(-78.912 -51.241)" fill="#fff"/>
            <path id="Path_998411" data-name="Path 998411" d="M343.889,230.193s3.252,11.693-11.3,11.693l-32.885.9-15.982,33.963V284.7c1.241,2.99,3.23,6.175,1.8,9.664H254.967s-2.336-3.234,0-3.953c9.725-1.609,16.138-5.846,19.408-12.579,0,0,9.942-29.824,10.755-41.83a4.284,4.284,0,0,1,3.193-3.839l23.777-6.266c11.365-7.123,21.913-5.143,31.79,4.3" transform="translate(-66.484 -58.022)" fill="#f8b58e"/>
            <path id="Path_998412" data-name="Path 998412" d="M290.937,283.481c-4.3-.055-10.27-3.748-9.345-5.653,0,0,9.942-29.824,10.755-41.83a4.286,4.286,0,0,1,3.193-3.839s29.408-9.258,32.15-9.926c8.224-2.006,16.009.878,23.417,7.961,0,0,3.252,11.694-11.3,11.694l-32.885.9Z" transform="translate(-73.701 -58.022)" fill="#f8b400"/>
            <path id="Path_998413" data-name="Path 998413" d="M254.967,312.511c6.345-1.049,11.272-3.226,14.844-6.477q6.939.551,13.908.634v.132c1.242,2.99,3.23,6.176,1.8,9.664H254.967s-2.336-3.235,0-3.954" transform="translate(-66.484 -80.126)" fill="#47333c"/>
            <path id="Path_998414" data-name="Path 998414" d="M360.1,129.347l1.525,7.228c-2.479,3.784-7.49,3.7-8.97,3.586-.269-.019-.424-.044-.424-.044-.04-.2-.081-.4-.127-.6-.881-4.124-2.127-7.932-2.127-7.932l-.83.111-3.261.424c-2.491-.044-2.776-2.5-2.807-3.221-.007-.2-.019-.4-.042-.6l-.923-3.1-.731-.6c-1.157-1.184-.737-1.784-.737-1.784l2.787-3.382c-.749-7.617,3.641-9.711,3.641-9.711,15.262-7.618,18.95,6.053,18.95,6.053,2.522,10.481-5.924,13.566-5.924,13.566" transform="translate(-89.168 -28.124)" fill="#f8b58e"/>
            <path id="Path_998415" data-name="Path 998415" d="M356.061,149.182l.6,4.582a28.093,28.093,0,0,0,6.375-7.729,36.732,36.732,0,0,0-6.971,3.147" transform="translate(-93.224 -38.235)" fill="#f8b58e"/>
            <g id="Group_1190906" data-name="Group 1190906" transform="translate(259.976 103.339)" opacity="0.29" style="mix-blend-mode: multiply;isolation: isolate">
              <g id="Group_1190905" data-name="Group 1190905">
                <g id="Group_1190904" data-name="Group 1190904" clip-path="url(#clip-path-41)">
                  <path id="Path_998416" data-name="Path 998416" d="M355.142,148.047c-.881-4.124-2.127-7.932-2.127-7.932l-.83.11,1.02-.181a3.32,3.32,0,0,1,3.887,3.523,6.617,6.617,0,0,1-1.95,4.48" transform="translate(-352.185 -139.992)" fill="#f8b58e"/>
                </g>
              </g>
            </g>
            <g id="Group_1190909" data-name="Group 1190909" transform="translate(254.294 96.599)" opacity="0.53" style="mix-blend-mode: multiply;isolation: isolate">
              <g id="Group_1190908" data-name="Group 1190908">
                <g id="Group_1190907" data-name="Group 1190907" clip-path="url(#clip-path-42)">
                  <path id="Path_998417" data-name="Path 998417" d="M344.75,132.129a3.289,3.289,0,0,0,2.859-1.157.263.263,0,0,1,.355-.07.259.259,0,0,1,.069.355,3.812,3.812,0,0,1-3.315,1.382c-.326-.035-.3-.545.032-.51" transform="translate(-344.488 -130.861)" fill="#f8b58e"/>
                </g>
              </g>
            </g>
            <g id="Group_1190912" data-name="Group 1190912" transform="translate(262.721 94.409)" opacity="0.45" style="mix-blend-mode: multiply;isolation: isolate">
              <g id="Group_1190911" data-name="Group 1190911">
                <g id="Group_1190910" data-name="Group 1190910" clip-path="url(#clip-path-43)">
                  <path id="Path_998418" data-name="Path 998418" d="M357.052,132.249a.223.223,0,0,0,.058,0,5.327,5.327,0,0,0,3.665-1.938,3.119,3.119,0,0,0,.552-2.206.253.253,0,0,0-.3-.2.256.256,0,0,0-.2.3,2.643,2.643,0,0,1-.475,1.829,4.862,4.862,0,0,1-3.326,1.716.256.256,0,0,0,.027.507" transform="translate(-356.142 -127.894)" fill="#f8b58e"/>
                  <path id="Path_998419" data-name="Path 998419" d="M356.143,131.559h.02a.257.257,0,0,0,.252-.259c-.019-1.284,1.521-1.458,1.586-1.465a.255.255,0,1,0-.052-.508,2.108,2.108,0,0,0-2.045,1.981.255.255,0,0,0,.239.251" transform="translate(-355.904 -128.269)" fill="#f8b58e"/>
                </g>
              </g>
            </g>
            <path id="Path_998420" data-name="Path 998420" d="M348.773,121.449v.005a.262.262,0,0,0,.027.082A2.957,2.957,0,0,1,346,120.5a.93.93,0,0,1-.221-.446.435.435,0,0,1,.2-.443.512.512,0,0,1,.512.106,4.645,4.645,0,0,1,.8.809,3.187,3.187,0,0,0,.842.758,1.35,1.35,0,0,0,.641.165" transform="translate(-90.531 -31.307)" fill="#47333c"/>
            <path id="Path_998421" data-name="Path 998421" d="M346.88,124.266c-.078.563-.45,1-.831.972s-.627-.5-.549-1.062.451-1,.832-.973.627.5.548,1.063" transform="translate(-90.455 -32.257)" fill="#47333c"/>
            <path id="Path_998422" data-name="Path 998422" d="M369.114,142.235a1.415,1.415,0,0,0,.216.011" transform="translate(-96.641 -37.24)" fill="#47333c"/>
            <path id="Path_998423" data-name="Path 998423" d="M366.56,105.171a1.386,1.386,0,0,1,.195-.157" transform="translate(-95.973 -27.495)" fill="#47333c"/>
            <path id="Path_998424" data-name="Path 998424" d="M349.853,176.482l-1.078,28.754c19.763-7.371,31.857,7.008,31.857,7.008l-.769-30.622a76.8,76.8,0,0,0,.412-18.144A28.335,28.335,0,0,0,370.5,145l-1.982-1.7c-.092-.081-.185-.162-.281-.238l-.418-.362a.081.081,0,0,1-.032.011c-2.069.877-4.376,1.63-6.667,2.453a28.077,28.077,0,0,1-6.374,7.729l-.6-4.582a13.958,13.958,0,0,0-3.954,3.5l-.018.023a6.982,6.982,0,0,0-1.312,4.507Z" transform="translate(-91.316 -37.361)" fill="#5e85ff"/>
            <g id="Group_1190915" data-name="Group 1190915" transform="translate(277.617 117.867)" style="mix-blend-mode: multiply;isolation: isolate">
              <g id="Group_1190914" data-name="Group 1190914">
                <g id="Group_1190913" data-name="Group 1190913" clip-path="url(#clip-path-44)">
                  <path id="Path_998425" data-name="Path 998425" d="M387.424,167.923a28.029,28.029,0,0,0-1.448-6.357,11.909,11.909,0,0,0-1.681-1.042,8.458,8.458,0,0,0-2.089-.728c.068.154.133.311.2.467.022.052.045.1.07.154a.374.374,0,0,1,.034.258.336.336,0,0,1-.613.08c-.1-.2-.179-.416-.264-.625-.022-.052-.044-.1-.069-.154a.37.37,0,0,1-.034-.258c0-.007.007-.013.01-.02a4.822,4.822,0,0,0-2.1.238,5.192,5.192,0,0,0-3.029,3.78,18.045,18.045,0,0,0-.1,6.254c.576,4.922,1.77,9.738,2.652,14.607.482,2.661.783,5.336,1.033,8.026.247,2.669.445,5.342.554,8.02a96.222,96.222,0,0,1-.116,10.4,27.5,27.5,0,0,1,7.352,5.666l-.769-30.622a76.8,76.8,0,0,0,.412-18.144" transform="translate(-376.083 -159.672)" fill="#5e85ff"/>
                </g>
              </g>
            </g>
            <path id="Path_998426" data-name="Path 998426" d="M364.45,230.193s3.252,11.693-11.3,11.693l-32.885.9-3.235,33.963V284.7c1.241,2.99,3.23,6.175,1.8,9.664H288.275s-2.336-3.234,0-3.953c9.725-1.609,16.138-5.846,19.407-12.579,0,0-2.805-29.824-1.992-41.83a4.284,4.284,0,0,1,3.193-3.839l23.777-6.266c11.365-7.123,21.913-5.143,31.79,4.3" transform="translate(-75.204 -58.022)" fill="#f8b58e"/>
            <path id="Path_998427" data-name="Path 998427" d="M323.52,276.75v6.731c-4.3-.055-10.27-3.748-9.345-5.653,0,0-2.805-29.824-1.992-41.83a4.284,4.284,0,0,1,3.193-3.839l23.777-6.266c11.365-7.123,21.913-5.144,31.79,4.3,0,0,3.252,11.694-11.3,11.694l-32.885.9Z" transform="translate(-81.697 -58.022)" fill="#f8b400"/>
            <path id="Path_998428" data-name="Path 998428" d="M288.275,312.511c6.345-1.049,11.272-3.226,14.844-6.477q6.939.551,13.908.634v.132c1.242,2.99,3.23,6.176,1.8,9.664h-30.55s-2.336-3.235,0-3.954" transform="translate(-75.204 -80.126)" fill="#47333c"/>
            <path id="Path_998429" data-name="Path 998429" d="M355.592,153.194l.5.211,2.986,2.784c5.752-.537,11.226-13.4,11.226-13.4-.092-.081-.185-.162-.282-.238-.146-.125-.3-.238-.45-.352a6.752,6.752,0,0,0-4.679-1.419c-.688,1.473-1.338,2.74-1.988,3.872a28.078,28.078,0,0,1-6.374,7.729q-.455.4-.943.812" transform="translate(-93.101 -36.853)" fill="#fff"/>
            <path id="Path_998430" data-name="Path 998430" d="M352.458,148.029a3.71,3.71,0,0,0-1.871,4.932l1.7,3.737,2.41-1.63.525-.357-.086-.667-.6-4.582-.564-2.358a5.529,5.529,0,0,1-1.518.925" transform="translate(-91.703 -38.515)" fill="#fff"/>
            <path id="Path_998431" data-name="Path 998431" d="M342.6,108.976a.89.89,0,0,1,.058-1.681,3.081,3.081,0,0,0,.644-.286c.026-.015.047-.036.072-.052l-.013-.005a.889.889,0,0,1-.113-1.538,9.778,9.778,0,0,1,3.7-1.585,4.221,4.221,0,0,1-1.366-.241,3.017,3.017,0,0,0,2.3-.666,16.58,16.58,0,0,1,2-1.431c1.438-.723,3.151-.484,4.74-.229a5.85,5.85,0,0,1-1.9-1.31,5.9,5.9,0,0,0,2.934.857,9.336,9.336,0,0,1,3.024.572,2.689,2.689,0,0,1,1.694,2.283,3.408,3.408,0,0,1,3.4-.078,11.551,11.551,0,0,1,2.962,2.475,7.206,7.206,0,0,0,3.179,2.144,3.316,3.316,0,0,1-1.847-.205,4.838,4.838,0,0,1,2.123,2.686,7.839,7.839,0,0,1,.044,3.4,15.766,15.766,0,0,0-.342,3.407,3.946,3.946,0,0,0,1.441,2.99,6.958,6.958,0,0,1-2.632-1.977c-.125.569-.287,1.132-.471,1.7-.054.422-.092.844-.109,1.273a8.6,8.6,0,0,0,.9,4.414l-1.917-1.8a2.209,2.209,0,0,1-.022,1.788c-.221.574-.563,1.094-.779,1.668a4.255,4.255,0,0,0,.385,3.737,3.527,3.527,0,0,1-1.879-2.308,2.586,2.586,0,0,1-2.573,2.2,6.215,6.215,0,0,1-.536,1.511,7.15,7.15,0,0,1-1.251-4.729,7.282,7.282,0,0,1,.151-1.641,5.008,5.008,0,0,0-1.294,2.54,8.5,8.5,0,0,1-.5-5.584,2.941,2.941,0,0,1-3.428,1.24,5.236,5.236,0,0,0,1.966-1.766,2.514,2.514,0,0,0,.087-2.54,2.652,2.652,0,0,0-3.5-.552,6.976,6.976,0,0,0-2.421,3.016,5.6,5.6,0,0,1-1.11-4.332,1.66,1.66,0,0,1-1.391,1.294,2.86,2.86,0,0,0,.286-2.995,12.459,12.459,0,0,0-1.8-2.605,5.194,5.194,0,0,1-1.294-2.843,2.8,2.8,0,0,0-.579,2.264,1.716,1.716,0,0,1-1.414-1.208,8.884,8.884,0,0,0-.569,5.372,8.189,8.189,0,0,1-.5-8.482,3.345,3.345,0,0,1-.534-.161" transform="translate(-89.551 -26.169)" fill="#47333c"/>
            <path id="Path_998432" data-name="Path 998432" d="M408.653,226.229l-61.7-7.591c-1.94-.238-3.64,1.6-3.676,3.976-.034,2.235,1.425,4.07,3.261,4.1l7.907.12-1.863,64.789a1.694,1.694,0,0,0,1.693,1.742h2.239a1.694,1.694,0,0,0,1.693-1.637l2.1-63.5,26.465.729,16.123,63.137a1.693,1.693,0,0,0,1.64,1.274h2.387a1.693,1.693,0,0,0,1.637-2.124l-16.182-61.55,16.087.245A1.783,1.783,0,0,0,410,227.767a1.68,1.68,0,0,0-1.343-1.538" transform="translate(-89.876 -57.238)" fill="#47333c"/>
            <path id="Path_998433" data-name="Path 998433" d="M383.72,202.459c-10.915,3.073-31.928.932-31.928.932-.986,1.59-6.387.732-6.387.732l-.013.047a2.638,2.638,0,0,1-.832,1.422,1.962,1.962,0,0,1-2.066.027,4.817,4.817,0,0,1-.624-.362.147.147,0,0,0-.033-.027c-.013,0-.02.013-.034.013a1.749,1.749,0,0,1-.315.033,2.706,2.706,0,0,1-1.791-.45,2.021,2.021,0,0,1-.182-.141,2.5,2.5,0,0,1-.5-.55.021.021,0,0,1-.007-.013,1.022,1.022,0,0,1-.2,0,1.642,1.642,0,0,1-1.442-1.04,3.616,3.616,0,0,1-.315-1.047c-.007,0-.007-.007-.013-.007-.208-.127.066.014.107.014a.1.1,0,0,0-.047-.047c-.06-.047-.114-.087-.168-.134a5.1,5.1,0,0,1-1.04-1.113,1.907,1.907,0,0,1-.3-.751,2.135,2.135,0,0,1,1.014-2.228,2.346,2.346,0,0,1,.369-.174c4.83-1.811,14.2.51,14.2.51l26-5.186s-12.781-25.628-13.324-27.11c-2.583-7.058-3.4-15.86,5.837-13.827,2.939.65,5.481,3.857,7.642,8.245.328.658,11.358,28.5,12.136,32.988a8.148,8.148,0,0,1-5.743,9.245" transform="translate(-87.854 -39.714)" fill="#f8b58e"/>
            <path id="Path_998434" data-name="Path 998434" d="M395.947,193.214c-.778-4.488-11.808-32.33-12.136-32.988-2.16-4.388-4.7-7.594-7.642-8.245-9.238-2.032-8.42,6.77-5.837,13.828.543,1.482,13.324,27.11,13.324,27.11l-23.338,4.656c.6,2.057,1.263,4.093,1.9,6.137,6.611.453,20,1,27.982-1.253a8.148,8.148,0,0,0,5.743-9.245" transform="translate(-94.339 -39.714)" fill="#5e85ff"/>
            <path id="Path_998435" data-name="Path 998435" d="M359.889,211.646l4.349-1.727c.336-.386.859-.233,1.034.308a32.674,32.674,0,0,1,1.823,8.189c.031.5-.273.935-.658.935h-4.494a.713.713,0,0,1-.633-.633l-1.622-6.19a1.045,1.045,0,0,1,.2-.883" transform="translate(-94.167 -54.905)" fill="#fff"/>
            <g id="Group_1190927" data-name="Group 1190927" transform="translate(249.071 159.667)" opacity="0.6">
              <g id="Group_1190926" data-name="Group 1190926">
                <g id="Group_1190925" data-name="Group 1190925" clip-path="url(#clip-path-45)">
                  <g id="Group_1190918" data-name="Group 1190918" transform="translate(1.796 2.207)" style="mix-blend-mode: multiply;isolation: isolate">
                    <g id="Group_1190917" data-name="Group 1190917">
                      <g id="Group_1190916" data-name="Group 1190916" clip-path="url(#clip-path-46)">
                        <path id="Path_998436" data-name="Path 998436" d="M341.25,219.656a1.8,1.8,0,0,0-.61,2.731,2.535,2.535,0,0,1-.5-.55.021.021,0,0,1-.007-.013,1.017,1.017,0,0,1-.2,0,1.933,1.933,0,0,1-.067-.812,2.25,2.25,0,0,1,1.187-1.7c.228-.12.43.229.2.342" transform="translate(-339.845 -219.288)" fill="#f8b58e"/>
                      </g>
                    </g>
                  </g>
                  <g id="Group_1190921" data-name="Group 1190921" transform="translate(4.542 3.664)" style="mix-blend-mode: multiply;isolation: isolate">
                    <g id="Group_1190920" data-name="Group 1190920">
                      <g id="Group_1190919" data-name="Group 1190919" clip-path="url(#clip-path-47)">
                        <path id="Path_998437" data-name="Path 998437" d="M344.631,221.6a2.268,2.268,0,0,0-.664,1.872.14.14,0,0,0-.033-.027c-.013,0-.02.014-.034.014a1.749,1.749,0,0,1-.315.033,2.543,2.543,0,0,1,.765-2.174c.188-.181.47.1.282.282" transform="translate(-343.565 -221.261)" fill="#f8b58e"/>
                      </g>
                    </g>
                  </g>
                  <g id="Group_1190924" data-name="Group 1190924" style="mix-blend-mode: multiply;isolation: isolate">
                    <g id="Group_1190923" data-name="Group 1190923">
                      <g id="Group_1190922" data-name="Group 1190922" clip-path="url(#clip-path-48)">
                        <path id="Path_998438" data-name="Path 998438" d="M338.734,216.652a4.086,4.086,0,0,0-.886,3.348,3.644,3.644,0,0,1-.315-1.047c-.007,0-.007-.007-.013-.007-.208-.127.067.013.107.013a.1.1,0,0,0-.047-.046c-.061-.047-.114-.087-.168-.134a4.555,4.555,0,0,1,1.039-2.415c.168-.194.45.087.282.289" transform="translate(-337.412 -216.298)" fill="#f8b58e"/>
                      </g>
                    </g>
                  </g>
                </g>
              </g>
            </g>
            <path id="Path_998439" data-name="Path 998439" d="M271.1,47.939a16.558,16.558,0,0,0-3.32-7.89c-.252-.57-.512-1.135-.768-1.7q-.235-.509-.466-1.019l-.445-.991c-1.465-3.277-2.979-6.665-5.778-8.929a14.41,14.41,0,0,0-8.44-2.926,30.078,30.078,0,0,0-8.9,1.22q-3.344.89-6.258,1.938a8.514,8.514,0,0,0-1.2.094,13.506,13.506,0,0,0-5.552,2.575c-.444.311-.9.644-1.358,1.006q-.889.506-1.729,1.04a10.594,10.594,0,0,0-4.517,6.834,12.536,12.536,0,0,0,1.933,9.552,23.6,23.6,0,0,0-.227,13.513c-.072.027-.146.052-.219.079,0,.152,0,.3.007.456.11-.041.223-.078.331-.12a22.932,22.932,0,0,0,.96,2.6,18.087,18.087,0,0,0,1.494,2.749c-11.225,3.675-78.689,3.3-96.351-10.261-14.324-11-20.24-20.944-18.085-30.417a20.72,20.72,0,0,1,24.8-15.61,19.72,19.72,0,0,1,14.856,23.6,18.766,18.766,0,0,1-22.46,14.137A17.856,17.856,0,0,1,115.96,28.1,17.012,17.012,0,0,1,136.3,15.3a16.187,16.187,0,0,1,12.181,19.352,15.384,15.384,0,0,1-18.412,11.589,14.636,14.636,0,0,1-11.026-17.518,13.941,13.941,0,0,1,16.666-10.49,13.262,13.262,0,0,1,9.979,15.855A12.6,12.6,0,0,1,130.6,43.583a11.985,11.985,0,0,1-9.03-14.347,11.4,11.4,0,0,1,13.645-8.589,10.857,10.857,0,0,1,8.169,12.979,10.325,10.325,0,0,1-12.343,7.769,9.808,9.808,0,0,1-7.388-11.738,9.325,9.325,0,0,1,11.161-7.025A8.865,8.865,0,0,1,141.5,33.244a8.439,8.439,0,0,1-10.089,6.35A8.014,8.014,0,0,1,125.372,30a7.617,7.617,0,0,1,9.116-5.738,7.248,7.248,0,0,1,5.454,8.665,6.888,6.888,0,0,1-8.234,5.183,6.545,6.545,0,0,1-4.925-7.825,6.218,6.218,0,0,1,7.434-4.679,5.907,5.907,0,0,1,4.445,7.063,5.611,5.611,0,0,1-6.709,4.222,5.33,5.33,0,0,1-4.011-6.371,5.056,5.056,0,0,1,6.051-3.808.31.31,0,1,0,.137-.6,5.675,5.675,0,0,0-6.792,4.275,5.95,5.95,0,0,0,4.477,7.112,6.233,6.233,0,0,0,7.45-4.689,6.528,6.528,0,0,0-4.912-7.8,6.84,6.84,0,0,0-8.175,5.147,7.165,7.165,0,0,0,5.392,8.565,7.508,7.508,0,0,0,8.975-5.649,7.868,7.868,0,0,0-5.919-9.406,8.238,8.238,0,0,0-9.858,6.2,8.632,8.632,0,0,0,6.5,10.332,9.058,9.058,0,0,0,10.83-6.816,9.486,9.486,0,0,0-7.146-11.352,9.944,9.944,0,0,0-11.9,7.492A10.425,10.425,0,0,0,130.907,42a10.944,10.944,0,0,0,13.083-8.235,11.476,11.476,0,0,0-8.635-13.719A12.021,12.021,0,0,0,120.969,29.1a12.605,12.605,0,0,0,9.5,15.088,13.219,13.219,0,0,0,15.823-9.96,13.882,13.882,0,0,0-10.446-16.6,14.544,14.544,0,0,0-17.407,10.956,15.257,15.257,0,0,0,11.493,18.26,16,16,0,0,0,19.154-12.056A16.807,16.807,0,0,0,136.435,14.7a17.632,17.632,0,0,0-21.079,13.267,18.478,18.478,0,0,0,13.92,22.114,19.385,19.385,0,0,0,23.2-14.6,20.337,20.337,0,0,0-15.322-24.343A21.339,21.339,0,0,0,111.613,27.21C109.4,36.942,115.39,47.1,129.926,58.255c17.9,13.74,86.532,14.082,97.015,10.33,0-.047,0-.092,0-.139a12.01,12.01,0,0,0,2.177,2.35,14.737,14.737,0,0,0,9.153,2.881A29.712,29.712,0,0,0,253.3,69.533q.609-.345,1.213-.718A55.831,55.831,0,0,0,267.27,57.467c1.668-1.924,3.479-4.2,3.853-6.924a9.991,9.991,0,0,0-.021-2.6m-28-21.812a29.647,29.647,0,0,1,8.765-1.206,13.991,13.991,0,0,1,8.186,2.829c2.719,2.2,4.211,5.539,5.655,8.77l.446.994c.154.34.31.68.467,1.02l.108.238a21.65,21.65,0,0,0-5.345-4.292,12.96,12.96,0,0,0-4.579-1.735,10,10,0,0,0-1.668-.1c-3.674-2.594-7.2-3.759-10.478-3.464-.317.028-.638.071-.966.128q-1.065-.413-2.153-.765a17.927,17.927,0,0,0-3.657-.845q2.465-.843,5.219-1.575m21.654,23.066a16.942,16.942,0,0,1-8.232,14.378,21.174,21.174,0,0,1-16.779,1.9,16.214,16.214,0,0,1-3.342-1.361q-.441-.247-.861-.527a10.02,10.02,0,0,0,8.951.056,8.815,8.815,0,0,0,1.171-.727,22.1,22.1,0,0,0,10.412-4.279c4.661-3.4,7.1-7.917,6.517-12.077a12.8,12.8,0,0,0-3.163-6.325,41.82,41.82,0,0,1,4.391,3.922,16.06,16.06,0,0,1,.934,5.044m-.244-4.321q.637.683,1.256,1.4a8.8,8.8,0,0,1,2.142,3.617c.483,2.151-.625,4.317-1.639,5.755a24.549,24.549,0,0,1-6.619,6.085,17.074,17.074,0,0,0,5.538-12.546,16.263,16.263,0,0,0-.678-4.313M233.065,58.265c-.15-.16-.3-.324-.44-.494a11.688,11.688,0,0,0,1.147-1.665,12.151,12.151,0,0,1,2.75-1.484l.151-.066c1.506-.654,3.129-1.4,4.748-2.286a16.582,16.582,0,0,0,3.991,1.19,17.694,17.694,0,0,0,3.791.269c.006.047.013.094.018.142a9.446,9.446,0,0,1-1.758,6.6,9.785,9.785,0,0,1-5.73,2,14.271,14.271,0,0,1-8.668-4.207m3.236,2.974a15.876,15.876,0,0,1-4.04-2.846,2.741,2.741,0,0,1,.072-.291l0,0q.2.238.413.463a13.427,13.427,0,0,0,3.553,2.677m5.467-13.413a21.9,21.9,0,0,0,2.2,2.381c-.722.492-1.461.947-2.2,1.371a9.468,9.468,0,0,1-2.722-1.786,7.238,7.238,0,0,1-.688-.742,7.178,7.178,0,0,1,3.41-1.225M238.1,48.7a4.192,4.192,0,0,1-.444-.842,20.565,20.565,0,0,1,2.838-.245A7.024,7.024,0,0,0,238.1,48.7m8.057-.173a8.873,8.873,0,0,0-.894-.462,8.217,8.217,0,0,1,1.018.336q-.06.064-.124.126m2.5,3.264.019.041a6.437,6.437,0,0,1-1.345.423l-.1-.062a21.032,21.032,0,0,1-2.564-1.943q.709-.5,1.389-1.057l.151-.126a6.588,6.588,0,0,1,2.448,2.724m-2.839-2.962-.034.028c-.469.384-.952.748-1.444,1.095a21.388,21.388,0,0,1-2.047-2.172c.141-.008.278-.013.41-.015.3.049.6.109.9.184a8.773,8.773,0,0,1,2.21.88M244.3,50.507a21.524,21.524,0,0,0,2.379,1.846,9.73,9.73,0,0,1-4.4-.569c.682-.4,1.36-.822,2.023-1.277m2.843,2.223.1-.016a9.612,9.612,0,0,0,1.119.593,17.856,17.856,0,0,1-2.874-.275q-.89-.156-1.7-.379a9.884,9.884,0,0,0,3.36.076m.724-.152a7.081,7.081,0,0,0,.97-.337,7,7,0,0,1,.256.888,7.419,7.419,0,0,1-1.226-.551m1.2-.932-.016-.034a6.987,6.987,0,0,0-2.515-2.846c.058-.058.113-.118.166-.18a6.672,6.672,0,0,1,1.98,1.408,5.8,5.8,0,0,1,.939,1.321,5.76,5.76,0,0,1-.554.331m.748.072a6.8,6.8,0,0,1,.448,1.492c-.215.025-.432.046-.652.061l-.044-.01a7.471,7.471,0,0,0-.332-1.206,6.156,6.156,0,0,0,.58-.337m-.819-2.023a7.086,7.086,0,0,0-2.036-1.466,1.614,1.614,0,0,0,.241-.824c0-.673-.457-1.3-1.366-1.861a11.181,11.181,0,0,0-3.717-1.455l.051-.03a6.22,6.22,0,0,1,8.882,3.075,3.793,3.793,0,0,1,.3,1.256,3.279,3.279,0,0,1-1.377,2.665,6.179,6.179,0,0,0-.977-1.36M245.6,45.913c.771.477,1.162.979,1.16,1.491a1.217,1.217,0,0,1-.205.644,9.553,9.553,0,0,0-3.8-.715h-.03q-.441-.069-.88-.1-.388-.507-.743-1.036a1.41,1.41,0,0,1-.3-.7c-.007-.293.193-.6.608-.923q.083-.065.168-.128a10.74,10.74,0,0,1,4.022,1.476m-5.232-.415a1.769,1.769,0,0,0,.378.936q.258.385.534.76a19.651,19.651,0,0,0-3.757.247,2.55,2.55,0,0,1,.526-2.339,3.436,3.436,0,0,1,2.886-.742l.041,0a1.5,1.5,0,0,0-.608,1.135m-2.632,4.064a9.421,9.421,0,0,0,1.561,1.468,11.146,11.146,0,0,0,1.637,1.008c-1.514.815-3.028,1.507-4.438,2.121l-.151.065a17.265,17.265,0,0,0-2.113,1.035c.22-.421.43-.847.638-1.27a14.8,14.8,0,0,1,2.866-4.426m11.911,4.254c0-.032-.008-.063-.013-.1a4.045,4.045,0,0,0,.7.074,7.516,7.516,0,0,1-1.509,5.311c-.055.072-.113.142-.171.211a9.675,9.675,0,0,0,.991-5.5m.519-2.352a3.7,3.7,0,0,0,1.611-3.092,4.237,4.237,0,0,0-.331-1.4,6.659,6.659,0,0,0-9.978-2.99q-.247-.033-.5-.055a3.833,3.833,0,0,0-3.238.873,2.986,2.986,0,0,0-.643,2.707l-.151.025a6.667,6.667,0,0,1-.6-2.127,4.327,4.327,0,0,1,.029-1.248A5.455,5.455,0,0,1,239.2,40.8l.015-.008a8.963,8.963,0,0,1,6.668-1.045c3.607.983,5.7,4.557,6.619,6.6a8.164,8.164,0,0,1,.9,3.792,3.709,3.709,0,0,1-1.45,2.759,12.445,12.445,0,0,1-1.269.258,7.215,7.215,0,0,0-.515-1.69M237.421,48.4c-.1-.15-.185-.3-.269-.457l.069-.012a4.165,4.165,0,0,0,.2.469m16.417,1.77a8.551,8.551,0,0,0-.937-4c-.955-2.111-3.122-5.808-6.9-6.838a9.391,9.391,0,0,0-7,1.086l-.016.009a5.74,5.74,0,0,0-3.042,3.658,4.761,4.761,0,0,0-.033,1.372,7.1,7.1,0,0,0,.592,2.158,12.064,12.064,0,0,0-4.82,1.775,8.893,8.893,0,0,1,.709-2.86,10.348,10.348,0,0,1,2-2.675,37.5,37.5,0,0,1,7.254-5.875,22.152,22.152,0,0,1,10.788.822c2.671.9,4.482,2.194,5.382,3.852,1.677,3.09-.038,6.955-2.59,8.764a9.551,9.551,0,0,1-2.337,1.2,4.322,4.322,0,0,0,.947-2.444M234.081,43.55A10.754,10.754,0,0,0,232,46.342a9.929,9.929,0,0,0-.785,3.405,6.231,6.231,0,0,0-1.7,2.3q-.153-.434-.3-.89a20.183,20.183,0,0,1-.813-3.5c.046-.118.1-.236.146-.353a15.389,15.389,0,0,1,6.691-7.076,19.8,19.8,0,0,1,5.229-2.015,37.885,37.885,0,0,0-6.393,5.336m-2.956,12.065a20.4,20.4,0,0,1-1.374-2.935,5.526,5.526,0,0,1,1.421-2.3,47.683,47.683,0,0,0-.047,5.238m.051.918q.025.4.058.792a6.335,6.335,0,0,1-1.575-2.7,3.712,3.712,0,0,1-.064-1.156,19.089,19.089,0,0,0,1.58,3.068m-2.367-5.246q.231.735.487,1.416a4.256,4.256,0,0,0-.059,2.011,6.85,6.85,0,0,0,1.74,2.974q.158.177.321.349.02.2.041.407-.206.167-.428.32c-.116.08-.232.158-.351.236a13.74,13.74,0,0,1-1.668-2.207,10.524,10.524,0,0,1-.786-8.262,22.652,22.652,0,0,0,.7,2.756m2.347,7.835c.081-.056.162-.114.239-.172.043.366.092.738.155,1.111l-.262-.275q-.216-.228-.432-.461.152-.1.3-.2m.45-8.746c.009-.134.018-.272.029-.41l.119-.092a11.51,11.51,0,0,1,4.949-1.857,8.319,8.319,0,0,0,.768,1.206,15.023,15.023,0,0,0-2.984,4.575c-.342.695-.677,1.376-1.044,2.018l-.023.019a4.86,4.86,0,0,0-1.2,1.428q-.318-.416-.616-.871a47.427,47.427,0,0,1,0-6.016m.407,7.329c-.023.058-.044.117-.063.176-.033.035-.066.069-.1.1l-.133-.138q-.028-.3-.052-.6.172.236.35.461m.477,3.316q-.2-.2-.391-.393c-.039-.187-.075-.374-.107-.561a4.452,4.452,0,0,0,.5.954m-.278-2.065V58.94a14.549,14.549,0,0,0,7.579,3.849,10.9,10.9,0,0,0,1.923.117,16.415,16.415,0,0,0,2.61.106q.219-.009.44-.023-.229.138-.467.261a9.53,9.53,0,0,1-10.5-1.4,4.3,4.3,0,0,1-1.583-2.9m12.1,3.624-.254.008a10.174,10.174,0,0,0,2.423-.946,9.012,9.012,0,0,1-.973.85q-.6.065-1.2.089m3.468-1.8a8.393,8.393,0,0,0,1.4-1.407,7.95,7.95,0,0,0,1.6-5.6,3.2,3.2,0,0,0,.842-.208,2.865,2.865,0,0,0,.517-.269,10.307,10.307,0,0,0,3.349-1.532c2.7-1.916,4.512-6.025,2.721-9.324-.954-1.758-2.846-3.122-5.625-4.056a22.59,22.59,0,0,0-9.956-.994,37.587,37.587,0,0,1,6-2.807,32.146,32.146,0,0,1,9.018,4.337l.038.038c1.712,1.726,4.04,4.4,4.494,7.65.557,4-1.814,8.36-6.344,11.666a21.967,21.967,0,0,1-9.5,4.1,9.9,9.9,0,0,0,1.455-1.6M249.3,34.343q.713-.245,1.437-.46.265-.079.545-.156a40.49,40.49,0,0,1,4.706,3.637,31.894,31.894,0,0,0-6.687-3.021m-4.8-4.708.2-.019c3.041-.273,6.31.759,9.731,3.07a17.231,17.231,0,0,0-3.069.571,41.148,41.148,0,0,0-6.858-3.622m6.3,3.778-.187.055q-1.019.3-2.017.663a17.764,17.764,0,0,0-7.746-.695,16.523,16.523,0,0,0-4.891,1.663,23.252,23.252,0,0,0-5.977,4.359,15.945,15.945,0,0,1,1.857-2.777,21.2,21.2,0,0,1,8.874-6.067,17.016,17.016,0,0,1,2.934-.853,40.643,40.643,0,0,1,7.154,3.653m-14.646,2.073a16.094,16.094,0,0,1,4.763-1.622,16.855,16.855,0,0,1,6.983.524,37.992,37.992,0,0,0-6.415,3.176,20.475,20.475,0,0,0-6.458,2.288l-.046.026a15.986,15.986,0,0,0-6.664,6.887c0-.041-.005-.08-.007-.12a13.64,13.64,0,0,1,1.076-5.92,22.873,22.873,0,0,1,6.767-5.239m-8.276,11.182q.024.46.082.936a11.094,11.094,0,0,0,.552,9.407,14.053,14.053,0,0,0,1.676,2.227q-.481.306-.985.6c-.25-.3-.491-.609-.72-.926a22.5,22.5,0,0,1-3.725-10.164v0c.062-.188.127-.376.194-.563a22.8,22.8,0,0,1,3.61-6.474,13.756,13.756,0,0,0-.684,4.961m2.605,12.9c.162.176.324.348.485.518q.353.374.729.76a9.74,9.74,0,0,0,.428,1.428,8.182,8.182,0,0,0,.433.927,33.045,33.045,0,0,1-3.07-3.024q.509-.3,1-.609m2.046,2.548c-.085-.218-.16-.438-.227-.663a18.714,18.714,0,0,0,3.887,3.035,16.671,16.671,0,0,0,3.43,1.4,22.373,22.373,0,0,0,12.855-.026,26.76,26.76,0,0,1-4.659,1.785,14.744,14.744,0,0,1-9.186-.244,17.927,17.927,0,0,1-4.809-3.1,8.16,8.16,0,0,1-1.29-2.181m25.379-23.524a40.964,40.964,0,0,0-6.069-5.01,15.188,15.188,0,0,1,3.162-.492q.19.136.383.278a24.007,24.007,0,0,1,8.048,9.782,40.585,40.585,0,0,0-5.524-4.559M232.094,29.47a10.857,10.857,0,0,1,3-1.209q-1.862.73-3.555,1.538c.182-.111.367-.222.555-.328m-3.232,2.211.027-.016a51.387,51.387,0,0,1,7.919-3.587,15.107,15.107,0,0,1,4.6.881q.752.244,1.494.517a19.231,19.231,0,0,0-2.338.733,21.632,21.632,0,0,0-9.054,6.195,16.3,16.3,0,0,0-2.49,4.087,23.347,23.347,0,0,0-4.38,7.293c-.151-1.312-.233-2.584-.283-3.77-.139-3.235-.032-6.6,1.677-9.316a12.407,12.407,0,0,1,2.829-3.018m-4.94,12.352c.051,1.17.131,2.423.277,3.717a12.03,12.03,0,0,1-1.4-8.468,10.211,10.211,0,0,1,4.132-6.43,10.576,10.576,0,0,0-1.264,1.614c-1.772,2.814-1.885,6.261-1.744,9.565m.549,5.674a22.188,22.188,0,0,0,3.664,9.458q.331.457.689.891a35.349,35.349,0,0,1-4.34,2.045,23.182,23.182,0,0,1-.013-12.395M254.29,68.446a29.8,29.8,0,0,1-16.016,4.8c-2.542-.042-6.148-.559-8.887-2.783a14.081,14.081,0,0,1-3.831-5.358,22.28,22.28,0,0,1-.951-2.583,35.665,35.665,0,0,0,4.5-2.125,35.361,35.361,0,0,0,3.492,3.418c.3.264.6.528.913.79a10.8,10.8,0,0,0,3.971,2.959,17.1,17.1,0,0,0,7.481,1.259,28.145,28.145,0,0,0,17.073-6.452,46.82,46.82,0,0,1-7.75,6.08m9.08-7.863a27.706,27.706,0,0,1-16.062,7.634q.323-.075.624-.156a36.4,36.4,0,0,0,8.667-3.936c3.718-2.163,7.507-4.657,10.027-8.228,1.065-1.51,2.226-3.794,1.708-6.1a9.16,9.16,0,0,0-2.236-3.8q-.929-1.08-1.9-2.077a23.888,23.888,0,0,0-8.46-10.829,9.009,9.009,0,0,1,1,.089,12.56,12.56,0,0,1,4.427,1.682,20.838,20.838,0,0,1,6.237,5.412,21.317,21.317,0,0,1,1.907,6.3c.495,4.727-1.671,9.836-5.942,14.017m7.324-10.1c-.358,2.6-2.124,4.822-3.751,6.7q-.453.523-.9,1.024a16.73,16.73,0,0,0,3.7-11.686,17.886,17.886,0,0,0-1.122-4.439,15.531,15.531,0,0,1,2.051,5.911,9.551,9.551,0,0,1,.021,2.491" transform="translate(-29.106 -2.774)" fill="#17428d"/>
            <path id="Path_998440" data-name="Path 998440" d="M75.4,138.846a10.608,10.608,0,0,0-5.92,6.849l4.276,1.42a2.2,2.2,0,0,0-.783,2.283,5.585,5.585,0,0,0,1.217,2.232c2.46,3.112,5.85,5.776,9.8,6.181A84.608,84.608,0,0,0,75.4,138.846" transform="translate(-18.191 -36.353)" fill="#8d74ff"/>
          </g>
        </g>
      </g>
    </g>
  </g>
</svg>
