<svg xmlns="http://www.w3.org/2000/svg" xmlns:xlink="http://www.w3.org/1999/xlink" width="96" height="96" viewBox="0 0 96 96">
  <defs>
    <clipPath id="clip-path">
      <rect id="Rectangle_454533" data-name="Rectangle 454533" width="96" height="96" fill="none"/>
    </clipPath>
    <clipPath id="clip-path-2">
      <path id="Path_991615" data-name="Path 991615" d="M36.734,1.8C13.921,5.534-1.739,28.323,1.758,52.7S26.586,93.806,49.4,90.07s38.471-26.528,34.973-50.9C81.205,17.082,63.4,1.273,43.119,1.273a39.448,39.448,0,0,0-6.385.523" transform="translate(-1.27 -1.273)" fill="#e8e8ff"/>
    </clipPath>
    <clipPath id="clip-path-4">
      <rect id="Rectangle_455200" data-name="Rectangle 455200" width="53.167" height="53.164" fill="#12263f"/>
    </clipPath>
  </defs>
  <g id="img23" transform="translate(-734.746 -8622)">
    <g id="Group_1177416" data-name="Group 1177416" transform="translate(417.355 847.008)">
      <g id="Group_1177395" data-name="Group 1177395" transform="translate(317.391 7774.993)">
        <g id="Group_1176807" data-name="Group 1176807">
          <g id="Group_1176806" data-name="Group 1176806" clip-path="url(#clip-path)">
            <path id="Path_991613" data-name="Path 991613" d="M5.134,55.231C1.428,30.668,18.021,7.7,42.2,3.936S88.975,17.03,92.681,41.595,79.794,89.123,55.619,92.889,8.84,79.795,5.134,55.231" transform="translate(1.197 0.954)" fill="#12263f"/>
            <path id="Path_991614" data-name="Path 991614" d="M49.137,95.4a45.064,45.064,0,0,1-27.057-9.05,46.437,46.437,0,0,1-18.2-30.519C.046,30.422,17.274,6.579,42.283,2.683,67.311-1.229,90.761,16.289,94.594,41.7a46.886,46.886,0,0,1-8.369,34.656A45.647,45.647,0,0,1,49.137,95.4m.19-90.012A42.714,42.714,0,0,0,42.77,5.9C19.505,9.526,3.481,31.7,7.046,55.341A43.2,43.2,0,0,0,23.977,83.728,41.877,41.877,0,0,0,55.7,91.636a42.3,42.3,0,0,0,27.941-17.2A43.821,43.821,0,0,0,74.5,13.811a41.913,41.913,0,0,0-25.169-8.42" transform="translate(0.867 0.598)" fill="#12263f"/>
          </g>
        </g>
        <g id="Group_1176809" data-name="Group 1176809" transform="translate(2.881 2.063)">
          <g id="Group_1176808" data-name="Group 1176808" clip-path="url(#clip-path-2)">
            <path id="Path_997335" data-name="Path 997335" d="M4.267,4.267,133.134,0l-4.267,128.867L0,133.134Z" transform="translate(-52.344 46.267) rotate(-45)" fill="#e8e8ff"/>
          </g>
        </g>
        <g id="Group_1176811" data-name="Group 1176811">
          <g id="Group_1176810" data-name="Group 1176810" clip-path="url(#clip-path)">
            <path id="Path_991616" data-name="Path 991616" d="M45.794,93.264a45.066,45.066,0,0,1-27.059-9.05A46.431,46.431,0,0,1,.534,53.7C-3.3,28.285,13.929,4.442,38.938.546S87.414,14.153,91.249,39.568s-13.395,49.253-38.4,53.149a45.807,45.807,0,0,1-7.054.548m.188-90.011a42.715,42.715,0,0,0-6.557.511C16.16,7.389.136,29.566,3.7,53.2A43.2,43.2,0,0,0,20.632,81.591,41.938,41.938,0,0,0,52.36,89.5C75.623,85.875,91.645,63.7,88.082,40.06A43.189,43.189,0,0,0,71.15,11.674a41.907,41.907,0,0,0-25.168-8.42" transform="translate(0 0.001)" fill="#12263f"/>
          </g>
        </g>
      </g>
    </g>
    <g id="Group_1190939" data-name="Group 1190939" transform="translate(753.283 8638.539)">
      <g id="Group_1190938" data-name="Group 1190938" clip-path="url(#clip-path-4)">
        <path id="Path_998455" data-name="Path 998455" d="M4.113,160.881a2.4,2.4,0,0,0,.032,1.716c.18.282.671.233.674.59s.054.829-.41.961a1.516,1.516,0,0,1-1.89-1.4c-.042-.623-.026-1.21-.008-1.83.059-2.028,2.436-1.349,2.453-1.663.071-1.3.029-2.479.013-3.832-.992.243-1.837.594-2.784.891a1,1,0,0,0-.676.955L1.5,163.594a.672.672,0,0,1-.748.613.763.763,0,0,1-.752-.8L.01,157.1a2.409,2.409,0,0,1,1.7-2.268l3.237-1.088a9.429,9.429,0,0,0-.014-2.251,5.505,5.505,0,0,1-2.426-4.525l0-3.513a3.215,3.215,0,0,1,3.153-3.238c1.78-.045,3.488-.048,5.267,0A3.173,3.173,0,0,1,14,143.257a28.8,28.8,0,0,1-.073,4.518,6.03,6.03,0,0,1-2.338,3.8,3.807,3.807,0,0,0,.014,2.069c.373.5,1.717.216,1.54,1.367s-1.3.054-2.094.648l-1.827,1.369c-.862.646-1.767.259-2.645-.537a9.762,9.762,0,0,0,0,2.734c.046.318,2.42-.316,2.424,1.685l0,1.682a1.532,1.532,0,0,1-1.814,1.58c-.451-.1-.488-.525-.517-.826-.088-.924,1.17.26.78-2.42Zm8.33-15.744a9.452,9.452,0,0,0,.032-1.678,1.685,1.685,0,0,0-1.678-1.695c-1.789.021-3.536-.1-5.317.052a1.9,1.9,0,0,0-1.4,2.488l1.739-1.176a1.529,1.529,0,0,1,1.6.054,9.643,9.643,0,0,0,5.026,1.955m-.008,1.55a10.785,10.785,0,0,1-5.875-2.209l-2.511,1.9a4.258,4.258,0,0,0,4.019,4.623,4.143,4.143,0,0,0,4.366-4.319M8.3,155.809l1.8-1.4a17.858,17.858,0,0,1-.155-2.1,6.641,6.641,0,0,1-3.4.062c.045.617-.265,1.453.026,2.038.305.613,1.185.92,1.724,1.4" transform="translate(0 -116.888)" fill="#12263f"/>
        <path id="Path_998456" data-name="Path 998456" d="M245.389,155.818l-.034,3.716a2.536,2.536,0,0,1,1.627,2.712,2.437,2.437,0,0,1-2.38,2.072,2.406,2.406,0,0,1-2.389-1.9,2.481,2.481,0,0,1,1.628-2.893l-.053-3.5c-1.073.569-2.166,2.064-3.4,1.158l-2.123-1.555c-.473-.346-1.558.544-1.855-.377a.827.827,0,0,1,.614-1.115c.227-.074.777-.116.886-.4a3.938,3.938,0,0,0,.018-2.083,5.931,5.931,0,0,1-2.439-4.67l0-2.534a4.071,4.071,0,0,1,4.069-4.157l3.483.008A3.964,3.964,0,0,1,247,144.221l.008,2.665a6.057,6.057,0,0,1-2.389,4.751c-.283.569-.04,1.516-.067,2.193l3.245,1.1A2.391,2.391,0,0,1,249.5,157.2l.01,6.3a.78.78,0,0,1-.619.787c-.354.064-.879-.1-.881-.6l-.018-6.33c0-1.051-1.368-1.18-2.607-1.543m.075-8.725a19.012,19.012,0,0,0,0-2.823,2.562,2.562,0,0,0-2.587-2.415h-3.343a2.49,2.49,0,0,0-2.5,2.53l0,2.515a4.218,4.218,0,0,0,8.432.194m-2.545,7.448c.312-.62,0-1.454.046-2.087a6.456,6.456,0,0,1-3.4-.045l-.131,2.164a18.671,18.671,0,0,0,1.886,1.3c.447-.511,1.294-.735,1.6-1.337m2.535,7.339a.876.876,0,1,0-.876.876.876.876,0,0,0,.876-.876" transform="translate(-196.346 -116.982)" fill="#12263f"/>
        <path id="Path_998457" data-name="Path 998457" d="M65.9,46.513c-1.316,0-.888,2.286-.908,4.172-.014,1.311,1.687.573,1.634,1.742a.784.784,0,0,1-.9.735,2.41,2.41,0,0,1-2.271-2.327c-.048-1.177-.023-2.293-.008-3.491a2.205,2.205,0,0,1,1.815-2.28l3.158-.135L68.4,40.049l-4.766,2.03A3.3,3.3,0,0,0,61.643,45.1l-.05,7.4a.665.665,0,0,1-.755.647.769.769,0,0,1-.737-.812l.033-7.471a4.657,4.657,0,0,1,2.882-4.212l7.52-3.23c1.825-.784,1.119-2.821,1.159-4.755a9.936,9.936,0,0,1-4.915-7.8A2.969,2.969,0,0,1,63.443,22a2.934,2.934,0,0,1,3.459-2.85c2.451.276.774-2.274,2.938-2.571a32.523,32.523,0,0,0,13.22-4.865c.347-.223.814.088.943.3.581.947-.894,1.353-1.308,1.841,4.348,2.769.062,5.963,4.763,5.2a10.886,10.886,0,1,0-21.625-2.34.76.76,0,0,1-.839.616.719.719,0,0,1-.681-.741A12.373,12.373,0,0,1,69.25,7.453a7.443,7.443,0,1,1,14.887.008,12.032,12.032,0,0,1,4.974,9.471l.012,3.024a2.959,2.959,0,0,1,.513,3.366,3.019,3.019,0,0,1-3.028,1.553,9.983,9.983,0,0,1-4.957,7.813l-.008,3.04a1.733,1.733,0,0,0,1.106,1.636l7.733,3.342a4.6,4.6,0,0,1,2.778,4.156l.036,7.473a.8.8,0,0,1-.6.8.688.688,0,0,1-.89-.631l-.039-7.261a3.371,3.371,0,0,0-2-3.166l-4.772-2.039L84.976,46.7a3.3,3.3,0,0,1,2.459,3.543A3.265,3.265,0,1,1,83.4,46.709l-.026-6.116-5.394,3.545a2.46,2.46,0,0,1-2.776-.125l-5.167-3.419-.017,4.361,2.874.061a2.292,2.292,0,0,1,2.076,2.347c.023,1.176.032,2.284-.006,3.45a2.409,2.409,0,0,1-2.405,2.345.743.743,0,0,1-.778-.73c-.043-1.186,1.642-.41,1.639-1.74l-.008-3.326a.867.867,0,0,0-.874-.845ZM82.455,6.356a5.841,5.841,0,0,0-11.5.016,12.8,12.8,0,0,1,11.5-.016M68.319,24.212a8.37,8.37,0,0,0,8.606,8.247,8.494,8.494,0,0,0,8.2-8.608c0-1.143,3.106.257,3.26-1.667a1.283,1.283,0,0,0-1.219-1.452l-1.442-.044a2.409,2.409,0,0,1-2.3-2.812c.109-1.211-1.209-3.387-2.716-2.847-3.542,1.27-6.907,2.763-10.743,3.078a2.406,2.406,0,0,1-2.3,2.579c-.9.08-2.5-.278-2.654,1.166a1.291,1.291,0,0,0,1.077,1.4c.937.184,2.212-.317,2.234.96m9.1,18.439,5.335-3.581c-3.215-1.263-2.539-2.97-2.734-5.612a10.311,10.311,0,0,1-6.651.009c-.2,2.606.471,4.364-2.73,5.595l5.206,3.513a1.2,1.2,0,0,0,1.575.076M85.9,49.894a1.712,1.712,0,1,0-1.712,1.712A1.712,1.712,0,0,0,85.9,49.894" transform="translate(-50.113 0)" fill="#12263f"/>
        <path id="Path_998458" data-name="Path 998458" d="M141.6,155.522c2.779,1.982,4.185-.929,5.117.128a.779.779,0,0,1-.136,1.127c-2.764,2.114-6.907.275-6.081-1.028a.759.759,0,0,1,1.1-.226" transform="translate(-117.066 -129.554)" fill="#12263f"/>
        <path id="Path_998459" data-name="Path 998459" d="M131.29,125.456a1.578,1.578,0,0,1-.008,2.124.781.781,0,0,1-.883-.072,1.75,1.75,0,0,1-.005-1.988.749.749,0,0,1,.9-.063" transform="translate(-108.469 -104.509)" fill="#12263f"/>
        <path id="Path_998460" data-name="Path 998460" d="M181.386,125.456a1.566,1.566,0,0,1-.007,2.138.772.772,0,0,1-.882-.087,1.776,1.776,0,0,1-.007-1.976.754.754,0,0,1,.9-.075" transform="translate(-150.249 -104.515)" fill="#12263f"/>
      </g>
    </g>
  </g>
</svg>
