<svg xmlns="http://www.w3.org/2000/svg" xmlns:xlink="http://www.w3.org/1999/xlink" width="96" height="96" viewBox="0 0 96 96">
  <defs>
    <clipPath id="clip-path">
      <rect id="Rectangle_454533" data-name="Rectangle 454533" width="96" height="96" fill="none"/>
    </clipPath>
    <clipPath id="clip-path-2">
      <path id="Path_991615" data-name="Path 991615" d="M36.734,1.8C13.921,5.534-1.739,28.323,1.758,52.7S26.586,93.806,49.4,90.07s38.471-26.528,34.973-50.9C81.205,17.082,63.4,1.273,43.119,1.273a39.448,39.448,0,0,0-6.385.523" transform="translate(-1.27 -1.273)" fill="#e8e8ff"/>
    </clipPath>
    <clipPath id="clip-path-4">
      <rect id="Rectangle_455199" data-name="Rectangle 455199" width="52.582" height="52.511" fill="#12263f"/>
    </clipPath>
  </defs>
  <g id="img22" transform="translate(-734.746 -8622)">
    <g id="Group_1177416" data-name="Group 1177416" transform="translate(417.355 847.008)">
      <g id="Group_1177395" data-name="Group 1177395" transform="translate(317.391 7774.993)">
        <g id="Group_1176807" data-name="Group 1176807">
          <g id="Group_1176806" data-name="Group 1176806" clip-path="url(#clip-path)">
            <path id="Path_991613" data-name="Path 991613" d="M5.134,55.231C1.428,30.668,18.021,7.7,42.2,3.936S88.975,17.03,92.681,41.595,79.794,89.123,55.619,92.889,8.84,79.795,5.134,55.231" transform="translate(1.197 0.954)" fill="#12263f"/>
            <path id="Path_991614" data-name="Path 991614" d="M49.137,95.4a45.064,45.064,0,0,1-27.057-9.05,46.437,46.437,0,0,1-18.2-30.519C.046,30.422,17.274,6.579,42.283,2.683,67.311-1.229,90.761,16.289,94.594,41.7a46.886,46.886,0,0,1-8.369,34.656A45.647,45.647,0,0,1,49.137,95.4m.19-90.012A42.714,42.714,0,0,0,42.77,5.9C19.505,9.526,3.481,31.7,7.046,55.341A43.2,43.2,0,0,0,23.977,83.728,41.877,41.877,0,0,0,55.7,91.636a42.3,42.3,0,0,0,27.941-17.2A43.821,43.821,0,0,0,74.5,13.811a41.913,41.913,0,0,0-25.169-8.42" transform="translate(0.867 0.598)" fill="#12263f"/>
          </g>
        </g>
        <g id="Group_1176809" data-name="Group 1176809" transform="translate(2.881 2.063)">
          <g id="Group_1176808" data-name="Group 1176808" clip-path="url(#clip-path-2)">
            <path id="Path_997335" data-name="Path 997335" d="M4.267,4.267,133.134,0l-4.267,128.867L0,133.134Z" transform="translate(-52.344 46.267) rotate(-45)" fill="#e8e8ff"/>
          </g>
        </g>
        <g id="Group_1176811" data-name="Group 1176811">
          <g id="Group_1176810" data-name="Group 1176810" clip-path="url(#clip-path)">
            <path id="Path_991616" data-name="Path 991616" d="M45.794,93.264a45.066,45.066,0,0,1-27.059-9.05A46.431,46.431,0,0,1,.534,53.7C-3.3,28.285,13.929,4.442,38.938.546S87.414,14.153,91.249,39.568s-13.395,49.253-38.4,53.149a45.807,45.807,0,0,1-7.054.548m.188-90.011a42.715,42.715,0,0,0-6.557.511C16.16,7.389.136,29.566,3.7,53.2A43.2,43.2,0,0,0,20.632,81.591,41.938,41.938,0,0,0,52.36,89.5C75.623,85.875,91.645,63.7,88.082,40.06A43.189,43.189,0,0,0,71.15,11.674a41.907,41.907,0,0,0-25.168-8.42" transform="translate(0 0.001)" fill="#12263f"/>
          </g>
        </g>
      </g>
    </g>
    <g id="Group_1190937" data-name="Group 1190937" transform="translate(753.957 8641.531)">
      <g id="Group_1190937-2" data-name="Group 1190937" clip-path="url(#clip-path-4)">
        <path id="Path_998454" data-name="Path 998454" d="M17.79,42.6a6.966,6.966,0,0,0,.746-4.164,44.922,44.922,0,0,1-.423-6.426l.011-6.747a.91.91,0,0,0-.553-.921c-1.476-.431-3.467,3.331-3.5,5.685L14,34.549a2.113,2.113,0,0,1-1.464,1.79,2.406,2.406,0,0,1-2.448-.157c-1.226-1.106-2.309-2.258-3.447-3.426A4.182,4.182,0,0,1,5.47,29.84l-.056-6.774a31.043,31.043,0,0,0-2.4,1.969,1.951,1.951,0,0,0-.55,1.259l-.955,7.934c-.339,2.818,2.935,5.092,1.263,5.75a.772.772,0,0,1-.979-.392L.981,38.073A7.794,7.794,0,0,1,.062,33.3l.819-6.791a3.7,3.7,0,0,1,.963-2.493l3.581-3.048.022-3.917a1.445,1.445,0,0,1,1.584-1.534c1.473.035,2.882.046,4.346-.012a4.938,4.938,0,0,1,9.747,0l11.495.025a9.552,9.552,0,0,1,.491-5.668l1.911-3.888a1.864,1.864,0,0,1-1-1.6l-.005-2.653A1.665,1.665,0,0,1,35.71,0L48.13,0a1.652,1.652,0,0,1,1.645,1.722l-.016,2.807a1.64,1.64,0,0,1-1.574,1.536c-.788.862,2.967,7.565,3.577,8.649a7.033,7.033,0,0,1,.744,4.48L51.689,26a3.67,3.67,0,0,1-.962,2.5L47.15,31.54,47.1,35.735a1.362,1.362,0,0,1-1.395,1.378l-4.524.034a4.936,4.936,0,0,1-9.738-.012l-11.482-.023a9.86,9.86,0,0,1-.755,6.092L17.54,46.533A1.949,1.949,0,0,1,18.554,48.3l0,2.488a1.664,1.664,0,0,1-1.692,1.724l-12.422,0a1.563,1.563,0,0,1-1.611-1.426L2.789,48.3a1.73,1.73,0,0,1,1.6-1.847c.7-1.422-2.07-4.227-.537-4.675a.758.758,0,0,1,.927.383,9.53,9.53,0,0,1,1.3,4.316h9.749ZM47.105,22.766l.049,6.678c.868-.573,1.484-1.215,2.241-1.807a2.07,2.07,0,0,0,.723-1.422l.953-8.336a4.826,4.826,0,0,0-.844-2.745c-1.1-2-2.086-3.957-3.015-6.04a6.842,6.842,0,0,1-.7-3.033L40.6,6.019a.713.713,0,0,1-.63-.747.739.739,0,0,1,.67-.728l7.584-.065a21.285,21.285,0,0,0-.04-2.939l-12.622.012.012,2.908a8.78,8.78,0,0,0,1.57.07.815.815,0,0,1,.752.875c.023.636-.8.476-1.08.683A28,28,0,0,0,34.78,9.93a6.657,6.657,0,0,0-.744,4.14,45.348,45.348,0,0,1,.421,6.264l-.009,6.91a.887.887,0,0,0,.555.92,1.185,1.185,0,0,0,1.006-.257,8.123,8.123,0,0,0,2.522-6.25c-.033-2.473-.487-4.795,1.6-5.532a2.42,2.42,0,0,1,2.5.342l3.214,3.2a4.3,4.3,0,0,1,1.261,3.1m-30.117.052A2.194,2.194,0,0,1,19.624,25l.066,9.818c0,.181.016.745.214.756,1.869.1,3.651.029,5.58.033V31.2a4.952,4.952,0,0,1,.033-9.776l-.036-4.358-4.474-.009a1.4,1.4,0,0,1-1.4-1.233,3.392,3.392,0,0,0-6.722.039,1.341,1.341,0,0,1-1.222,1.178L7,17.068l-.018,12.47a3.092,3.092,0,0,0,.9,2.291L10.853,34.8c.377.377,1.451.289,1.549-.342.431-2.759-.844-6.415,2.4-10.286a3.646,3.646,0,0,1,2.182-1.351M45.583,35.582l0-12.775a2.824,2.824,0,0,0-.814-2.031L41.628,17.66c-.351-.349-1.393-.156-1.469.388-.209,1.493.012,2.928-.091,4.433-.178,2.6-1.792,6.717-4.407,7.208a2.212,2.212,0,0,1-2.719-2.175l-.1-10.453-5.757-.005-.055,5.2a.753.753,0,0,1-.762.676,3.4,3.4,0,1,0-.009,6.791.746.746,0,0,1,.775.707l.052,5.174,5.257.039a.715.715,0,0,1,.576.654,3.393,3.393,0,1,0,6.785.076.748.748,0,0,1,.735-.747ZM17.031,47.99H4.326v2.987h12.7Z" transform="translate(0 0)" fill="#12263f"/>
      </g>
    </g>
  </g>
</svg>
