<svg xmlns="http://www.w3.org/2000/svg" xmlns:xlink="http://www.w3.org/1999/xlink" width="290.835" height="267.022" viewBox="0 0 290.835 267.022">
  <defs>
    <clipPath id="clip-path">
      <rect id="Rectangle_455217" data-name="Rectangle 455217" width="290.835" height="267.022" fill="#fff"/>
    </clipPath>
  </defs>
  <g id="img36_3" clip-path="url(#clip-path)">
    <path id="Path_998575" data-name="Path 998575" d="M188.1,270.67c-.045,5.484-3.855,9.4-9.138,9.4l-67.091,0c-13.135,0-8.082-17.269-9.27-25.121l-12.31-4.9L78.706,261.508c-3.488,3.448-8.926,3.124-12.442-.4L18.632,213.436c-3.167-3.171-3.583-8.5-.552-11.658l11.9-12.393A101.981,101.981,0,0,1,25.135,177.5L9.068,177.3a8.823,8.823,0,0,1-9.043-8.965L0,151.935a8.827,8.827,0,0,1,9.125-8.893l71.481.06a65.362,65.362,0,0,0,129.6-.012l72.33.027c4.918,0,8.067,4.307,8.3,8.764l-.149,17.315a8.19,8.19,0,0,1-8.071,7.994l-16.939.316a104.054,104.054,0,0,1-4.838,11.875l11.894,12.4c3,3.123,2.592,8.513-.544,11.652l-47.638,47.683c-3.3,3.3-8.645,4.009-11.972.752L200.544,250.09l-12.316,4.895Z" transform="translate(0 -13.051)" fill="#fff"/>
    <path id="Path_998576" data-name="Path 998576" d="M203.361,102.766l-.167,16.666-95.988.084c-.53-21.81-2.8-37.989,17.621-51.086a45.39,45.39,0,0,0,60.637.015c12.044,6.906,18.041,19.994,17.9,34.32" transform="translate(-9.75 -6.243)" fill="#fff"/>
    <path id="Path_998577" data-name="Path 998577" d="M185.507,28.387A28.351,28.351,0,1,1,157.157.036a28.35,28.35,0,0,1,28.35,28.351" transform="translate(-11.752 -0.003)" fill="#fff"/>
    <path id="Path_998578" data-name="Path 998578" d="M205.609,47.406c5.133-12.584,5.439-25.306-.027-37.881a28.309,28.309,0,1,1,.027,37.881" transform="translate(-18.757 -0.001)" fill="#fff"/>
    <path id="Path_998579" data-name="Path 998579" d="M109.49,9.345a46.8,46.8,0,0,0-.043,37.881,28.05,28.05,0,0,1-40.3,1.954A28.376,28.376,0,1,1,109.49,9.345" transform="translate(-5.482 0)" fill="#fff"/>
    <path id="Path_998580" data-name="Path 998580" d="M231.916,119.549l-.335-21.68a62.836,62.836,0,0,0-3.76-17.727,46.777,46.777,0,0,0,31.27-11.706c19.855,12.558,18.438,30.018,17.752,50.872Z" transform="translate(-20.786 -6.244)" fill="#fff"/>
    <path id="Path_998581" data-name="Path 998581" d="M83.542,97.4l-.209,21.984H38.2C37.542,98.47,36.1,80.907,56,68.452A46.212,46.212,0,0,0,87.242,80.12c-2.034,5.942-3.641,11.113-3.7,17.284" transform="translate(-3.457 -6.245)" fill="#fff"/>
  </g>
</svg>
