<svg xmlns="http://www.w3.org/2000/svg" xmlns:xlink="http://www.w3.org/1999/xlink" width="290.909" height="291.095" viewBox="0 0 290.909 291.095">
  <defs>
    <clipPath id="clip-path">
      <rect id="Rectangle_455218" data-name="Rectangle 455218" width="290.909" height="291.095" fill="#fff"/>
    </clipPath>
  </defs>
  <g id="img36_5" clip-path="url(#clip-path)">
    <path id="Path_998582" data-name="Path 998582" d="M109.408,145.573l-61.27.086a11.891,11.891,0,0,0-11.809,12.218,12.158,12.158,0,0,0,12.031,11.99l59.733.176c2.589.007,4.681-1.063,6.892-1.5L115.242,202c.147,18.932,6.679,36.345,16.713,52.662l-98.378.019C15.3,254.685,0,240.539,0,221.868L0,32.905C0,13.607,15.868,0,34.5,0L171.742.028c18.329,0,34.06,13.382,34.128,32.008l.218,59.932-37.282,12.553c-2.192-4.19-5.239-6.69-9.751-7.334l-112.611.261c-6.833.015-10.609,7.585-10.05,12.923.681,6.5,5.793,10.94,12.655,10.952l78.622.141c-7.776,7.477-11.819,15.634-12.564,25.627-1.654-.48-3.213-1.521-5.7-1.517M96.745,72.817a12.152,12.152,0,0,0,.238-24.3l-48.622.011A12.132,12.132,0,0,0,36.341,61.356c.4,6.5,5.64,11.511,12.694,11.5Z" transform="translate(0 0)" fill="#fff"/>
    <path id="Path_998583" data-name="Path 998583" d="M233.909,301.572a12.169,12.169,0,0,1-9.992-.11c-17.959-8.486-34.069-19.582-47.288-34.408-13.506-15.149-23.119-33.4-23.2-53.787l-.2-52.479c-.023-5.775,3.619-10.166,8.875-11.953l61.556-20.928a16.329,16.329,0,0,1,11.061.075l61.108,20.769c5.253,1.785,8.975,6.173,8.957,11.933l-.166,51.9c-.065,20.144-9.1,38.149-22.183,53.266-13.382,15.458-30.043,27-48.524,35.717M192.784,219.7l24.645,24.752a12,12,0,0,0,18.1-1.2L271.447,195.6c4.3-5.712,4.036-12.838-1.186-17.345-5.018-4.33-13.06-4.094-17.343,1.6l-28.19,37.476-14.81-14.582c-4.569-4.5-12.272-4.158-16.763.3-4.141,4.112-5.325,11.673-.371,16.649" transform="translate(-13.873 -11.497)" fill="#fff"/>
  </g>
</svg>
