<svg id="banner-principal-decorativo-1" xmlns="http://www.w3.org/2000/svg" xmlns:xlink="http://www.w3.org/1999/xlink" width="106.5" height="99.415" viewBox="0 0 106.5 99.415">
  <defs>
    <clipPath id="clip-path">
      <rect id="Rectangle_454779" data-name="Rectangle 454779" width="106.5" height="99.415" fill="none"/>
    </clipPath>
  </defs>
  <g id="Group_1177436" data-name="Group 1177436" clip-path="url(#clip-path)">
    <path id="Path_997385" data-name="Path 997385" d="M30.328,7.38c-7.464-.37-15.374,2.613-19.547,8.812a33.891,33.891,0,0,0-3.607,8.034A42.2,42.2,0,0,0,4.629,34.513a37.5,37.5,0,0,0,.6,8.885A67.26,67.26,0,0,0,8.194,55.552C12.257,66.826,20.524,76.18,29.944,83.588c5.2,4.088,10.886,7.714,17.222,9.609,3.967,1.186,8.4,1.634,12.137-.155,1.5-.717,2.954-2.024,2.934-3.684a6.013,6.013,0,0,0-.975-2.678,65.388,65.388,0,0,1-4.624-12.234c-1.366-4.5-2.743-9.261-1.676-13.844a5.858,5.858,0,0,1,2.418-3.879,8.525,8.525,0,0,1,3.341-.8,27.836,27.836,0,0,0,14.212-6.044c2.229-1.822,4.6-4.144,7.459-3.82a9.1,9.1,0,0,1,3.549,1.5l6.8,4.091c1.09.655,2.341,1.336,3.567,1,1.707-.467,2.305-2.54,2.6-4.286q.983-5.825,1.692-11.692a26.343,26.343,0,0,0,.056-8.483,27.766,27.766,0,0,0-2.363-6.2C95.967,17.09,93.372,11.9,88.665,9.2c-3.571-2.046-7.847-2.343-11.958-2.553-3.347-.171-6.79-.3-9.955.8C62.3,9,55.411,17.047,50.535,15.006c-3.186-1.334-6-3.768-9.3-5.1A33.712,33.712,0,0,0,30.328,7.38" transform="translate(-3.039 -4.358)" fill="#ff9581"/>
    <path id="Path_997386" data-name="Path 997386" d="M182.031,126.214a5.842,5.842,0,0,1,1.645,1.23,29.739,29.739,0,0,0,11.409,6.6c3.229,1,6.7,1.473,9.549,3.289a5.109,5.109,0,0,1,1.772,1.7,6.384,6.384,0,0,1,.572,3.13c.059,7.814-.729,15.922-4.623,22.7-3.7,6.436-9.871,11.081-16.309,14.776a12.411,12.411,0,0,1-3.26,1.45,9.957,9.957,0,0,1-5.689-.63c-6.938-2.578-11.788-8.823-15.749-15.076a55.482,55.482,0,0,1-6.153-12.24,25.219,25.219,0,0,1-.921-13.532A3.644,3.644,0,0,1,155,137.96a4.058,4.058,0,0,1,1.874-.979,102.531,102.531,0,0,0,13.405-5.073,41.512,41.512,0,0,0,6.115-3.383c1.615-1.144,3.416-3.236,5.64-2.312" transform="translate(-102.552 -84.045)" fill="#fff"/>
    <path id="Path_997387" data-name="Path 997387" d="M203.368,178.872c-.992.96-2.589.706-3.945.965a4.17,4.17,0,0,0-3.2,2.648,3.166,3.166,0,0,0,1.425,3.734c2,1,5-.473,6.361,1.3a5.31,5.31,0,0,1,.6,2.969,5.1,5.1,0,0,0,1.639,3.652,3.792,3.792,0,0,0,5.8-2.046c.249-1.18-.086-2.5.494-3.553a3.908,3.908,0,0,1,3.181-1.618,10.37,10.37,0,0,0,3.641-.614,3.621,3.621,0,0,0-.681-6.748c-1.148-.3-2.415-.036-3.513-.487-3.558-1.463-1.787-7.626-5.922-8.5a4.711,4.711,0,0,0-4.822,2.465c-.8,1.795.479,4.342-1.066,5.836" transform="translate(-130.802 -113.741)" fill="#68c8f2"/>
    <path id="Path_997388" data-name="Path 997388" d="M81.233,98.589c-1.809.743-3.234,1.159-5.019.488A41.436,41.436,0,0,1,60.248,88.309a91.988,91.988,0,0,1-10.6,4.083c-16.46-5.37-31.138-14.974-40.5-29.7C1.438,50.564-2.454,34.906,1.67,20.916A32.664,32.664,0,0,1,9.526,7.125,22.691,22.691,0,0,1,27.257.038,34.454,34.454,0,0,1,49.7,9.837,34.463,34.463,0,0,1,71.971.047c7.786-.5,14.788,2.986,19.7,9.083,9.041,11.512,9.3,26.365,5.03,39.976a15.623,15.623,0,0,0,4.418.837,5.644,5.644,0,0,1,5.295,5.238,53.1,53.1,0,0,1-1.669,16.491A39.265,39.265,0,0,1,81.233,98.589M54.844,50.013a28.954,28.954,0,0,0,19.119-9.078,5.709,5.709,0,0,1,8.392.1,27.592,27.592,0,0,0,10.858,7.113c3.939-11.749,3.94-24.9-3.189-35.382C86.656,8.236,82.094,4.481,76.294,3.8c-9.465-1.107-18.657,2.856-25.1,9.631a1.831,1.831,0,0,1-2.923.052A30.486,30.486,0,0,0,23.981,3.691c-5.071.369-9.414,3.072-12.753,6.817C1.5,21.422,2.053,38.218,7.264,51.3,14.708,69.98,31.185,82.491,49.78,88.7A86.113,86.113,0,0,0,57.892,85.4c-6.147-8.408-8.813-20.185-8.077-30.363a5.455,5.455,0,0,1,5.029-5.026m48.05,5.8a2.121,2.121,0,0,0-2.058-2.31A32.558,32.558,0,0,1,79.5,43.239a1.855,1.855,0,0,0-2.709-.095A32.616,32.616,0,0,1,55.269,53.532a1.963,1.963,0,0,0-1.916,1.743C52.21,73.2,60.562,89.869,78.19,95.962c17.632-6.565,25.367-22,24.7-40.148" transform="translate(0.001 0)"/>
    <path id="Path_997389" data-name="Path 997389" d="M30.074,30.2C22.057,40.673,27,49.8,23,49.8a1.852,1.852,0,0,1-1.768-1.962c.025-7.458,1.866-15.008,6.787-20.731a15.436,15.436,0,0,1,11.772-5.62A1.752,1.752,0,0,1,41.643,23.1c.289,3.632-5.78-.469-11.569,7.094" transform="translate(-14.163 -14.336)"/>
    <path id="Path_997390" data-name="Path 997390" d="M27.383,119.06c1.031,4.835,3.2,8.163.61,8.943a1.783,1.783,0,0,1-2.073-1.17,44.451,44.451,0,0,1-2.02-7.322,1.676,1.676,0,0,1,1.484-2.089,1.8,1.8,0,0,1,2,1.638" transform="translate(-15.921 -78.328)"/>
    <path id="Path_997391" data-name="Path 997391" d="M211.535,190.494c-.276,3.875-4.352,3.532-7.231,3.374-4.762-.261-2.991-6-3.459-8.794l-5.508-.109a3.362,3.362,0,0,1-3.289-3.385l-.007-3.7c-.009-4.9,6.241-3.149,8.836-3.628l.058-5.383a3.306,3.306,0,0,1,3.372-3.325c1.476.018,2.877-.1,4.338.054,4.111.437,2.569,6.111,3,8.647,2.66.485,8.718-1.238,8.729,3.62l.008,3.361a3.6,3.6,0,0,1-3.737,3.782c-1.671,0-3.279-.093-4.985.063-.247,1.82.005,3.56-.127,5.417m-3.521-.33.008-6.939c0-3.062,6.052-1.117,8.773-1.832a11.317,11.317,0,0,0,.077-3.453l-6.9-.038a1.768,1.768,0,0,1-1.931-1.671l-.111-7.145a7.432,7.432,0,0,0-3.529.149l-.037,7.01a1.6,1.6,0,0,1-1.7,1.633l-6.96.052a8.49,8.49,0,0,0,0,3.495c2.9.659,8.66-1.254,8.675,1.782l.034,6.968a10.47,10.47,0,0,0,3.6-.011" transform="translate(-128.111 -110.421)"/>
  </g>
</svg>
