<svg id="audio" xmlns="http://www.w3.org/2000/svg" width="125" height="125" viewBox="0 0 125 125">
  <circle id="Ellipse_13657" data-name="Ellipse 13657" cx="62.5" cy="62.5" r="62.5" fill="rgba(255,95,101,0)"/>
  <path id="Path_998479" data-name="Path 998479" d="M58.75,87.5a3.134,3.134,0,0,1-2.083,2.917,1.533,1.533,0,0,1-1.25.416A3.182,3.182,0,0,1,53.333,90L35.417,74.583H25.833A3.584,3.584,0,0,1,22.5,71.25V57.5a3.286,3.286,0,0,1,3.333-3.333h9.584L53.333,38.75a3.266,3.266,0,0,1,3.334-.417A3.134,3.134,0,0,1,58.75,41.25Zm12.5-5.417a3.522,3.522,0,0,1-2.5-.833l-.417-.417c-1.25-1.25-1.25-2.916-.416-4.583A20.638,20.638,0,0,0,67.5,52.083c-1.25-1.25-.833-3.333.417-4.583l.416-.417c.834-.833,1.667-1.25,2.5-.833a3.6,3.6,0,0,1,2.5,1.25,28.777,28.777,0,0,1,.834,33.75A10.59,10.59,0,0,1,71.25,82.083ZM84.583,92.5a2.519,2.519,0,0,1-2.5,1.25,5.935,5.935,0,0,1-2.5-.833l-.416-.417a3.269,3.269,0,0,1,0-4.583c11.25-13.75,10.833-33.75-.417-47.5a3.27,3.27,0,0,1,0-4.584L79.167,35c.416-.833,1.666-.833,2.5-.833a3.6,3.6,0,0,1,2.5,1.25C97.917,51.667,97.917,75.833,84.583,92.5Z"/>
</svg>
