<svg xmlns="http://www.w3.org/2000/svg" xmlns:xlink="http://www.w3.org/1999/xlink" width="111.422" height="109.662" viewBox="0 0 111.422 109.662">
  <defs>
    <clipPath id="clip-path">
      <rect id="Rectangle_454533" data-name="Rectangle 454533" width="111.422" height="109.662" fill="none"/>
    </clipPath>
    <clipPath id="clip-path-2">
      <path id="Path_991615" data-name="Path 991615" d="M44.889,1.875a51.338,51.338,0,1,0,7.853-.6,51.4,51.4,0,0,0-7.853.6" transform="translate(-1.27 -1.273)" fill="#ff9581"/>
    </clipPath>
    <clipPath id="clip-path-3">
      <rect id="Rectangle_454781" data-name="Rectangle 454781" width="69.749" height="55.868" fill="none"/>
    </clipPath>
  </defs>
  <g id="banner-principal-decorativo-2" transform="translate(-1226.578 -189.081)">
    <g id="Group_1177029" data-name="Group 1177029" transform="translate(1226.578 189.082)">
      <g id="Group_1176807" data-name="Group 1176807" transform="translate(0 0)">
        <g id="Group_1176806" data-name="Group 1176806" clip-path="url(#clip-path)">
          <path id="Path_991613" data-name="Path 991613" d="M5.217,62.606a51.4,51.4,0,1,1,58.6,43.017,51.4,51.4,0,0,1-58.6-43.017" transform="translate(2.131 1.575)" fill="#12263f"/>
          <path id="Path_991614" data-name="Path 991614" d="M56.493,108.676a53.417,53.417,0,1,1,8.186-.627,53.986,53.986,0,0,1-8.186.627M56.714,5.854a50.356,50.356,0,0,0-7.61.583,49.316,49.316,0,1,0,7.61-.583" transform="translate(1.544 0.987)" fill="#1c2147"/>
        </g>
      </g>
      <g id="Group_1176809" data-name="Group 1176809" transform="translate(1.856 1.861)">
        <g id="Group_1176808" data-name="Group 1176808" clip-path="url(#clip-path-2)">
          <rect id="Rectangle_454534" data-name="Rectangle 454534" width="153.252" height="153.252" transform="translate(-56.958 53.258) rotate(-45)" fill="#ff9581"/>
        </g>
      </g>
      <g id="Group_1176811" data-name="Group 1176811" transform="translate(0 0)">
        <g id="Group_1177440" data-name="Group 1177440">
          <path id="Path_991616" data-name="Path 991616" d="M53.151,106.537a53.319,53.319,0,1,1,8.188-.626,54,54,0,0,1-8.188.626M53.369,3.716a50.355,50.355,0,0,0-7.61.583,49.313,49.313,0,1,0,7.61-.583" transform="translate(0 0.001)" fill="#1c2147"/>
        </g>
      </g>
    </g>
    <g id="Group_1177442" data-name="Group 1177442" transform="translate(1245.363 214.343)">
      <g id="Group_1177441" data-name="Group 1177441" clip-path="url(#clip-path-3)">
        <path id="Path_997392" data-name="Path 997392" d="M32.087,58.237c-.177-2.269,1.055-4.389,2.329-6.274a2.185,2.185,0,0,1,.662-.715c1.076-.623,2.4.783,3.592.447.306-.086.573-.282.879-.371a2.328,2.328,0,0,1,1.772.411,8.593,8.593,0,0,1,3.8,4.854,5.263,5.263,0,0,0,.913,2.172,4.066,4.066,0,0,0,3.124.839l11.374-.165a3.73,3.73,0,0,0,2.326-.555c1.114-.894.842-2.615,1.131-4.014.462-2.239,2.469-3.757,3.908-5.534,3.246-4.008,3.667-9.534,3.95-14.683q.154-2.816.309-5.632a5.121,5.121,0,0,0-.127-1.865,3.481,3.481,0,0,0-2.868-2.138,10.25,10.25,0,0,0-3.728.362,100.982,100.982,0,0,0-.254-10.647c-.1-1.974-.595-4.38-2.483-4.965-1.192-.369-2.575.17-3.689-.392-1.528-.772-1.785-3.236-3.446-3.65-1.2-.3-2.313.708-3.033,1.712s-1.437,2.185-2.636,2.485c-.87.218-1.824-.094-2.67.2-2.015.706-1.826,4.041-3.748,4.971a4.2,4.2,0,0,1-1.48.312l-4.114.359C36.29,15.9,34.553,16,33.24,15.1c-1.639-1.133-2.12-3.523-3.865-4.482-.674-.371-1.461-.478-2.167-.784-1.3-.566-2.215-1.752-3.327-2.638s-2.755-1.462-3.919-.647c-1.053.738-1.249,2.3-2.279,3.069-1.163.872-2.893.4-4.179,1.075-1.707.9-1.826,3.259-1.718,5.187q.226,4.031.452,8.063a1.792,1.792,0,0,1-.258,1.288c-.554.647-1.58.216-2.417.064-1.871-.339-3.7,1.136-4.381,2.91a11.228,11.228,0,0,0-.228,5.635A74.353,74.353,0,0,0,7.618,45.55a11.958,11.958,0,0,0,1.4,3.216A35.446,35.446,0,0,0,11.89,51.86a10.283,10.283,0,0,1,2.116,3.846c.331,1.121.576,2.445,1.6,3a3.658,3.658,0,0,0,1.66.31c4.733.131,10.083-.707,14.817-.78" transform="translate(-3.682 -4.431)" fill="#fff"/>
        <path id="Path_997393" data-name="Path 997393" d="M98.025,97.909a11.438,11.438,0,0,0-4.457,2.5,7.608,7.608,0,0,0-2.958,3.835c-.452,1.884.473,3.808,1.487,5.46a40.812,40.812,0,0,0,12.31,12.7,2.365,2.365,0,0,0,1.422.528,2.327,2.327,0,0,0,1.088-.488c3.987-2.741,7.209-6.433,10.385-10.084a16.828,16.828,0,0,0,2.521-3.45A8.664,8.664,0,0,0,117.5,98.58a5.818,5.818,0,0,0-2.471-1.2c-1.778-.338-3.56.429-5.207,1.179-1.2.547-2.348,1.165-3.514,1.782-1.441.763-1.338.194-2.442-.817a6.623,6.623,0,0,0-5.838-1.613" transform="translate(-70.754 -76.074)" fill="#abacff"/>
        <path id="Path_997394" data-name="Path 997394" d="M53.392,24.842,53.362,4.586a1.924,1.924,0,0,0-2.025-1.853A1.959,1.959,0,0,0,49.4,4.8l.026,19.136a9.067,9.067,0,0,1-.645,11.778l-9.584,9.645c.845,2.055,3.433,3.207,3.447,4.619L42.669,53c.893.5,2.816-.438,3.122,1.206a1.287,1.287,0,0,1-1.1,1.571,9.338,9.338,0,0,1-2.757-.053c-2.6-.579-1.948-3.532-2.082-5.293a17.64,17.64,0,0,1-2.665-3.048,3.267,3.267,0,0,1-4.6,0A19.433,19.433,0,0,1,29.9,50.431l-.044,2.783a2.7,2.7,0,0,1-2.833,2.617L11.32,55.817a2.633,2.633,0,0,1-2.6-2.588L8.662,49.98c-4.229-3.424-7.144-7.787-7.625-13.359L.021,24.87a4.812,4.812,0,0,1,1.887-4.378,5.061,5.061,0,0,1,5.172-.378L7.249,7.876C7.292,4.818,10.837,3.182,13.6,4.3A4.814,4.814,0,0,1,18.2,0a4.735,4.735,0,0,1,4.9,4.3,4.944,4.944,0,0,1,4.794.609,5.017,5.017,0,0,1,1.764,4.8,4.984,4.984,0,0,1,5.214.965,4.9,4.9,0,0,1,5.21-.948A5.073,5.073,0,0,1,41.739,5a4.811,4.811,0,0,1,4.906-.678,4.767,4.767,0,0,1,9.489-.029,4.821,4.821,0,0,1,4.3.334,4.332,4.332,0,0,1,2.141,3.44l.093,12.044a4.837,4.837,0,0,1,7.047,5.149L68.546,37.873c-.46,4.951-3.644,9.01-7.428,12.1l-.1,3.438c-.053,1.892-1.923,2.6-3.689,2.425-.628-.064-1.2-.088-1.5-.568a1.449,1.449,0,0,1-.022-1.555c.652-1.037,2.419-.224,2.439-.73L58.4,49.04c.03-.748,6.8-5.134,7.37-11.162L67.05,24.42a2.091,2.091,0,0,0-1.938-2.149,2.116,2.116,0,0,0-2.158,1.914l-1.162,7.146a1.338,1.338,0,0,1-2.641-.372l.714-5.037.052-17.2A1.911,1.911,0,1,0,56.1,8.557l-.033,16.307a1.3,1.3,0,0,1-1.241,1.32,1.324,1.324,0,0,1-1.438-1.341M4.007,37.978c.579,5.916,7.314,10.319,7.344,11.06l.168,4.114,15.509.005c.4-1.846-.518-3.451.818-4.585a11.143,11.143,0,0,0,2.72-3.215l-9.681-9.765a9,9,0,0,1-.548-11.657l.009-19.36a1.919,1.919,0,0,0-1.932-1.841,1.885,1.885,0,0,0-2,1.663l-.051,20.446a1.34,1.34,0,0,1-1.439,1.342c-.812-.038-1.245-.665-1.246-1.544L13.656,8.556a1.91,1.91,0,1,0-3.814.172l.052,17.193.713,5.038A1.308,1.308,0,0,1,9.4,32.368a1.337,1.337,0,0,1-1.433-1.035L6.806,24.185a2.1,2.1,0,0,0-2.344-1.89A2.14,2.14,0,0,0,2.7,24.646ZM27.022,20.264,27.005,8.716a1.976,1.976,0,0,0-1.834-2.04c-.863-.04-2.034.5-2.037,1.6L23.1,21.445a15.1,15.1,0,0,1,3.926-1.181m19.637,1.164L46.622,8.276c0-1.17-1.286-1.7-2.246-1.569A1.986,1.986,0,0,0,42.75,8.718l.042,11.619a11.579,11.579,0,0,1,3.867,1.09m-13.187.893.071-8.153a1.934,1.934,0,1,0-3.857,0c.034,2.176-.081,4.26.063,6.387a10.549,10.549,0,0,1,3.723,1.769m6.614-1.857-.009-6.3a1.934,1.934,0,1,0-3.859,0l.041,8.161a13.932,13.932,0,0,1,3.826-1.863m-2.579,4.485-1.714,1.7a1.279,1.279,0,0,1-1.819.006l-1.885-1.86a6.437,6.437,0,0,0-9,9.2L34.926,45.751,46.557,34.143a6.452,6.452,0,1,0-9.051-9.195" transform="translate(0 0.001)" fill="#12263f"/>
        <path id="Path_997395" data-name="Path 997395" d="M228.915,244.936a1.348,1.348,0,1,1-1.348-1.348,1.348,1.348,0,0,1,1.348,1.348" transform="translate(-176.874 -190.456)"/>
      </g>
    </g>
  </g>
</svg>
