<svg xmlns="http://www.w3.org/2000/svg" xmlns:xlink="http://www.w3.org/1999/xlink" width="293" height="310" viewBox="0 0 293 310">
  <defs>
    <clipPath id="clip-path">
      <rect id="Rectangle_455080" data-name="Rectangle 455080" width="292.63" height="294.178" fill="none"/>
    </clipPath>
    <clipPath id="clip-path-3">
      <rect id="Rectangle_455059" data-name="Rectangle 455059" width="195.29" height="183.651" fill="none"/>
    </clipPath>
    <clipPath id="clip-path-4">
      <rect id="Rectangle_455063" data-name="Rectangle 455063" width="57.645" height="47.516" fill="none"/>
    </clipPath>
    <clipPath id="clip-path-5">
      <rect id="Rectangle_455069" data-name="Rectangle 455069" width="10.089" height="1.409" fill="none"/>
    </clipPath>
    <clipPath id="clip-path-6">
      <rect id="Rectangle_455070" data-name="Rectangle 455070" width="9.044" height="1.186" fill="none"/>
    </clipPath>
    <clipPath id="clip-path-7">
      <rect id="Rectangle_455071" data-name="Rectangle 455071" width="1.979" height="6.268" fill="none"/>
    </clipPath>
  </defs>
  <g id="img17" transform="translate(-289 -4556)">
    <g id="Group_1190640" data-name="Group 1190640" transform="translate(289 4564)">
      <g id="Group_1190639" data-name="Group 1190639" clip-path="url(#clip-path)">
        <g id="Group_1190638" data-name="Group 1190638">
          <g id="Group_1190637" data-name="Group 1190637" clip-path="url(#clip-path)">
            <path id="Path_997979" data-name="Path 997979" d="M107.144,254.509c-9.242-16.706-18.672-33.661-32.361-47S42.3,184.7,22.5,187.344c4.019,19.739,11.383,39.462,25.774,53.492s36.988,21.126,58.871,13.673" transform="translate(-7.382 -61.32)" fill="#68c8f2"/>
            <path id="Path_997980" data-name="Path 997980" d="M31.436,192.962q14.614,13.273,29.227,26.549c14.422,13.1,28.959,26.292,45.632,36.379" transform="translate(-10.314 -63.308)" fill="none" stroke="#eaf8f9" stroke-linecap="round" stroke-miterlimit="10" stroke-width="1"/>
            <path id="Path_997981" data-name="Path 997981" d="M51.406,192.511a69.25,69.25,0,0,1,1.946,14.229" transform="translate(-16.866 -63.16)" fill="none" stroke="#eaf8f9" stroke-linecap="round" stroke-miterlimit="10" stroke-width="1"/>
            <path id="Path_997982" data-name="Path 997982" d="M56.4,222.086a96.444,96.444,0,0,1-14.454,10.231" transform="translate(-13.763 -72.863)" fill="none" stroke="#eaf8f9" stroke-linecap="round" stroke-miterlimit="10" stroke-width="1"/>
            <path id="Path_997983" data-name="Path 997983" d="M86.908,232.71a65.587,65.587,0,0,0,3.282-21.017" transform="translate(-28.513 -69.454)" fill="none" stroke="#eaf8f9" stroke-linecap="round" stroke-miterlimit="10" stroke-width="1"/>
            <path id="Path_997984" data-name="Path 997984" d="M92.483,254.838a40.413,40.413,0,0,1-14.916,10.616" transform="translate(-25.449 -83.609)" fill="none" stroke="#eaf8f9" stroke-linecap="round" stroke-miterlimit="10" stroke-width="1"/>
            <path id="Path_997985" data-name="Path 997985" d="M122.181,265.411a43.151,43.151,0,0,0,.878-15.381" transform="translate(-40.086 -82.031)" fill="none" stroke="#eaf8f9" stroke-linecap="round" stroke-miterlimit="10" stroke-width="1"/>
            <path id="Path_997986" data-name="Path 997986" d="M103.64,282.923C74.932,260.27,33.741,254.631,0,268.731a65.207,65.207,0,0,0,45.443,30.011c18.544,2.726,38.183-3.165,58.2-15.819" transform="translate(0 -85.646)" fill="#c8eefe"/>
            <path id="Path_997987" data-name="Path 997987" d="M10.524,274.873c10.317,4.914,20.751,9.874,31.925,12.262,11.886,2.541,24.188,2.083,36.32,1.377q12.009-.7,23.995-1.709" transform="translate(-3.453 -90.182)" fill="none" stroke="#68c8f2" stroke-linecap="round" stroke-miterlimit="10" stroke-width="1"/>
            <path id="Path_997988" data-name="Path 997988" d="M34.884,279.72a56.6,56.6,0,0,0-3.548-13.939" transform="translate(-10.281 -87.199)" fill="none" stroke="#68c8f2" stroke-linecap="round" stroke-miterlimit="10" stroke-width="1"/>
            <path id="Path_997989" data-name="Path 997989" d="M26.045,283.5a35.762,35.762,0,0,1-6.084,5.508" transform="translate(-6.549 -93.012)" fill="none" stroke="#68c8f2" stroke-linecap="round" stroke-miterlimit="10" stroke-width="1"/>
            <path id="Path_997990" data-name="Path 997990" d="M51.829,305.88a43.157,43.157,0,0,0,8.382-11.465" transform="translate(-17.004 -96.593)" fill="none" stroke="#68c8f2" stroke-linecap="round" stroke-miterlimit="10" stroke-width="1"/>
            <path id="Path_997991" data-name="Path 997991" d="M76.426,285.945a114.1,114.1,0,0,0-5.746-20.064" transform="translate(-23.189 -87.232)" fill="none" stroke="#68c8f2" stroke-linecap="round" stroke-miterlimit="10" stroke-width="1"/>
            <path id="Path_997992" data-name="Path 997992" d="M115.69,274.149a55.584,55.584,0,0,1,3.427,13.722" transform="translate(-37.956 -89.945)" fill="none" stroke="#eaf8f9" stroke-linecap="round" stroke-miterlimit="10" stroke-width="1"/>
            <path id="Path_997993" data-name="Path 997993" d="M112.664,295.14a24,24,0,0,1-6.054,10.889" transform="translate(-34.977 -96.831)" fill="none" stroke="#eaf8f9" stroke-linecap="round" stroke-miterlimit="10" stroke-width="1"/>
            <path id="Path_997994" data-name="Path 997994" d="M281.695,127.56A103.473,103.473,0,0,1,280.1,138.2a101.794,101.794,0,0,1-5.252,17.56c-.175.441-.354.882-.538,1.319q-.761,1.828-1.591,3.618a102.4,102.4,0,0,1-184.268,3.187v0a101.862,101.862,0,0,1-10.536-56.1q.328-3.376.867-6.679A102.326,102.326,0,0,1,247.721,41.067q2.431,2.161,4.721,4.469,2.071,2.089,4.018,4.29a102.145,102.145,0,0,1,25.235,77.734" transform="translate(-25.404 -5.018)" fill="#26c7ff"/>
            <path id="Path_997995" data-name="Path 997995" d="M264.748,44.146a12.4,12.4,0,0,1-4.98.514c-2.728-.027-3.3,4.664-4.046,7.441a5.7,5.7,0,0,1-3.209,3.7c-2.562-.546-3.25,4.414-5.479,3.528s-3.177,1.931-5.369,1.42-4.311,2.868-7.552,3.151-3.287-2.5-3.509-4.263,1.662-2.7,2.792-3.932a17.687,17.687,0,0,1,4.669-3.075c1.174-.56.506-1.184.372-3.831s.135-3.124-.459-5.086-4.98-2.389-6.91-3.865-2.441-.237-4.273,1.32-2.242,4.6-3.647,3.513-3.932-1.055-4.646-2.356-1.846-2.923.188-3.679,1.949-1.6.815-2.612a12.79,12.79,0,0,0-4.1-2.751c-1.889-.743-4.361-3-6.906-2.743s-2.141,1.453-1.929,3.118,5.684.7,5.437,1.722-3.925,1.936-7.214,2.737-3.169-.458-5.907,1.594-4.349.923-6.485,1.388-4.549,2.994-4.433,4.873,3.884,2.32,5.9,3.861,3.911,1.275,3.971,3.747,1.206,2.958,2.047,2.739.071-1.486,1.826-3.407,7.065-2.753,8.963-6.154,5.081-3.841,6.324-3.571,1.282,2.964,1.4,4.844,1.309,1.919,2.333.6a2.393,2.393,0,0,1,3.581.048c.669.812.636,1.929.228,4.58s2.406,2.921,1.512,4.429-5.491,1.16-8.908.977-2.853,1.665-2.68,4.523,1.947,3.028-1.45,5.686-5.424-2.618-8.438-.819-11.017,7.3-15.139,9.737-8.157,10.9-8.39,14.465-3.26,4.726-6.233,1.859-3.637-6.405-5.46-7.252-8.157-.232-10,1.383-4.813,4.576-5.921,5.59-.557,6.892,2.565,8.2,5.632,2.006,8.078-.112,5.774.56,3.739,3.054,1.623,3.294,2.87,4.313.792,2.616.666,5.443,3.136,4.638,5.9,2.366,6.69.35,9.9,1.109,3.753-1.727,8.242-.245,3.81,2.311,6.679,6.624,6.274.013,9.573,2.967-.858,7.294,5.082,9.214,8.291.8,10.071,2.471,2.485,5.174,7.539,7.007,2,7.067-2.13,11.15-3.542,8.772-6.012,14.21-11.9,8.706-14.71,9.927-4.733,5.667-4.931,9.234-4.342,3.164-7.03,4.7-3.48,9.674-4.026,15.3-.779,6.5-4.04,4.69-3.378-11.386-3.378-11.386l.575-5.92c.575-5.92-4.576-11.351-5.868-18.052s5.008-13.11.82-17.7-9.5-5.255-9.029-9.542-.024-4.933-2.211-8.582-1.2-4.6-.641-7.236-.185-2.705.267-4.3,3.053-3.739,4.38-5.1,1.084-3.48-.857-5.014-6.2.744-8.663-1.588-1.926-8.627-3.526-9.082-3.562-1.019-4.335-2.288a6.85,6.85,0,0,0-4.9-2.643c-1.93-.112-8.041.489-10.4-2.877s-1.106-5.56-2.9-8.576-1.754-8.089-3.153-8.3-.475,1.822-.933,4.242.773,6.651-.978,5.433-3.087-8.218-3.087-8.218l.035-3.433A12.257,12.257,0,0,0,130.98,78.1c-1.265-2.362-2.509-8.013-.862-11.14S132.6,61.371,135.27,57s4.414-3.907,5.566-4.988a3.719,3.719,0,0,0-.669-5.443c-2.105-1.4-.365-3.921-2.547-6.075a5,5,0,0,0-3.021-1.017,102.478,102.478,0,0,1,18.257-11.179,16.285,16.285,0,0,0,1.633.424c2.863.5,7.531,2.074,12.883,1.193,1.714-.282,3.285-2.09,5.24-2.012s5.477,3.593,5.991,2.149-2.967-2.53-1.543-4.109,4.707-1.561,9.616-.56,27.511.782,28.755,1.241-.644,1.45.851,2.212,3.231-.977,4.681-.331-.3.813.8,2.133c.523.628,2.962-5.281,7.647-4.734a11.155,11.155,0,0,0,4.308-.669,101.951,101.951,0,0,1,31.028,18.914" transform="translate(-42.431 -8.098)" fill="#32b38e"/>
            <path id="Path_997996" data-name="Path 997996" d="M216.839,137.954s-5.682-3.8-9.712-3.856-6.189,1.416-5.165,2.412,2.521.581,4.415,3.006,4.1-1.844,6.68-.7,3.442.334,3.782-.865" transform="translate(-66.178 -43.995)" fill="#32b38e"/>
            <path id="Path_997997" data-name="Path 997997" d="M229.209,143.646s-5.93.209-6.958,2.575,2.581-.2,5.117,1.393,4.587,1.23,5.082-.4a2.754,2.754,0,0,0-3.24-3.564" transform="translate(-72.858 -47.117)" fill="#32b38e"/>
            <path id="Path_997998" data-name="Path 997998" d="M242.519,148.27s-1.715.351-1.844,1.682,1.861,2.758,3.667,1.477-.029-3.166-1.822-3.159" transform="translate(-78.96 -48.645)" fill="#32b38e"/>
            <path id="Path_997999" data-name="Path 997999" d="M367.593,137.138c-1.412,3.685-1.738,6.335-4.39,5.5-4.341-1.359-5.9-.435-15.276-5s-1.777-10.983-4.068-17.149-7.466-5.118-5.573-13.978,10.012-7.3,8.635-14.407c-.689-3.554,1.353-6.634,3.568-8.824a101.887,101.887,0,0,1,17.1,53.859" transform="translate(-110.853 -27.323)" fill="#32b38e"/>
            <path id="Path_998000" data-name="Path 998000" d="M360.417,198.216a102.111,102.111,0,0,1-38.187,60.841c2.045-5.518,7.5-13.168,4.04-22.752-5.3-14.691,9.627-10.435,10.114-19s-1.3-11.5,9.958-13.849a53.888,53.888,0,0,0,14.075-5.237" transform="translate(-105.719 -65.032)" fill="#32b38e"/>
            <path id="Path_998001" data-name="Path 998001" d="M347.074,177.948s-4.474-1.238-6.934,1.624-2.493,3.2-3.28,6.573,3.333-.021,5.517-.039,3.626,2.878,5.447-.5,2.9-6.265-.751-7.653" transform="translate(-110.487 -58.295)" fill="#32b38e"/>
            <g id="Group_1190624" data-name="Group 1190624" transform="translate(52.026 31.376)" opacity="0.2" style="mix-blend-mode: multiply;isolation: isolate">
              <g id="Group_1190623" data-name="Group 1190623">
                <g id="Group_1190622" data-name="Group 1190622" clip-path="url(#clip-path-3)">
                  <path id="Path_998002" data-name="Path 998002" d="M272.72,171a102.4,102.4,0,0,1-184.268,3.186h0a101.862,101.862,0,0,1-10.536-56.1q.328-3.376.867-6.679A102.075,102.075,0,0,1,117.571,46.7s-17.765,81.949,23.242,120.561C182.805,206.8,257.145,201.322,272.72,171" transform="translate(-77.43 -46.697)" fill="#1a3866"/>
                </g>
              </g>
            </g>
            <path id="Path_998003" data-name="Path 998003" d="M229.207,0a16.861,16.861,0,1,1-16.861,16.861A16.861,16.861,0,0,1,229.207,0" transform="translate(-69.668)" fill="#1a3866"/>
            <path id="Path_998004" data-name="Path 998004" d="M241.561,12.345V23.186a6.9,6.9,0,0,1-3.022,5.71l-3.775,2.559a1.874,1.874,0,0,1-2.067.029l-4.064-2.609a6.9,6.9,0,0,1-3.18-5.809V12.345Z" transform="translate(-73.968 -4.05)" fill="#fcfcfc"/>
            <rect id="Rectangle_455060" data-name="Rectangle 455060" width="9.807" height="3.031" transform="translate(154.64 15.783)" fill="#ba2f54"/>
            <rect id="Rectangle_455061" data-name="Rectangle 455061" width="3.031" height="9.807" transform="translate(158.031 12.395)" fill="#ba2f54"/>
            <path id="Path_998005" data-name="Path 998005" d="M72.571,93.073a20.955,20.955,0,1,1-20.954,20.954A20.954,20.954,0,0,1,72.571,93.073" transform="translate(-16.935 -30.536)" fill="#1a3866"/>
            <path id="Path_998006" data-name="Path 998006" d="M80.076,100.895a5.873,5.873,0,0,1,7.533,3.495L93.14,119.5a5.872,5.872,0,1,1-11.027,4.039l-5.531-15.107a5.868,5.868,0,0,1,3.495-7.533" transform="translate(-25.007 -32.984)" fill="#82ced8"/>
            <path id="Path_998007" data-name="Path 998007" d="M80.076,100.895a5.873,5.873,0,0,1,7.533,3.495l2.769,7.556L79.35,115.985l-2.769-7.557a5.868,5.868,0,0,1,3.495-7.533" transform="translate(-25.007 -32.984)" fill="#fefffe"/>
            <path id="Path_998008" data-name="Path 998008" d="M60.735,115.3a5.865,5.865,0,0,1,8.3,0l11.378,11.379a5.869,5.869,0,0,1-8.3,8.3L60.735,123.6a5.875,5.875,0,0,1,0-8.3" transform="translate(-19.363 -37.264)" fill="#6fb7bc"/>
            <path id="Path_998009" data-name="Path 998009" d="M60.735,115.3a5.865,5.865,0,0,1,8.3,0l5.689,5.689-8.3,8.3L60.735,123.6a5.875,5.875,0,0,1,0-8.3" transform="translate(-19.363 -37.264)" fill="#fff"/>
            <path id="Path_998010" data-name="Path 998010" d="M167.327,34.339c-1.246,16.233-24.064,34.877-32.985,41.39a5.8,5.8,0,0,1-6.842,0c-8.921-6.513-31.739-25.157-32.986-41.39-1.55-20.142,23.437-30.959,36.406-9.465C143.89,3.379,168.877,14.2,167.327,34.339" transform="translate(-30.986 -4.299)" fill="#ba2f54"/>
            <path id="Path_998011" data-name="Path 998011" d="M164.543,48.917a.718.718,0,0,1-.72.577H157.2a.769.769,0,0,1-.716-.487l-.328-.83-1.712-4.335-1.37,3.468a.691.691,0,0,1-.644.438h-4.016a.688.688,0,0,1-.64-.436L146.5,44.08l-4.763,12.062a.695.695,0,0,1-1.287,0l-2.428-6.155L130.93,67.954a.688.688,0,0,1-1.283,0l-7.62-19.3h-2.9a.691.691,0,0,1-.644-.438L116.973,44.4l-1.842,4.66a.691.691,0,0,1-.641.438H103.435a.711.711,0,0,1-.714-.581.693.693,0,0,1,.685-.8h10.61l2.311-5.852a.692.692,0,0,1,1.287,0l1.981,5.01h2.9a.692.692,0,0,1,.646.438l7.148,18.109,7.091-17.966a.692.692,0,0,1,1.287,0L141.095,54l4.759-12.059a.692.692,0,0,1,1.287,0l1.747,4.421h3.073L153.8,41.7a.689.689,0,0,1,1.283,0l2.531,6.407h6.246a.689.689,0,0,1,.679.806" transform="translate(-33.699 -13.539)" fill="#fdfbec"/>
            <path id="Path_998012" data-name="Path 998012" d="M384.383,423.328c0,2.652-15.339,4.8-34.262,4.8s-34.262-2.15-34.262-4.8,15.34-4.8,34.262-4.8,34.262,2.15,34.262,4.8" transform="translate(-103.629 -137.313)" fill="#e6cf9e"/>
            <path id="Path_998013" data-name="Path 998013" d="M330.632,337.992a1.263,1.263,0,0,1-1.24-1.033L296.714,160.8a1.263,1.263,0,0,1,2.483-.46L331.875,336.5a1.262,1.262,0,0,1-1.011,1.471,1.239,1.239,0,0,1-.232.022" transform="translate(-97.341 -52.266)" fill="#1a3866"/>
            <path id="Path_998014" data-name="Path 998014" d="M374.245,337.992A1.264,1.264,0,0,1,373,336.959L340.327,160.8a1.263,1.263,0,0,1,2.483-.46L375.488,336.5a1.262,1.262,0,0,1-1.011,1.471,1.237,1.237,0,0,1-.231.022" transform="translate(-111.649 -52.266)" fill="#1a3866"/>
            <path id="Path_998015" data-name="Path 998015" d="M330.819,176.527H302.805l-.487-2.627h28.013Z" transform="translate(-99.186 -57.054)" fill="#1a3866"/>
            <path id="Path_998016" data-name="Path 998016" d="M335.373,201.077H307.36l-.487-2.627h28.013Z" transform="translate(-100.681 -65.109)" fill="#1a3866"/>
            <path id="Path_998017" data-name="Path 998017" d="M339.927,225.628H311.914L311.427,223H339.44Z" transform="translate(-102.175 -73.163)" fill="#1a3866"/>
            <path id="Path_998018" data-name="Path 998018" d="M344.482,250.178H316.468l-.487-2.627h28.013Z" transform="translate(-103.669 -81.218)" fill="#1a3866"/>
            <path id="Path_998019" data-name="Path 998019" d="M349.036,274.728H321.022l-.487-2.627h28.013Z" transform="translate(-105.163 -89.273)" fill="#1a3866"/>
            <path id="Path_998020" data-name="Path 998020" d="M353.59,299.279H325.576l-.487-2.627H353.1Z" transform="translate(-106.657 -97.327)" fill="#1a3866"/>
            <path id="Path_998021" data-name="Path 998021" d="M358.144,323.829H330.131l-.487-2.627h28.013Z" transform="translate(-108.151 -105.382)" fill="#1a3866"/>
            <path id="Path_998022" data-name="Path 998022" d="M362.7,348.38H334.685l-.487-2.627h28.013Z" transform="translate(-109.646 -113.437)" fill="#1a3866"/>
            <path id="Path_998023" data-name="Path 998023" d="M367.252,372.93H339.239l-.488-2.627h28.014Z" transform="translate(-111.14 -121.491)" fill="#1a3866"/>
            <path id="Path_998024" data-name="Path 998024" d="M346.042,113.888s-2.45,5.2-5.849,7.325a5.215,5.215,0,0,1-2.9.895c-.847-.021-2.143-.835-3.7-2.165-7.314-6.22-20.442-23.7-20.442-23.7l5.16,1.036s15.144,7.341,15.744,6.735c5.019-5.063,4.828-15.6,4.828-15.6,3.6,6.321,5.562,15.338,7.161,25.48" transform="translate(-102.74 -29.005)" fill="#fff"/>
            <path id="Path_998025" data-name="Path 998025" d="M350.174,136.324a5.218,5.218,0,0,1-2.9.895c-.847-.021-2.143-.836-3.7-2.165a5.913,5.913,0,0,1,4.513-.252,3.723,3.723,0,0,1,2.088,1.522" transform="translate(-112.721 -44.116)" fill="#ebe1e2"/>
            <path id="Path_998026" data-name="Path 998026" d="M364.138,131.332s10.8,6.747,23.639,2.742c0,0,4.187,11.214,3.56,18.209s-31.247,2.653-35.091-3.4c-2.259-3.56,7.892-17.547,7.892-17.547" transform="translate(-116.772 -43.088)" fill="#3d43af"/>
            <path id="Path_998027" data-name="Path 998027" d="M355.98,289.952l3.014,12.912-6.939.413L345.6,291.55Z" transform="translate(-113.385 -95.129)" fill="#e8aa80"/>
            <path id="Path_998028" data-name="Path 998028" d="M349.889,308.546a2.179,2.179,0,0,0-2.166-.777,8.936,8.936,0,0,0-2.8,2.386s-6.567,2.106-8.341,2.217-3.325,1.109-3.99,4.546H354.1s.846-7.76.977-9.09-1.975.333-1.975.333Z" transform="translate(-109.12 -100.825)" fill="#1a3866"/>
            <path id="Path_998029" data-name="Path 998029" d="M340.03,314.642a6.607,6.607,0,0,1,6.134,2.756c.173.245-.229.477-.4.234a6.15,6.15,0,0,0-5.733-2.526c-.3.034-.294-.431,0-.465" transform="translate(-111.486 -103.215)" fill="#fff"/>
            <path id="Path_998030" data-name="Path 998030" d="M364.255,312.311a3.535,3.535,0,0,0-1.75,4.541c.087.193-.2.363-.288.168a3.867,3.867,0,0,1,1.869-5,.166.166,0,0,1,.168.287" transform="translate(-118.729 -102.363)" fill="#fff"/>
            <path id="Path_998031" data-name="Path 998031" d="M354.287,319.6l-16.944.177-3.876.04a.166.166,0,0,1,0-.333l16.944-.177,3.876-.04a.166.166,0,0,1,0,.333" transform="translate(-109.353 -104.747)" fill="#fff"/>
            <path id="Path_998032" data-name="Path 998032" d="M344.25,146.387s-25.233,36.177-29.416,48.959,17.4,51.061,17.4,51.061L351.03,245.3s-19.231-41.377-17.6-46.943S360,163.209,360,163.209c-1.889-7.355-7.368-12.5-15.754-16.822" transform="translate(-103.116 -48.028)" fill="#3d43af"/>
            <path id="Path_998033" data-name="Path 998033" d="M315.031,222.442a8.885,8.885,0,0,0,6.3.06c.289-.105.164-.57-.128-.464a8.475,8.475,0,0,1-6.041-.06c-.289-.112-.414.353-.128.464" transform="translate(-103.304 -72.822)" fill="#6584aa"/>
            <path id="Path_998034" data-name="Path 998034" d="M354.556,252.026a.325.325,0,0,1-.167-.046c-.073-.045-.269-.163-3.038-5.8-1.488-3.025-3.747-7.752-6.069-13.092-3.96-9.1-8.567-21.12-8.035-26.668.566-5.9,24.3-33.716,25.313-34.9a.321.321,0,1,1,.487.417c-.246.288-24.615,28.844-25.161,34.542-.407,4.244,2.3,13.243,7.842,26.024,4.236,9.775,8.6,18.241,9.049,18.954a.317.317,0,0,1,.1.191.329.329,0,0,1-.142.317.322.322,0,0,1-.177.052m.243-.526h0Z" transform="translate(-110.632 -56.239)" fill="#6584aa"/>
            <path id="Path_998035" data-name="Path 998035" d="M336.224,289.806l21.947.089,1.565,4.3L338.4,294.5Z" transform="translate(-110.31 -95.081)" fill="#6584aa"/>
            <path id="Path_998036" data-name="Path 998036" d="M366.411,135.252a30.286,30.286,0,0,0,25.439,3.755c.233-.071.373.282.139.353a30.739,30.739,0,0,1-20.54-.989,29.881,29.881,0,0,1-5.278-2.825c-.2-.136.038-.429.24-.294" transform="translate(-120.111 -44.363)" fill="#6584aa"/>
            <path id="Path_998037" data-name="Path 998037" d="M370.463,133.3a6.624,6.624,0,0,0-1.056,2.435c-.051.238-.427.181-.376-.058a7.125,7.125,0,0,1,1.137-2.616c.14-.2.433.04.294.24" transform="translate(-121.073 -43.63)" fill="#6584aa"/>
            <path id="Path_998038" data-name="Path 998038" d="M397.953,136.961a11.12,11.12,0,0,1,.425,3.474c-.008.243-.384.183-.375-.058a10.526,10.526,0,0,0-.4-3.277c-.067-.234.286-.374.353-.139" transform="translate(-130.444 -44.895)" fill="#6584aa"/>
            <path id="Path_998039" data-name="Path 998039" d="M387.542,137.57a8.47,8.47,0,0,1-.023,3.207c-.048.239-.423.182-.376-.058a8.193,8.193,0,0,0,.021-3.1c-.044-.241.334-.283.378-.044" transform="translate(-127.015 -45.082)" fill="#6584aa"/>
            <path id="Path_998040" data-name="Path 998040" d="M380.964,138.391a.939.939,0,1,1-.783-1.072.939.939,0,0,1,.783,1.072" transform="translate(-124.377 -45.049)" fill="#6584aa"/>
            <path id="Path_998041" data-name="Path 998041" d="M399.283,142.431c.039,3.243.475,7.474,4.062,8.723.231.081.093.434-.138.354-3.763-1.311-4.261-5.7-4.3-9.117,0-.245.375-.2.378.039" transform="translate(-130.875 -46.663)" fill="#ebe1e2"/>
            <path id="Path_998042" data-name="Path 998042" d="M367.09,139.639c-1.188,3.425-3.147,7.761-7.393,7.817-.273,0-.252.428.021.424,4.455-.059,6.536-4.543,7.787-8.149.089-.258-.326-.347-.415-.092" transform="translate(-117.948 -45.763)" fill="#6584aa"/>
            <path id="Path_998043" data-name="Path 998043" d="M375.4,145.6a66.918,66.918,0,0,0-1.2,23.09c.036.294.5.3.465,0a66.535,66.535,0,0,1,1.185-22.967c.067-.292-.381-.416-.448-.124" transform="translate(-122.606 -47.715)" fill="#6584aa"/>
            <path id="Path_998044" data-name="Path 998044" d="M377.83,147.42l-.9,4.785c-.239,1.267-.393,3.916-2.267,3.671-.3-.038-.292.427,0,.465,1.53.2,2.193-1.337,2.444-2.575.419-2.067.78-4.148,1.17-6.221.055-.292-.393-.418-.448-.124" transform="translate(-122.85 -48.311)" fill="#6584aa"/>
            <path id="Path_998045" data-name="Path 998045" d="M378.334,100.358a11.215,11.215,0,0,0-.978-5.879c-.1-.222.25-.364.351-.143a11.6,11.6,0,0,1,1,6.079c-.026.243-.4.185-.376-.058" transform="translate(-123.799 -30.914)" fill="#1a3866"/>
            <path id="Path_998046" data-name="Path 998046" d="M390.883,108.85c-17.584,11.017-30.953,3.974-30.953,3.974,3.307-4.8,1.742-18.693-.456-24.182a31.3,31.3,0,0,1-2.336-9.542c1.148-.9,2.479-1.982,3.72-3,2.233-1.837,4.164-3.47,4.164-3.47l6.321-2.319s1.706.11,3.958.388c3.956.49,9.6,1.5,10.649,3.34,1.3,2.278-1.086,12.312-.557,21.036a22.787,22.787,0,0,0,5.489,13.778" transform="translate(-117.172 -23.067)" fill="#fff"/>
            <path id="Path_998047" data-name="Path 998047" d="M357.321,80.756c4.53,1.251,9.546,1.57,13.735-.911a9.662,9.662,0,0,0,4.9-8.872l-.472-.061c.381,3.608-1.916,7.081-5.141,8.8-4.054,2.166-8.8,1.747-13.082.541.017.15.038.316.062.5" transform="translate(-117.212 -23.265)" fill="#cfcbb3"/>
            <path id="Path_998048" data-name="Path 998048" d="M363.235,108.257a8.995,8.995,0,0,0-1.412-17.148c-.294-.068-.38.389-.089.456a8.526,8.526,0,0,1,1.476,16.194c.011.166.018.332.025.5" transform="translate(-118.621 -29.889)" fill="#cfcbb3"/>
            <path id="Path_998049" data-name="Path 998049" d="M385.292,87.632c-1.395-2.7-5.107-2.5-7.151-.724-2.393,2.078-3.155,5.52-3.523,8.522-.714,5.816.122,12.495-3.569,17.5a9.261,9.261,0,0,1-7.682,4.041c-.3-.014-.331-.478-.032-.464,3.272.16,6.2-1.91,7.861-4.62,1.685-2.744,2.2-6.026,2.446-9.184.265-3.4.218-6.858,1.019-10.2.629-2.622,1.873-5.43,4.361-6.77,2.2-1.185,5.434-.726,6.653,1.635.135.263-.245.53-.382.265" transform="translate(-119.137 -27.921)" fill="#cfcbb3"/>
            <path id="Path_998050" data-name="Path 998050" d="M382.285,119.449a9.521,9.521,0,0,0,7.922,5.334c.41-.144.821-.3,1.237-.458a8.917,8.917,0,1,1-.846-17.808c.3-.01.265-.474-.033-.464a9.643,9.643,0,0,0-6.083,2.44,9.453,9.453,0,0,0-2.2,10.956" transform="translate(-125.135 -34.794)" fill="#cfcbb3"/>
            <path id="Path_998051" data-name="Path 998051" d="M369.6,133.842c1.054-3.361,5.146-3.506,7.913-2.466a11.211,11.211,0,0,1,3.56,2.175c.156.142.333.3.517.482.172-.034.344-.071.517-.111-.04-.045-.081-.088-.123-.131a11.591,11.591,0,0,0-4.5-2.919c-3.042-1.078-7.225-.683-8.342,2.881-.09.286.368.37.456.088" transform="translate(-121.107 -42.765)" fill="#cfcbb3"/>
            <path id="Path_998052" data-name="Path 998052" d="M358.126,92.043s1.037,2.2-.7,6.142c-2.1,4.756,4,7.38,5.412,8.244s-4.709-14.386-4.709-14.386" transform="translate(-117.123 -30.198)" fill="#fff"/>
            <path id="Path_998053" data-name="Path 998053" d="M368.615,55.537s-.536-3.382,2.4-7.488.565-11.668-5.267-12.984c-1.5-.337-2.847.052-3.685-.259-5.381-2-9.295,3.271-10.71,6.289-1.672,3.565,1.128,5.389,2.584,7.587s14.679,6.856,14.679,6.856" transform="translate(-115.104 -11.274)" fill="#89512c"/>
            <path id="Path_998054" data-name="Path 998054" d="M371.095,32.523s-1.927-9.549,7.168-8.681c8.284.79,2.441,10.137,4.5,12.84s5.416-.57,5.416-.57a4.845,4.845,0,0,1-4.667,5.92c-5.762.6-8.431-5.411-8.431-5.411Z" transform="translate(-121.695 -7.804)" fill="#89512c"/>
            <path id="Path_998055" data-name="Path 998055" d="M376.638,67.086c-1.391,2.606-6.527,6.484-9.386,2.643l-.231-2.908-.252-3.173-.177-2.222,5.482-5.4Z" transform="translate(-120.274 -18.382)" fill="#e8aa80"/>
            <path id="Path_998056" data-name="Path 998056" d="M371.662,61.756c-1.361,5.96-3.525,8.51-4.422,8.617l-.384-4.847Z" transform="translate(-120.36 -20.261)" fill="#d68163"/>
            <path id="Path_998057" data-name="Path 998057" d="M369.666,49c-.051,2.276-.465,3.132-1.48,5.6a8.2,8.2,0,0,1-4.242,4.189c-4.343,1.534-6.883.286-7.937-5.877-.654-3.827-2.241-5.637-1.675-7.333h0c.046-.084.093-.165.141-.246a8.714,8.714,0,0,1,5.191-3.913c10.752-2.973,10.073,4.311,10,7.578" transform="translate(-116.212 -13.36)" fill="#e8aa80"/>
            <path id="Path_998058" data-name="Path 998058" d="M361.43,57.779h0a.77.77,0,0,1-.455-1.472l.067-.7a.155.155,0,1,1,.308.03l-.075.791a.155.155,0,0,1-.1.13c-.021.008-.518.2-.407.611.1.376.594.308.615.305a.155.155,0,0,1,.05.305" transform="translate(-118.255 -18.198)" fill="#1a3866"/>
            <path id="Path_998059" data-name="Path 998059" d="M354,42.873s-2.221,2.988-.937,3.367,4.275-5.948,9.965-1.417c1.417,1.129,1,3.05,3.863,2.9s3.3-.6,3.143-3.086-4.409-6.79-9.973-5.273S354,42.873,354,42.873" transform="translate(-115.704 -12.811)" fill="#89512c"/>
            <path id="Path_998060" data-name="Path 998060" d="M359.869,43.96a6.467,6.467,0,0,0,7.794,3.735c5.716-1.492-1.085-8.016-7.794-3.735" transform="translate(-118.068 -13.952)" fill="#89512c"/>
            <path id="Path_998061" data-name="Path 998061" d="M372.03,42.99a5.37,5.37,0,0,0-2.057,1.641c.363,1.638.427,6.225,2.353,6.123,2.858-.151,3.38,1.754,3.385-3.171a7.73,7.73,0,0,0-1.99-5.246c-.568.2-1.131.412-1.692.653" transform="translate(-121.383 -13.89)" fill="#89512c"/>
            <path id="Path_998062" data-name="Path 998062" d="M364.445,53.675a.917.917,0,0,0-.809.718.232.232,0,0,1-.449-.114,1.39,1.39,0,0,1,1.25-1.068c.3-.025.305.439.009.464" transform="translate(-119.154 -17.457)" fill="#1a3866"/>
            <path id="Path_998063" data-name="Path 998063" d="M359.145,56.155a.979.979,0,0,0-1.1-.114c-.266.132-.5-.266-.237-.4a1.469,1.469,0,0,1,1.665.182c.233.186-.094.516-.326.331" transform="translate(-117.352 -18.197)" fill="#1a3866"/>
            <path id="Path_998064" data-name="Path 998064" d="M363.3,64.31a1.253,1.253,0,0,0,1.232-.49c.141-.214-.2-.422-.338-.208a.876.876,0,0,1-.88.3c-.255-.022-.269.375-.015.4" transform="translate(-119.132 -20.841)" fill="#d68163"/>
            <path id="Path_998065" data-name="Path 998065" d="M368.112,55.9c.077.323-.364.7-.984.851s-1.185,0-1.261-.319.364-.7.984-.851,1.185,0,1.261.319" transform="translate(-120.033 -18.215)" fill="#d68163"/>
            <path id="Path_998066" data-name="Path 998066" d="M358.82,58.65c.076.324-.365.7-.984.851a1.845,1.845,0,0,1-.793.026q-.086-.412-.163-.857c0-.012,0-.025-.007-.036a1.925,1.925,0,0,1,.685-.3c.62-.146,1.184,0,1.261.318" transform="translate(-117.085 -19.119)" fill="#d68163"/>
            <path id="Path_998067" data-name="Path 998067" d="M363.517,51.328a.93.93,0,0,1,1.308.112c.286.417.986.04.7-.382a1.7,1.7,0,0,0-2.387-.427c-.418.285-.042.985.382.7" transform="translate(-119.08 -16.51)" fill="#1a3866"/>
            <path id="Path_998068" data-name="Path 998068" d="M357.138,54.046c.21-.437.458-1.055,1.027-1.05a.4.4,0,0,0,.03-.794c-.908-.008-1.378.689-1.733,1.426-.22.457.454.878.676.417" transform="translate(-116.936 -17.127)" fill="#1a3866"/>
            <path id="Path_998069" data-name="Path 998069" d="M360.172,60.291a10.888,10.888,0,0,0,3.988-1.4s.363,2.483-1.615,2.94c-1.678.386-2.373-1.543-2.373-1.543" transform="translate(-118.167 -19.322)" fill="#fff"/>
            <path id="Path_998070" data-name="Path 998070" d="M371.3,54.547a2.78,2.78,0,0,1-.222-2.414c.374-1.035,1.129-2.671,2.2-2.775,1.578-.153,2.084,1.161,2.264,2.58s-.3,3.447-2.271,3.61a2.01,2.01,0,0,1-1.973-1" transform="translate(-121.689 -16.19)" fill="#e8aa80"/>
            <path id="Path_998071" data-name="Path 998071" d="M374.6,56.932A1.9,1.9,0,0,0,373.8,58.6c0,.986.556,1.788,1.239,1.788s1.238-.8,1.238-1.788a2.059,2.059,0,0,0-.582-1.515,2.213,2.213,0,0,0,.14-.194l.041-.06A2.348,2.348,0,0,1,376.6,58.6c0,1.16-.7,2.1-1.554,2.1s-1.555-.944-1.555-2.1a2.042,2.042,0,0,1,1.259-2.065s.128.18-.15.4" transform="translate(-122.536 -18.548)" fill="#fff"/>
            <path id="Path_998072" data-name="Path 998072" d="M374.055,54.322a3.546,3.546,0,0,1-.346-1.717c.06-.531.415-1.373,1.086-1.333.225.013.285-.335.058-.349a1.435,1.435,0,0,0-1.346,1.035,3.343,3.343,0,0,0,.22,2.493.177.177,0,0,0,.329-.129" transform="translate(-122.49 -16.706)" fill="#1a3866"/>
            <path id="Path_998073" data-name="Path 998073" d="M363.4,55.069a1.969,1.969,0,0,1-1.035-.273,2.521,2.521,0,0,1-1.055-1.65.161.161,0,0,1,.105-.176l4.338-1.52a.16.16,0,0,1,.2.1c.009.025.849,2.506-1.45,3.311a3.372,3.372,0,0,1-1.108.21m-1.744-1.843a2.142,2.142,0,0,0,.876,1.3,2.168,2.168,0,0,0,1.87.034,2.131,2.131,0,0,0,1.3-2.748Z" transform="translate(-118.541 -16.877)" fill="#fff"/>
            <path id="Path_998074" data-name="Path 998074" d="M355.668,57.669a1.969,1.969,0,0,1-1.035-.273,2.521,2.521,0,0,1-1.055-1.65.161.161,0,0,1,.105-.176l4.339-1.52a.16.16,0,0,1,.2.1c.009.025.848,2.506-1.451,3.311a3.372,3.372,0,0,1-1.108.21m-1.744-1.843a2.14,2.14,0,0,0,.877,1.3,2.167,2.167,0,0,0,1.869.034,2.131,2.131,0,0,0,1.3-2.748Z" transform="translate(-116.003 -17.73)" fill="#fff"/>
            <path id="Path_998075" data-name="Path 998075" d="M367.653,51.339a.161.161,0,0,1-.085-.3,7.313,7.313,0,0,1,3.215-1.087h.047a.161.161,0,0,1,0,.321h-.044a7.126,7.126,0,0,0-3.045,1.039.166.166,0,0,1-.085.024" transform="translate(-120.569 -16.39)" fill="#fff"/>
            <path id="Path_998076" data-name="Path 998076" d="M360.413,54.745a.161.161,0,0,1-.114-.273,1.489,1.489,0,0,1,.816-.3.16.16,0,0,1,.024.32,1.181,1.181,0,0,0-.611.2.162.162,0,0,1-.114.048" transform="translate(-118.194 -17.774)" fill="#fff"/>
            <path id="Path_998077" data-name="Path 998077" d="M383.7,314.1l3.014,12.912-6.939.413-6.458-11.728Z" transform="translate(-122.482 -103.051)" fill="#e8aa80"/>
            <path id="Path_998078" data-name="Path 998078" d="M377.614,332.691a2.179,2.179,0,0,0-2.166-.777,8.936,8.936,0,0,0-2.8,2.386s-6.567,2.106-8.341,2.217-3.325,1.109-3.991,4.545h21.507s.846-7.76.977-9.09-1.975.333-1.975.333Z" transform="translate(-118.216 -108.746)" fill="#1a3866"/>
            <path id="Path_998079" data-name="Path 998079" d="M367.755,338.787a6.607,6.607,0,0,1,6.134,2.756c.173.245-.23.477-.4.235a6.15,6.15,0,0,0-5.733-2.526c-.3.034-.294-.431,0-.465" transform="translate(-120.583 -111.137)" fill="#fff"/>
            <path id="Path_998080" data-name="Path 998080" d="M391.98,336.456a3.536,3.536,0,0,0-1.75,4.541c.087.194-.2.363-.288.168a3.867,3.867,0,0,1,1.869-5,.166.166,0,0,1,.168.287" transform="translate(-127.825 -110.285)" fill="#fff"/>
            <path id="Path_998081" data-name="Path 998081" d="M382.012,343.745l-16.944.177-3.876.04a.166.166,0,0,1,0-.333l16.944-.177,3.876-.04a.166.166,0,0,1,0,.333" transform="translate(-118.449 -112.669)" fill="#fff"/>
            <path id="Path_998082" data-name="Path 998082" d="M369.7,162.953s-10.9,49.5-10.9,51.526c0,15.886,6.542,56.917,6.542,56.917l19.735-1.69s-6.253-45.345-5.465-53.578,12.486-53.453,12.486-53.453Z" transform="translate(-117.715 -53.371)" fill="#3d43af"/>
            <path id="Path_998083" data-name="Path 998083" d="M359.063,242.869a19.418,19.418,0,0,0,7.758.361c.305-.047.175-.511-.128-.464a18.8,18.8,0,0,1-7.5-.36.241.241,0,0,0-.128.464" transform="translate(-117.747 -79.527)" fill="#6584aa"/>
            <path id="Path_998084" data-name="Path 998084" d="M390.262,271a.321.321,0,0,1-.315-.262c-.308-1.646-7.526-40.417-6.871-48.133.653-7.7,10.521-49.044,10.621-49.461a.321.321,0,0,1,.624.149c-.1.417-9.956,41.717-10.6,49.366-.648,7.63,6.787,47.558,6.862,47.96a.321.321,0,0,1-.257.374.363.363,0,0,1-.059.005" transform="translate(-125.668 -56.727)" fill="#6584aa"/>
            <path id="Path_998085" data-name="Path 998085" d="M366.234,317.879l21.578-.784.685,4.462-21.22,1.058Z" transform="translate(-120.156 -104.034)" fill="#6584aa"/>
            <path id="Path_998086" data-name="Path 998086" d="M350.132,74.059s-8.894,5.879-9.979,8.827,2.3,3.546,1.661,7.9-1.316,9.345,1.146,11.883,3.3,5.977,1.408,10.687-16.625,26.443-25.7,32.5c-7.058,4.709,4.768,10.055,4.768,10.055s13.145-21.249,15.292-24.11c2.053-2.735,7.626-10.574,10.309-16.119,2.555-5.281,1.1-41.617,1.1-41.617" transform="translate(-103.813 -24.298)" fill="#fff"/>
            <path id="Path_998087" data-name="Path 998087" d="M340.831,155.5c.341,3.7-2.408,6.595-5.879,7.36-.3.067-.174.53.128.464,3.665-.808,6.591-3.927,6.232-7.824-.028-.306-.509-.309-.481,0" transform="translate(-109.837 -50.941)" fill="#ebe1e2"/>
            <path id="Path_998088" data-name="Path 998088" d="M317.586,182.633a19.644,19.644,0,0,0,7.447,6.935c.273.145.517-.27.243-.415A19.166,19.166,0,0,1,318,182.391c-.164-.262-.581-.021-.415.243" transform="translate(-104.183 -59.803)" fill="#ebe1e2"/>
            <path id="Path_998089" data-name="Path 998089" d="M352.86,88.056a8.256,8.256,0,0,1,.672,8.244,8.736,8.736,0,0,0-1.118,3.674,6.065,6.065,0,0,0,1.148,3.081,18.231,18.231,0,0,1,2.1,3.522,10.328,10.328,0,0,1,.511,4.433,25.461,25.461,0,0,1-2.549,9.044c-1.361,2.738-2.878,5.426-4.423,8.064a.241.241,0,0,0,.415.243c1.426-2.434,2.77-4.919,4.088-7.412a27.344,27.344,0,0,0,2.815-8.834,10.736,10.736,0,0,0-1.494-7.774A11.722,11.722,0,0,1,353,100.73c-.393-1.687.544-3.188,1.167-4.685a8.6,8.6,0,0,0-.888-8.231c-.176-.252-.593-.012-.415.243" transform="translate(-114.555 -28.775)" fill="#ebe1e2"/>
            <path id="Path_998090" data-name="Path 998090" d="M364.777,69.518s-4.034,2.788-4.605,6.335l1.3,10.265,2.717-.331-1.711,3.5,2.011,14.139,3.534,3.04s-2.643-32.629-3.243-36.953" transform="translate(-118.167 -22.808)" fill="#ebe1e2"/>
            <path id="Path_998091" data-name="Path 998091" d="M412.366,160.928s-11.973-50.029-14.372-60.392-1.564-18.89-1.744-27.1S385.43,65,380.805,65.434c0,0,.958,6.711.336,10.533s-1.666,10.247-.286,14.576,3.388,13.112,4.487,16.553c0,0-2.266,42.251-8.062,49.308,0,0-1.59,7.631,35.085,4.524" transform="translate(-123.777 -21.427)" fill="#fff"/>
            <path id="Path_998092" data-name="Path 998092" d="M397.211,158.214a10.183,10.183,0,0,0,11.361,12.916c.305-.043.175-.507-.128-.464a9.7,9.7,0,0,1-10.769-12.324.241.241,0,0,0-.464-.128" transform="translate(-130.195 -51.852)" fill="#ebe1e2"/>
            <path id="Path_998093" data-name="Path 998093" d="M401.369,96.567c4.169,18.718,7.912,37.54,12.3,56.209a63.676,63.676,0,0,1,2.153,14.776.241.241,0,0,0,.481,0,56.847,56.847,0,0,0-1.72-12.983q-1.582-6.841-3.081-13.7c-2.09-9.546-4.134-19.1-6.205-28.651q-1.711-7.893-3.461-15.778c-.068-.3-.531-.175-.464.128" transform="translate(-131.681 -31.584)" fill="#ebe1e2"/>
            <path id="Path_998094" data-name="Path 998094" d="M393.872,88.082l7.138,7.7c.211.227.55-.114.34-.341l-7.138-7.7c-.211-.228-.55.113-.34.34" transform="translate(-129.202 -28.762)" fill="#ebe1e2"/>
            <path id="Path_998095" data-name="Path 998095" d="M379.225,198.537a19.117,19.117,0,0,0,5.839,2.221,40.417,40.417,0,0,0,7.263.859,124.785,124.785,0,0,0,18.724-.31c.306-.028.309-.509,0-.481a125.354,125.354,0,0,1-18.173.342,42.45,42.45,0,0,1-7.464-.82,18.966,18.966,0,0,1-5.946-2.226c-.259-.171-.5.246-.243.415" transform="translate(-124.382 -64.988)" fill="#ebe1e2"/>
            <path id="Path_998096" data-name="Path 998096" d="M378.334,64.336A40.185,40.185,0,0,1,380.491,74.6c.333,5.4-.487,6.731.474,15.311.652,5.83,3.831,13.464,3.831,13.464l1.521-8.247s-2.166-9.388-1.793-13.06L382.9,81.4l1.622-2.879s-.423-11.405-1.131-13.774-5.059-.409-5.059-.409" transform="translate(-124.126 -20.858)" fill="#ebe1e2"/>
            <path id="Path_998097" data-name="Path 998097" d="M421.331,101.329c-5.134,7.808-18.695,17.452-18.695,17.452l-1.689-2.221s11.3-18.749,8.978-20.969-8.316-8.385-8.316-8.385A19.3,19.3,0,0,1,399.836,68.5S417.109,83.169,422.3,93.359q.413.81.72,1.581c.683,1.726-.1,3.97-1.689,6.39" transform="translate(-130.638 -22.472)" fill="#fff"/>
            <path id="Path_998098" data-name="Path 998098" d="M397.495,70a9.643,9.643,0,0,0-2.2,8.275c.062.3.525.175.464-.128a9.127,9.127,0,0,1,2.072-7.807c.2-.232-.136-.574-.34-.34" transform="translate(-129.629 -22.94)" fill="#ebe1e2"/>
            <path id="Path_998099" data-name="Path 998099" d="M432.288,113.47c-1.6-3.262-.138-6.333.969-7.971q.413.81.72,1.581c.683,1.726-.1,3.97-1.689,6.39" transform="translate(-141.595 -34.613)" fill="#ebe1e2"/>
            <path id="Path_998100" data-name="Path 998100" d="M416.312,108.649a24.736,24.736,0,0,1,4.873-1.2c.306-.043.175-.507-.128-.464a24.665,24.665,0,0,0-4.873,1.2c-.29.1-.165.568.128.464" transform="translate(-136.49 -35.1)" fill="#ebe1e2"/>
            <path id="Path_998101" data-name="Path 998101" d="M417.508,107.731a3.4,3.4,0,0,1,1.936-1.815c.289-.106.164-.57-.128-.464a3.869,3.869,0,0,0-2.223,2.037c-.128.28.287.524.415.243" transform="translate(-136.834 -34.592)" fill="#ebe1e2"/>
            <path id="Path_998102" data-name="Path 998102" d="M369.1,103.2a3.166,3.166,0,1,1-3.667-2.569A3.166,3.166,0,0,1,369.1,103.2" transform="translate(-119.034 -32.999)" fill="#1a3866"/>
            <path id="Path_998103" data-name="Path 998103" d="M368.379,104.153a1.721,1.721,0,1,1-1.993-1.4,1.722,1.722,0,0,1,1.993,1.4" transform="translate(-119.739 -33.704)" fill="#e8aa80"/>
            <path id="Path_998104" data-name="Path 998104" d="M365.46,68.929a6.61,6.61,0,0,0-2.945,2.689c-1.186,2.3-1.177,6.231.028,11.695a65.745,65.745,0,0,0,2.145,7.482.373.373,0,0,0,.413.239.366.366,0,0,0,.063-.017.372.372,0,0,0,.222-.476c-.049-.134-4.866-13.439-2.211-18.581a5.713,5.713,0,0,1,2.416-2.266c-.042-.255-.082-.51-.132-.764" transform="translate(-118.647 -22.615)" fill="#1a3866"/>
            <path id="Path_998105" data-name="Path 998105" d="M386.186,77.294c-.722-3.794-1.861-6.546-3.384-8.182a7.637,7.637,0,0,0-3.556-2.055c.069.279.03.482.087.763a7.239,7.239,0,0,1,2.926,1.8c3.422,3.672,3.811,12.8,3.814,12.893a.371.371,0,1,0,.742-.028,39.292,39.292,0,0,0-.629-5.19" transform="translate(-124.425 -22)" fill="#1a3866"/>
            <path id="Path_998106" data-name="Path 998106" d="M386.219,99.517c-.048-.243-1.159-5.987.575-8.5a2.593,2.593,0,0,1,1.744-1.144,2.361,2.361,0,0,1,1.987.543c2.34,1.961,2.421,8.4,2.423,8.669l-.641.005c0-.064-.08-6.411-2.194-8.183a1.723,1.723,0,0,0-1.468-.4,1.947,1.947,0,0,0-1.323.875c-1.581,2.291-.485,7.955-.474,8.012Z" transform="translate(-126.584 -29.474)" fill="#1a3866"/>
            <path id="Path_998107" data-name="Path 998107" d="M387.153,103.339a1.137,1.137,0,1,1-1.137-1.137,1.137,1.137,0,0,1,1.137,1.137" transform="translate(-126.273 -33.531)" fill="#1a3866"/>
            <path id="Path_998108" data-name="Path 998108" d="M396.82,102.643a1.137,1.137,0,1,1-1.137-1.137,1.137,1.137,0,0,1,1.137,1.137" transform="translate(-129.445 -33.303)" fill="#1a3866"/>
            <g id="Group_1190627" data-name="Group 1190627" transform="translate(204.451 47.399)" opacity="0.5">
              <g id="Group_1190626" data-name="Group 1190626">
                <g id="Group_1190625" data-name="Group 1190625" clip-path="url(#clip-path-4)">
                  <rect id="Rectangle_455062" data-name="Rectangle 455062" width="18.169" height="57.458" transform="translate(0 14.975) rotate(-55.505)" fill="#fff"/>
                </g>
              </g>
            </g>
            <path id="Path_998109" data-name="Path 998109" d="M309.576,86.833l10.086,6.931,12.551,8.623,7.663-11.149-9.423-6.476-13.214-9.08Z" transform="translate(-101.567 -24.83)" fill="#82ced8"/>
            <path id="Path_998110" data-name="Path 998110" d="M320.226,81.39l2.5-3.642-.639-.439-2.5,3.642a.388.388,0,1,0,.639.439" transform="translate(-104.829 -25.364)" fill="#1a3866"/>
            <path id="Path_998111" data-name="Path 998111" d="M324.857,84.573l2.5-3.642-.639-.439-2.5,3.642a.388.388,0,1,0,.639.439" transform="translate(-106.349 -26.408)" fill="#1a3866"/>
            <path id="Path_998112" data-name="Path 998112" d="M329.488,87.755l2.5-3.642-.639-.439-2.5,3.642a.388.388,0,1,0,.639.439" transform="translate(-107.868 -27.452)" fill="#1a3866"/>
            <path id="Path_998113" data-name="Path 998113" d="M334.119,90.938l2.5-3.642-.639-.439-2.5,3.642a.388.388,0,1,0,.64.439" transform="translate(-109.388 -28.496)" fill="#1a3866"/>
            <path id="Path_998114" data-name="Path 998114" d="M338.751,94.12l2.5-3.642-.639-.439-2.5,3.642a.388.388,0,1,0,.639.439" transform="translate(-110.907 -29.54)" fill="#1a3866"/>
            <path id="Path_998115" data-name="Path 998115" d="M343.382,97.3l2.5-3.642-.639-.439-2.5,3.642a.388.388,0,1,0,.639.439" transform="translate(-112.427 -30.584)" fill="#1a3866"/>
            <rect id="Rectangle_455064" data-name="Rectangle 455064" width="13.529" height="4.045" transform="matrix(0.566, -0.824, 0.824, 0.566, 227.311, 75.267)" fill="#1a3866"/>
            <path id="Path_998116" data-name="Path 998116" d="M375.829,136.109l12.146-17.675a1.394,1.394,0,0,0-.359-1.938l-.272-.187a1.393,1.393,0,0,0-1.938.359l-12.146,17.675a1.393,1.393,0,0,0,.359,1.938l.273.187a1.393,1.393,0,0,0,1.938-.359" transform="translate(-122.381 -38.079)" fill="#1a3866"/>
            <rect id="Rectangle_455065" data-name="Rectangle 455065" width="7.537" height="27.27" transform="translate(232.342 75.089) rotate(-55.504)" fill="#fff"/>
            <rect id="Rectangle_455066" data-name="Rectangle 455066" width="8.874" height="19.667" transform="matrix(0.566, -0.824, 0.824, 0.566, 257.008, 92.85)" fill="#1a3866"/>
            <path id="Path_998117" data-name="Path 998117" d="M405.391,155.893l11.624-16.915a1.854,1.854,0,0,0-.478-2.578l-.988-.679a1.854,1.854,0,0,0-2.578.478l-11.624,16.915a1.855,1.855,0,0,0,.478,2.579l.988.679a1.855,1.855,0,0,0,2.578-.478" transform="translate(-131.569 -44.421)" fill="#1a3866"/>
            <path id="Path_998118" data-name="Path 998118" d="M304.252,85.517l10.29-14.974L310.579,72a4.919,4.919,0,0,0-2.36,1.833l-3.163,4.6a4.925,4.925,0,0,0-.865,2.86Z" transform="translate(-99.801 -23.144)" fill="#1a3866"/>
            <rect id="Rectangle_455067" data-name="Rectangle 455067" width="4.667" height="4.667" transform="matrix(0.566, -0.824, 0.824, 0.566, 201.669, 52.27)" fill="#1a3866"/>
            <path id="Path_998119" data-name="Path 998119" d="M293.575,69.87l.759-1.105L277.47,57.873c-.2-.13-.3.015-.108.157Z" transform="translate(-90.964 -18.971)" fill="#1a3866"/>
            <path id="Path_998120" data-name="Path 998120" d="M403.4,133.928s-3.277.043-5.391.269c-1.455.156-2.666.007-3,.619s2.641,1,2.908,1.037,5.483-1.924,5.483-1.924" transform="translate(-129.587 -43.94)" fill="#e8aa80"/>
            <path id="Path_998121" data-name="Path 998121" d="M404.694,135.894c.5,1.508-.278,2.105-1.653,2.9a7.258,7.258,0,0,0-1.949,1.517c-1.118,1.376-1.906,3.238-2.807,4.274-.948,1.091-1.383.384-1.05-.755s1.2-3.173,1.2-3.173a16.018,16.018,0,0,0-2.253,3.462c-.334,1.138-1.32,1.55-1.616.309s1.285-4.24,1.948-4.953a4.752,4.752,0,0,0-1.943,2.356,6.612,6.612,0,0,1-1.39,2.792c-.485.435-1.408-.248-.65-2.361a8.977,8.977,0,0,1,2.44-3.9s-.624.417-1.846,1.212-1.872,2.5-2.737,2.61c-.886.109-.286-1.955.555-2.945a8.261,8.261,0,0,1,2.842-2.545,20.941,20.941,0,0,1,3.9-1.685c.992-.245,2.224-1.011,3.7-1.073a3.675,3.675,0,0,1,3.31,1.957" transform="translate(-127.938 -43.942)" fill="#e8aa80"/>
            <path id="Path_998122" data-name="Path 998122" d="M321.449,102.993s-1.738,1.359-2.815.308-.64-4.575-.4-5.8,1.666,1.347,1.65,2.653a2.1,2.1,0,0,0,.548,1.73Z" transform="translate(-104.312 -31.882)" fill="#e8aa80"/>
            <path id="Path_998123" data-name="Path 998123" d="M315.656,98.451s-1.738,1.359-2.815.308-.64-4.575-.4-5.8,1.666,1.347,1.65,2.653a2.1,2.1,0,0,0,.548,1.729Z" transform="translate(-102.411 -30.392)" fill="#e8aa80"/>
            <path id="Path_998124" data-name="Path 998124" d="M312.743,96.92s-1.535,1.2-2.486.272-.566-4.041-.356-5.125,1.471,1.189,1.458,2.344a1.856,1.856,0,0,0,.484,1.528Z" transform="translate(-101.59 -30.113)" fill="#e8aa80"/>
            <path id="Path_998125" data-name="Path 998125" d="M318.691,100.625s-1.738,1.359-2.815.308-.64-4.575-.4-5.8,1.666,1.347,1.65,2.653a2.1,2.1,0,0,0,.548,1.73Z" transform="translate(-103.407 -31.105)" fill="#e8aa80"/>
            <path id="Path_998126" data-name="Path 998126" d="M174.9,423.328c0,2.652-15.339,4.8-34.262,4.8s-34.262-2.15-34.262-4.8,15.339-4.8,34.262-4.8,34.262,2.15,34.262,4.8" transform="translate(-34.902 -137.313)" fill="#e6cf9e"/>
            <path id="Path_998127" data-name="Path 998127" d="M206.786,173.739c.681,13.53-2.489,29.721-12.309,39.757-7.562,7.728-21.466,10.049-27.543-.7a.343.343,0,0,1,.593-.346c3.29,5.818,10,8.209,16.393,6.6,6.37-1.608,11.257-6.466,14.546-11.954,5.954-9.933,8.211-21.9,7.634-33.357-.022-.441.664-.44.686,0" transform="translate(-54.753 -56.893)" fill="#1a3866"/>
            <path id="Path_998128" data-name="Path 998128" d="M230.045,156.515a10.255,10.255,0,1,1-10.388-10.12,10.256,10.256,0,0,1,10.388,10.12" transform="translate(-68.746 -48.03)" fill="#3d43af"/>
            <path id="Path_998129" data-name="Path 998129" d="M226.72,156.559a10.255,10.255,0,1,1-10.388-10.12,10.256,10.256,0,0,1,10.388,10.12" transform="translate(-67.655 -48.045)" fill="#fff"/>
            <path id="Path_998130" data-name="Path 998130" d="M224.992,159.253a4.923,4.923,0,1,1-4.923-4.923,4.923,4.923,0,0,1,4.923,4.923" transform="translate(-70.586 -50.634)" fill="#3d43af"/>
            <rect id="Rectangle_455068" data-name="Rectangle 455068" width="1.8" height="9.846" transform="translate(147.683 103.696)" fill="#3d43af"/>
            <path id="Path_998131" data-name="Path 998131" d="M222.027,159.253a4.923,4.923,0,1,1-4.924-4.923,4.923,4.923,0,0,1,4.924,4.923" transform="translate(-69.613 -50.634)" fill="#fff"/>
            <path id="Path_998132" data-name="Path 998132" d="M154.458,178l16.424,1.324a1.017,1.017,0,0,0,1.036-.66l8.152-21.941a1.019,1.019,0,0,0-.873-1.37l-16.424-1.324a1.018,1.018,0,0,0-1.036.661l-8.152,21.941a1.018,1.018,0,0,0,.873,1.369" transform="translate(-50.368 -50.535)" fill="#1a3866"/>
            <path id="Path_998133" data-name="Path 998133" d="M185.5,170.342s-3.661-.206-4.24.544,3.087,1.484,3.087,1.484-2.166-.066-2.715.447,2.138,1.341,2.138,1.341-1.448.015-1.5.808.5,1.078,1.3,1.274a2.195,2.195,0,0,0,1.914-.439c.318-.316.047-1.127.047-1.127s1.377-.681,1.428-1.207a1.145,1.145,0,0,0-.327-.879,1.207,1.207,0,0,0,.886-.734,1.061,1.061,0,0,0-.072-1.013s.251-.964.427-1.647-1.068-1.213-1.8-1.642-1.716.848-2.926,1.115c0,0-.617.376.044.839a3.478,3.478,0,0,0,1.984.268c.307.027.329.569.329.569" transform="translate(-59.449 -54.942)" fill="#e8aa80"/>
            <path id="Path_998134" data-name="Path 998134" d="M111.346,199.219a4.7,4.7,0,0,0,3.9,5.072c.182.047.37.087.559.122,6.207,1.144,16.7-3.262,16.7-3.262l-15.795-29.717s-4.7,15.157-5.3,26.078q-.042.747-.054,1.457c0,.083,0,.166,0,.249" transform="translate(-36.531 -56.245)" fill="#fff"/>
            <path id="Path_998135" data-name="Path 998135" d="M111.346,212.665a4.7,4.7,0,0,0,3.9,5.072c-.13-2.5-2.225-4.286-3.9-5.321,0,.083,0,.166,0,.249" transform="translate(-36.531 -69.691)" fill="#ebe1e2"/>
            <path id="Path_998136" data-name="Path 998136" d="M153.056,139.368c-2.749,0-2.78-2.955-2.78-2.985a.175.175,0,0,1,.175-.175h5.2a.175.175,0,0,1,.172.143,2.839,2.839,0,0,1-.507,2.151,2.785,2.785,0,0,1-2.259.866m-2.422-2.81a2.423,2.423,0,0,0,2.422,2.46,2.456,2.456,0,0,0,1.99-.74,2.423,2.423,0,0,0,.45-1.719Z" transform="translate(-49.303 -44.688)" fill="#1a3866"/>
            <path id="Path_998137" data-name="Path 998137" d="M169.182,404.414l1.014,8.956,5.524.437.925-9.139Z" transform="translate(-55.506 -132.683)" fill="#e8aa80"/>
            <path id="Path_998138" data-name="Path 998138" d="M129.043,405.94l1.014,8.956,5.027.417.925-9.139Z" transform="translate(-42.337 -133.183)" fill="#e8aa80"/>
            <path id="Path_998139" data-name="Path 998139" d="M160.838,255.286s8.7,39.188,10.913,56.209-2.731,47.26-2.731,47.26l-10.257.859c-1.917-19.629-2.461-38.534-2.461-47.137-5.247-8.838-13.473-41.6-13.473-41.6Z" transform="translate(-46.861 -83.756)" fill="#89512c"/>
            <path id="Path_998140" data-name="Path 998140" d="M177.387,404.96l-.5,3.76-11.161.57-.3-3.345Z" transform="translate(-54.275 -132.862)" fill="#935838"/>
            <g id="Group_1190630" data-name="Group 1190630" transform="translate(110.554 227.391)" style="mix-blend-mode: multiply;isolation: isolate">
              <g id="Group_1190629" data-name="Group 1190629">
                <g id="Group_1190628" data-name="Group 1190628" clip-path="url(#clip-path-5)">
                  <path id="Path_998141" data-name="Path 998141" d="M164.754,339.828a43.957,43.957,0,0,0,9.707-.964c.285-.061.165-.5-.12-.436a43.4,43.4,0,0,1-9.587.947.226.226,0,0,0,0,.452" transform="translate(-164.536 -338.423)" fill="#89512c"/>
                </g>
              </g>
            </g>
            <path id="Path_998142" data-name="Path 998142" d="M120.513,273.682l1.364,45.574a36.808,36.808,0,0,0-2.119,13.42c.158,7.856,5.139,31.549,5.139,31.549l8.99.859s6.685-67.163,6.519-82.977-19.893-8.424-19.893-8.424" transform="translate(-39.288 -89.226)" fill="#89512c"/>
            <path id="Path_998143" data-name="Path 998143" d="M125.146,404.5l.5,3.76,10.67.511.3-3.345Z" transform="translate(-41.059 -132.711)" fill="#935838"/>
            <g id="Group_1190633" data-name="Group 1190633" transform="translate(83.111 229.95)" style="mix-blend-mode: multiply;isolation: isolate">
              <g id="Group_1190632" data-name="Group 1190632">
                <g id="Group_1190631" data-name="Group 1190631" clip-path="url(#clip-path-6)">
                  <path id="Path_998144" data-name="Path 998144" d="M123.976,343.059a17.017,17.017,0,0,1,8.482.347.226.226,0,0,0,.12-.436,17.5,17.5,0,0,0-8.723-.347c-.284.06-.164.5.12.436" transform="translate(-123.693 -342.231)" fill="#89512c"/>
                </g>
              </g>
            </g>
            <g id="Group_1190636" data-name="Group 1190636" transform="translate(98.517 197.809)" style="mix-blend-mode: multiply;isolation: isolate">
              <g id="Group_1190635" data-name="Group 1190635">
                <g id="Group_1190634" data-name="Group 1190634" clip-path="url(#clip-path-7)">
                  <path id="Path_998145" data-name="Path 998145" d="M146.625,294.681a36.66,36.66,0,0,0,1.526,5.829c.1.273.533.156.436-.12a36.727,36.727,0,0,1-1.526-5.829c-.05-.286-.486-.165-.436.12" transform="translate(-146.621 -294.397)" fill="#89512c"/>
                </g>
              </g>
            </g>
            <path id="Path_998146" data-name="Path 998146" d="M168.571,415.206c-.685,1.828-.73,9.305-.73,9.305l16.958.018a3.3,3.3,0,0,0-2.678-4.552,11.463,11.463,0,0,1-3.966-1.772c0-.086-.907-4.24-1.465-4.439,0,0-.384-.432-.712,0a6.916,6.916,0,0,0-.611,1.835c-2.3-2.86-4.562-2.479-6.8-.394" transform="translate(-55.066 -135.68)" fill="#1a3866"/>
            <path id="Path_998147" data-name="Path 998147" d="M168.52,418.837a5.274,5.274,0,0,1,4.923.642c.239.168.465-.224.228-.39a5.694,5.694,0,0,0-5.272-.687c-.271.1-.154.538.12.436" transform="translate(-55.199 -137.154)" fill="#fff"/>
            <path id="Path_998148" data-name="Path 998148" d="M184.774,428.011h0l-16.787-.018a.226.226,0,0,1,0-.453l16.786.019a.226.226,0,1,1,0,.452" transform="translate(-55.04 -140.27)" fill="#fff"/>
            <path id="Path_998149" data-name="Path 998149" d="M128.141,415.206c-.685,1.828-.73,9.305-.73,9.305l16.958.018a3.3,3.3,0,0,0-2.678-4.552,11.463,11.463,0,0,1-3.966-1.772c0-.086-.907-4.24-1.465-4.439,0,0-.384-.432-.712,0a6.916,6.916,0,0,0-.611,1.835c-2.3-2.86-4.562-2.479-6.8-.394" transform="translate(-41.802 -135.68)" fill="#1a3866"/>
            <path id="Path_998150" data-name="Path 998150" d="M128.091,418.837a5.274,5.274,0,0,1,4.923.642c.239.168.465-.224.228-.39a5.694,5.694,0,0,0-5.272-.687c-.271.1-.154.538.12.436" transform="translate(-41.935 -137.154)" fill="#fff"/>
            <path id="Path_998151" data-name="Path 998151" d="M144.344,428.011h0l-16.787-.018a.226.226,0,0,1,0-.453l16.786.019a.226.226,0,1,1,0,.452" transform="translate(-41.776 -140.27)" fill="#fff"/>
            <path id="Path_998152" data-name="Path 998152" d="M151.406,175.691c-1.035,5.543-1.056,19.052-.458,22.887.249,1.6-4.077,3.513-8.2,4.443-7.435,1.677-17.961-1.762-17.949-3.573a126.036,126.036,0,0,0-.518-12.731c-1.606-10.3-5.832-16.036-5.127-20.285.329-1.985,3.116-4.519,5.592-6.419,2.078-1.594,3.934-2.74,3.934-2.74l7.26-2.21s12.019,2.536,15.109,5.353c3.373,3.075,1.748,7.832.357,15.275" transform="translate(-39.067 -50.874)" fill="#fff"/>
            <path id="Path_998153" data-name="Path 998153" d="M163.728,188.819s6.174,7.175,12.668,9.477c2.733.968,5.523,1.075,7.935-.578q.187-.129.375-.27c7.963-5.962,14.06-26.572,14.06-26.572l-3.241-2.584s-11.992,19.471-16.065,15.7-13.426-19.125-13.426-19.125c-5.211,4.193-5.672,12.439-2.307,23.952" transform="translate(-53.013 -54.091)" fill="#fff"/>
            <path id="Path_998154" data-name="Path 998154" d="M183.63,213.62c2.733.968,5.523,1.076,7.935-.578q.187-.129.376-.269a5.466,5.466,0,0,0-4.341-1.138,6.26,6.26,0,0,0-3.97,1.985" transform="translate(-60.246 -69.415)" fill="#ebe1e2"/>
            <path id="Path_998155" data-name="Path 998155" d="M211.234,174.568a6.845,6.845,0,0,0-1.207,2.077c-.1.274.337.392.436.12a6.224,6.224,0,0,1,1.091-1.877c.187-.221-.132-.543-.32-.32" transform="translate(-68.902 -57.249)" fill="#ebe1e2"/>
            <path id="Path_998156" data-name="Path 998156" d="M213.361,176.428a.41.41,0,1,0,.41-.41.41.41,0,0,0-.41.41" transform="translate(-70.001 -57.749)" fill="#ebe1e2"/>
            <path id="Path_998157" data-name="Path 998157" d="M212.626,177.37a3.774,3.774,0,0,1-4-1.7c-.156-.245-.548-.018-.39.228a4.243,4.243,0,0,0,4.515,1.908c.286-.057.165-.493-.12-.436" transform="translate(-68.306 -57.6)" fill="#ebe1e2"/>
            <path id="Path_998158" data-name="Path 998158" d="M209.561,167.9s-.97-7.944-.687-8.779,4.142-2.051,4.861-2.285c.98-.32,2.536.235,1.565,1.131a2.82,2.82,0,0,1-2.384.539s1.871-1.159,2.475-.912,3.917,2.571,4.274,4.328-1.446,2.788-1.912,3.206-.734-1.448-.734-1.448a5.962,5.962,0,0,1-1.318,1.189c-.843.574-.828,3.251-1.787,3.783a3.6,3.6,0,0,1-4.353-.751" transform="translate(-68.512 -51.426)" fill="#e8aa80"/>
            <path id="Path_998159" data-name="Path 998159" d="M216.053,160.238a3.682,3.682,0,0,1,2.1-1.151c.209-.037.167-.366-.043-.329a4.062,4.062,0,0,0-2.321,1.278c-.144.157.12.357.263.2" transform="translate(-70.784 -52.086)" fill="#d68163"/>
            <path id="Path_998160" data-name="Path 998160" d="M214.971,158.909a3.682,3.682,0,0,1,2.227-.881c.213-.011.212-.342,0-.331a4.06,4.06,0,0,0-2.461.98c-.163.138.074.37.235.232" transform="translate(-70.434 -51.738)" fill="#d68163"/>
            <path id="Path_998161" data-name="Path 998161" d="M216.979,161.667a3.807,3.807,0,0,1,2.62-1.55c.21,0,.255-.327.042-.329a4.146,4.146,0,0,0-2.924,1.677c-.146.154.117.355.263.2" transform="translate(-71.087 -52.424)" fill="#d68163"/>
            <path id="Path_998162" data-name="Path 998162" d="M218.977,163.051a2.931,2.931,0,0,1,2.515-1.209c.212.009.255-.318.042-.329a3.277,3.277,0,0,0-2.82,1.336c-.126.171.136.374.263.2" transform="translate(-71.746 -52.989)" fill="#d68163"/>
            <path id="Path_998163" data-name="Path 998163" d="M221.006,166.236a2.657,2.657,0,0,0,.347-2.1c-.052-.2-.381-.163-.328.043a2.338,2.338,0,0,1-.282,1.856c-.113.178.148.382.263.2" transform="translate(-72.414 -53.806)" fill="#d68163"/>
            <path id="Path_998164" data-name="Path 998164" d="M221.677,165.342a.89.89,0,0,1,.978-.229.166.166,0,0,0,.125-.306,1.233,1.233,0,0,0-1.365.334c-.142.159.121.359.263.2" transform="translate(-72.629 -54.044)" fill="#d68163"/>
            <path id="Path_998165" data-name="Path 998165" d="M135.438,154.049a13.611,13.611,0,0,0,9.934-.247l-.649-2.9-.709-3.165-.5-2.216-6.96-3.608Z" transform="translate(-44.435 -46.559)" fill="#e8aa80"/>
            <path id="Path_998166" data-name="Path 998166" d="M133.682,154.348l-1.6,2.729s-1.605,1.811,4.654,2.188a16.433,16.433,0,0,0,10.538-3.081s-1.148-2.555-2.882-3.178-10.708,1.342-10.708,1.342" transform="translate(-43.273 -50.159)" fill="#ebe1e2"/>
            <path id="Path_998167" data-name="Path 998167" d="M133.272,134.667c.734,2.2,1.394,2.91,3.124,5.01a8.354,8.354,0,0,0,5.389,2.8c4.689.189,6.788-1.79,5.962-8.107-.514-3.923.487-6.163-.573-7.644h0c-.07-.068-.14-.133-.21-.2a8.879,8.879,0,0,0-6.231-2.25c-11.363.337-8.512,7.224-7.459,10.384" transform="translate(-43.363 -40.774)" fill="#e8aa80"/>
            <path id="Path_998168" data-name="Path 998168" d="M154.843,135.771s.257,2.778,1.205,3.7-1.269,1.271-1.269,1.271Z" transform="translate(-50.781 -44.545)" fill="#e8aa80"/>
            <path id="Path_998169" data-name="Path 998169" d="M140.158,133.405c.861,2.684,1.906,8.623,4.148,10.849-6.864,2.018-12.35,2.552-16.338,1.474l-.279-3.435-.981,3.023a9.631,9.631,0,0,1-2.89-1.738c2.766-10.313-1.174-19.342,7.036-22.516a12.468,12.468,0,0,1,14.219,3.114c2.191,2.972.44,6.682-1.931,6.533s-3.757.292-2.985,2.7" transform="translate(-40.623 -39.39)" fill="#1a3866"/>
            <path id="Path_998170" data-name="Path 998170" d="M152.377,138.648a2.828,2.828,0,0,0-.509-2.417c-.675-.9-1.9-2.262-2.978-2.041-1.582.325-1.68,1.757-1.429,3.193s1.324,3.267,3.3,2.833a2.05,2.05,0,0,0,1.62-1.568" transform="translate(-48.345 -44.018)" fill="#e8aa80"/>
            <path id="Path_998171" data-name="Path 998171" d="M148.841,142.177a2.161,2.161,0,0,0,2.08.846c.285-.062.165-.5-.12-.436a1.74,1.74,0,0,1-1.639-.73c-.193-.218-.513.1-.32.32" transform="translate(-48.813 -46.518)" fill="#e8aa80"/>
            <path id="Path_998172" data-name="Path 998172" d="M151.511,145a1.529,1.529,0,1,1,.791-2.836,1.529,1.529,0,0,1-.791,2.836m-1.191-1.236a1.227,1.227,0,1,0,.9-1.484,1.223,1.223,0,0,0-.9,1.484" transform="translate(-49.207 -46.569)" fill="#fff"/>
            <path id="Path_998173" data-name="Path 998173" d="M150.54,139.07a3.61,3.61,0,0,1-1.031-1.456c-.164-.52-.181-1.451.462-1.691.215-.08.126-.43-.091-.349a1.463,1.463,0,0,0-.827,1.521,3.408,3.408,0,0,0,1.234,2.231c.167.161.421-.095.253-.256" transform="translate(-48.902 -44.476)" fill="#1a3866"/>
            <path id="Path_998174" data-name="Path 998174" d="M128.014,277.938l.37-2.448.077-.509,1.26-8.327,1.6,8.25.1.5.466,2.4c15.8-.634,33.475-2.193,35.5-3.585,0,0-5.1-22.547-11.12-35.55-7.39-15.952-9.839-47.676-9.839-47.676l-31.066-13.227s4.359,28.286-3.175,56.357c-4.151,15.466-4.429,39.105-5.786,42.5-.572,1.43,9.49,1.691,21.611,1.318" transform="translate(-34.902 -58.322)" fill="#fff"/>
            <path id="Path_998175" data-name="Path 998175" d="M145.47,265.341a35.426,35.426,0,0,1-24.833-3.944.226.226,0,0,0-.228.39,35.906,35.906,0,0,0,25.181,3.989c.285-.06.164-.5-.12-.436" transform="translate(-39.469 -85.75)" fill="#ebe1e2"/>
            <path id="Path_998176" data-name="Path 998176" d="M165.261,318.642c-7.239.923-14.5,1.637-21.76,1.891l.1.5c11.754-.443,23.448-2.149,35.1-3.757.288-.039.165-.475-.121-.435-4.435.612-8.87,1.235-13.312,1.8" transform="translate(-47.081 -103.95)" fill="#ebe1e2"/>
            <path id="Path_998177" data-name="Path 998177" d="M107.425,321.039a126.834,126.834,0,0,0,13.134,1.229c2.707.112,5.412.134,8.113.085l.077-.508a130.21,130.21,0,0,1-21.206-1.242c-.285-.042-.407.394-.118.436" transform="translate(-35.191 -105.184)" fill="#ebe1e2"/>
            <path id="Path_998178" data-name="Path 998178" d="M120.96,188.646c.2,3.192.37,6.386.38,9.585.013,3.844-.171,7.686-.38,11.523-.015.291.436.29.452,0,.208-3.837.393-7.679.382-11.523-.01-3.2-.181-6.393-.382-9.585-.019-.289-.47-.291-.452,0" transform="translate(-39.685 -61.821)" fill="#ebe1e2"/>
            <path id="Path_998179" data-name="Path 998179" d="M157.284,192.525a240.77,240.77,0,0,0,2.924,33.522A249.032,249.032,0,0,0,167.8,259.14q2.8,9.275,6.3,18.32c.1.269.542.152.436-.12a256.808,256.808,0,0,1-10.114-32.418,244.025,244.025,0,0,1-5.607-33.359q-.919-9.493-1.078-19.037a.226.226,0,0,0-.452,0" transform="translate(-51.603 -63.093)" fill="#ebe1e2"/>
            <path id="Path_998180" data-name="Path 998180" d="M171.537,262.662a23.912,23.912,0,0,0,2.87,10.794,8.232,8.232,0,0,0,3.032,3.456,3.977,3.977,0,0,0,4.1-.028c.241-.161.015-.552-.228-.391a3.744,3.744,0,0,1-4.466-.545,10.887,10.887,0,0,1-2.546-3.687,23.476,23.476,0,0,1-2.311-9.6.226.226,0,0,0-.452,0" transform="translate(-56.279 -86.104)" fill="#ebe1e2"/>
            <path id="Path_998181" data-name="Path 998181" d="M171.644,262.67a17.264,17.264,0,0,1,4.662,1.434c.261.124.492-.267.228-.391a17.68,17.68,0,0,0-4.77-1.48c-.285-.045-.407.391-.12.437" transform="translate(-56.26 -86.034)" fill="#ebe1e2"/>
            <path id="Path_998182" data-name="Path 998182" d="M189.314,194.426c1.8,1.03,3.642,1.97,5.439,3a.226.226,0,0,0,.228-.39c-1.8-1.031-3.642-1.97-5.439-3a.226.226,0,0,0-.228.39" transform="translate(-62.075 -63.65)" fill="#ebe1e2"/>
            <path id="Path_998183" data-name="Path 998183" d="M190.918,195.242c.8-.007,1.6-.1,2.395-.112a.226.226,0,0,0,0-.452c-.8.007-1.6.1-2.395.112a.226.226,0,0,0,0,.452" transform="translate(-62.566 -63.871)" fill="#ebe1e2"/>
            <path id="Path_998184" data-name="Path 998184" d="M162.81,197.185a48.66,48.66,0,0,1-7.774-8.652c-.166-.237-.558-.011-.39.228a49.123,49.123,0,0,0,7.845,8.744c.218.191.54-.128.32-.32" transform="translate(-50.724 -61.822)" fill="#ebe1e2"/>
            <path id="Path_998185" data-name="Path 998185" d="M155.812,191.008l-1.709-.7c-.269-.111-.386.327-.12.436l1.709.7c.269.11.386-.327.12-.437" transform="translate(-50.47 -62.43)" fill="#ebe1e2"/>
            <path id="Path_998186" data-name="Path 998186" d="M160.369,162.25a8.156,8.156,0,0,0-7.139,8.705c.022.288.474.291.453,0a7.7,7.7,0,0,1,6.686-8.253c.285-.036.288-.489,0-.452" transform="translate(-50.265 -53.231)" fill="#ebe1e2"/>
            <path id="Path_998187" data-name="Path 998187" d="M152.5,135.987a.175.175,0,0,1-.009-.345,8.173,8.173,0,0,1,3.851.521.175.175,0,1,1-.128.326,7.993,7.993,0,0,0-3.653-.5.171.171,0,0,1-.061,0" transform="translate(-49.984 -44.476)" fill="#1a3866"/>
            <path id="Path_998188" data-name="Path 998188" d="M278.278,428.329c0,2.652-13.084,4.8-29.224,4.8s-29.223-2.15-29.223-4.8,13.083-4.8,29.223-4.8,29.224,2.15,29.224,4.8" transform="translate(-72.124 -138.953)" fill="#e6cf9e"/>
            <rect id="Rectangle_455072" data-name="Rectangle 455072" width="49.142" height="36.646" transform="translate(149.45 253.156)" fill="#ba2f54"/>
            <rect id="Rectangle_455073" data-name="Rectangle 455073" width="49.142" height="36.646" transform="translate(154.324 253.156)" fill="#941b3f"/>
            <rect id="Rectangle_455074" data-name="Rectangle 455074" width="49.142" height="1.393" transform="translate(154.324 271.184)" fill="#ba2f54"/>
            <path id="Path_998189" data-name="Path 998189" d="M271.074,398.01l-.011,6.112-5.1-.009-.009,5.1-6.112-.01.009-5.1-5.105-.009.011-6.112,5.1.009.009-5.1,6.112.011-.009,5.1Z" transform="translate(-83.578 -128.901)" fill="#fff"/>
            <rect id="Rectangle_455075" data-name="Rectangle 455075" width="3.794" height="7.734" transform="translate(160.509 268.283)" fill="#e8aa80"/>
            <rect id="Rectangle_455076" data-name="Rectangle 455076" width="3.794" height="7.734" transform="translate(193.47 268.283)" fill="#e8aa80"/>
            <path id="Path_998190" data-name="Path 998190" d="M270.229,372.008h-1.915v-5.571a2.266,2.266,0,0,0-2.263-2.263H249.339a2.266,2.266,0,0,0-2.264,2.263v5.571H245.16v-5.571a4.183,4.183,0,0,1,4.179-4.178h16.713a4.183,4.183,0,0,1,4.178,4.178Z" transform="translate(-80.434 -118.852)" fill="#3d43af"/>
            <rect id="Rectangle_455077" data-name="Rectangle 455077" width="4.396" height="4.396" transform="translate(163.422 248.76)" fill="#08183d"/>
            <rect id="Rectangle_455078" data-name="Rectangle 455078" width="4.396" height="4.396" transform="translate(186.64 248.76)" fill="#08183d"/>
          </g>
        </g>
      </g>
    </g>
    <rect id="Rectangle_455083" data-name="Rectangle 455083" width="292" height="310" transform="translate(290 4556)" fill="none"/>
  </g>
</svg>
