<svg xmlns="http://www.w3.org/2000/svg" xmlns:xlink="http://www.w3.org/1999/xlink" width="396" height="274" viewBox="0 0 396 274">
  <defs>
    <clipPath id="clip-path">
      <rect id="Rectangle_454868" data-name="Rectangle 454868" width="396" height="274" transform="translate(185.711 326)" fill="#c8eefe" stroke="#707070" stroke-width="1"/>
    </clipPath>
    <clipPath id="clip-path-2">
      <rect id="Rectangle_454967" data-name="Rectangle 454967" width="370.125" height="362.892" fill="none"/>
    </clipPath>
    <clipPath id="clip-path-4">
      <rect id="Rectangle_454927" data-name="Rectangle 454927" width="108.016" height="98.728" fill="none"/>
    </clipPath>
    <clipPath id="clip-path-5">
      <rect id="Rectangle_454928" data-name="Rectangle 454928" width="66.461" height="129.999" fill="#babbfc"/>
    </clipPath>
    <clipPath id="clip-path-7">
      <rect id="Rectangle_454931" data-name="Rectangle 454931" width="21.51" height="5.248" fill="none"/>
    </clipPath>
    <clipPath id="clip-path-8">
      <rect id="Rectangle_454932" data-name="Rectangle 454932" width="8.504" height="17.817" fill="none"/>
    </clipPath>
    <clipPath id="clip-path-9">
      <rect id="Rectangle_454933" data-name="Rectangle 454933" width="8.639" height="39.683" fill="none"/>
    </clipPath>
    <clipPath id="clip-path-10">
      <rect id="Rectangle_454935" data-name="Rectangle 454935" width="43.781" height="0.81" fill="#e8e8ff"/>
    </clipPath>
    <clipPath id="clip-path-11">
      <rect id="Rectangle_454937" data-name="Rectangle 454937" width="15.738" height="5.521" fill="none"/>
    </clipPath>
    <clipPath id="clip-path-12">
      <rect id="Rectangle_454938" data-name="Rectangle 454938" width="68.28" height="4.018" fill="none"/>
    </clipPath>
    <clipPath id="clip-path-13">
      <rect id="Rectangle_454939" data-name="Rectangle 454939" width="70.45" height="2.907" fill="none"/>
    </clipPath>
    <clipPath id="clip-path-14">
      <rect id="Rectangle_454940" data-name="Rectangle 454940" width="68.636" height="10.804" fill="none"/>
    </clipPath>
    <clipPath id="clip-path-15">
      <rect id="Rectangle_454941" data-name="Rectangle 454941" width="6.783" height="6.074" fill="#4748aa"/>
    </clipPath>
    <clipPath id="clip-path-16">
      <rect id="Rectangle_454942" data-name="Rectangle 454942" width="22.239" height="8.042" fill="none"/>
    </clipPath>
    <clipPath id="clip-path-17">
      <rect id="Rectangle_454966" data-name="Rectangle 454966" width="357.961" height="295.197" fill="none"/>
    </clipPath>
    <clipPath id="clip-path-18">
      <rect id="Rectangle_454944" data-name="Rectangle 454944" width="69.13" height="46.843" fill="#c8eefe"/>
    </clipPath>
    <clipPath id="clip-path-19">
      <rect id="Rectangle_454945" data-name="Rectangle 454945" width="21.85" height="28.969" fill="#ff9581"/>
    </clipPath>
    <clipPath id="clip-path-20">
      <rect id="Rectangle_454947" data-name="Rectangle 454947" width="10.63" height="1.923" fill="#ff9581"/>
    </clipPath>
    <clipPath id="clip-path-21">
      <rect id="Rectangle_454948" data-name="Rectangle 454948" width="5.94" height="17.683" fill="none"/>
    </clipPath>
    <clipPath id="clip-path-22">
      <rect id="Rectangle_454950" data-name="Rectangle 454950" width="11.136" height="12.249" fill="none"/>
    </clipPath>
    <clipPath id="clip-path-23">
      <rect id="Rectangle_454951" data-name="Rectangle 454951" width="17.436" height="15.098" fill="none"/>
    </clipPath>
    <clipPath id="clip-path-24">
      <rect id="Rectangle_454952" data-name="Rectangle 454952" width="27.374" height="2.721" fill="#ff9581"/>
    </clipPath>
    <clipPath id="clip-path-25">
      <rect id="Rectangle_454953" data-name="Rectangle 454953" width="33.002" height="11.473" fill="none"/>
    </clipPath>
    <clipPath id="clip-path-26">
      <rect id="Rectangle_454954" data-name="Rectangle 454954" width="14.071" height="31.889" fill="none"/>
    </clipPath>
    <clipPath id="clip-path-27">
      <rect id="Rectangle_454956" data-name="Rectangle 454956" width="29.988" height="110.951" fill="none"/>
    </clipPath>
    <clipPath id="clip-path-28">
      <rect id="Rectangle_454957" data-name="Rectangle 454957" width="9.465" height="17.108" fill="none"/>
    </clipPath>
    <clipPath id="clip-path-29">
      <rect id="Rectangle_454958" data-name="Rectangle 454958" width="21.947" height="6.519" fill="none"/>
    </clipPath>
    <clipPath id="clip-path-30">
      <rect id="Rectangle_454959" data-name="Rectangle 454959" width="6.492" height="2.409" fill="none"/>
    </clipPath>
    <clipPath id="clip-path-31">
      <rect id="Rectangle_454960" data-name="Rectangle 454960" width="2.783" height="6.434" fill="none"/>
    </clipPath>
    <clipPath id="clip-path-32">
      <rect id="Rectangle_454961" data-name="Rectangle 454961" width="29.989" height="110.951" fill="none"/>
    </clipPath>
    <clipPath id="clip-path-33">
      <rect id="Rectangle_454962" data-name="Rectangle 454962" width="7.75" height="49.823" fill="none"/>
    </clipPath>
    <clipPath id="clip-path-34">
      <rect id="Rectangle_454963" data-name="Rectangle 454963" width="16.625" height="50.501" fill="none"/>
    </clipPath>
    <clipPath id="clip-path-35">
      <rect id="Rectangle_454964" data-name="Rectangle 454964" width="18.97" height="51.985" fill="none"/>
    </clipPath>
  </defs>
  <g id="img1" transform="translate(-185.711 -326)" clip-path="url(#clip-path)">
    <g id="Group_1190525" data-name="Group 1190525" transform="translate(198.711 303.813)">
      <g id="Group_1190524" data-name="Group 1190524" clip-path="url(#clip-path-2)">
        <g id="Group_1190435" data-name="Group 1190435">
          <g id="Group_1190434" data-name="Group 1190434" clip-path="url(#clip-path-2)">
            <path id="Path_997587" data-name="Path 997587" d="M113.744,211.571S25.315,111.318,43.31,85.612,108.6,176.1,113.744,211.571" transform="translate(-7.775 -15.578)" fill="#e8e8ff"/>
            <path id="Path_997588" data-name="Path 997588" d="M92.314,191.551c5.563,4.777,5.361,14.69,12.393,18.538,8.554,4.674,5.144,18.831,5.144,18.831l-4.407,4.779s-13.82,4.523-19.169-3.626a11.447,11.447,0,0,0-3.929-3.656,20.4,20.4,0,0,0-2.169-1.1c-6.1-2.631-13.675-3.061-16.065-10.443-1.988-6.144-9.465-6.511-15.711-9.956a19.309,19.309,0,0,1-2.059-1.289c-3.308-2.376-5.983-6.065-6.819-12.657-2.088-16.5-18.2-12.8-22.876-21.261a10.691,10.691,0,0,1-.9-2.306,13.877,13.877,0,0,1-.359-3.9c.545-15.514-18.385-20.27-14.985-28.037a7.106,7.106,0,0,1,1.243-1.94c.016-.017.049-.052.082-.053,7.134-6.445,14.322,13.274,30.891,11.349,11.307-1.31,11.7,8.8,16.946,15.694a15.642,15.642,0,0,0,1.561,1.794c2.371,2.38,5.7,4.1,10.832,4.331,19.677.878,15.233,20.1,25.79,22.6a12.9,12.9,0,0,1,2.462.888,9.34,9.34,0,0,1,2.1,1.421" transform="translate(0 -25.131)" fill="#c8eefe"/>
            <g id="Group_1190430" data-name="Group 1190430" transform="translate(0.409 108.344)" opacity="0.5" style="mix-blend-mode: multiply;isolation: isolate">
              <g id="Group_1190429" data-name="Group 1190429">
                <g id="Group_1190428" data-name="Group 1190428" clip-path="url(#clip-path-4)">
                  <path id="Path_997589" data-name="Path 997589" d="M92.41,191.856c-3.657,2.674-8.892,7.235-9.662,11.8a5.992,5.992,0,0,0,1.51,5.058l11.028,10.011c.241.157.5.3.755.471l-.095.138,12.575,11.437-1.6,1.738L93.8,220.575a4.355,4.355,0,0,0-2.927-.384c-2.854.584-5.965,3.5-8.436,6.531a20.4,20.4,0,0,0-2.169-1.1c2.691-3.371,6.376-6.983,10.143-7.755a2.676,2.676,0,0,1,.368-.015L63.829,193.345c-2.195-1.735-4.189-2.257-6.12-1.593C53.45,193.2,50.2,200.2,48.5,205.223a19.309,19.309,0,0,1-2.059-1.288c1.723-4.972,5.211-12.624,10.509-14.428a7.466,7.466,0,0,1,2.243-.375L36.143,168.164c-8.508-6.466-16.221-1.068-19.4,1.854a10.691,10.691,0,0,1-.9-2.306c2.945-2.461,8.313-5.84,14.616-4.689L.5,135.775a7.105,7.105,0,0,1,1.243-1.94c.016-.017.049-.052.082-.053L45.3,173.3a10.084,10.084,0,0,1-.33-4.453,13.861,13.861,0,0,1,4.695-8.019,15.641,15.641,0,0,0,1.561,1.794,11.537,11.537,0,0,0-3.934,6.566c-.494,3.5,1.361,7.173,5.562,10.951l-.016.018,27.476,24.988a8.162,8.162,0,0,1,.108-1.894c.849-5.071,5.993-9.846,9.888-12.814a9.34,9.34,0,0,1,2.1,1.421" transform="translate(-0.505 -133.78)" fill="#68c8f2"/>
                </g>
              </g>
            </g>
            <path id="Path_997590" data-name="Path 997590" d="M310.917,213.869s95.94-63.688,86.7-89.09-74.512,60.721-86.7,89.09" transform="translate(-59.116 -22.844)" fill="#c8eefe"/>
            <path id="Path_997591" data-name="Path 997591" d="M309.18,219.788s110.986-30.705,110.1-57.72-89.7,34.547-110.1,57.72" transform="translate(-58.785 -29.536)" fill="#c8eefe"/>
            <path id="Path_997592" data-name="Path 997592" d="M316.936,151.015c-3.465,6.464.3,15.635-4.869,21.762-6.291,7.445,2,19.417,2,19.417l5.835,2.868s14.522-.769,16.569-10.3a11.446,11.446,0,0,1,2.345-4.828,20.321,20.321,0,0,1,1.625-1.808c4.736-4.653,11.649-7.789,11.214-15.536-.362-6.447,6.478-9.488,11.06-14.954a19.239,19.239,0,0,0,1.456-1.944c2.228-3.41,3.392-7.816,1.792-14.265-4-16.137,12.356-18.5,13.663-28.082a10.735,10.735,0,0,0,0-2.473,13.872,13.872,0,0,0-1.073-3.767c-6.106-14.274,9.833-25.539,3.859-31.556a7.091,7.091,0,0,0-1.859-1.361.145.145,0,0,0-.1-.021c-8.979-3.436-8.568,17.547-24.714,21.732-11.017,2.858-7.737,12.424-10.141,20.751a15.727,15.727,0,0,1-.809,2.237c-1.353,3.074-3.839,5.884-8.539,7.947-18.035,7.919-6.956,24.239-15.9,30.381a12.863,12.863,0,0,0-1.976,1.716,9.365,9.365,0,0,0-1.444,2.081" transform="translate(-58.886 -12.129)" fill="#e8e8ff"/>
            <g id="Group_1190433" data-name="Group 1190433" transform="translate(257.067 52.037)" opacity="0.5" style="mix-blend-mode: multiply;isolation: isolate">
              <g id="Group_1190432" data-name="Group 1190432">
                <g id="Group_1190431" data-name="Group 1190431" clip-path="url(#clip-path-5)">
                  <path id="Path_997593" data-name="Path 997593" d="M318.4,151.1c4.375,1.175,10.9,3.54,13.269,7.52a5.991,5.991,0,0,1,.418,5.263L325.416,177.2c-.168.234-.356.458-.534.713l.138.094-7.6,15.2,2.122,1.041,7.924-15.861a4.352,4.352,0,0,1,2.591-1.414c2.873-.485,6.827,1.115,10.225,3.047a20.319,20.319,0,0,1,1.625-1.808c-3.726-2.173-8.466-4.212-12.257-3.572a2.724,2.724,0,0,0-.348.118l16.3-32.583c1.421-2.409,3.094-3.616,5.133-3.694,4.492-.19,10.049,5.173,13.45,9.241a19.248,19.248,0,0,0,1.456-1.944c-3.4-4.015-9.416-9.893-15.008-9.663a7.455,7.455,0,0,0-2.227.459l13.929-27.872c5.6-9.1,14.743-6.849,18.761-5.271a10.737,10.737,0,0,0,0-2.473c-3.635-1.233-9.86-2.447-15.324.9l18.11-36.223a7.092,7.092,0,0,0-1.859-1.361.145.145,0,0,0-.1-.021L355.641,116.8a10.088,10.088,0,0,0-1.3-4.273,13.866,13.866,0,0,0-7.273-5.785,15.719,15.719,0,0,1-.809,2.237,11.526,11.526,0,0,1,6.038,4.7c1.724,3.086,1.319,7.18-1.236,12.22l.022.011-16.609,33.219a8.157,8.157,0,0,0-.784-1.728c-2.622-4.422-9.142-7.019-13.846-8.381A9.367,9.367,0,0,0,318.4,151.1" transform="translate(-317.419 -64.254)" fill="#babbfc"/>
                </g>
              </g>
            </g>
          </g>
        </g>
        <g id="Group_1190467" data-name="Group 1190467">
          <g id="Group_1190466" data-name="Group 1190466" clip-path="url(#clip-path-2)">
            <path id="Path_997594" data-name="Path 997594" d="M332.776,261.1c-1.825-24.462-16.736-55.948-16.736-55.948H286.754c.006.137.02.268.02.409v.342l-.04-.342c0-.141.014-.272.02-.409H257.469s-14.91,31.486-16.736,55.948l46,23.145.04-.378v.378Z" transform="translate(-45.771 -39.005)" fill="#024442"/>
            <path id="Path_997595" data-name="Path 997595" d="M309.882,55.855c-2.09-2.135-4.084-.889-5.072.021L304.076,50A17.27,17.27,0,0,0,269.8,54.288l.735,5.871c-1.182-.638-3.422-1.355-4.922,1.229-2.017,3.474,2.745,9.964,6.433,9.472a17.268,17.268,0,0,0,33.929-4.24c3.695-.432,6.714-7.895,3.9-10.765" transform="translate(-50.411 -6.631)" fill="#ffbda8"/>
            <path id="Path_997596" data-name="Path 997596" d="M293.892,78.38a17.539,17.539,0,0,0,4.171-1.046,8.044,8.044,0,0,0,1.793-1.055,8.51,8.51,0,0,0,1.461-1.578,4.44,4.44,0,0,1-1.073,1.992,5.77,5.77,0,0,1-1.9,1.31,7.569,7.569,0,0,1-2.215.534,6.649,6.649,0,0,1-2.24-.157" transform="translate(-55.878 -14.203)" fill="#2e150c"/>
            <path id="Path_997597" data-name="Path 997597" d="M298.926,80.154c.541-.288,1.09-.49,1.6-.777a4.838,4.838,0,0,0,.741-.437,3.186,3.186,0,0,0,.647-.587,1.644,1.644,0,0,1-.466.8,3.378,3.378,0,0,1-.755.545,4.063,4.063,0,0,1-1.763.455" transform="translate(-56.836 -14.897)" fill="#2e150c"/>
            <path id="Path_997598" data-name="Path 997598" d="M293.1,62.413a12.663,12.663,0,0,1,.7,2.861,9.09,9.09,0,0,1-.093,3.008,9.783,9.783,0,0,0-.519,2.652A1.627,1.627,0,0,0,293.64,72a1.258,1.258,0,0,0,1.215.346,1.343,1.343,0,0,1-1.519.1,2.071,2.071,0,0,1-.98-1.36,6.582,6.582,0,0,1,.29-3.029,16.755,16.755,0,0,0,.313-2.746c.041-.943.042-1.91.147-2.9" transform="translate(-55.568 -11.867)" fill="#2e150c"/>
            <path id="Path_997599" data-name="Path 997599" d="M267.332,69.889a2.149,2.149,0,0,1,.561-1.783,1.473,1.473,0,0,1,1-.424,1.845,1.845,0,0,1,1.046.331,4.655,4.655,0,0,1,1.31,1.456c.335.513.615,1.028.924,1.542a.539.539,0,0,1-.841.66l-.019-.019a2.09,2.09,0,0,0-1.39-.619.812.812,0,0,0-.575.142.973.973,0,0,0-.3.564,1.824,1.824,0,0,0,.593,1.462,1.9,1.9,0,0,0,1.646.705,1.926,1.926,0,0,1-2.008-.283,2.357,2.357,0,0,1-1.106-1.961,1.775,1.775,0,0,1,.509-1.2,1.75,1.75,0,0,1,1.255-.48,2.991,2.991,0,0,1,2.158.92l-.858.641c-.283-.521-.589-1.046-.852-1.564a4.842,4.842,0,0,0-.928-1.3.989.989,0,0,0-1.248-.172,2.24,2.24,0,0,0-.877,1.384" transform="translate(-50.826 -12.868)" fill="#2e150c"/>
            <path id="Path_997600" data-name="Path 997600" d="M318.475,63.463a2.238,2.238,0,0,0-1.191-1.126.99.99,0,0,0-1.167.474,4.84,4.84,0,0,0-.578,1.493c-.128.567-.294,1.152-.441,1.726l-.99-.411a2.99,2.99,0,0,1,1.866-1.422,1.745,1.745,0,0,1,1.334.156,1.776,1.776,0,0,1,.789,1.036,2.359,2.359,0,0,1-.589,2.174,1.927,1.927,0,0,1-1.877.769,1.9,1.9,0,0,0,1.422-1.09,1.818,1.818,0,0,0,.215-1.562.965.965,0,0,0-.433-.471.809.809,0,0,0-.592,0,2.092,2.092,0,0,0-1.195.942l-.013.022a.539.539,0,0,1-.978-.432c.173-.574.317-1.141.516-1.722a4.651,4.651,0,0,1,.911-1.733,1.845,1.845,0,0,1,.932-.579,1.474,1.474,0,0,1,1.076.164,2.151,2.151,0,0,1,.983,1.591" transform="translate(-59.708 -11.725)" fill="#2e150c"/>
            <path id="Path_997601" data-name="Path 997601" d="M286.261,58.34a15.232,15.232,0,0,0-1.892-.065,10.471,10.471,0,0,0-1.915.23,6.948,6.948,0,0,0-1.8.691,8,8,0,0,0-1.607,1.2l-.032.028a.391.391,0,0,1-.594-.5,6.656,6.656,0,0,1,1.479-1.791,6.821,6.821,0,0,1,2.039-1.222,8.031,8.031,0,0,1,2.311-.565,7.576,7.576,0,0,1,2.4.155.939.939,0,0,1-.3,1.849Z" transform="translate(-52.926 -10.707)" fill="#2e150c"/>
            <path id="Path_997602" data-name="Path 997602" d="M295.727,55.44a7.607,7.607,0,0,1,2.293-.742,8.017,8.017,0,0,1,2.379-.021,6.823,6.823,0,0,1,2.276.683,6.644,6.644,0,0,1,1.875,1.373.391.391,0,0,1-.453.628l-.038-.02a7.948,7.948,0,0,0-1.851-.763,6.942,6.942,0,0,0-1.919-.226,10.469,10.469,0,0,0-1.913.249,15.186,15.186,0,0,0-1.818.528l-.084.03a.939.939,0,0,1-.747-1.718" transform="translate(-56.131 -10.381)" fill="#2e150c"/>
            <path id="Path_997603" data-name="Path 997603" d="M301.771,64.827c.179,1.442-.3,2.687-1.061,2.783s-1.532-.995-1.712-2.436.294-2.687,1.059-2.784,1.532,1,1.714,2.437" transform="translate(-56.842 -11.861)" fill="#2e150c"/>
            <path id="Path_997604" data-name="Path 997604" d="M285.422,66.87c.181,1.442.947,2.532,1.713,2.437s1.24-1.342,1.06-2.784-.948-2.532-1.713-2.436-1.24,1.341-1.06,2.783" transform="translate(-54.261 -12.184)" fill="#2e150c"/>
            <path id="Path_997605" data-name="Path 997605" d="M302.41,43.425s2.121,5.88,3.663,7.037,2.507,8.772,3.856,8.483,2.025-2.025,2.025-2.025-.193-11.857-4.145-14.556-5.4,1.06-5.4,1.06" transform="translate(-57.498 -7.87)" fill="#f0b29e"/>
            <path id="Path_997606" data-name="Path 997606" d="M276.862,46.51s-.412,6.238-1.575,7.776.017,9.123-1.36,9.218a3.474,3.474,0,0,1-2.5-1.386s-3.093-11.447-.041-15.134,5.481-.474,5.481-.474" transform="translate(-51.343 -8.596)" fill="#f0b29e"/>
            <path id="Path_997607" data-name="Path 997607" d="M276.861,43.65s7.728,2.461,13.126,1.5L287,42.93a9.718,9.718,0,0,0,9.254-1.638c4.724-3.567,7.133.964,7.133.964s-2.822-14.738-17.544-11.664c-16.388,3.422-15.809,18.7-15.809,18.7s1-7.519,6.828-5.642" transform="translate(-51.342 -5.736)" fill="#2e150c"/>
            <rect id="Rectangle_454930" data-name="Rectangle 454930" width="14.595" height="14.032" transform="matrix(0.992, -0.124, 0.124, 0.992, 232.751, 74.129)" fill="#ffbda8"/>
            <path id="Path_997608" data-name="Path 997608" d="M302.181,91.773l.4,3.177a17.26,17.26,0,0,1-14.472,1.809l-.4-3.177a17.268,17.268,0,0,0,14.471-1.809" transform="translate(-54.703 -17.449)" fill="#f5a78e"/>
            <path id="Path_997609" data-name="Path 997609" d="M409.2,174.82c-1.558,9.563-3.494,21.061-5.491,31.819-2.213,11.93-4.5,22.935-6.408,29.389l-9.748-.786s.123-26.166.162-50.828c.031-12.794.031-25.18-.015-33.292,0,0-.347-1.373-.941-3.763,3.887,3.339,7.774,6.979,11.6,10.943a49.189,49.189,0,0,1,8.467,11.831c.7,1.372,1.5,2.945,2.375,4.688" transform="translate(-73.536 -28.018)" fill="#ffbda8"/>
            <path id="Path_997610" data-name="Path 997610" d="M333.6,114.566s35.5,15.752,58.389,40.314a14.632,14.632,0,0,1,3.349,5.893c2.285,7.852,5.606,28.485-6.727,63.429,0,0-11.568,1.156-14.267,0s1.928-41.643-1.542-45.885-46.656-37.788-47.427-46.656,8.226-17.095,8.226-17.095" transform="translate(-61.855 -21.783)" fill="#26c7ff"/>
            <path id="Path_997611" data-name="Path 997611" d="M266.153,117.04s.871-5.479-3.8-5.307c-4.421.162-29.484,28.273-39.573,72.6a49.139,49.139,0,0,0-1.126,14.51c1.174,16.013,4.333,56.371,7.563,74.359h0s-5,14.479-4.2,15.187,2.758-3.248,2.758-3.248-1.514,7.168-.921,7.495,3.247-6.337,3.247-6.337-.224,8.212.426,8.377,2.609-7.293,2.609-7.293.762,6.613,1.225,6.723,3.62-11.241,3.62-11.241,3.837,3.4,4.327,3.211-2.536-13.271-2.536-13.273c.971-12.7,4.621-60.275,6.387-80.687,0,0,22.578-66.2,20-75.076" transform="translate(-42.119 -21.243)" fill="#ffbda8"/>
            <path id="Path_997612" data-name="Path 997612" d="M260.422,111.987S245,122.494,233.43,146.208s-14.459,48.006-14.459,48.006l7.712,71.334s10.8,3.278,14.267.193,6.362-73.454,6.362-73.454l19.28-63.622Z" transform="translate(-41.634 -21.292)" fill="#26c7ff"/>
            <path id="Path_997613" data-name="Path 997613" d="M319.068,175.952c1.142-16.492,4.487-48.33,1.035-57.39-3.794-9.961-21.057-13.544-27.761-14.575h-2.7c-6.7,1.031-27.868,55.473-26.726,71.965a27.332,27.332,0,0,1-.924,9.994h58a27.332,27.332,0,0,1-.924-9.994" transform="translate(-49.814 -19.771)" fill="#ffbda8"/>
            <path id="Path_997614" data-name="Path 997614" d="M320.279,186.1s-30.751,13.015-59.768.381c0,0,1.547-10.407,1.158-17.153s3.377-56.01,6.649-58.61c2.154-1.709,8.034-3.5,11.824-4.535h.008c.34-.089.656-.178.956-.251,1.474-.389,2.446-.616,2.446-.616s5.394,5.11,14.942.194c0,0,.867.251,2.284.68.275.081.567.17.883.267,6.155,1.855,19.4,5.944,22.474,7.629,4.049,2.219-3.855,72.013-3.855,72.013" transform="translate(-49.532 -20.025)" fill="#26c7ff"/>
            <g id="Group_1190438" data-name="Group 1190438" transform="translate(230.619 85.911)" opacity="0.5" style="mix-blend-mode: screen;isolation: isolate">
              <g id="Group_1190437" data-name="Group 1190437">
                <g id="Group_1190436" data-name="Group 1190436" clip-path="url(#clip-path-7)">
                  <path id="Path_997615" data-name="Path 997615" d="M306.271,106.606c-3.037,3.069-6.366,4.657-9.9,4.722h-.243c-5.11,0-9.305-3.118-11.362-5,.34-.089.656-.178.956-.251,2.1,1.8,5.936,4.438,10.415,4.438h.219a13.318,13.318,0,0,0,9.038-4.179c.275.081.567.17.883.267" transform="translate(-284.761 -106.08)" fill="#2b6de5"/>
                </g>
              </g>
            </g>
            <g id="Group_1190441" data-name="Group 1190441" transform="translate(266.204 115.71)" opacity="0.5" style="mix-blend-mode: multiply;isolation: isolate">
              <g id="Group_1190440" data-name="Group 1190440">
                <g id="Group_1190439" data-name="Group 1190439" clip-path="url(#clip-path-8)">
                  <path id="Path_997616" data-name="Path 997616" d="M337.2,151.48l-8.5-8.6,7.694,17.817Z" transform="translate(-328.701 -142.875)" fill="#2b6de5"/>
                </g>
              </g>
            </g>
            <g id="Group_1190444" data-name="Group 1190444" transform="translate(212.01 117.971)" opacity="0.5" style="mix-blend-mode: multiply;isolation: isolate">
              <g id="Group_1190443" data-name="Group 1190443">
                <g id="Group_1190442" data-name="Group 1190442" clip-path="url(#clip-path-9)">
                  <path id="Path_997617" data-name="Path 997617" d="M261.784,177.657l8.639-31.99-8.639,39.684Z" transform="translate(-261.784 -145.667)" fill="#2b6de5"/>
                </g>
              </g>
            </g>
            <path id="Path_997618" data-name="Path 997618" d="M253.908,196.676c-.13,1.782-.283,3.855-.462,6.171-1.417,18.522-4.228,52.172-7.111,68.1.332.956,4.956,14.448,4.187,15.128-.8.713-2.762-3.248-2.762-3.248s1.514,7.167.923,7.5-3.248-6.341-3.248-6.341.227,8.212-.429,8.382-2.608-7.3-2.608-7.3-.761,6.617-1.223,6.722-3.62-11.241-3.62-11.241-3.839,3.4-4.333,3.215,2.543-13.274,2.543-13.274h.032c-.972-12.683-4.624-60.165-6.39-80.533,0,0-14.561-65.688-11.986-74.54,0,0-8.884-5.863-4.211-5.693,4.219.154,27.268,25.746,38.112,66.571.518,1.936,1,3.9,1.458,5.9a48.653,48.653,0,0,1,1.126,14.48" transform="translate(-40.28 -20.862)" fill="#e88c5d"/>
            <path id="Path_997619" data-name="Path 997619" d="M260.724,212.306c-.13,1.782-.283,3.855-.462,6.171a13.461,13.461,0,0,1-2.122-26.547c.518,1.936,1,3.9,1.458,5.9a48.652,48.652,0,0,1,1.126,14.48" transform="translate(-47.096 -36.492)" fill="#ff9775"/>
            <path id="Path_997620" data-name="Path 997620" d="M158.518,102.239c-.98,8.01-36.363,49-45.855,58.821a63.158,63.158,0,0,1-9.305,7.111c-5.6,3.58-11.775,6.374-13.193,3.183a49.294,49.294,0,0,1-2.9-8.6,47.967,47.967,0,0,1-.956-5.256c-.008-.057-.016-.121-.024-.17-.948-7.969-2.583-22-4.009-36.339s-2.656-28.953-2.794-38.1c0,0-7.669-13.258-7.022-14.1.624-.818,3.134,2.405,3.32,2.64-.154-.364-2.835-6.746-2.332-7.159s4.163,5.24,4.389,5.58c-.089-.4-1.766-8.01-1.174-8.285.607-.283,3.96,6.657,3.96,6.657s-.518-6.633-.089-6.835,5.7,10.342,5.7,10.342,3.118-4.074,3.636-3.976c.186.032.243,1.749.243,3.952,0,3.985-.194,9.556-.194,9.556,2.235,8.115,8.52,30.9,14.156,51.119,24.029-26.377,49.5-37.878,53.03-36.517,4.365,1.676,1.409,6.374,1.409,6.374" transform="translate(-13.77 -11.672)" fill="#e88c5d"/>
            <path id="Path_997621" data-name="Path 997621" d="M106.843,191.768c-5.6,3.58-11.775,6.374-13.193,3.183a49.293,49.293,0,0,1-2.9-8.6,13.468,13.468,0,0,1,16.092,5.418" transform="translate(-17.255 -35.27)" fill="#ff9775"/>
            <path id="Path_997622" data-name="Path 997622" d="M208.545,173.572c-1.924-21.636,4.487-48.33,1.035-57.39-3.794-9.961-21.056-13.544-27.761-14.575h-2.7c-6.7,1.031-23.966,4.614-27.761,14.575-3.452,9.06-.107,40.9,1.035,57.39a27.332,27.332,0,0,1-.924,9.994h58s-.38-3.878-.924-9.994" transform="translate(-28.49 -19.319)" fill="#e88c5d"/>
            <rect id="Rectangle_454934" data-name="Rectangle 454934" width="14.595" height="14.032" transform="translate(144.684 72.041)" fill="#e88c5d"/>
            <path id="Path_997623" data-name="Path 997623" d="M193.242,91.449v3.2a17.263,17.263,0,0,1-14.584,0v-3.2a17.263,17.263,0,0,0,14.584,0" transform="translate(-33.969 -17.387)" fill="#de7038"/>
            <path id="Path_997624" data-name="Path 997624" d="M228.6,153.635c-3.855,6.56-20.627,12.148-20.627,12.148l-4.049-15.039,1.344,20.846a46.121,46.121,0,0,0,6.9,21.251c10.439,16.91,13.995,39.141,13.995,39.141H124.621c2.826-20.052,18.667-41.133,21.753-47.4s-1.352-39.9-1.352-39.9L137.7,153.06c-9.832-2.988-12.626-24.1-12.626-24.1,9-9.759,21.713-16.853,29.358-20.571.6-.292,1.174-.559,1.7-.81,3.013-1.4,4.892-2.138,4.892-2.138h29.212a15.594,15.594,0,0,1,6.609,2.138c.454.251.907.518,1.369.81,15.387,9.605,33.65,39.708,30.386,45.247" transform="translate(-23.695 -20.048)" fill="#4748aa"/>
            <g id="Group_1190447" data-name="Group 1190447" transform="translate(130.738 87.53)" opacity="0.5" style="mix-blend-mode: screen;isolation: isolate">
              <g id="Group_1190446" data-name="Group 1190446">
                <g id="Group_1190445" data-name="Group 1190445" clip-path="url(#clip-path-10)">
                  <path id="Path_997625" data-name="Path 997625" d="M205.212,108.89H161.431c.6-.292,1.174-.559,1.7-.81h40.712c.454.251.907.518,1.369.81" transform="translate(-161.431 -108.08)" fill="#e8e8ff"/>
                </g>
              </g>
            </g>
            <path id="Path_997626" data-name="Path 997626" d="M231.052,231.159H183.5L144.931,114.586s.8-.429,2.081-1.11c.227-.121.478-.251.737-.389,4.074-2.154,11.484-6.017,14.8-7.418.292-.121.543-.219.761-.3q.3-.109.51-.17s42.032,70.183,50.511,78.922c0,0,16.716,31.1,16.716,47.037" transform="translate(-27.556 -20.002)" fill="#fff"/>
            <path id="Path_997627" data-name="Path 997627" d="M215.664,182.412a.387.387,0,0,1-.308.146.4.4,0,0,1-.259-.1c-16.61-14.124-44.146-68.256-48.406-76.751.292-.121.543-.219.761-.3,4.357,8.674,31.723,62.441,48.171,76.435a.4.4,0,0,1,.04.567" transform="translate(-31.693 -20.042)" fill="#cce8f2"/>
            <path id="Path_997628" data-name="Path 997628" d="M181.37,203.742a.405.405,0,0,1-.3.13.392.392,0,0,1-.275-.105c-8.9-8.334-29.9-77.2-33.294-88.438.227-.121.478-.251.737-.389,3.126,10.358,24.434,80.1,33.107,88.227a.416.416,0,0,1,.024.575" transform="translate(-28.045 -21.854)" fill="#cce8f2"/>
            <path id="Path_997629" data-name="Path 997629" d="M185.409,203.507a.4.4,0,0,1-.374-.251c-2.893-7.028-28.174-68.81-25.1-73.785a.935.935,0,0,1,.746-.471c.035,0,.07,0,.105,0,2.853,0,6.567,8.483,12.307,22.369,4.13,9.992,8.811,21.319,11.378,21.777.212.036.271-.032.3-.07,1.293-1.562-3.428-13.941-6.877-22.98-4.468-11.712-6.062-16.216-5.054-17.045.185-.153.516-.265,1.04.062,4.91,3.069,30.649,62.835,31.742,65.378a.4.4,0,0,1-.744.319c-9.226-21.458-27.668-62.661-31.427-65.01a.922.922,0,0,0-.107-.059c-.327,1.3,2.789,9.468,5.306,16.067,5.037,13.2,8.227,21.993,6.745,23.785a1.062,1.062,0,0,1-1.07.351c-2.8-.5-6.4-8.745-11.984-22.265-4.239-10.256-9.039-21.87-11.545-21.87l-.058,0c-.028,0-.066,0-.117.088-2.16,3.5,13.864,45.6,25.162,73.052a.4.4,0,0,1-.22.528.4.4,0,0,1-.154.031" transform="translate(-30.359 -24.527)" fill="#cce8f2"/>
            <path id="Path_997630" data-name="Path 997630" d="M204.554,56.946c-1.809-2.378-3.942-1.389-5.036-.608V50.421a17.27,17.27,0,1,0-34.539,0v5.917c-1.093-.781-3.227-1.77-5.036.608-2.436,3.2,1.5,10.248,5.226,10.2a17.248,17.248,0,0,0,34.159,0c3.725.051,7.661-6.995,5.225-10.2" transform="translate(-30.267 -6.303)" fill="#e88c5d"/>
            <path id="Path_997631" data-name="Path 997631" d="M190.4,81.5c.573-.219,1.143-.351,1.68-.573a4.954,4.954,0,0,0,.79-.341,3.173,3.173,0,0,0,.714-.5,1.641,1.641,0,0,1-.561.737,3.4,3.4,0,0,1-.816.447,4.056,4.056,0,0,1-1.806.233" transform="translate(-36.202 -15.227)" fill="#2e150c"/>
            <path id="Path_997632" data-name="Path 997632" d="M187.694,60.793a12.649,12.649,0,0,1,.341,2.925,9.084,9.084,0,0,1-.466,2.975,9.812,9.812,0,0,0-.844,2.567,1.624,1.624,0,0,0,.311,1.114,1.254,1.254,0,0,0,1.161.494,1.342,1.342,0,0,1-1.518-.093,2.071,2.071,0,0,1-.8-1.471,6.575,6.575,0,0,1,.663-2.97,16.692,16.692,0,0,0,.651-2.687c.158-.931.279-1.89.5-2.855" transform="translate(-35.337 -11.559)" fill="#2e150c"/>
            <path id="Path_997633" data-name="Path 997633" d="M161.368,65.034a2.151,2.151,0,0,1,.777-1.7,1.48,1.48,0,0,1,1.049-.3,1.842,1.842,0,0,1,1,.458A4.642,4.642,0,0,1,165.31,65.1c.27.552.483,1.1.726,1.645a.539.539,0,0,1-.916.551l-.016-.021a2.1,2.1,0,0,0-1.3-.786.807.807,0,0,0-.588.07.971.971,0,0,0-.371.522,1.819,1.819,0,0,0,.407,1.524,1.9,1.9,0,0,0,1.546.9,1.926,1.926,0,0,1-1.957-.53,2.356,2.356,0,0,1-.854-2.083,1.772,1.772,0,0,1,.654-1.126,1.75,1.75,0,0,1,1.3-.321,2.989,2.989,0,0,1,2.027,1.18l-.931.53c-.216-.552-.454-1.111-.651-1.658a4.839,4.839,0,0,0-.76-1.409.988.988,0,0,0-1.216-.325,2.237,2.237,0,0,0-1.042,1.264" transform="translate(-30.681 -11.984)" fill="#2e150c"/>
            <path id="Path_997634" data-name="Path 997634" d="M212.851,65.034a2.237,2.237,0,0,0-1.042-1.264.99.99,0,0,0-1.217.325,4.857,4.857,0,0,0-.759,1.409c-.2.547-.435,1.106-.651,1.658l-.931-.53a2.989,2.989,0,0,1,2.027-1.18,1.75,1.75,0,0,1,1.3.321,1.772,1.772,0,0,1,.654,1.126,2.356,2.356,0,0,1-.854,2.083,1.926,1.926,0,0,1-1.957.53,1.9,1.9,0,0,0,1.546-.9,1.819,1.819,0,0,0,.407-1.524.971.971,0,0,0-.371-.522.808.808,0,0,0-.588-.07,2.1,2.1,0,0,0-1.3.786l-.015.02a.539.539,0,0,1-.917-.55c.243-.548.456-1.093.726-1.645a4.642,4.642,0,0,1,1.119-1.607,1.842,1.842,0,0,1,1-.458,1.48,1.48,0,0,1,1.049.3,2.152,2.152,0,0,1,.777,1.7" transform="translate(-39.574 -11.984)" fill="#2e150c"/>
            <path id="Path_997635" data-name="Path 997635" d="M181.532,56.056a15.061,15.061,0,0,0-1.869-.3,10.443,10.443,0,0,0-1.929-.009,6.923,6.923,0,0,0-1.876.462,7.938,7.938,0,0,0-1.743.987l-.035.023a.391.391,0,0,1-.527-.566,6.642,6.642,0,0,1,1.69-1.595,6.812,6.812,0,0,1,2.174-.96,8.02,8.02,0,0,1,2.363-.274,7.574,7.574,0,0,1,2.366.451.939.939,0,0,1-.528,1.8Z" transform="translate(-32.982 -10.233)" fill="#2e150c"/>
            <path id="Path_997636" data-name="Path 997636" d="M191.347,54.278a7.6,7.6,0,0,1,2.367-.452,8.046,8.046,0,0,1,2.362.275,6.812,6.812,0,0,1,2.174.96,6.655,6.655,0,0,1,1.69,1.595.391.391,0,0,1-.527.566l-.035-.024a7.985,7.985,0,0,0-1.743-.987,6.952,6.952,0,0,0-1.876-.462,10.373,10.373,0,0,0-1.929.01,15.06,15.06,0,0,0-1.869.3l-.087.019a.939.939,0,0,1-.528-1.8" transform="translate(-36.265 -10.233)" fill="#2e150c"/>
            <path id="Path_997637" data-name="Path 997637" d="M196.157,64.272c0,1.453-.625,2.63-1.4,2.63s-1.4-1.178-1.4-2.63.625-2.63,1.4-2.63,1.4,1.178,1.4,2.63" transform="translate(-36.765 -11.72)" fill="#2e150c"/>
            <path id="Path_997638" data-name="Path 997638" d="M195.647,62.227a4.094,4.094,0,0,0,1.85-.585s-.546,1.407-1.607,1.45Z" transform="translate(-37.199 -11.72)" fill="#2e150c"/>
            <path id="Path_997639" data-name="Path 997639" d="M179.682,64.272c0,1.453.624,2.63,1.4,2.63s1.4-1.178,1.4-2.63-.626-2.63-1.4-2.63-1.4,1.178-1.4,2.63" transform="translate(-34.163 -11.72)" fill="#2e150c"/>
            <path id="Path_997640" data-name="Path 997640" d="M180.414,62.227a4.094,4.094,0,0,1-1.85-.585s.546,1.407,1.608,1.45Z" transform="translate(-33.951 -11.72)" fill="#2e150c"/>
            <path id="Path_997641" data-name="Path 997641" d="M178.778,73.548a4.408,4.408,0,1,1-4.407-4.407,4.407,4.407,0,0,1,4.407,4.407" transform="translate(-32.316 -13.146)" fill="#ff9775"/>
            <path id="Path_997642" data-name="Path 997642" d="M205.919,73.548a4.408,4.408,0,1,1-4.407-4.407,4.407,4.407,0,0,1,4.407,4.407" transform="translate(-37.476 -13.146)" fill="#ff9775"/>
            <path id="Path_997643" data-name="Path 997643" d="M193.065,74.536a6.443,6.443,0,0,1-.656,2.445,3.753,3.753,0,0,1-2.962,2.059,4.9,4.9,0,0,1-.817.046c-3.563-.077-5.244-4.033-5.244-4.033l1.018-.177,8.675-1.5a6.9,6.9,0,0,1-.015,1.156" transform="translate(-34.868 -13.952)" fill="#2e150c"/>
            <path id="Path_997644" data-name="Path 997644" d="M193.3,74.536l-8.137,1.419a.328.328,0,0,1-.385-.27l-.138-.81,8.675-1.5a6.9,6.9,0,0,1-.015,1.156" transform="translate(-35.107 -13.952)" fill="#fff"/>
            <path id="Path_997645" data-name="Path 997645" d="M193.623,77.669a3.751,3.751,0,0,1-2.962,2.059,4.9,4.9,0,0,1-.817.046,2.074,2.074,0,0,1-.07-.539,2.247,2.247,0,0,1,3.848-1.565" transform="translate(-36.082 -14.64)" fill="#ff9775"/>
            <path id="Path_997646" data-name="Path 997646" d="M138.365,104.788l5.206-3.663-.322-.964,19.022-9.512.193.579a76.993,76.993,0,0,1,8.162-2.314V79.6c-7.584-3.342-10.089-13.11-10.089-13.11-5.4-1.349-6.555-8.74-4.564-10.86s4.788,0,4.788,0c10.122-2.6,17.351-13.207,17.351-13.207s8.456,16.358,16.843,13.273c0,0,3.24-2.251,5.233.383s-.193,8.8-4.756,10.218c0,0-2.056,9.768-10.154,13.238l-.064,9.319,6.683,2.056a28.612,28.612,0,0,1,13.624,6.748A19.221,19.221,0,0,0,207.5,79.793c-.594-1.4-1.366-2.724-1.92-4.142-2.5-6.405-.253-13.543.368-20.392a16.887,16.887,0,0,0-.611-7.266,7.758,7.758,0,0,0-4.994-5c-.158-.042-.882-2.317-1.045-2.62a12.618,12.618,0,0,0-1.63-2.352,29.658,29.658,0,0,0-11.557-7.561A20.188,20.188,0,0,0,174.9,29.37a21.244,21.244,0,0,0-8.763,4.447,32.047,32.047,0,0,0-7.009,7.156c-3.95,6.28-10.327,9.329-12.638,16.378-1.912,5.833,1.8,12.073,1.306,18.19a13.39,13.39,0,0,1-3.09,7.494c-2.565,3.039-6.587,5.095-7.738,8.9-1.105,3.654-.52,9.553,1.4,12.851" transform="translate(-25.936 -5.514)" fill="#2e150c"/>
            <path id="Path_997648" data-name="Path 997648" d="M167.822,82.468a3.278,3.278,0,1,1-6.555,0c0-1.81,1.467-6.844,3.278-6.844s3.278,5.034,3.278,6.844" transform="translate(-30.662 -14.379)" fill="#ffd4cc"/>
            <path id="Path_997649" data-name="Path 997649" d="M166.513,74.512a1.566,1.566,0,1,1-1.566-1.566,1.566,1.566,0,0,1,1.566,1.566" transform="translate(-31.064 -13.869)" fill="#ffd4cc"/>
            <path id="Path_997650" data-name="Path 997650" d="M212.5,82.468a3.278,3.278,0,1,1-6.555,0c0-1.81,1.467-6.844,3.278-6.844s3.278,5.034,3.278,6.844" transform="translate(-39.156 -14.379)" fill="#ffd4cc"/>
            <path id="Path_997651" data-name="Path 997651" d="M211.188,74.512a1.566,1.566,0,1,1-1.566-1.566,1.566,1.566,0,0,1,1.566,1.566" transform="translate(-39.558 -13.869)" fill="#ffd4cc"/>
            <path id="Path_997652" data-name="Path 997652" d="M257.117,352.093H164.192c-1.547-16,12.14-52.633,12.14-52.633h66.709c11.184,18.7,14.076,52.633,14.076,52.633" transform="translate(-31.195 -56.937)" fill="#024442"/>
            <path id="Path_997653" data-name="Path 997653" d="M193.782,301.97c-1.66,7.329-10.18,17.113-11.152,18.206-.259,1.766-3.312,23.057-2.373,32.281h-.818c-.915-9.322,2-29.738,2.373-32.281-3.11-2.624.154-16.837.551-18.489a.4.4,0,0,1,.786.186c-1.012,4.26-3.061,15.387-.948,17.574,1.5-1.733,9.265-10.941,10.787-17.655a.407.407,0,0,1,.794.178" transform="translate(-34.084 -57.301)" fill="#1e2224"/>
            <path id="Path_997654" data-name="Path 997654" d="M316,228.042c14.618,10.546,52.575,38.219,65.386,50.366l-5.455,8.864s-57.108-29.428-79.7-40.775c0,0-72.6-16.471-79.2-23.759,0,0-5.451-2.268-2.688-6.408,2.614-3.917,42.074-10.949,87.88,4.638A52.3,52.3,0,0,1,316,228.042" transform="translate(-40.604 -40.176)" fill="#b36138"/>
            <path id="Path_997655" data-name="Path 997655" d="M416.586,291.656s15.911,3.547,16.107,4.666-4.483.688-4.483.688,7.341,2.627,7.306,3.347-7.554-.594-7.554-.594,7.567,4.378,7.354,5.059-8.066-1.7-8.066-1.7,5.569,4.381,5.41,4.861-12.208-2.99-12.208-2.99.943,5.376.5,5.714-10.615-9.7-10.615-9.7Z" transform="translate(-78.018 -55.453)" fill="#b36138"/>
            <path id="Path_997656" data-name="Path 997656" d="M370.138,265.417s-8.479,12.342-11.954,13.5-61.113-31.042-61.113-31.042-22.239-4.56-41.927-9.7c-12.691-3.312-24.32-6.86-28.248-9.581-4.114-2.851-4.325-6.09-3.134-8.925a9.975,9.975,0,0,1,.494-1.029,21.867,21.867,0,0,1,5.782-6.26s.931-.081,2.575-.186q.5-.036,1.093-.073c8.69-.518,31.139-1.32,48.714,2.786,22.263,5.207,31.228,8.674,37.205,13.881s50.511,36.63,50.511,36.63" transform="translate(-42.425 -40.249)" fill="#abacff"/>
            <path id="Path_997657" data-name="Path 997657" d="M179.607,227.162c1.558-3.912,3.014-7.906,4.834-11.707a5.769,5.769,0,0,0-3.624-.54c-27.57,4.982-57.866,34.8-57.866,34.8L110.5,216.36a6.345,6.345,0,0,0-7.362-3.965l-1.3.3a6.345,6.345,0,0,0-4.867,7.058c2.23,16.084,9.3,60.437,19.81,63.379,8.629,2.417,38-18.571,56.523-35.816a139.975,139.975,0,0,1,6.3-20.151" transform="translate(-18.426 -40.353)" fill="#b36138"/>
            <path id="Path_997658" data-name="Path 997658" d="M190.152,213.16l-.786,1.79-.381.858-14.934,33.885s-5.118,3.976-12.367,9.2c-14.942,10.763-38.947,26.847-45.952,24.442-10.415-3.563-20.635-53.111-18.708-57.063s16.2-5.3,16.2-5.3l10.415,26.515s19.372-15.039,33.059-24.3c10.617-7.175,24.879-9.249,30.751-9.816.2-.024.4-.04.575-.057.105-.008.211-.024.308-.032,1.166-.1,1.822-.121,1.822-.121" transform="translate(-18.403 -40.529)" fill="#abacff"/>
            <rect id="Rectangle_454936" data-name="Rectangle 454936" width="14.934" height="15.533" transform="translate(171.679 175.127) rotate(-84.381)" fill="#b36138"/>
            <g id="Group_1190450" data-name="Group 1190450" transform="translate(172.643 162.404)" opacity="0.5" style="mix-blend-mode: multiply;isolation: isolate">
              <g id="Group_1190449" data-name="Group 1190449">
                <g id="Group_1190448" data-name="Group 1190448" clip-path="url(#clip-path-11)">
                  <path id="Path_997659" data-name="Path 997659" d="M228.913,202.053l-.292,2.96a18.377,18.377,0,0,1-15.447-1.52l.291-2.96a18.378,18.378,0,0,0,15.447,1.52" transform="translate(-213.175 -200.532)" fill="#a35933"/>
                </g>
              </g>
            </g>
            <path id="Path_997660" data-name="Path 997660" d="M247.6,285.055c-.486,4.43-64.2,9.735-69.989,0-2.057-3.458-2.025-12.666-1.191-22.919.024-.267.049-.543.065-.81.073-.842.154-1.7.235-2.551.292-3.037.632-6.115,1-9.119.04-.332.081-.656.13-.988s.081-.672.121-1c.04-.275.073-.551.113-.826.454-3.531.939-6.916,1.393-9.937v-.008c.283-1.928.559-3.7.8-5.288.194-1.263.373-2.4.526-3.385a11.039,11.039,0,0,1,5.572-7.985c4.446-2.454,11.144-5.831,16.133-6.932.186-.04.364-.073.543-.105.1-.024.2-.041.3-.057a12.043,12.043,0,0,1,1.927-.194s5.645,4.608,15.768-.4c0,0,.786.138,2.057.437.275.065.583.138.9.219,4.446,1.118,12.8,3.766,17.129,8.714,3.677,4.2,4.738,10.383,5.021,16.424.113,2.243.113,4.462.1,6.552,0,.275,0,.543-.008.81-.008,1.3-.016,2.535,0,3.685.008.818.032,1.782.081,2.867.008.356.024.729.032,1.118.113,2.7.283,5.977.47,9.386.008.275.024.543.04.818.478,9.014,1.02,18.757.729,21.486" transform="translate(-33.443 -40.411)" fill="#abacff"/>
            <g id="Group_1190453" data-name="Group 1190453" transform="translate(144.538 203.235)" opacity="0.5" style="mix-blend-mode: screen;isolation: isolate">
              <g id="Group_1190452" data-name="Group 1190452">
                <g id="Group_1190451" data-name="Group 1190451" clip-path="url(#clip-path-12)">
                  <path id="Path_997661" data-name="Path 997661" d="M246.751,252.189c0,.275,0,.543-.008.81-28.685-3.28-60.513.85-68.272,1.968.04-.275.073-.551.113-.826,8.163-1.174,39.683-5.2,68.167-1.952" transform="translate(-178.471 -250.949)" fill="#ffa901"/>
                </g>
              </g>
            </g>
            <g id="Group_1190456" data-name="Group 1190456" transform="translate(142.983 220.916)" opacity="0.5" style="mix-blend-mode: screen;isolation: isolate">
              <g id="Group_1190455" data-name="Group 1190455">
                <g id="Group_1190454" data-name="Group 1190454" clip-path="url(#clip-path-13)">
                  <path id="Path_997662" data-name="Path 997662" d="M247,275.023c-7.435.478-15.145.664-22.652.664-21.332,0-40.963-1.506-47.8-2.1.024-.267.049-.543.065-.81,9.216.794,41.822,3.272,70.345,1.425.008.275.024.543.04.818" transform="translate(-176.551 -272.78)" fill="#ffa901"/>
                </g>
              </g>
            </g>
            <g id="Group_1190459" data-name="Group 1190459" transform="translate(144.287 207.998)" opacity="0.5" style="mix-blend-mode: screen;isolation: isolate">
              <g id="Group_1190458" data-name="Group 1190458">
                <g id="Group_1190457" data-name="Group 1190457" clip-path="url(#clip-path-14)">
                  <path id="Path_997663" data-name="Path 997663" d="M246.8,261.786l-4.284-3.871-10.747,9.718L221,257.915l-10.755,9.718L199.5,257.915l-10.755,9.718-10.585-9.556c.04-.332.081-.656.13-.988l10.455,9.459L199.5,256.83l10.747,9.718L221,256.83l10.763,9.718,10.747-9.718,4.252,3.839c.008.356.024.729.032,1.118" transform="translate(-178.161 -256.83)" fill="#ffa901"/>
                </g>
              </g>
            </g>
            <g id="Group_1190462" data-name="Group 1190462" transform="translate(142.952 190.42)" opacity="0.5" style="mix-blend-mode: multiply;isolation: isolate">
              <g id="Group_1190461" data-name="Group 1190461">
                <g id="Group_1190460" data-name="Group 1190460" clip-path="url(#clip-path-15)">
                  <path id="Path_997664" data-name="Path 997664" d="M179.6,241.2l-3.088-4.252,6.783-1.822Z" transform="translate(-176.513 -235.125)" fill="#4748aa"/>
                </g>
              </g>
            </g>
            <g id="Group_1190465" data-name="Group 1190465" transform="translate(169.044 171.87)" opacity="0.5" style="mix-blend-mode: screen;isolation: isolate">
              <g id="Group_1190464" data-name="Group 1190464">
                <g id="Group_1190463" data-name="Group 1190463" clip-path="url(#clip-path-16)">
                  <path id="Path_997665" data-name="Path 997665" d="M230.97,212.22c-.211.275-.445.583-.713.915-1.822,2.2-5.021,5.361-9.232,6.633a12.908,12.908,0,0,1-1.514.364,8.238,8.238,0,0,1-1.45.13c-3.531,0-6.131-2.381-7.791-4.632a19.8,19.8,0,0,1-1.506-2.389.17.17,0,0,0-.032-.049c.2-.024.4-.04.575-.057.1-.024.2-.04.3-.057a.03.03,0,0,0,.008.024,16.7,16.7,0,0,0,1.037,1.668c1.717,2.478,4.641,5.3,8.714,4.568a12.627,12.627,0,0,0,2.154-.6,19.97,19.97,0,0,0,7.84-5.823c.186-.219.356-.429.518-.624q.5-.036,1.093-.073" transform="translate(-208.731 -212.22)" fill="#ffa901"/>
                </g>
              </g>
            </g>
            <path id="Path_997666" data-name="Path 997666" d="M243.911,167.23c-1.668-2.707-4.031-1.881-5.271-1.169l.617-6.267a18.38,18.38,0,0,0-36.583-3.6l-.616,6.268c-1.078-.94-3.234-2.21-5.4.119-2.909,3.133.511,10.987,4.454,11.344a18.378,18.378,0,0,0,36.216,3.564c3.937.419,8.823-6.618,6.579-10.258" transform="translate(-37.185 -26.545)" fill="#b36138"/>
            <path id="Path_997667" data-name="Path 997667" d="M204.361,163.98s3.229-5.639,3.808-9.736,2.7-6.506,4.675-5.591,7.181,4.146,10.6,4.1,10.362-2.458,11.52-1.012-1.35,5.351.337,8.483a57.431,57.431,0,0,0,4,6.217l.838-.437s1.378-8.768.7-11.66-4.82-13.833-16-14.941-18.075,6.748-19.425,10.411-1.941,12.523-1.941,12.523Z" transform="translate(-38.688 -26.484)" fill="#a15732"/>
            <path id="Path_997668" data-name="Path 997668" d="M203.108,167.742s1.428,6.612-.822,11.56.578,17.866,7.005,21.85c5.786,3.588,19.022,2.571,23.521-1.156s5.591-17.223,5.591-17.223-2.166-7.7,1.369-11.362a23.33,23.33,0,0,0-6.066,4.074c-2.647,2.586-15.774,8.057-21.229,4.449a15.005,15.005,0,0,1-5.6-5.625Z" transform="translate(-38.316 -31.893)" fill="#2e150c"/>
            <path id="Path_997669" data-name="Path 997669" d="M230.195,160a5.581,5.581,0,0,1,2.5-.591,7.2,7.2,0,0,1,2.533.432,6.942,6.942,0,0,1,2.259,1.28,6.092,6.092,0,0,1,1.555,2,.487.487,0,0,1-.7.626l-.05-.032a11.513,11.513,0,0,0-1.811-1.089,8.228,8.228,0,0,0-1.883-.649,19.245,19.245,0,0,0-1.986-.295c-.667-.077-1.391-.118-2.067-.238l-.129-.023a.76.76,0,0,1-.218-1.424" transform="translate(-43.69 -30.309)" fill="#2e150c"/>
            <path id="Path_997670" data-name="Path 997670" d="M221.24,160.6c-.686-.015-1.4-.114-2.074-.169a19.272,19.272,0,0,0-2-.1,8.223,8.223,0,0,0-1.974.27,11.43,11.43,0,0,0-1.989.715l-.054.022a.487.487,0,0,1-.566-.751,6.078,6.078,0,0,1,1.915-1.661,6.928,6.928,0,0,1,2.464-.815,7.2,7.2,0,0,1,2.569.069,5.567,5.567,0,0,1,2.335,1.067.761.761,0,0,1-.488,1.354Z" transform="translate(-40.399 -30.046)" fill="#2e150c"/>
            <path id="Path_997671" data-name="Path 997671" d="M231.991,184.1c-2.63,6.572-8.571,2.075-8.571,2.075Z" transform="translate(-42.479 -35.003)" fill="#fff"/>
            <path id="Path_997672" data-name="Path 997672" d="M226.1,169.05a13.478,13.478,0,0,1,.056,3.134,9.8,9.8,0,0,1-.8,3.1,10.189,10.189,0,0,0-1.161,2.632,1.733,1.733,0,0,0,.212,1.213,1.339,1.339,0,0,0,1.179.644,1.428,1.428,0,0,1-1.6-.258,2.2,2.2,0,0,1-.7-1.642,4.133,4.133,0,0,1,.355-1.683c.213-.506.469-.953.658-1.393a17.242,17.242,0,0,0,.969-2.778c.265-.969.493-1.973.833-2.971" transform="translate(-42.453 -32.142)" fill="#2e150c"/>
            <path id="Path_997673" data-name="Path 997673" d="M197.928,170.793a2.287,2.287,0,0,1,1-1.72,1.573,1.573,0,0,1,1.141-.2,1.958,1.958,0,0,1,1.007.59,4.945,4.945,0,0,1,1.019,1.819c.227.611.4,1.211.6,1.817a.573.573,0,0,1-1.028.488l-.015-.023a2.226,2.226,0,0,0-1.3-.969.866.866,0,0,0-.63.012,1.037,1.037,0,0,0-.448.515,1.944,1.944,0,0,0,.272,1.656,2.023,2.023,0,0,0,1.544,1.119,2.052,2.052,0,0,1-2.019-.765,2.507,2.507,0,0,1-.687-2.3,1.8,1.8,0,0,1,2.226-1.328,3.191,3.191,0,0,1,2.025,1.461l-1.043.465c-.172-.607-.365-1.225-.517-1.824a5.119,5.119,0,0,0-.657-1.571,1.054,1.054,0,0,0-1.255-.472,2.388,2.388,0,0,0-1.235,1.231" transform="translate(-37.633 -32.101)" fill="#2e150c"/>
            <path id="Path_997674" data-name="Path 997674" d="M252.408,176.192a2.383,2.383,0,0,0-.973-1.448,1.053,1.053,0,0,0-1.322.218,5.165,5.165,0,0,0-.951,1.413c-.266.558-.576,1.127-.862,1.689l-.932-.659a3.185,3.185,0,0,1,2.271-1.038,1.863,1.863,0,0,1,1.348.475,1.889,1.889,0,0,1,.576,1.261,2.512,2.512,0,0,1-1.122,2.118,2.051,2.051,0,0,1-2.129.357,2.025,2.025,0,0,0,1.732-.8,1.94,1.94,0,0,0,.59-1.572,1.035,1.035,0,0,0-.339-.591.867.867,0,0,0-.615-.136,2.23,2.23,0,0,0-1.462.7l-.019.019a.573.573,0,0,1-.913-.679c.314-.556.6-1.11.939-1.666a4.943,4.943,0,0,1,1.353-1.586,1.957,1.957,0,0,1,1.1-.381,1.575,1.575,0,0,1,1.08.423,2.289,2.289,0,0,1,.646,1.882" transform="translate(-47.003 -33.062)" fill="#2e150c"/>
            <path id="Path_997675" data-name="Path 997675" d="M234.833,173.606c-.151,1.539-.936,2.72-1.754,2.64s-1.357-1.393-1.205-2.932.936-2.72,1.753-2.64,1.357,1.393,1.206,2.932" transform="translate(-44.082 -32.45)" fill="#2e150c"/>
            <path id="Path_997676" data-name="Path 997676" d="M217.383,171.888c-.151,1.539.389,2.851,1.206,2.932s1.6-1.1,1.753-2.64-.388-2.852-1.205-2.932-1.6,1.1-1.754,2.64" transform="translate(-41.327 -32.179)" fill="#2e150c"/>
          </g>
        </g>
        <g id="Group_1190523" data-name="Group 1190523" transform="translate(12.163)">
          <g id="Group_1190522" data-name="Group 1190522" clip-path="url(#clip-path-17)">
            <path id="Path_997677" data-name="Path 997677" d="M418.846,361.93H320.091c1.3-17.428,12.367-37.205,17.841-46.033.178-.283.34-.551.51-.81,1.547-2.47,2.535-3.887,2.535-3.887H397.96s.988,1.417,2.535,3.887c.17.259.332.526.51.81,5.475,8.828,16.546,28.6,17.841,46.033" transform="translate(-73.023 -59.169)" fill="#17428d"/>
            <g id="Group_1190470" data-name="Group 1190470" transform="translate(264.909 255.918)" opacity="0.5" style="mix-blend-mode: screen;isolation: isolate">
              <g id="Group_1190469" data-name="Group 1190469" transform="translate(0)">
                <g id="Group_1190468" data-name="Group 1190468" clip-path="url(#clip-path-18)">
                  <path id="Path_997678" data-name="Path 997678" d="M398.31,316.81h6.884c-.178-.283-.34-.551-.51-.81H342.631c-.17.259-.332.526-.51.81h55.338a.422.422,0,0,0,.032.17c.121.251,11.249,24.9,12.95,45.863h.81c-1.628-20.263-11.994-43.9-12.942-46.033" transform="translate(-342.121 -316)" fill="#c8eefe"/>
                </g>
              </g>
            </g>
            <path id="Path_997679" data-name="Path 997679" d="M347.006,212.35a5.717,5.717,0,0,1,5.876,1.8c1.587,1.891,3.229,5.1,3.441,10.371.424,10.544-53.917,63.909-67.039,61.466-10.728-2-21.712-45.547-25.362-61.368a6.343,6.343,0,0,1,4.221-7.462l1.268-.412a6.345,6.345,0,0,1,7.685,3.3L292.46,252.15s27.527-32.387,54.545-39.8" transform="translate(-62.312 -40.336)" fill="#cc7548"/>
            <path id="Path_997680" data-name="Path 997680" d="M315.706,236.628s23.906-22.75,41.643-24.935L339.227,260.02l-7.84,6.813s-20.179-16.324-15.681-30.2" transform="translate(-72.065 -40.25)" fill="#ff9581"/>
            <path id="Path_997681" data-name="Path 997681" d="M401.167,282.125c1.142-16.492,4.487-48.33,1.035-57.39-3.794-9.961-21.057-13.544-27.761-14.575h-2.7c-6.7,1.031-27.868,55.473-26.726,71.965.424,6.126,26.726,9.994,26.726,9.994h2.7s26.3-3.868,26.726-9.994" transform="translate(-77.754 -39.958)" fill="#cc7548"/>
            <path id="Path_997682" data-name="Path 997682" d="M403.793,244c-.769,14.391-1.6,48.2-1.6,48.2H344.8l-2.413-39.854a28.5,28.5,0,0,1,2.519-13.557c3.863-8.5,10.868-22.49,16.861-26.912.113-.081.219-.162.332-.235l.453-.016,2.713-.113s2.154,24.523,5.5,25.422,9.9-25.705,9.9-25.705.85.219,2.187.615c.243.081.494.154.769.243,4.309,1.336,12.124,4.122,15.039,7.491,4.106,4.754,5.912,10.026,5.135,24.426" transform="translate(-77.253 -40.16)" fill="#ff9581"/>
            <g id="Group_1190473" data-name="Group 1190473" transform="translate(284.516 171.457)" opacity="0.5" style="mix-blend-mode: screen;isolation: isolate">
              <g id="Group_1190472" data-name="Group 1190472">
                <g id="Group_1190471" data-name="Group 1190471" clip-path="url(#clip-path-19)">
                  <path id="Path_997683" data-name="Path 997683" d="M388.181,212.172c-1.506,7.459-6.673,24.409-11.686,27.851a3.324,3.324,0,0,1-1.879.656,2.413,2.413,0,0,1-.713-.105c-5.118-1.506-7-20.546-7.572-28.613.113-.081.219-.162.332-.235l.454-.016c.672,9.646,2.737,26.823,7.022,28.094a2.2,2.2,0,0,0,1.9-.445c4.77-3.288,9.913-20.214,11.379-27.43.243.081.494.154.769.243" transform="translate(-366.331 -211.71)" fill="#ff9581"/>
                </g>
              </g>
            </g>
            <g id="Group_1190476" data-name="Group 1190476" transform="translate(299.9 208.44)" opacity="0.5" style="mix-blend-mode: screen;isolation: isolate">
              <g id="Group_1190475" data-name="Group 1190475" transform="translate(0)">
                <g id="Group_1190474" data-name="Group 1190474" clip-path="url(#clip-path-20)">
                  <rect id="Rectangle_454946" data-name="Rectangle 454946" width="10.63" height="1.923" fill="#ff9581"/>
                </g>
              </g>
            </g>
            <g id="Group_1190479" data-name="Group 1190479" transform="translate(311.271 205.099)" opacity="0.5" style="mix-blend-mode: multiply;isolation: isolate">
              <g id="Group_1190478" data-name="Group 1190478">
                <g id="Group_1190477" data-name="Group 1190477" clip-path="url(#clip-path-21)">
                  <path id="Path_997684" data-name="Path 997684" d="M404.766,267.76l-1.822-.338-3.577-14.173,2.195,15.072a3.032,3.032,0,0,0,2.939,2.594l.806.016Z" transform="translate(-399.367 -253.25)" fill="#ab9909"/>
                </g>
              </g>
            </g>
            <rect id="Rectangle_454949" data-name="Rectangle 454949" width="14.595" height="14.031" transform="matrix(0.984, -0.176, 0.176, 0.984, 286.304, 161.711)" fill="#cc7548"/>
            <path id="Path_997685" data-name="Path 997685" d="M383.34,198.954l.565,3.152a17.265,17.265,0,0,1-14.356,2.571l-.564-3.151a17.269,17.269,0,0,0,14.356-2.572" transform="translate(-82.319 -37.828)" fill="#ad5f37"/>
            <path id="Path_997686" data-name="Path 997686" d="M424.961,303.028a48.041,48.041,0,0,1-.672,5.588c-.008.049-.016.105-.024.162a6.55,6.55,0,0,1-9.54,4.616q-2.15-1.154-4.325-2.389c-.972-.551-1.927-1.142-2.859-1.765a47.561,47.561,0,0,1-7.005-5.62c-.535-.51-1.069-1.053-1.587-1.6-11.006-11.7-38.639-41.376-49.693-55.905-.089-.121-.17-.235-.259-.348l-12.707-14.8s-2.316-4.114.64-3.855,14.31,3.515,19.817,11.524l-.016.016c6,4.73,21.891,17.218,37.157,29.163-3.75-19.072-7.346-40.558-5.491-45.126,0,0-.308-5.54,4.325-4.892,4.252.6,25.154,29.374,31.407,72.345.219,1.49.421,3,.6,4.527a46.5,46.5,0,0,1,.235,8.358" transform="translate(-75.939 -41.4)" fill="#cc7548"/>
            <g id="Group_1190482" data-name="Group 1190482" transform="translate(317.615 224.333)" opacity="0.4" style="mix-blend-mode: multiply;isolation: isolate">
              <g id="Group_1190481" data-name="Group 1190481" transform="translate(0)">
                <g id="Group_1190480" data-name="Group 1190480" clip-path="url(#clip-path-22)">
                  <path id="Path_997687" data-name="Path 997687" d="M407.2,277l11.136,12.249L407.3,279.126Z" transform="translate(-407.201 -277)" fill="#cc7548"/>
                </g>
              </g>
            </g>
            <g id="Group_1190485" data-name="Group 1190485" transform="translate(331.586 257.675)" opacity="0.4" style="mix-blend-mode: multiply;isolation: isolate">
              <g id="Group_1190484" data-name="Group 1190484">
                <g id="Group_1190483" data-name="Group 1190483" clip-path="url(#clip-path-23)">
                  <path id="Path_997688" data-name="Path 997688" d="M441.887,322.122a48.041,48.041,0,0,1-.672,5.588c-.008.049-.016.105-.024.162a6.55,6.55,0,0,1-9.54,4.616q-2.15-1.154-4.325-2.389c-.972-.551-1.927-1.142-2.859-1.765-.008-.17-.016-.34-.016-.518a9.649,9.649,0,0,1,17.436-5.693" transform="translate(-424.451 -318.17)" fill="#cc7548"/>
                </g>
              </g>
            </g>
            <path id="Path_997689" data-name="Path 997689" d="M429.472,259.01l-3.466.891a49.008,49.008,0,0,1-21.251.7l-2.276-.429s-.275-.826-.713-2.26c-.089-.275-.178-.567-.275-.883-2.762-9.192-9.807-35.812-.81-41.846,0,0,9,.907,16.2,14.788a265.383,265.383,0,0,1,11.7,26.628c.105.275.2.535.283.761.4,1.061.607,1.652.607,1.652" transform="translate(-87.504 -40.913)" fill="#ff9581"/>
            <g id="Group_1190488" data-name="Group 1190488" transform="translate(313.987 215.684)" opacity="0.5" style="mix-blend-mode: screen;isolation: isolate">
              <g id="Group_1190487" data-name="Group 1190487">
                <g id="Group_1190486" data-name="Group 1190486" clip-path="url(#clip-path-24)">
                  <path id="Path_997690" data-name="Path 997690" d="M430.095,267.081c-3.474,1.474-7.961,1.96-12.391,1.96A87.481,87.481,0,0,1,403,267.632c-.089-.275-.178-.567-.275-.883,5.3.956,19.161,2.94,27.09-.429.105.275.2.535.283.761" transform="translate(-402.721 -266.32)" fill="#ff9581"/>
                </g>
              </g>
            </g>
            <path id="Path_997691" data-name="Path 997691" d="M389.46,162.581c-2.2-2.021-4.125-.671-5.064.289l-1.044-5.825a17.269,17.269,0,1,0-34,6.091l1.044,5.825c-1.215-.575-3.488-1.173-4.849,1.487-1.831,3.576,3.269,9.8,6.925,9.118a17.267,17.267,0,0,0,33.656-6.029c3.667-.627,6.287-8.238,3.329-10.956" transform="translate(-77.79 -27.155)" fill="#cc7548"/>
            <path id="Path_997692" data-name="Path 997692" d="M379.475,187.667c.525-.316,1.063-.547,1.552-.861a4.826,4.826,0,0,0,.718-.475,3.212,3.212,0,0,0,.615-.62,1.641,1.641,0,0,1-.423.824,3.4,3.4,0,0,1-.724.584,4.052,4.052,0,0,1-1.737.548" transform="translate(-84.314 -35.31)" fill="#2e150c"/>
            <path id="Path_997693" data-name="Path 997693" d="M372.8,170.285a12.619,12.619,0,0,1,.851,2.82,9.071,9.071,0,0,1,.066,3.009,9.747,9.747,0,0,0-.377,2.676,1.622,1.622,0,0,0,.5,1.042,1.254,1.254,0,0,0,1.23.281,1.34,1.34,0,0,1-1.511.176,2.072,2.072,0,0,1-1.051-1.305,6.586,6.586,0,0,1,.13-3.04,16.71,16.71,0,0,0,.167-2.759c-.008-.944-.058-1.91-.007-2.9" transform="translate(-82.962 -32.377)" fill="#2e150c"/>
            <path id="Path_997694" data-name="Path 997694" d="M347.383,179.1a2.15,2.15,0,0,1,.466-1.811,1.478,1.478,0,0,1,.98-.476,1.847,1.847,0,0,1,1.062.275,4.632,4.632,0,0,1,1.385,1.385c.362.495.668.994,1,1.49a.539.539,0,0,1-.805.7l-.019-.017a2.092,2.092,0,0,0-1.421-.545.814.814,0,0,0-.566.173.97.97,0,0,0-.274.58,1.821,1.821,0,0,0,.669,1.428,1.9,1.9,0,0,0,1.682.618,1.928,1.928,0,0,1-2.021-.177,2.359,2.359,0,0,1-1.208-1.9,1.775,1.775,0,0,1,.445-1.224,1.751,1.751,0,0,1,1.228-.546,2.992,2.992,0,0,1,2.2.8l-.824.686c-.31-.505-.643-1.014-.933-1.517a4.82,4.82,0,0,0-1-1.253.988.988,0,0,0-1.254-.106,2.237,2.237,0,0,0-.8,1.429" transform="translate(-78.206 -33.618)" fill="#2e150c"/>
            <path id="Path_997695" data-name="Path 997695" d="M398.144,169.969a2.244,2.244,0,0,0-1.249-1.061.989.989,0,0,0-1.14.535,4.835,4.835,0,0,0-.5,1.521c-.1.573-.233,1.165-.348,1.746l-1.011-.357a2.99,2.99,0,0,1,1.787-1.519,1.749,1.749,0,0,1,1.34.086,1.771,1.771,0,0,1,.843.993,2.358,2.358,0,0,1-.474,2.2,1.925,1.925,0,0,1-1.834.867,1.9,1.9,0,0,0,1.363-1.163,1.821,1.821,0,0,0,.131-1.571.966.966,0,0,0-.458-.449.812.812,0,0,0-.591.035,2.092,2.092,0,0,0-1.143,1l-.012.023a.538.538,0,0,1-1-.38c.143-.583.256-1.156.424-1.747a4.645,4.645,0,0,1,.819-1.779,1.839,1.839,0,0,1,.9-.627,1.475,1.475,0,0,1,1.084.107,2.148,2.148,0,0,1,1.066,1.536" transform="translate(-87.045 -31.993)" fill="#2e150c"/>
            <path id="Path_997696" data-name="Path 997696" d="M365.7,166.5a15.293,15.293,0,0,0-1.893.036,10.458,10.458,0,0,0-1.9.331,6.933,6.933,0,0,0-1.765.785,7.983,7.983,0,0,0-1.541,1.279l-.03.03a.391.391,0,0,1-.619-.464,6.625,6.625,0,0,1,1.382-1.868,6.818,6.818,0,0,1,1.971-1.328,8.014,8.014,0,0,1,2.277-.687,7.581,7.581,0,0,1,2.409.028.939.939,0,0,1-.2,1.862Z" transform="translate(-80.213 -31.284)" fill="#2e150c"/>
            <path id="Path_997697" data-name="Path 997697" d="M374.972,163.14a7.6,7.6,0,0,1,2.25-.862,8.022,8.022,0,0,1,2.375-.147,6.844,6.844,0,0,1,2.31.561,6.671,6.671,0,0,1,1.944,1.272.391.391,0,0,1-.419.65l-.039-.017a7.932,7.932,0,0,0-1.889-.664,6.924,6.924,0,0,0-1.927-.124,10.471,10.471,0,0,0-1.9.349,15.064,15.064,0,0,0-1.787.624l-.083.035a.939.939,0,0,1-.837-1.676" transform="translate(-83.37 -30.821)" fill="#2e150c"/>
            <path id="Path_997698" data-name="Path 997698" d="M381.508,172.232c.256,1.43-.152,2.7-.911,2.835s-1.583-.913-1.839-2.343.151-2.7.911-2.835,1.583.912,1.839,2.342" transform="translate(-84.163 -32.299)" fill="#2e150c"/>
            <path id="Path_997699" data-name="Path 997699" d="M380.578,170.293a4.1,4.1,0,0,0,1.718-.9s-.289,1.48-1.327,1.71Z" transform="translate(-84.524 -32.207)" fill="#2e150c"/>
            <path id="Path_997700" data-name="Path 997700" d="M365.291,175.138c.256,1.43,1.08,2.479,1.839,2.343s1.167-1.406.911-2.835-1.08-2.479-1.839-2.343-1.167,1.406-.911,2.835" transform="translate(-81.603 -32.758)" fill="#2e150c"/>
            <path id="Path_997701" data-name="Path 997701" d="M365.559,173.056a4.092,4.092,0,0,1-1.923-.249s.785,1.288,1.838,1.144Z" transform="translate(-81.303 -32.856)" fill="#2e150c"/>
            <path id="Path_997702" data-name="Path 997702" d="M366.113,184.29A4.407,4.407,0,1,1,361,180.729a4.408,4.408,0,0,1,5.116,3.561" transform="translate(-80.11 -34.349)" fill="#de7b5e"/>
            <path id="Path_997703" data-name="Path 997703" d="M392.829,179.5a4.407,4.407,0,1,1-5.116-3.561,4.408,4.408,0,0,1,5.116,3.561" transform="translate(-85.19 -33.439)" fill="#de7b5e"/>
            <path id="Path_997704" data-name="Path 997704" d="M376.177,186.061s-.121-1.759.964-1.928a3.66,3.66,0,0,1,1.518-.023s.434-1.518,1.205-1.663a3.168,3.168,0,0,1,1.735.386,6.748,6.748,0,0,1-5.422,3.229" transform="translate(-83.686 -34.684)" fill="#ff774f"/>
            <path id="Path_997705" data-name="Path 997705" d="M376.178,186.2s2.892,1.229,4.266-.313,1.037-2.723,1.037-2.723a6.152,6.152,0,0,1-5.3,3.036" transform="translate(-83.687 -34.826)" fill="#ff774f"/>
            <path id="Path_997706" data-name="Path 997706" d="M374.377,186.107a17.524,17.524,0,0,0,4.109-1.265,8.037,8.037,0,0,0,1.736-1.148,8.472,8.472,0,0,0,1.374-1.652,4.438,4.438,0,0,1-.965,2.046,5.8,5.8,0,0,1-1.825,1.408,7.575,7.575,0,0,1-2.184.65,6.631,6.631,0,0,1-2.245-.038" transform="translate(-83.345 -34.612)" fill="#2e150c"/>
            <path id="Path_997707" data-name="Path 997707" d="M395.575,177.127c5.615-10.485-14.765-28.211-17.219-30.291a21.619,21.619,0,0,0-5.1-3.9c-11.837-6.643-27.077,4.422-28.23,13.673-1.336,2.532-11.325,22.257-2.553,30.188,0,0-5.774,8.171-.258,14.652,7.712,9.062,20.565,3.857,22.365-3.213l-1.157-7.84s-9.446-2.185-12.21-11.247c0,0-6.813-.9-7.2-7.519,0,0,.2-4.25,4.717-3.244a1.822,1.822,0,0,0,.489.224c6.49.772,4.884-7.326,4.884-7.326,7.005-1.735,8.451-9.19,8.451-9.19s5.495,5.4,10.989,2.409c0,0,2.7,5.891,6.2,7.74.828.926,1.956,1.246,3.439.262,4.027-2.672,5.819.865,5.819.865,1.869,6.362-4.24,9.506-4.24,9.506.455,9.462-7.121,15.077-7.121,15.077l1.79,10.127c4.078,6.047,22.731,2.067,24.108-6.332,1.238-7.554-7.969-14.621-7.969-14.621" transform="translate(-76.601 -26.792)" fill="#2e150c"/>
            <path id="Path_997708" data-name="Path 997708" d="M407.5,218.581c-.04,4.04-.458,10.928-1.406,11.414-1.536.788-2.572-3.124-2.572-3.124s-1.581,6.377-2.634,6.713-.459-7.17-.459-7.17-2.394,6.386-3.3,6.9.121-8.13.121-8.13-3.349,6.416-4.407,6.345,2.98-14.7,2.98-14.7-6.47-.666-4.88-2.247c.782-.777,2.693-1.012,4.92-1.468,2.272-.465,11.669,2.7,11.642,5.467" transform="translate(-86.446 -40.511)" fill="#ffbda8"/>
            <path id="Path_997709" data-name="Path 997709" d="M88.576,311.2S68.189,342.82,67.8,362.228h99.482S163.3,327.269,146.4,311.2Z" transform="translate(-25.055 -59.17)" fill="#024442"/>
            <g id="Group_1190491" data-name="Group 1190491" transform="translate(77.219 251.733)" opacity="0.5" style="mix-blend-mode: screen;isolation: isolate">
              <g id="Group_1190490" data-name="Group 1190490">
                <g id="Group_1190489" data-name="Group 1190489" clip-path="url(#clip-path-25)">
                  <path id="Path_997710" data-name="Path 997710" d="M142.964,321.361H132.908V311.238a.4.4,0,0,0-.81,0v10.123h-6.141V311.44a.4.4,0,0,0-.81,0v9.921H110.772a.4.4,0,0,0,0,.81h21.434a.4.4,0,0,0,.6,0h10.163a.4.4,0,1,0,0-.81" transform="translate(-110.367 -310.833)" fill="#024442"/>
                </g>
              </g>
            </g>
            <g id="Group_1190494" data-name="Group 1190494" transform="translate(85.69 269.686)" opacity="0.5" style="mix-blend-mode: multiply;isolation: isolate">
              <g id="Group_1190493" data-name="Group 1190493">
                <g id="Group_1190492" data-name="Group 1190492" clip-path="url(#clip-path-26)">
                  <path id="Path_997711" data-name="Path 997711" d="M120.826,333s7.795,6.783,14.071,6.276v25.612l-6.276-22.879s-6.58-4.252-7.795-9.01" transform="translate(-120.826 -333)" fill="#024442"/>
                </g>
              </g>
            </g>
            <path id="Path_997712" data-name="Path 997712" d="M146.151,165.5c-1.809-2.378-3.942-1.389-5.036-.608v-5.917a17.27,17.27,0,1,0-34.539,0v5.917c-1.093-.781-3.227-1.77-5.036.608-2.432,3.2,1.489,10.227,5.209,10.2a17.267,17.267,0,0,0,34.193,0c3.721.03,7.641-7,5.209-10.2" transform="translate(-31.326 -26.943)" fill="#ffa080"/>
            <path id="Path_997713" data-name="Path 997713" d="M128.22,185.481a17.5,17.5,0,0,0,4.268-.521,8.026,8.026,0,0,0,1.91-.824,8.474,8.474,0,0,0,1.645-1.384,4.432,4.432,0,0,1-1.311,1.844,5.785,5.785,0,0,1-2.045,1.064,7.567,7.567,0,0,1-2.264.254,6.627,6.627,0,0,1-2.2-.433" transform="translate(-36.542 -34.747)" fill="#2e150c"/>
            <path id="Path_997714" data-name="Path 997714" d="M133.05,187.736c.573-.219,1.143-.351,1.68-.573a4.953,4.953,0,0,0,.79-.341,3.2,3.2,0,0,0,.714-.5,1.643,1.643,0,0,1-.561.736,3.4,3.4,0,0,1-.816.447,4.056,4.056,0,0,1-1.806.233" transform="translate(-37.461 -35.426)" fill="#2e150c"/>
            <path id="Path_997715" data-name="Path 997715" d="M129.291,169.347a12.651,12.651,0,0,1,.341,2.925,9.084,9.084,0,0,1-.466,2.975,9.784,9.784,0,0,0-.844,2.567,1.627,1.627,0,0,0,.311,1.115,1.255,1.255,0,0,0,1.161.493,1.341,1.341,0,0,1-1.519-.094,2.067,2.067,0,0,1-.8-1.47,6.575,6.575,0,0,1,.663-2.97,16.69,16.69,0,0,0,.651-2.687c.158-.931.279-1.89.5-2.855" transform="translate(-36.396 -32.198)" fill="#2e150c"/>
            <path id="Path_997716" data-name="Path 997716" d="M102.964,173.588a2.146,2.146,0,0,1,.777-1.7,1.476,1.476,0,0,1,1.049-.3,1.842,1.842,0,0,1,1,.458,4.642,4.642,0,0,1,1.119,1.607c.269.552.483,1.1.726,1.645a.539.539,0,0,1-.916.551l-.016-.02a2.092,2.092,0,0,0-1.3-.787.808.808,0,0,0-.588.07.971.971,0,0,0-.371.522,1.819,1.819,0,0,0,.407,1.524,1.9,1.9,0,0,0,1.546.9,1.927,1.927,0,0,1-1.957-.53,2.361,2.361,0,0,1-.854-2.084,1.772,1.772,0,0,1,.654-1.126,1.75,1.75,0,0,1,1.3-.321,2.986,2.986,0,0,1,2.027,1.18l-.931.53c-.216-.552-.454-1.111-.651-1.658a4.839,4.839,0,0,0-.76-1.409.988.988,0,0,0-1.216-.325,2.237,2.237,0,0,0-1.042,1.264" transform="translate(-31.74 -32.624)" fill="#2e150c"/>
            <path id="Path_997717" data-name="Path 997717" d="M154.448,173.588a2.237,2.237,0,0,0-1.042-1.264.988.988,0,0,0-1.216.325,4.839,4.839,0,0,0-.76,1.409c-.2.547-.435,1.106-.651,1.658l-.931-.53a2.986,2.986,0,0,1,2.027-1.18,1.75,1.75,0,0,1,1.3.321,1.772,1.772,0,0,1,.654,1.126,2.361,2.361,0,0,1-.854,2.084,1.927,1.927,0,0,1-1.957.53,1.9,1.9,0,0,0,1.546-.9,1.819,1.819,0,0,0,.407-1.524.971.971,0,0,0-.371-.522.808.808,0,0,0-.588-.07,2.092,2.092,0,0,0-1.3.787l-.015.019a.539.539,0,0,1-.917-.55c.243-.548.456-1.093.726-1.645a4.642,4.642,0,0,1,1.119-1.607,1.842,1.842,0,0,1,1-.458,1.473,1.473,0,0,1,1.048.3,2.147,2.147,0,0,1,.778,1.7" transform="translate(-40.633 -32.624)" fill="#2e150c"/>
            <path id="Path_997718" data-name="Path 997718" d="M123.129,164.61a15.033,15.033,0,0,0-1.869-.3,10.443,10.443,0,0,0-1.929-.009,6.921,6.921,0,0,0-1.876.462,7.918,7.918,0,0,0-1.743.987l-.035.023a.391.391,0,0,1-.527-.566,6.641,6.641,0,0,1,1.69-1.595,6.811,6.811,0,0,1,2.174-.96,8.02,8.02,0,0,1,2.363-.274,7.574,7.574,0,0,1,2.366.451.939.939,0,0,1-.528,1.8Z" transform="translate(-34.041 -30.873)" fill="#2e150c"/>
            <path id="Path_997719" data-name="Path 997719" d="M132.943,162.832a7.6,7.6,0,0,1,2.367-.452,8.045,8.045,0,0,1,2.362.275,6.811,6.811,0,0,1,2.174.96,6.655,6.655,0,0,1,1.69,1.595.391.391,0,0,1-.527.566l-.035-.024a7.985,7.985,0,0,0-1.743-.987,6.952,6.952,0,0,0-1.876-.462,10.373,10.373,0,0,0-1.929.01,15.06,15.06,0,0,0-1.869.3l-.087.019a.939.939,0,0,1-.528-1.8" transform="translate(-37.324 -30.873)" fill="#2e150c"/>
            <path id="Path_997720" data-name="Path 997720" d="M137.754,172.826c0,1.453-.625,2.63-1.4,2.63s-1.4-1.178-1.4-2.63.625-2.63,1.4-2.63,1.4,1.178,1.4,2.63" transform="translate(-37.824 -32.36)" fill="#2e150c"/>
            <path id="Path_997721" data-name="Path 997721" d="M137.243,170.781a4.094,4.094,0,0,0,1.85-.585s-.546,1.407-1.608,1.45Z" transform="translate(-38.258 -32.36)" fill="#2e150c"/>
            <path id="Path_997722" data-name="Path 997722" d="M121.278,172.826c0,1.453.625,2.63,1.4,2.63s1.4-1.178,1.4-2.63-.625-2.63-1.4-2.63-1.4,1.178-1.4,2.63" transform="translate(-35.222 -32.36)" fill="#2e150c"/>
            <path id="Path_997723" data-name="Path 997723" d="M122.011,170.781a4.1,4.1,0,0,1-1.851-.585s.547,1.407,1.608,1.45Z" transform="translate(-35.01 -32.36)" fill="#2e150c"/>
            <path id="Path_997724" data-name="Path 997724" d="M120.375,182.1a4.408,4.408,0,1,1-4.407-4.407,4.408,4.408,0,0,1,4.407,4.407" transform="translate(-33.375 -33.786)" fill="#f78e6b"/>
            <path id="Path_997725" data-name="Path 997725" d="M147.516,182.1a4.408,4.408,0,1,1-4.407-4.407,4.407,4.407,0,0,1,4.407,4.407" transform="translate(-38.535 -33.786)" fill="#f78e6b"/>
            <path id="Path_997726" data-name="Path 997726" d="M142.289,164.818s-1.542,2.314-2.249,2.185-3.021-12.853-3.021-12.853a9.633,9.633,0,0,1,0,5.463c-6.941,2.057-25,0-25,0-1.029-1.927,0-5.976,0-5.976s-1.7,7.937-1.574,10.949c.133,3.116-2.048,1.566-2.675.266s-2.595-13.143,4.217-19.569,24.775-3.47,27.923,1.285,2.378,18.251,2.378,18.251" transform="translate(-32.512 -26.92)" fill="#2e150c"/>
            <path id="Path_997727" data-name="Path 997727" d="M137.441,133.434c-.581,4.245-5.657,9.736-10.99,9.736s-10.408-5.492-10.989-9.736c-.65-4.747,4.236-9.027,10.989-9.027s11.64,4.28,10.99,9.027" transform="translate(-34.106 -23.654)" fill="#2e150c"/>
            <rect id="Rectangle_454955" data-name="Rectangle 454955" width="14.595" height="14.032" transform="translate(85.222 159.955)" fill="#ffa080"/>
            <path id="Path_997728" data-name="Path 997728" d="M134.838,200v3.2a17.263,17.263,0,0,1-14.584,0V200a17.263,17.263,0,0,0,14.584,0" transform="translate(-35.028 -38.027)" fill="#f78e6b"/>
            <path id="Path_997729" data-name="Path 997729" d="M114.376,210.093s-2.331-3.951-.234-5.848c1.088-.984,3.452-.687,7.929-.867,4.688-.19,7.054-.211,8.1.771,2.03,1.91-1.017,5.952-1.017,5.952s15.3,2.948,21.341,9.889-1.289,65.68.19,70.692H92.861s.307-22.365-.978-28.405-1.543-44.343-1.543-44.343,17.351-7.326,24.036-7.84" transform="translate(-29.34 -38.649)" fill="#fff"/>
            <path id="Path_997730" data-name="Path 997730" d="M136.693,308.143h-19.5a.4.4,0,1,1,0-.81h19.5a.4.4,0,1,1,0,.81" transform="translate(-34.368 -58.434)" fill="#def5ff"/>
            <path id="Path_997731" data-name="Path 997731" d="M127.534,213.77a17.7,17.7,0,0,1-6.592-1.244.4.4,0,0,1,.326-.741,17,17,0,0,0,12.234,0,.4.4,0,0,1,.313.747,16.12,16.12,0,0,1-6.281,1.241" transform="translate(-35.113 -40.261)" fill="#def5ff"/>
            <path id="Path_997732" data-name="Path 997732" d="M110.654,211.251h0c-3.607.738-6.689,4.007-6.071,7.637,7.54,44.152,2.5,105.716-.686,111.759-3.726,7.069-34.188.9-34.188.9s14.009-58.48,14.138-67.477,1.285-45.5,1.285-45.5a58.041,58.041,0,0,1,24.5-9.246Z" transform="translate(-25.418 -39.799)" fill="#26c7ff"/>
            <g id="Group_1190497" data-name="Group 1190497" transform="translate(47.862 178.307)" opacity="0.5" style="mix-blend-mode: screen;isolation: isolate">
              <g id="Group_1190496" data-name="Group 1190496">
                <g id="Group_1190495" data-name="Group 1190495" clip-path="url(#clip-path-27)">
                  <path id="Path_997733" data-name="Path 997733" d="M92.089,331.119H74.523a.4.4,0,1,1,0-.81H92.089a10.849,10.849,0,0,0,10.137-7.06,17.108,17.108,0,0,0,.534-10.207c-2.129-8.338-7.588-23.391-10.212-30.625-.494-1.361-.884-2.438-1.129-3.129-1.9-5.373,6.263-16.588,9.86-21.16a2.533,2.533,0,0,0-.085-3.234c-2.905-3.316-7.966-9.288-9.222-12.016-2.027-4.4,9.266-21.789,9.748-22.526a.4.4,0,1,1,.678.442c-3.213,4.923-11.218,18.424-9.689,21.746,1.259,2.733,6.779,9.177,9.095,11.822a3.342,3.342,0,0,1,.113,4.268c-2.742,3.485-11.55,15.255-9.734,20.388.245.69.635,1.766,1.127,3.124,2.628,7.247,8.1,22.325,10.236,30.7a17.92,17.92,0,0,1-.559,10.688,11.663,11.663,0,0,1-10.9,7.59" transform="translate(-74.117 -220.168)" fill="#2b6de5"/>
                </g>
              </g>
            </g>
            <path id="Path_997734" data-name="Path 997734" d="M67.329,346.372v0c-2.607-11.123-11.6-49.611-16.662-71.864,5.987-5.463,18.182-16.716,29.077-27.532-1.1-3.36-2.089-6.765-3.277-10.123-1.321-3.738-2.932-7.315-4.117-11.021a164.112,164.112,0,0,0-23.038,15.8A170.989,170.989,0,0,0,30.33,259.688c-.881.978-1.71,1.991-2.512,3.03a13.094,13.094,0,0,0-2.464,10.651,48.313,48.313,0,0,0,2.4,7.952c1.565,3.928,3.777,9.426,6.332,15.688,7.15,17.5,17.035,41.005,23.3,52.925l0,.006c0,.083-.4,15.31.574,15.742s1.651-3.929,1.651-3.929.718,7.29,1.382,7.423,1.184-7.021,1.184-7.021,2.262,7.9,2.932,7.858.29-7.741.29-7.741,2.721,6.076,3.195,6.041.062-11.809.062-11.809,4.685,2.086,5.095,1.757-6.421-11.891-6.421-11.891Z" transform="translate(-16.932 -42.937)" fill="#ffa080"/>
            <path id="Path_997735" data-name="Path 997735" d="M56.645,297.126l.7,3.086c-5.3,5.3-20.344,6.26-20.344,6.26s-.761-1.4-1.911-3.717c-.13-.259-.259-.526-.4-.81C30.162,292.7,20.889,271.81,24.955,263c5.3-11.468,34.411-31.617,34.411-31.617L77.029,220.27,82.6,247.895,51.276,273.7l5.159,22.539Z" transform="translate(-16.717 -41.881)" fill="#26c7ff"/>
            <g id="Group_1190500" data-name="Group 1190500" transform="translate(58.407 205.251)" opacity="0.5" style="mix-blend-mode: multiply;isolation: isolate">
              <g id="Group_1190499" data-name="Group 1190499">
                <g id="Group_1190498" data-name="Group 1190498" clip-path="url(#clip-path-28)">
                  <path id="Path_997736" data-name="Path 997736" d="M87.442,260.119l9.162-6.681-9.466,17.108Z" transform="translate(-87.138 -253.438)" fill="#2b6de5"/>
                </g>
              </g>
            </g>
            <g id="Group_1190503" data-name="Group 1190503" transform="translate(17.981 254.355)" opacity="0.5" style="mix-blend-mode: screen;isolation: isolate">
              <g id="Group_1190502" data-name="Group 1190502">
                <g id="Group_1190501" data-name="Group 1190501" clip-path="url(#clip-path-29)">
                  <path id="Path_997737" data-name="Path 997737" d="M59.168,314.961c-5.467,4.762-16.594,5.531-21.551,5.629-.13-.259-.259-.526-.4-.81,4.746-.089,16.546-.81,21.737-5.71Z" transform="translate(-37.221 -314.07)" fill="#2b6de5"/>
                </g>
              </g>
            </g>
            <g id="Group_1190506" data-name="Group 1190506" transform="translate(28.024 229.315)" opacity="0.5" style="mix-blend-mode: multiply;isolation: isolate">
              <g id="Group_1190505" data-name="Group 1190505">
                <g id="Group_1190504" data-name="Group 1190504" clip-path="url(#clip-path-30)">
                  <path id="Path_997738" data-name="Path 997738" d="M56.114,285.56s-5.618-3.391-6.428-2.126,6.428,2.126,6.428,2.126" transform="translate(-49.623 -283.151)" fill="#2b6de5"/>
                </g>
              </g>
            </g>
            <g id="Group_1190509" data-name="Group 1190509" transform="translate(31.834 225.492)" opacity="0.5" style="mix-blend-mode: multiply;isolation: isolate">
              <g id="Group_1190508" data-name="Group 1190508">
                <g id="Group_1190507" data-name="Group 1190507" clip-path="url(#clip-path-31)">
                  <path id="Path_997739" data-name="Path 997739" d="M57.11,284.864s-4.049-5.618-2.379-6.378,2.379,6.378,2.379,6.378" transform="translate(-54.327 -278.431)" fill="#2b6de5"/>
                </g>
              </g>
            </g>
            <path id="Path_997740" data-name="Path 997740" d="M138.264,211.294h0c3.607.738,7.067,4.092,6.07,7.637-7.865,27.957-2.5,105.716.686,111.759,3.727,7.069,34.189.9,34.189.9s-14.01-58.48-14.138-67.477-1.285-39.2-1.285-39.2-10.354-13.628-24.493-15.363Z" transform="translate(-38.452 -39.842)" fill="#26c7ff"/>
            <g id="Group_1190512" data-name="Group 1190512" transform="translate(106.729 178.307)" opacity="0.5" style="mix-blend-mode: screen;isolation: isolate">
              <g id="Group_1190511" data-name="Group 1190511">
                <g id="Group_1190510" data-name="Group 1190510" clip-path="url(#clip-path-32)">
                  <path id="Path_997741" data-name="Path 997741" d="M176.389,331.119H158.822a11.663,11.663,0,0,1-10.9-7.59,17.914,17.914,0,0,1-.558-10.688c2.139-8.376,7.608-23.454,10.236-30.7.492-1.358.882-2.434,1.127-3.124,1.816-5.133-6.991-16.9-9.734-20.388a3.344,3.344,0,0,1,.113-4.268c2.315-2.644,7.837-9.088,9.1-11.822,1.528-3.321-6.477-16.823-9.69-21.746a.4.4,0,1,1,.678-.442c.483.738,11.775,18.122,9.748,22.526-1.256,2.728-6.317,8.7-9.222,12.016a2.533,2.533,0,0,0-.085,3.234c3.6,4.573,11.762,15.788,9.861,21.16-.245.692-.635,1.769-1.129,3.129-2.624,7.235-8.083,22.288-10.213,30.625a17.1,17.1,0,0,0,.535,10.207,10.849,10.849,0,0,0,10.136,7.06h17.567a.4.4,0,1,1,0,.81" transform="translate(-146.805 -220.168)" fill="#2b6de5"/>
                </g>
              </g>
            </g>
            <path id="Path_997742" data-name="Path 997742" d="M198.132,296.23c-5.987-26.3-15.239-35.8-24.329-48.23-1.851,2.306.952,56.012.952,56.012,1.766,20.413,5.417,67.991,6.387,80.689l-.032,0s-3.026,13.083-2.536,13.273,4.328-3.212,4.328-3.212,3.158,11.35,3.62,11.242,1.225-6.723,1.225-6.723,1.96,7.457,2.61,7.293.426-8.377.426-8.377,2.653,6.664,3.246,6.337-.92-7.495-.92-7.495,1.96,3.956,2.758,3.248c.77-.683-3.858-14.191-4.181-15.131,3.233-17.96,6.4-58.386,7.572-74.415a49.139,49.139,0,0,0-1.126-14.51" transform="translate(-45.089 -47.153)" fill="#ffa080"/>
            <path id="Path_997743" data-name="Path 997743" d="M169.05,228.516s8.463,10.989,10.3,14.17,16.371,35.7,19.07,53.179c0,0,.385,20.565-.642,29.819,0,0-15.166,5.141-23.779-1.285l-1.927-25.064-6.115-43.7Z" transform="translate(-43.716 -43.448)" fill="#26c7ff"/>
            <path id="Path_997744" data-name="Path 997744" d="M103,209.967a7.611,7.611,0,0,0-3.845,6.694c.045,4.04.286,9.4,1.234,9.888,1.538.786,2.568-3.128,2.568-3.128s1.59,6.374,2.644,6.709.449-7.17.449-7.17,2.4,6.383,3.313,6.9-.132-8.13-.132-8.13,3.359,6.411,4.415,6.339-3-14.7-3-14.7,6.468-.675,4.877-2.254a16.41,16.41,0,0,0-4.575-2.38,7.66,7.66,0,0,0-6.594.461Z" transform="translate(-31.016 -39.585)" fill="#b36138"/>
            <path id="Path_997745" data-name="Path 997745" d="M315.33,169.785c-1.809-2.378-3.942-1.389-5.036-.608V163.26a17.27,17.27,0,1,0-34.539,0v5.917c-1.093-.781-3.227-1.77-5.036.608-2.436,3.2,1.5,10.248,5.226,10.2a17.248,17.248,0,0,0,34.159,0c3.725.051,7.661-7,5.225-10.2" transform="translate(-63.493 -27.757)" fill="#ffb87a"/>
            <path id="Path_997746" data-name="Path 997746" d="M297.082,191.234a17.507,17.507,0,0,0,4.268-.521,8.054,8.054,0,0,0,1.91-.824,8.5,8.5,0,0,0,1.644-1.384,4.432,4.432,0,0,1-1.311,1.844,5.788,5.788,0,0,1-2.044,1.064,7.57,7.57,0,0,1-2.265.254,6.622,6.622,0,0,1-2.2-.433" transform="translate(-68.648 -35.841)" fill="#2e150c"/>
            <path id="Path_997747" data-name="Path 997747" d="M301.912,193.489c.573-.219,1.143-.351,1.679-.573a4.929,4.929,0,0,0,.79-.341,3.193,3.193,0,0,0,.714-.5,1.642,1.642,0,0,1-.561.736,3.4,3.4,0,0,1-.816.447,4.057,4.057,0,0,1-1.806.233" transform="translate(-69.567 -36.519)" fill="#2e150c"/>
            <path id="Path_997748" data-name="Path 997748" d="M298.47,173.632a12.65,12.65,0,0,1,.341,2.926,9.082,9.082,0,0,1-.466,2.974,9.814,9.814,0,0,0-.844,2.567,1.624,1.624,0,0,0,.311,1.114,1.254,1.254,0,0,0,1.161.494,1.342,1.342,0,0,1-1.518-.093,2.073,2.073,0,0,1-.8-1.471,6.575,6.575,0,0,1,.663-2.97,16.689,16.689,0,0,0,.651-2.687c.158-.931.279-1.89.5-2.855" transform="translate(-68.562 -33.013)" fill="#2e150c"/>
            <path id="Path_997749" data-name="Path 997749" d="M272.143,177.873a2.151,2.151,0,0,1,.778-1.7,1.477,1.477,0,0,1,1.048-.3,1.842,1.842,0,0,1,1,.458,4.642,4.642,0,0,1,1.119,1.607c.269.552.483,1.1.726,1.645a.539.539,0,0,1-.916.551l-.016-.02a2.092,2.092,0,0,0-1.3-.787.807.807,0,0,0-.588.07.967.967,0,0,0-.371.522,1.819,1.819,0,0,0,.407,1.524,1.9,1.9,0,0,0,1.546.9,1.927,1.927,0,0,1-1.957-.53,2.361,2.361,0,0,1-.854-2.084,1.772,1.772,0,0,1,.654-1.126,1.75,1.75,0,0,1,1.3-.321,2.989,2.989,0,0,1,2.027,1.18l-.931.53c-.216-.552-.454-1.111-.651-1.658a4.839,4.839,0,0,0-.76-1.409.988.988,0,0,0-1.216-.325,2.237,2.237,0,0,0-1.042,1.264" transform="translate(-63.907 -33.438)" fill="#2e150c"/>
            <path id="Path_997750" data-name="Path 997750" d="M323.627,177.873a2.237,2.237,0,0,0-1.042-1.264.988.988,0,0,0-1.216.325,4.838,4.838,0,0,0-.76,1.409c-.2.547-.435,1.106-.651,1.658l-.931-.53a2.989,2.989,0,0,1,2.027-1.18,1.75,1.75,0,0,1,1.3.321,1.772,1.772,0,0,1,.654,1.126,2.361,2.361,0,0,1-.854,2.084,1.927,1.927,0,0,1-1.957.53,1.9,1.9,0,0,0,1.546-.9,1.819,1.819,0,0,0,.407-1.524.971.971,0,0,0-.371-.522.808.808,0,0,0-.588-.07,2.092,2.092,0,0,0-1.3.787l-.015.019a.539.539,0,0,1-.917-.55c.243-.548.456-1.093.726-1.645a4.642,4.642,0,0,1,1.119-1.607,1.842,1.842,0,0,1,1-.458,1.477,1.477,0,0,1,1.048.3,2.151,2.151,0,0,1,.778,1.7" transform="translate(-72.799 -33.438)" fill="#2e150c"/>
            <path id="Path_997751" data-name="Path 997751" d="M292.308,166.038a15.057,15.057,0,0,0-1.869-.3,10.443,10.443,0,0,0-1.929-.009,6.923,6.923,0,0,0-1.876.462,7.937,7.937,0,0,0-1.743.987l-.035.023a.391.391,0,0,1-.527-.566,6.655,6.655,0,0,1,1.69-1.595,6.813,6.813,0,0,1,2.174-.96,8.02,8.02,0,0,1,2.363-.274,7.574,7.574,0,0,1,2.366.451.939.939,0,0,1-.528,1.8Z" transform="translate(-66.208 -31.144)" fill="#2e150c"/>
            <path id="Path_997752" data-name="Path 997752" d="M302.122,164.261a7.6,7.6,0,0,1,2.366-.452,8.048,8.048,0,0,1,2.363.275,6.812,6.812,0,0,1,2.174.96,6.642,6.642,0,0,1,1.69,1.595.391.391,0,0,1-.527.566l-.035-.024a7.947,7.947,0,0,0-1.743-.986,6.924,6.924,0,0,0-1.876-.462,10.445,10.445,0,0,0-1.929.01,15.057,15.057,0,0,0-1.869.3l-.087.019a.939.939,0,0,1-.528-1.8" transform="translate(-69.49 -31.144)" fill="#2e150c"/>
            <path id="Path_997753" data-name="Path 997753" d="M302.945,177.985a4.251,4.251,0,0,1,1.57-.821,5.052,5.052,0,0,1,1.794-.2,4.15,4.15,0,0,1,1.746.522,3.525,3.525,0,0,1,1.3,1.22,10.548,10.548,0,0,0-1.543-.67,6.328,6.328,0,0,0-1.563-.3,13.32,13.32,0,0,0-3.3.25" transform="translate(-69.763 -33.645)" fill="#2e150c"/>
            <path id="Path_997754" data-name="Path 997754" d="M293.108,177.985a13.32,13.32,0,0,0-3.3-.25,6.328,6.328,0,0,0-1.563.3,10.551,10.551,0,0,0-1.543.67,3.531,3.531,0,0,1,1.3-1.22,4.15,4.15,0,0,1,1.746-.522,5.059,5.059,0,0,1,1.795.2,4.254,4.254,0,0,1,1.57.821" transform="translate(-66.674 -33.645)" fill="#2e150c"/>
            <path id="Path_997755" data-name="Path 997755" d="M310.634,168.507s-3.181,1.06-5.591-10.025c0,0-13.11,3.952-22.075,3.567,0,0-2.507,7.422-6.844,6.555a4.793,4.793,0,0,0-3.952-.482s-.868-16.58,8.675-21.689,24.485-2.892,27.859,3.084c0,0,7.615,5.591,6.651,18.991a5.314,5.314,0,0,0-4.723,0" transform="translate(-63.908 -27.3)" fill="#2e150c"/>
            <path id="Path_997756" data-name="Path 997756" d="M333.152,372.558H241.111c1.83-22.6,17.412-51.678,17.412-51.678h28.613c-.008.13-.024.251-.024.381l.04.316v-.316c0-.13-.008-.251-.016-.381h27.43s16.764,29.082,18.586,51.678" transform="translate(-58.006 -61.01)" fill="#68c8f2"/>
            <g id="Group_1190515" data-name="Group 1190515" transform="translate(226.513 261.725)" opacity="0.5" style="mix-blend-mode: screen;isolation: isolate">
              <g id="Group_1190514" data-name="Group 1190514">
                <g id="Group_1190513" data-name="Group 1190513" clip-path="url(#clip-path-33)">
                  <path id="Path_997757" data-name="Path 997757" d="M302.461,323.575l-.008,23.859-6.9,25.559h-.842l6.941-25.721v-23.7a.406.406,0,0,1,.4-.4.4.4,0,0,1,.4.4" transform="translate(-294.711 -323.17)" fill="#2b6de5"/>
                </g>
              </g>
            </g>
            <g id="Group_1190518" data-name="Group 1190518" transform="translate(189.835 261.047)" opacity="0.5" style="mix-blend-mode: screen;isolation: isolate">
              <g id="Group_1190517" data-name="Group 1190517">
                <g id="Group_1190516" data-name="Group 1190516" clip-path="url(#clip-path-34)">
                  <path id="Path_997758" data-name="Path 997758" d="M265.78,323.116c-.138.057-9.8,4.406-15.541,49.718h-.818c5.847-46.276,15.663-50.325,16.084-50.479a.413.413,0,0,1,.518.243.406.406,0,0,1-.243.518" transform="translate(-249.421 -322.333)" fill="#2b6de5"/>
                </g>
              </g>
            </g>
            <g id="Group_1190521" data-name="Group 1190521" transform="translate(251.001 259.563)" opacity="0.5" style="mix-blend-mode: screen;isolation: isolate">
              <g id="Group_1190520" data-name="Group 1190520">
                <g id="Group_1190519" data-name="Group 1190519" clip-path="url(#clip-path-35)">
                  <path id="Path_997759" data-name="Path 997759" d="M343.917,372.485h-.8c-2.243-27.706-17.93-51.111-18.092-51.354a.394.394,0,0,1-.065-.324.415.415,0,0,1,.17-.235.4.4,0,0,1,.559.105c.008.008.032.057.081.13,1.28,1.919,16,24.782,18.149,51.678" transform="translate(-324.948 -320.501)" fill="#2b6de5"/>
                </g>
              </g>
            </g>
            <rect id="Rectangle_454965" data-name="Rectangle 454965" width="14.595" height="14.032" transform="translate(222.235 163.426)" fill="#ffb87a"/>
            <path id="Path_997760" data-name="Path 997760" d="M304.017,204.288v3.2a17.263,17.263,0,0,1-14.584,0v-3.2a17.263,17.263,0,0,0,14.584,0" transform="translate(-67.194 -38.842)" fill="#f2a45e"/>
            <path id="Path_997761" data-name="Path 997761" d="M320.284,285.966c-.283,5.944-.535,10.042-.567,10.577,0,0-1.077,6.949-3.968,8.682-1.215.721-11.711,1.158-23,1.182h-.81c-13.306.008-27.422-.559-28.564-1.9-2.316-2.7-2.235-7.9-2.235-7.9s-2.988-58.319.47-67.381c3.79-9.961,20.992-12.65,27.7-13.687l1.223,1.976L292,215.54c3.661.567,10.5,1.628,16.562,4.1.462.186.923.389,1.377.591,4.462,2.025,8.317,4.9,9.88,9a30.282,30.282,0,0,1,1.142,7.516c.041.526.073,1.077.105,1.636.688,12.836-.154,34.622-.786,47.588" transform="translate(-61.587 -40.981)" fill="#fff"/>
            <path id="Path_997762" data-name="Path 997762" d="M300.261,220.9V307.35h-.81V220.9a.4.4,0,1,1,.81,0" transform="translate(-69.099 -41.924)" fill="#cce8f2"/>
            <path id="Path_997763" data-name="Path 997763" d="M288.359,213.935l6.655,1.3a1.167,1.167,0,0,1,.941,1.222l-.52,7.954a.177.177,0,0,1-.333.074l-2.888-5.294-6.41-2.362Z" transform="translate(-66.504 -40.676)" fill="#cce8f2"/>
            <path id="Path_997764" data-name="Path 997764" d="M305.744,213.935l-6.655,1.3a1.167,1.167,0,0,0-.941,1.222l.52,7.954a.177.177,0,0,0,.333.074l2.888-5.294,6.41-2.362Z" transform="translate(-68.85 -40.676)" fill="#cce8f2"/>
            <path id="Path_997765" data-name="Path 997765" d="M364.065,309.39c-1.239,16.894-4.689,60.894-8.091,77.132h-9.783s-4.584-60.189-6.633-83.854c0,0-22.571-66.207-20-75.083,0,0-.64-3.4,1.676-4.543a3.158,3.158,0,0,1,.794-.283,5.407,5.407,0,0,1,1.247-.089c4.422.162,29.568,27.884,39.659,72.216a49.083,49.083,0,0,1,1.126,14.5" transform="translate(-72.884 -42.336)" fill="#fff"/>
            <path id="Path_997766" data-name="Path 997766" d="M333.041,288.776l-7.424-14.442,7.154,22.811Z" transform="translate(-74.074 -52.16)" fill="#cce8f2"/>
            <path id="Path_997767" data-name="Path 997767" d="M355.988,362.311c-1.7,10.666-2.891,18.319-3.709,23.818h-.826c.923-6.139,2.17-14.148,3.742-23.948,6.293-39.335,2.5-79.051-4.624-93.3-3.3-6.584-10.99-18.732-18.084-29.544-4.308-6.584-8.39-12.666-11.128-16.691-.5-.761-.972-1.45-1.377-2.049.462.186.923.389,1.377.591.251.373.518.761.794,1.174,2.559,3.782,6.26,9.305,10.229,15.339,7.313,11.119,15.485,23.964,18.919,30.824,7.175,14.351,11.014,54.294,4.689,93.783" transform="translate(-73.002 -41.943)" fill="#cce8f2"/>
            <path id="Path_997768" data-name="Path 997768" d="M258.167,266.983V267c-1.676,5.6-3.4,11.128-4.989,16.092v.008c-3.547,11.144-6.39,19.477-6.39,19.477-2.049,23.664-6.633,83.854-6.633,83.854H230.38c-3.41-16.238-6.86-60.238-8.1-77.132a49.354,49.354,0,0,1,1.126-14.5c8.091-35.529,25.794-60.643,34.784-69.3a26.2,26.2,0,0,1,2.527-2.17,4.933,4.933,0,0,1,2.268-1.134c4.673-.17,3.8,5.3,3.8,5.3,1.255,4.325-3.45,22.239-8.617,39.489" transform="translate(-54.402 -42.245)" fill="#fff"/>
            <path id="Path_997769" data-name="Path 997769" d="M260.451,293.428l4.994-15.928-4.454,25.646Z" transform="translate(-61.684 -52.762)" fill="#cce8f2"/>
            <path id="Path_997770" data-name="Path 997770" d="M233.293,386.033a.4.4,0,0,1-.332.462.179.179,0,0,1-.065.008.4.4,0,0,1-.4-.34c-.113-.656-10.868-66.247-3.847-98.553,5.07-23.316,21.478-49.135,30.321-61.85a26.2,26.2,0,0,1,2.527-2.17c-8.139,11.395-26.637,39.262-32.055,64.2-6.989,32.144,3.742,97.589,3.847,98.245" transform="translate(-55.186 -42.512)" fill="#cce8f2"/>
            <path id="Path_997771" data-name="Path 997771" d="M268.065,219.751a7.612,7.612,0,0,0-3.855,6.688c.04,4.04.272,9.4,1.22,9.89,1.537.788,2.573-3.124,2.573-3.124s1.581,6.377,2.634,6.713.46-7.17.46-7.17,2.394,6.386,3.3,6.9-.12-8.13-.12-8.13,3.349,6.416,4.407,6.345-2.98-14.7-2.98-14.7,6.47-.666,4.88-2.247a16.415,16.415,0,0,0-4.572-2.387,7.658,7.658,0,0,0-6.595.452Z" transform="translate(-62.398 -41.447)" fill="#cc7548"/>
          </g>
        </g>
      </g>
    </g>
  </g>
</svg>
