<svg xmlns="http://www.w3.org/2000/svg" xmlns:xlink="http://www.w3.org/1999/xlink" width="96" height="96" viewBox="0 0 96 96">
  <defs>
    <clipPath id="clip-path">
      <rect id="Rectangle_454533" data-name="Rectangle 454533" width="96" height="96" fill="none"/>
    </clipPath>
    <clipPath id="clip-path-2">
      <path id="Path_991615" data-name="Path 991615" d="M36.734,1.8C13.921,5.534-1.739,28.323,1.758,52.7S26.586,93.806,49.4,90.07s38.471-26.528,34.973-50.9C81.205,17.082,63.4,1.273,43.119,1.273a39.448,39.448,0,0,0-6.385.523" transform="translate(-1.27 -1.273)" fill="#e8e8ff"/>
    </clipPath>
    <clipPath id="clip-path-4">
      <rect id="Rectangle_455192" data-name="Rectangle 455192" width="51.117" height="56.748" fill="#12263f"/>
    </clipPath>
  </defs>
  <g id="img19" transform="translate(-734.746 -8622)">
    <g id="Group_1177416" data-name="Group 1177416" transform="translate(417.355 847.008)">
      <g id="Group_1177395" data-name="Group 1177395" transform="translate(317.391 7774.993)">
        <g id="Group_1176807" data-name="Group 1176807">
          <g id="Group_1176806" data-name="Group 1176806" clip-path="url(#clip-path)">
            <path id="Path_991613" data-name="Path 991613" d="M5.134,55.231C1.428,30.668,18.021,7.7,42.2,3.936S88.975,17.03,92.681,41.595,79.794,89.123,55.619,92.889,8.84,79.795,5.134,55.231" transform="translate(1.197 0.954)" fill="#12263f"/>
            <path id="Path_991614" data-name="Path 991614" d="M49.137,95.4a45.064,45.064,0,0,1-27.057-9.05,46.437,46.437,0,0,1-18.2-30.519C.046,30.422,17.274,6.579,42.283,2.683,67.311-1.229,90.761,16.289,94.594,41.7a46.886,46.886,0,0,1-8.369,34.656A45.647,45.647,0,0,1,49.137,95.4m.19-90.012A42.714,42.714,0,0,0,42.77,5.9C19.505,9.526,3.481,31.7,7.046,55.341A43.2,43.2,0,0,0,23.977,83.728,41.877,41.877,0,0,0,55.7,91.636a42.3,42.3,0,0,0,27.941-17.2A43.821,43.821,0,0,0,74.5,13.811a41.913,41.913,0,0,0-25.169-8.42" transform="translate(0.867 0.598)" fill="#12263f"/>
          </g>
        </g>
        <g id="Group_1176809" data-name="Group 1176809" transform="translate(2.881 2.063)">
          <g id="Group_1176808" data-name="Group 1176808" clip-path="url(#clip-path-2)">
            <path id="Path_997335" data-name="Path 997335" d="M4.267,4.267,133.134,0l-4.267,128.867L0,133.134Z" transform="translate(-52.344 46.267) rotate(-45)" fill="#e8e8ff"/>
          </g>
        </g>
        <g id="Group_1176811" data-name="Group 1176811">
          <g id="Group_1176810" data-name="Group 1176810" clip-path="url(#clip-path)">
            <path id="Path_991616" data-name="Path 991616" d="M45.794,93.264a45.066,45.066,0,0,1-27.059-9.05A46.431,46.431,0,0,1,.534,53.7C-3.3,28.285,13.929,4.442,38.938.546S87.414,14.153,91.249,39.568s-13.395,49.253-38.4,53.149a45.807,45.807,0,0,1-7.054.548m.188-90.011a42.715,42.715,0,0,0-6.557.511C16.16,7.389.136,29.566,3.7,53.2A43.2,43.2,0,0,0,20.632,81.591,41.938,41.938,0,0,0,52.36,89.5C75.623,85.875,91.645,63.7,88.082,40.06A43.189,43.189,0,0,0,71.15,11.674a41.907,41.907,0,0,0-25.168-8.42" transform="translate(0 0.001)" fill="#12263f"/>
          </g>
        </g>
      </g>
    </g>
    <g id="Group_1190933" data-name="Group 1190933" transform="translate(754 8639)">
      <g id="Group_1190933-2" data-name="Group 1190933" clip-path="url(#clip-path-4)">
        <path id="Path_998441" data-name="Path 998441" d="M5.572,49.338c-.989-3.233,1.087-4.226-.984-5.166-2.178-.989-.138-2.4-1.349-3.082a1.439,1.439,0,0,1-.612-1.97L3.4,37.565c.616-1.244-1.17-1.456-2.539-2.579A2.266,2.266,0,0,1,.55,31.724a38.995,38.995,0,0,0,4.991-8.109,5.364,5.364,0,0,0-1.129-1.229,3.058,3.058,0,0,1-.637-3.761,23.9,23.9,0,0,0,1.676-4.9,17.1,17.1,0,0,1,5.254-8.7C14.618,1.624,21.7.723,26.8.159c6.924-.765,12.026,1.255,17.436,5.288,5.6,4.177,7.058,10.081,6.864,16.9-.13,4.563-2.213,7.285-4.743,10.682a15.8,15.8,0,0,0-2.98,11.732c.362,2.679.642,5.4,2.062,7.7l1.616,2.611a1.161,1.161,0,0,1,.146,1.107,1.046,1.046,0,0,1-.934.568l-23.718.007a1.012,1.012,0,0,1-1.028-.773c-.611-2.034-1.8-5.239-3.823-6.4-2.655.851-5.226,1.729-7.945,2.321a3.515,3.515,0,0,1-4.181-2.554M26.251,42.36a.866.866,0,0,1,1.12-.659c1.172.251.782,2.543-.711,3.92a10.547,10.547,0,0,1-3.87,2.144l-2.939,1.057a16.143,16.143,0,0,1,3.307,6.022L44.6,54.823a23.478,23.478,0,0,1-3-9.148A17.88,17.88,0,0,1,44.7,32.11l2.165-2.99a12.273,12.273,0,0,0,2.354-6.68,25.149,25.149,0,0,0-.985-8.413,13.761,13.761,0,0,0-5.269-7.169c-4.342-3.185-8.626-5.226-14.234-4.92A51.769,51.769,0,0,0,16.859,3.9a12.739,12.739,0,0,0-5.1,2.709A15.414,15.414,0,0,0,7.248,14.29a23.59,23.59,0,0,1-1.781,5.132,1.316,1.316,0,0,0,.482,1.8c.871.657,1.781,1.9,1.326,3.058a40.519,40.519,0,0,1-5.434,8.9c.507,1.026,2.65,1.294,3.278,2.657a3.836,3.836,0,0,1-.661,3.749,7.212,7.212,0,0,0,1.122.95c.6.525.392,1.215-.182,1.91,3.62,2.018,1.112,3.813,1.986,6.371a1.75,1.75,0,0,0,2.2,1.2,101.079,101.079,0,0,0,10-3.139c2.518-.9,6.4-1.714,6.667-4.523" transform="translate(0 0.001)" fill="#12263f"/>
        <path id="Path_998442" data-name="Path 998442" d="M122.8,54.07a15.616,15.616,0,0,1-4.411.018c-1.5-.189-.75-1.856-1.025-2.914l-2.073-.88c-.895.689-1.595,2.236-2.794,1.343a13.31,13.31,0,0,1-3.147-3.216,1,1,0,0,1,.129-1.242L110.8,45.83l-.876-2.089-1.767-.025a1.077,1.077,0,0,1-1.131-1,15.258,15.258,0,0,1,0-4.342c.214-1.487,1.78-.8,2.905-1.034l.868-2.076-1.313-1.342a1.055,1.055,0,0,1-.008-1.435,13.775,13.775,0,0,1,2.991-3.012c1.25-.93,1.856.6,2.834,1.323.628-.388,1.485-.474,2.006-.956.446-.839-.521-2.6,1.08-2.821a16.68,16.68,0,0,1,4.347-.007c1.577.2.651,2.011,1.074,2.846a15.654,15.654,0,0,0,2.012.951c1-.784,1.593-2.255,2.834-1.335a13.75,13.75,0,0,1,2.99,3.012c.926,1.276-.712,1.85-1.335,2.845l.882,1.887c.65.592,2.72-.6,2.934,1.3a15.88,15.88,0,0,1-.031,4.2c-.234,1.538-1.977.773-2.959,1.078a15.055,15.055,0,0,1-.817,1.972c.393.742,2.155,1.606,1.459,2.629-.605.89-3.4,4.415-4.594,3.236l-1.369-1.348a18.723,18.723,0,0,0-2.005.953c-.436.7.5,2.592-1.008,2.829m-.984-1.85.007-1.737c.006-1.271,1.32-.766,3.623-2.166,1.085-.66,1.774.961,2.54,1.351a5.833,5.833,0,0,0,1.686-1.684c-.436-.8-2-1.448-1.348-2.541a9.5,9.5,0,0,0,1.149-2.751c.312-1.347,1.736-.738,2.743-.931a4.429,4.429,0,0,0,.018-2.423l-1.886-.051c-.976-.026-.8-1.576-2.023-3.632-.656-1.1.939-1.767,1.351-2.513A5.522,5.522,0,0,0,128,31.427c-.9.524-1.444,2.063-2.669,1.293-2.129-1.338-3.48-.817-3.5-2.1l-.034-1.769a6.614,6.614,0,0,0-2.459,0l-.055,1.927c-.03,1.063-1.525.673-3.611,2.015-1.045.673-1.792-.96-2.539-1.356a5.723,5.723,0,0,0-1.679,1.678c.441.888,2.081,1.431,1.285,2.661a8.531,8.531,0,0,0-1.085,2.628c-.338,1.373-1.717.749-2.749.93a4.3,4.3,0,0,0,0,2.434c1.033.2,2.425-.438,2.748.927a9.111,9.111,0,0,0,1.147,2.75c.665,1.074-.932,1.766-1.346,2.539a5.982,5.982,0,0,0,1.687,1.693c.722-.4,1.481-2.008,2.532-1.363a8.843,8.843,0,0,0,2.751,1.148c1.326.294.731,1.729.917,2.771a4.5,4.5,0,0,0,2.485-.01" transform="translate(-87.918 -22.11)" fill="#12263f"/>
        <path id="Path_998443" data-name="Path 998443" d="M60.662,137.148c-1.178.385-.091,1.452-1,2.089a.914.914,0,0,1-1.047.007c-.923-.629.126-1.692-.95-2.078-1.009-.362-1.407,1.633-2.52.6-1.06-.983.85-1.771.633-2.381-.509-1.431-2.189-.049-2.305-1.577s1.706-.391,2.261-1.578c.178-.38-.049-.658-.493-1.029a1.017,1.017,0,0,1-.1-1.477c1.123-1.025,1.513.964,2.521.6,1.075-.391.027-1.473.949-2.075a.938.938,0,0,1,1.047,0c.9.62-.176,1.707.994,2.088.885.287,1.348-1.539,2.4-.661a1.011,1.011,0,0,1-.1,1.562c-.464.345-.546.636-.4,1.064.386,1.114,2.1-.124,2.2,1.356.112,1.669-1.836.443-2.2,1.523-.145.43-.065.715.4,1.064a1.022,1.022,0,0,1,.187,1.48c-.965,1.073-1.654-.853-2.488-.58m.361-3.406a1.884,1.884,0,1,0-1.884,1.884,1.884,1.884,0,0,0,1.884-1.884" transform="translate(-43.988 -105.377)" fill="#12263f"/>
        <path id="Path_998444" data-name="Path 998444" d="M54.286,77.027c-.91-.086.061,1.789-1.41,1.794-1.329,0-.575-1.631-1.32-1.8-.378-.084-1.107,1.272-2,.417-.917-.876.623-1.542.376-2.151-.215-.529-1.648.12-1.758-1.1a.92.92,0,0,1,1.053-.989c.315.016.609-.018.709-.273.243-.62-1.168-1.11-.462-2.034a.991.991,0,0,1,1.541.006c1.342,1.356.376-1.489,1.869-1.5,1.341-.008.6,1.615,1.281,1.805.489.137,1.082-1.277,2.039-.45.974.841-.573,1.551-.364,2.181.177.534,1.647-.14,1.731,1.088.044.639-.373,1.039-1.1,1.008-.29-.013-.57.047-.637.25-.22.673,1.227,1.163.448,2.08a1.006,1.006,0,0,1-1.551-.076.682.682,0,0,0-.447-.264m-.1-2.91a1.308,1.308,0,1,0-1.308,1.308,1.308,1.308,0,0,0,1.308-1.308" transform="translate(-39.627 -57.097)" fill="#12263f"/>
        <path id="Path_998445" data-name="Path 998445" d="M161.735,75.5A6.138,6.138,0,1,1,155.6,69.36a6.139,6.139,0,0,1,6.139,6.139m-1.9,0a4.241,4.241,0,1,0-4.241,4.241,4.241,4.241,0,0,0,4.241-4.241" transform="translate(-122.955 -57.06)" fill="#12263f"/>
      </g>
    </g>
  </g>
</svg>
