<svg xmlns="http://www.w3.org/2000/svg" xmlns:xlink="http://www.w3.org/1999/xlink" width="396" height="246" viewBox="0 0 396 246">
  <defs>
    <clipPath id="clip-path">
      <rect id="Rectangle_454972" data-name="Rectangle 454972" width="362.092" height="245.206" fill="none"/>
    </clipPath>
    <clipPath id="clip-path-3">
      <rect id="Rectangle_454968" data-name="Rectangle 454968" width="5.638" height="46.077" fill="none"/>
    </clipPath>
    <clipPath id="clip-path-4">
      <rect id="Rectangle_454969" data-name="Rectangle 454969" width="7.639" height="6.551" fill="none"/>
    </clipPath>
    <clipPath id="clip-path-5">
      <rect id="Rectangle_454970" data-name="Rectangle 454970" width="10.221" height="34.75" fill="none"/>
    </clipPath>
  </defs>
  <g id="img20" transform="translate(-289.711 -5307.27)">
    <rect id="Rectangle_454909" data-name="Rectangle 454909" width="396" height="246" transform="translate(289.711 5307.27)" fill="none"/>
    <g id="Group_1190538" data-name="Group 1190538" transform="translate(306.711 5307.27)">
      <g id="Group_1190537" data-name="Group 1190537" clip-path="url(#clip-path)">
        <g id="Group_1190536" data-name="Group 1190536">
          <g id="Group_1190535" data-name="Group 1190535" clip-path="url(#clip-path)">
            <path id="Path_997772" data-name="Path 997772" d="M13.7,103.844l.885,1.561,2.41,4.249,3.564,6.285,4.349,7.669,4.765,8.4,4.809,8.481,4.485,7.908,3.791,6.684,2.727,4.808.853,1.5a8.541,8.541,0,0,1,.439.775,1.11,1.11,0,0,0,.056.1l-.324-.042.682-.822,1.948-2.344,3.076-3.7,4.081-4.913,4.925-5.928,5.643-6.792,6.243-7.514,6.647-8,7-8.421,7.167-8.626,7.155-8.613,7.1-8.54L115,79.786l6.455-7.769,5.957-7.171,5.286-6.363,4.5-5.414,3.582-4.311,2.5-3.01,1.313-1.58.161-.194a.206.206,0,0,1,.292,0l.561.672,1.606,1.925,2.528,3.029,3.356,4.02,4.062,4.866,4.637,5.555,5.133,6.15,5.5,6.589,5.732,6.867,5.894,7.061,5.921,7.094,5.814,6.965,5.637,6.753,5.325,6.379,4.882,5.849L216,128.973l3.712,4.446,2.937,3.518,2.078,2.489,1.075,1.287.133.16-.2-.053,1.58-.638,4.3-1.737,6.332-2.559,7.722-3.12,8.49-3.43,8.57-3.463,7.962-3.217,6.754-2.729,4.854-1.961c.761-.308,1.518-.646,2.29-.925.033-.012.066-.026.1-.04a.2.2,0,0,1,.2.053l.447.537,1.282,1.538,2.026,2.432,2.68,3.216,3.227,3.872,3.714,4.457,4.1,4.917,4.391,5.268,4.593,5.511,4.705,5.647,4.727,5.672,4.658,5.59,4.5,5.4,4.231,5.077,3.913,4.7,3.484,4.18,2.963,3.556,2.353,2.824,1.653,1.983.863,1.035.106.128c.169.2-.122.5-.292.292l-.448-.537-1.282-1.538-2.026-2.431-2.68-3.215-3.227-3.872-3.715-4.457-4.1-4.917-4.39-5.268-4.593-5.512-4.705-5.646-4.727-5.672-4.659-5.59-4.5-5.4-4.232-5.078-3.913-4.7-3.483-4.179-2.964-3.556-2.353-2.824-1.653-1.984-.862-1.034-.107-.128.2.053-1.58.639-4.3,1.737-6.332,2.558-7.722,3.12-8.49,3.43-8.57,3.463-7.962,3.217-6.754,2.729-4.854,1.961c-.761.307-1.518.646-2.29.925-.034.012-.066.027-.1.04a.2.2,0,0,1-.2-.053l-.56-.672-1.607-1.925-2.528-3.029-3.356-4.02-4.062-4.866-4.637-5.555-5.133-6.15-5.5-6.59-5.732-6.867-5.894-7.06-5.921-7.094-5.814-6.965-5.637-6.753-5.325-6.379-4.882-5.849-4.363-5.227-3.712-4.446L148.035,48.2l-2.077-2.489-1.075-1.287-.133-.16h.292l-.683.821-1.948,2.345-3.076,3.7-4.081,4.913-4.925,5.928-5.642,6.792-6.243,7.514-6.647,8-7,8.421-7.166,8.626-7.156,8.613-7.1,8.541-6.832,8.224L70.1,134.475l-5.958,7.17-5.286,6.363-4.5,5.414-3.582,4.311-2.5,3.01-1.313,1.581-.161.194a.208.208,0,0,1-.324-.042l-.885-1.561-2.41-4.249-3.565-6.285-4.349-7.669-4.765-8.4-4.809-8.481-4.485-7.908-3.791-6.684-2.727-4.808c-.43-.76-.874-1.513-1.293-2.28-.018-.033-.037-.066-.056-.1a.207.207,0,0,1,.357-.209" transform="translate(5.216 -19.739)" fill="#c5cee7"/>
            <path id="Path_997773" data-name="Path 997773" d="M550.219,250.852a7.325,7.325,0,1,0,7.325-7.326,7.325,7.325,0,0,0-7.325,7.326" transform="translate(-505.676 -109.464)" fill="#c5cee7"/>
            <path id="Path_997774" data-name="Path 997774" d="M.362,311.9a7.325,7.325,0,1,0,7.326-7.326A7.326,7.326,0,0,0,.362,311.9" transform="translate(346.88 -136.904)" fill="#c5cee7"/>
            <path id="Path_997775" data-name="Path 997775" d="M117.926,170.5a7.325,7.325,0,1,0,7.326-7.325,7.326,7.326,0,0,0-7.326,7.325" transform="translate(164.596 -73.348)" fill="#c5cee7"/>
            <path id="Path_997776" data-name="Path 997776" d="M610.407,146.988a7.325,7.325,0,1,0,7.325-7.326,7.325,7.325,0,0,0-7.325,7.326" transform="translate(-598.998 -62.777)" fill="#c5cee7"/>
            <path id="Path_997777" data-name="Path 997777" d="M53.824,408.566c2.256-7.777.016-14.191-4.269-19.378a2,2,0,0,0-3.492.933A19.992,19.992,0,0,0,48.33,403.71a10.575,10.575,0,0,0,5.17,4.859" transform="translate(282.207 -174.615)" fill="#00b557"/>
            <path id="Path_997778" data-name="Path 997778" d="M551.549,285s-13.574,8.792-15.653,10.846c-2.143,2.118-2.341,6.779,1.849,8.258s9.49-.739,9.49-.739a10.658,10.658,0,0,0,7.025,1.849s-13.226,17.59-15.027,28.417c-1.99,11.967.237,20.143.237,20.143h37.59s-3.081-14.543-2.835-23.171a87.386,87.386,0,0,1,4.314-23.54c1.849-5.3,3.821-19.719-6.286-26.375-9.935-6.542-22.924,1.233-22.924,1.233Z" transform="translate(-512.139 -124.99)" fill="#c5cee7"/>
            <path id="Path_997779" data-name="Path 997779" d="M512.937,436.6s-1.781-9.308,6.278-9.308h49.5s7.118.663,7.118,9.308Z" transform="translate(-496.027 -192.068)" fill="#c5cee7"/>
            <path id="Path_997780" data-name="Path 997780" d="M528.553,421.773s-1.346-7.031,4.743-7.031,36.859-.265,36.859-.265a7.01,7.01,0,0,1,5.913,7.3Z" transform="translate(-504.876 -186.305)" fill="#c5cee7"/>
            <path id="Path_997781" data-name="Path 997781" d="M570.9,321.412a10.34,10.34,0,0,0,5.317,1.917,6.892,6.892,0,0,0,5.16-1.9,7.624,7.624,0,0,0,1.877-2.673c.1-.242.5-.136.4.11a8.142,8.142,0,0,1-4.14,4.291,8.052,8.052,0,0,1-5.841.089,10.288,10.288,0,0,1-2.979-1.473c-.211-.156-.006-.515.209-.357" transform="translate(-535.702 -143.216)" fill="#dadff2"/>
            <path id="Path_997782" data-name="Path 997782" d="M538.858,414.143c4.982,0,9.964-.04,14.945-.088s9.977-.106,14.966-.14q4.227-.03,8.455-.033a.207.207,0,0,1,0,.413c-4.982,0-9.964.04-14.945.088s-9.977.105-14.966.14q-4.228.03-8.455.032a.207.207,0,0,1,0-.413" transform="translate(-511.866 -186.038)" fill="#dadff2"/>
            <path id="Path_997783" data-name="Path 997783" d="M526.438,426.438h48.994a.207.207,0,0,1,0,.413H526.438a.207.207,0,0,1,0-.413" transform="translate(-503.237 -191.682)" fill="#dadff2"/>
            <path id="Path_997784" data-name="Path 997784" d="M563.413,295.652c-2.911,2.729-7.461,2.371-10.79.657-4.08-2.1-6.918-5.849-10.464-8.656a14.888,14.888,0,0,0-6.8-3.287c-.262-.041-.151-.439.109-.4,4.389.694,7.735,3.9,10.817,6.849,3.047,2.914,6.419,6.027,10.831,6.386a7.754,7.754,0,0,0,6-1.843c.194-.182.486.11.292.292" transform="translate(-496.021 -127.641)" fill="#dadff2"/>
            <path id="Path_997785" data-name="Path 997785" d="M557.875,336.866c-3.154,1.029-6-1.288-8.372-3.028a10.71,10.71,0,0,0-3.969-2.074,5,5,0,0,0-3.631.519,3.219,3.219,0,0,0-1.344,3.541,6.752,6.752,0,0,0,2.463,3.608c2.27,1.857,5.179,2.738,7.43,4.614a20.353,20.353,0,0,1,3.05,3.323,24.133,24.133,0,0,1,2.373,3.669c.12.236-.236.445-.357.208a23.62,23.62,0,0,0-2.151-3.374,22.243,22.243,0,0,0-2.843-3.216c-2.238-2.027-5.258-2.929-7.622-4.793a7.565,7.565,0,0,1-2.6-3.436,3.878,3.878,0,0,1,.516-3.734,4.39,4.39,0,0,1,3.173-1.453,7.012,7.012,0,0,1,3.9,1.031c1.581.9,2.92,2.146,4.465,3.1a6.6,6.6,0,0,0,5.413,1.1c.253-.083.362.316.11.4" transform="translate(-493.227 -148.886)" fill="#dadff2"/>
            <path id="Path_997786" data-name="Path 997786" d="M585.427,297.411a14.984,14.984,0,0,1,6.375,11.41,14.045,14.045,0,0,1-.3,3.832c-.057.259-.455.15-.4-.11a14.547,14.547,0,0,0-3.145-12.307,13.592,13.592,0,0,0-2.738-2.47c-.219-.149-.012-.506.209-.357" transform="translate(-551.85 -133.668)" fill="#dadff2"/>
            <path id="Path_997787" data-name="Path 997787" d="M573.389,369.617c-4.449.855-8.861-1.07-12.277-3.816-3.63-2.917-6.374-6.725-9.579-10.066a27.113,27.113,0,0,0-6.041-4.915.207.207,0,0,1,.209-.357c3.922,2.236,6.866,5.722,9.8,9.079,2.973,3.408,6.14,6.882,10.378,8.7a12.771,12.771,0,0,0,7.406.974c.259-.05.37.348.109.4" transform="translate(-511.686 -157.518)" fill="#dadff2"/>
            <path id="Path_997788" data-name="Path 997788" d="M579.041,393.162a33.041,33.041,0,0,1-15.375,1.279,34.93,34.93,0,0,1-14.453-5.612,31.944,31.944,0,0,1-6.51-5.859c-.17-.2.121-.5.292-.292a32.636,32.636,0,0,0,12.373,9.019,34.627,34.627,0,0,0,15.062,2.672,31.59,31.59,0,0,0,8.5-1.6c.252-.085.361.313.11.4" transform="translate(-515.825 -171.981)" fill="#dadff2"/>
            <path id="Path_997789" data-name="Path 997789" d="M558.044,313.794l-.072-.014-.031-.005c.034.005,0,0-.007,0-.051,0-.1-.008-.153-.009s-.095,0-.142.005c-.01,0-.072.008-.036,0-.026,0-.053.008-.08.013a1.743,1.743,0,0,0-.272.077l-.038.014-.013.005-.013.005-.037.017q-.069.033-.135.071a1.915,1.915,0,0,0-.761.808,1.224,1.224,0,0,0-.1.234,1.742,1.742,0,0,0-.067.286c0,.025,0,0,0,0,0,.013,0,.026,0,.04s0,.047-.005.07a1.372,1.372,0,0,0,0,.152c0,.02,0,.04,0,.061s0,.027,0,.04c0-.009-.006-.036,0,.006s.017.095.029.141a1.321,1.321,0,0,0,.04.131c.007.02.014.039.022.058s0-.006,0-.009l.019.04a1.533,1.533,0,0,0,.126.219l.035.049-.005-.008.021.027c.026.031.053.061.081.09s.057.057.087.084l.046.04.02.017s.041.033.02.016l.035.026.05.035c.036.024.074.047.112.069s.072.04.108.058l.048.023c.01,0,.07.031.031.015a2.115,2.115,0,0,0,.494.139l.026,0c.032,0-.034,0,0,0l.062.007c.041,0,.083.006.124.008a2.084,2.084,0,0,0,.255-.008l.061-.007c-.042,0,.008,0,.023,0,.043-.007.086-.015.128-.025a1.794,1.794,0,0,0,.232-.072l.032-.013s-.031.014-.01,0l.055-.025c.039-.019.077-.04.115-.062s.069-.042.1-.066c.01-.007.052-.039.021-.014.019-.014.037-.029.055-.045a1.5,1.5,0,0,0,.18-.185l.017-.021c-.005.007-.022.031,0,0,.01-.014.021-.029.031-.043.025-.036.048-.074.07-.112s.039-.072.056-.109c.005-.013.025-.061.01-.023.008-.022.017-.043.025-.066a1.793,1.793,0,0,0,.067-.244c0-.02.007-.04.01-.061s.007-.052,0-.014c.005-.044.009-.088.011-.132a2,2,0,0,0,0-.257c0-.021,0-.042-.005-.062s-.009-.067,0-.025c-.007-.045-.014-.089-.024-.132a2.144,2.144,0,0,0-.066-.242c-.013-.04-.027-.079-.043-.118s0,.008-.01-.025-.02-.043-.03-.065a2.058,2.058,0,0,0-.127-.225c-.021-.033-.042-.064-.065-.1l-.021-.028.005.007-.045-.054a1.861,1.861,0,0,0-.178-.181l-.047-.04-.02-.016c.03.025.007,0,0,0-.035-.025-.071-.051-.108-.074s-.065-.039-.1-.057l-.063-.031c-.011-.006-.072-.03-.031-.015a1.709,1.709,0,0,0-.238-.074.206.206,0,1,1,.11-.4,2.069,2.069,0,0,1,1.48,1.647,2.114,2.114,0,0,1-.073,1.153,1.759,1.759,0,0,1-.759.907,2.241,2.241,0,0,1-2.222-.073,1.89,1.89,0,0,1-.76-.838,1.815,1.815,0,0,1-.049-1.311,2.218,2.218,0,0,1,2.031-1.528,1.839,1.839,0,0,1,.351.042.206.206,0,0,1-.11.4" transform="translate(-503.49 -140.851)" fill="#dadff2"/>
            <path id="Path_997790" data-name="Path 997790" d="M557.312,414.429a8.631,8.631,0,0,0-4.694,4.579,8.215,8.215,0,0,0-.549,1.835c-.046.262-.444.151-.4-.11a9.038,9.038,0,0,1,3.764-5.771,8.6,8.6,0,0,1,1.768-.932c.248-.1.354.3.11.4" transform="translate(-499.054 -186.098)" fill="#dadff2"/>
            <path id="Path_997791" data-name="Path 997791" d="M571.707,414.655c-1.426.825-2.234,2.316-3.2,3.594A8.686,8.686,0,0,1,566.821,420a7.5,7.5,0,0,1-2.27,1.164,7.4,7.4,0,0,1-2.842.316c-.263-.022-.265-.435,0-.413a7.154,7.154,0,0,0,4.809-1.354,17.1,17.1,0,0,0,3.074-3.661A6.755,6.755,0,0,1,571.5,414.3a.207.207,0,0,1,.209.357" transform="translate(-518.83 -186.212)" fill="#dadff2"/>
            <path id="Path_997792" data-name="Path 997792" d="M546.471,429.125c-2.859.732-4.543,3.433-5.386,6.078-.268.841-.474,1.7-.659,2.562-.056.259-.454.15-.4-.11.637-2.959,1.634-6.079,4.2-7.925a6.36,6.36,0,0,1,2.13-1,.207.207,0,0,1,.11.4" transform="translate(-481.812 -192.707)" fill="#dadff2"/>
            <path id="Path_997793" data-name="Path 997793" d="M601.808,427.659a16.564,16.564,0,0,1-7.614,8.294,16.026,16.026,0,0,1-3.021,1.2.207.207,0,0,1-.109-.4,16.128,16.128,0,0,0,8.853-6.441,15.5,15.5,0,0,0,1.493-2.767c.1-.242.5-.136.4.11" transform="translate(-565.036 -192.12)" fill="#dadff2"/>
            <path id="Path_997794" data-name="Path 997794" d="M304.653,33.067A33.067,33.067,0,1,0,337.72,0a33.067,33.067,0,0,0-33.067,33.067" transform="translate(-176.408)" fill="#dadff2"/>
            <path id="Path_997795" data-name="Path 997795" d="M316.928,38.7a26.309,26.309,0,1,0,26.31-26.31,26.31,26.31,0,0,0-26.31,26.31" transform="translate(-181.926 -5.571)" fill="#edeff8"/>
            <path id="Path_997796" data-name="Path 997796" d="M332.247,45.589a17.876,17.876,0,1,0,17.875-17.875,17.876,17.876,0,0,0-17.875,17.875" transform="translate(-188.811 -12.457)" fill="#dadff2"/>
            <path id="Path_997797" data-name="Path 997797" d="M351.955,54.448a7.027,7.027,0,1,0,7.027-7.027,7.027,7.027,0,0,0-7.027,7.027" transform="translate(-197.67 -21.315)" fill="#edeff8"/>
            <path id="Path_997798" data-name="Path 997798" d="M412.881,28.308a6.631,6.631,0,0,1-4.75,1.222c-2.474-.507-5.846-3.715-5.846-3.715l5.769-1.21Z" transform="translate(-272.249 -11.06)" fill="#c5cee7"/>
            <path id="Path_997799" data-name="Path 997799" d="M406.477,23.6a6.631,6.631,0,0,0,0-4.905c-1.108-2.269-5.054-4.736-5.054-4.736l.265,5.888Z" transform="translate(-265.863 -6.275)" fill="#c5cee7"/>
            <path id="Path_997800" data-name="Path 997800" d="M392.424,42.618,365.187,21.274c-.348-.273.142-.757.487-.487l27.237,21.345c.349.273-.142.757-.487.487" transform="translate(-231.91 -9.308)" fill="#c5cee7"/>
            <path id="Path_997801" data-name="Path 997801" d="M246.495,212.018l-42.6,99.536-44.554-75.536H140.463l-38.452,75.855-24.12-52.435L62.089,259,35.244,339.838H57.616L70.55,291.248l19.575,48.589H112.3l38.72-77.8,42.7,77.8h26.448L266.07,220.058Z" transform="translate(76.62 -95.301)" fill="#dadff2"/>
            <path id="Path_997802" data-name="Path 997802" d="M58.26,210.043,16.313,192.565l31.46-16.08Z" transform="translate(294.851 -79.329)" fill="#dadff2"/>
            <path id="Path_997803" data-name="Path 997803" d="M251.709,37.274a12.215,12.215,0,0,0-2.986-1.3l-.437-2.1a1.1,1.1,0,0,0-1.054-.873l-3.242-.057a1.1,1.1,0,0,0-1.084.835l-.51,2.081a12.234,12.234,0,0,0-3.03,1.192l-1.816-1.19a1.059,1.059,0,0,0-1.317.124l-2.375,2.293a1.06,1.06,0,0,0-.17,1.312l1.125,1.856a12.228,12.228,0,0,0-1.3,2.986l-2.3.478a.843.843,0,0,0-.671.81l-.064,3.647a.842.842,0,0,0,.642.833l2.278.559A12.26,12.26,0,0,0,234.6,53.8l-1.088,1.661a1.291,1.291,0,0,0,.151,1.6l2.036,2.108a1.291,1.291,0,0,0,1.6.208l1.7-1.029a12.24,12.24,0,0,0,2.986,1.3l.464,2.231a.926.926,0,0,0,.891.738l3.514.061a.926.926,0,0,0,.916-.705l.542-2.214a12.262,12.262,0,0,0,3.03-1.192l1.8,1.178a1.086,1.086,0,0,0,1.35-.127l2.345-2.264A1.087,1.087,0,0,0,257,56.008l-1.114-1.838a12.259,12.259,0,0,0,1.3-2.986l2.335-.486a.793.793,0,0,0,.631-.762l.065-3.727a.792.792,0,0,0-.6-.783l-2.317-.568a12.284,12.284,0,0,0-1.192-3.03l1.148-1.752a1.154,1.154,0,0,0-.135-1.435l-2.188-2.266a1.155,1.155,0,0,0-1.429-.186Zm-3.176,6.182A5.359,5.359,0,1,1,242,43.34a5.361,5.361,0,0,1,6.528.116" transform="translate(-25.009 -14.81)" fill="#c5cee7"/>
            <path id="Path_997804" data-name="Path 997804" d="M631.533,233.827a9.782,9.782,0,0,0-2.387-1.038l-.349-1.677a.876.876,0,0,0-.843-.7l-2.592-.046a.877.877,0,0,0-.867.668l-.408,1.664a9.78,9.78,0,0,0-2.422.953l-1.452-.952a.847.847,0,0,0-1.053.1l-1.9,1.834a.846.846,0,0,0-.136,1.049l.9,1.484a9.763,9.763,0,0,0-1.037,2.388l-1.836.382a.674.674,0,0,0-.536.648l-.051,2.916a.674.674,0,0,0,.513.666l1.821.446a9.8,9.8,0,0,0,.953,2.422l-.87,1.328a1.033,1.033,0,0,0,.121,1.283l1.627,1.686a1.033,1.033,0,0,0,1.278.166l1.357-.823a9.772,9.772,0,0,0,2.388,1.037l.372,1.784a.74.74,0,0,0,.712.589l2.809.05a.74.74,0,0,0,.732-.564l.434-1.769a9.811,9.811,0,0,0,2.422-.953l1.437.942a.869.869,0,0,0,1.079-.1l1.874-1.81a.867.867,0,0,0,.139-1.075l-.891-1.469a9.8,9.8,0,0,0,1.038-2.388l1.867-.389a.634.634,0,0,0,.5-.609l.052-2.98a.634.634,0,0,0-.483-.626L636,239.889a9.77,9.77,0,0,0-.953-2.422l.918-1.4a.924.924,0,0,0-.108-1.147l-1.749-1.811a.923.923,0,0,0-1.143-.149Zm-2.539,4.942a4.284,4.284,0,1,1-5.219-.092,4.286,4.286,0,0,1,5.219.092" transform="translate(-614.564 -103.55)" fill="#c5cee7"/>
            <path id="Path_997805" data-name="Path 997805" d="M286.426,186.247c.315-15.249.113-30.251.031-35.15h-2.383a2.236,2.236,0,1,1,0-4.473h5.086a6.668,6.668,0,0,1-6.668-6.668v-.5a6.664,6.664,0,0,1,5-6.449l-8.707-40.946a.125.125,0,0,1,.1-.149c4.957-.683,10.23,4.79,11.151,5.794a.116.116,0,0,0,.2-.05c1.9-6.768,6.789-14.04,7.357-14.871a.122.122,0,0,1,.144-.047c3.644,1.384,7.812,13.184,8.406,14.913a.117.117,0,0,0,.207.025,13.926,13.926,0,0,1,10.7-5.745.118.118,0,0,1,.116.144l-8.437,40.887a6.666,6.666,0,0,1,5.172,6.493v.5a6.668,6.668,0,0,1-6.668,6.668h4.432a2.236,2.236,0,1,1,0,4.473h-2.489c-.173,4.9-.6,19.912.064,35.15C310.348,211.72,318.769,242.7,319.4,245c.02.073.08.854,0,.859l-23.766.9a.12.12,0,0,1-.128-.123l.035-1.451-18.76.377a.117.117,0,0,1-.119-.148c.684-2.388,9.209-32.665,9.757-59.168" transform="translate(-109.656 -37.186)" fill="#abacff"/>
            <path id="Path_997806" data-name="Path 997806" d="M245.987,398.673c-.388-2.572-2.532-20.92,15.193-20.92H294.5c17.225,0,15.234,18.168,14.841,20.876,17.034,2.121,14.994,14.72,14.754,15.942a.118.118,0,0,1-.118.1H231a.116.116,0,0,1-.119-.1c-.14-1.263-1.083-13.654,15.108-15.89" transform="translate(-89.269 -169.798)" fill="#abacff"/>
            <path id="Path_997807" data-name="Path 997807" d="M321.091,415.623H257.327a.207.207,0,0,1,0-.413h63.764a.207.207,0,0,1,0,.413" transform="translate(-100.749 -186.635)" fill="#221f4a"/>
            <path id="Path_997808" data-name="Path 997808" d="M319.276,378.558H276.5a.207.207,0,0,1,0-.413h42.774a.207.207,0,0,1,0,.413" transform="translate(-109.49 -169.974)" fill="#221f4a"/>
            <path id="Path_997809" data-name="Path 997809" d="M318.324,207.4H291.046a.207.207,0,0,1,0-.413h27.278a.207.207,0,0,1,0,.413" transform="translate(-116.544 -93.04)" fill="#221f4a"/>
            <path id="Path_997810" data-name="Path 997810" d="M318.324,198.38H291.046a.207.207,0,0,1,0-.413h27.278a.207.207,0,0,1,0,.413" transform="translate(-116.544 -88.985)" fill="#221f4a"/>
            <path id="Path_997811" data-name="Path 997811" d="M317.428,174.038h-21.3a.207.207,0,0,1,0-.413h21.3a.207.207,0,0,1,0,.413" transform="translate(-118.445 -78.043)" fill="#221f4a"/>
            <g id="Group_1190528" data-name="Group 1190528" transform="translate(179.293 116.496)" opacity="0.3">
              <g id="Group_1190527" data-name="Group 1190527">
                <g id="Group_1190526" data-name="Group 1190526" clip-path="url(#clip-path-3)">
                  <path id="Path_997812" data-name="Path 997812" d="M327.451,213.074c-.433,6.991-2.444,36.776-2.887,43.337a1.375,1.375,0,0,1-2.748-.1l.255-43.326a1.376,1.376,0,0,1,1.376-1.367h2.631a1.373,1.373,0,0,1,1.373,1.458" transform="translate(-321.816 -211.616)" fill="#fff"/>
                </g>
              </g>
            </g>
            <g id="Group_1190531" data-name="Group 1190531" transform="translate(174.901 97.46)" opacity="0.3">
              <g id="Group_1190530" data-name="Group 1190530">
                <g id="Group_1190529" data-name="Group 1190529" clip-path="url(#clip-path-4)">
                  <path id="Path_997813" data-name="Path 997813" d="M333.8,177.038h-3.643a3.985,3.985,0,0,0-3.766,2.511,4.239,4.239,0,0,0,.755,4.04c.512-2.661,1.794-5.374,6.653-6.551" transform="translate(-326.158 -177.038)" fill="#fff"/>
                </g>
              </g>
            </g>
            <g id="Group_1190534" data-name="Group 1190534" transform="translate(171.89 58.346)" opacity="0.3">
              <g id="Group_1190533" data-name="Group 1190533">
                <g id="Group_1190532" data-name="Group 1190532" clip-path="url(#clip-path-5)">
                  <path id="Path_997814" data-name="Path 997814" d="M337.157,140.737h-2.819l-7.4-34.75s5.092,1.005,6.83,7.992,3.391,26.758,3.391,26.758" transform="translate(-326.935 -105.987)" fill="#fff"/>
                </g>
              </g>
            </g>
            <path id="Path_997815" data-name="Path 997815" d="M218.42,121.338l18.5,9.764,16.817-7.827,2.646,12.391s-15.937,9.007-20.638,8.366c-6.365-.868-19.438-12.445-19.438-12.445Z" transform="translate(-13.366 -54.541)" fill="#c25a41"/>
            <path id="Path_997816" data-name="Path 997816" d="M36.714,127.576a26.812,26.812,0,0,1,0,4.7c-.266,1.153-3.281,4.7-4.345,4.345a1.425,1.425,0,0,1-.8-1.951c.266-.266,1.964-2.559,1.964-2.559l-.723-3.205Z" transform="translate(307.96 -57.345)" fill="#972824"/>
            <path id="Path_997817" data-name="Path 997817" d="M56.357,121.417,64.7,123.5l35.737.973v7.231s-15.018,3.476-22.04,3.616-18.286,0-18.286,0Z" transform="translate(230.629 -54.576)" fill="#c25a41"/>
            <path id="Path_997818" data-name="Path 997818" d="M39.556,124.295s1.061,1.486-1.486,2.122-9.251,2.527-9.888,3.184.531,3.2.531,3.2,2.151.642,1.514,2.021-3.107.526-3.107.526a17.892,17.892,0,0,1-4.988-1.061,24.594,24.594,0,0,0-3.175-1.33l.229-7.284,9.542-.619s9.872-1.506,10.827-.763" transform="translate(311.879 -55.777)" fill="#c25a41"/>
            <path id="Path_997819" data-name="Path 997819" d="M196.268,54.355a6.477,6.477,0,0,0-1.14-3.023,6.166,6.166,0,0,0-.584-.712c-.183-.193.109-.486.292-.292a6.817,6.817,0,0,1,1.845,4.027.206.206,0,0,1-.206.206.212.212,0,0,1-.206-.206" transform="translate(58.344 -22.593)" fill="#221f4a"/>
            <path id="Path_997820" data-name="Path 997820" d="M197.7,57.152a4.11,4.11,0,0,0-2.335-1.751,3.871,3.871,0,0,0-.817-.145.211.211,0,0,1-.206-.206.209.209,0,0,1,.206-.206,4.541,4.541,0,0,1,2.931,1.361,4.439,4.439,0,0,1,.577.739c.14.226-.216.434-.357.209" transform="translate(57.011 -24.651)" fill="#221f4a"/>
            <path id="Path_997821" data-name="Path 997821" d="M186.622,97.814V107.8h-12.1V93.189Z" transform="translate(79.396 -41.888)" fill="#c25a41"/>
            <path id="Path_997822" data-name="Path 997822" d="M174.694,84.759a9.018,9.018,0,0,0,7.357-9.3,90.193,90.193,0,0,0-.575-10.935c-.6-5.58-4.786-7.885-10.757-7.763l-.593.012c-6.391.482-10.408,3.947-9.733,9.933l.717,5.766s-.525,12.59,13.577,12.293" transform="translate(91.784 -25.513)" fill="#c25a41"/>
            <path id="Path_997823" data-name="Path 997823" d="M166.117,81.378a.87.87,0,0,1-.829.89.837.837,0,0,1-.922-.761.87.87,0,0,1,.827-.89.837.837,0,0,1,.923.762" transform="translate(105.489 -36.235)" fill="#221f4a"/>
            <path id="Path_997824" data-name="Path 997824" d="M180.814,82.4a.87.87,0,0,1-.829.89.836.836,0,0,1-.922-.761.871.871,0,0,1,.828-.89.837.837,0,0,1,.922.762" transform="translate(82.701 -36.695)" fill="#221f4a"/>
            <path id="Path_997825" data-name="Path 997825" d="M180.324,77.654a3.028,3.028,0,0,1,2.383-.384,2.933,2.933,0,0,1,.657.258.207.207,0,0,1-.209.357c-.039-.021-.078-.041-.118-.061l-.061-.028-.016-.007-.026-.01a2.721,2.721,0,0,0-.543-.154,1.96,1.96,0,0,0-.243-.029,2.768,2.768,0,0,0-.565.018l-.033.006-.066.011c-.047.009-.094.019-.141.03a2.734,2.734,0,0,0-.266.078,1.934,1.934,0,0,0-.268.112,2.5,2.5,0,0,0-.278.161.207.207,0,1,1-.209-.357" transform="translate(79.414 -34.691)" fill="#221f4a"/>
            <path id="Path_997826" data-name="Path 997826" d="M163.843,77.009a3.028,3.028,0,0,1,2.383-.384,2.934,2.934,0,0,1,.657.258.207.207,0,0,1-.209.357c-.039-.021-.078-.041-.118-.061l-.061-.028-.016-.007-.026-.01a2.774,2.774,0,0,0-.543-.154,1.968,1.968,0,0,0-.243-.028,2.769,2.769,0,0,0-.565.018l-.033.006-.066.011c-.047.009-.094.019-.141.03a2.726,2.726,0,0,0-.266.078,1.936,1.936,0,0,0-.268.112,2.494,2.494,0,0,0-.278.161.207.207,0,1,1-.209-.357" transform="translate(104.968 -34.401)" fill="#221f4a"/>
            <path id="Path_997827" data-name="Path 997827" d="M164.688,70.571a7.675,7.675,0,0,1,2.689-.008.692.692,0,0,1,.411.316.705.705,0,0,1,.069.53.7.7,0,0,1-.317.411.78.78,0,0,1-.53.069c-.089-.015-.177-.029-.266-.041l.183.024a6.8,6.8,0,0,0-1.747,0l.183-.025q-.156.021-.311.05a.747.747,0,0,1-.531-.069.688.688,0,0,1,.165-1.258" transform="translate(103.822 -31.666)" fill="#221f4a"/>
            <path id="Path_997828" data-name="Path 997828" d="M180.691,72.17a7.675,7.675,0,0,1,2.689-.008.692.692,0,0,1,.411.316.705.705,0,0,1,.069.53.7.7,0,0,1-.317.411.781.781,0,0,1-.53.069c-.089-.015-.177-.029-.266-.041l.183.024a6.791,6.791,0,0,0-1.746,0l.183-.025q-.156.021-.31.05a.747.747,0,0,1-.531-.069.688.688,0,0,1,.165-1.258" transform="translate(79.009 -32.385)" fill="#221f4a"/>
            <path id="Path_997829" data-name="Path 997829" d="M196.281,83.29a3.476,3.476,0,0,1,3.108.3l.389,5.14a3.565,3.565,0,0,1-3.2.112,3.352,3.352,0,0,1-1.843-2.705,2.957,2.957,0,0,1,1.545-2.845" transform="translate(55.115 -37.327)" fill="#c25a41"/>
            <path id="Path_997830" data-name="Path 997830" d="M198.984,87.761c-.008-.035-.018-.069-.029-.1-.006-.017-.012-.034-.019-.051a.123.123,0,0,0-.01-.026c.025.03.008.019,0,0a1.62,1.62,0,0,0-.123-.217l-.035-.05c-.008-.011-.046-.058-.014-.02-.029-.034-.056-.069-.086-.1a1.9,1.9,0,0,0-.2-.189l-.025-.021c-.023-.019.027.02,0,0l-.053-.039c-.039-.027-.078-.053-.119-.077s-.083-.047-.125-.069l-.061-.029-.031-.014c-.023-.01.031.012-.005,0a1.87,1.87,0,0,0-.277-.083l-.068-.012c-.039-.007,0,0,0,0l-.035,0c-.052,0-.1-.008-.157-.008a1.551,1.551,0,0,0-.16.008c-.04,0-.007,0,0,0l-.054.009-.081.017a1.553,1.553,0,0,0-.172.052l-.036.014c-.059.023.035-.017-.024.01l-.091.045a.206.206,0,1,1-.209-.356,1.771,1.771,0,0,1,1.389-.117,2.147,2.147,0,0,1,1.035.766,1.585,1.585,0,0,1,.268.56.206.206,0,1,1-.4.11" transform="translate(54.479 -38.762)" fill="#972824"/>
            <path id="Path_997831" data-name="Path 997831" d="M179.756,106.27a7.969,7.969,0,0,1-5.036-1.127,7.857,7.857,0,0,1-1.189-.9c-.2-.179.1-.471.292-.292a7.52,7.52,0,0,0,5.933,1.9.208.208,0,0,1,.206.206.211.211,0,0,1-.206.206" transform="translate(86.635 -46.702)" fill="#972824"/>
            <path id="Path_997832" data-name="Path 997832" d="M170.456,81.27l.261,1.4.128.688a5.4,5.4,0,0,0,.133.691c.043.134.216.119.331.114a1.65,1.65,0,0,1,.486.015.54.54,0,0,1,.393.329.642.642,0,0,1-.1.563c-.137.212-.308.406-.462.606l-.5.642a.208.208,0,0,1-.292,0,.211.211,0,0,1,0-.292c.272-.353.548-.7.817-1.058.056-.073.224-.263.126-.355-.078-.072-.243-.053-.337-.047-.347.024-.723-.006-.853-.388a4.729,4.729,0,0,1-.127-.64l-.124-.664q-.14-.747-.279-1.5a.212.212,0,0,1,.144-.254.208.208,0,0,1,.254.144" transform="translate(96.259 -36.463)" fill="#221f4a"/>
            <path id="Path_997833" data-name="Path 997833" d="M173.57,91.619a.747.747,0,0,1,.44-.374.98.98,0,0,1,.672.179l2.264,1.253.219.484a2.413,2.413,0,0,1-1.649,1.037,2,2,0,0,1-1.789-.7,1.708,1.708,0,0,1-.157-1.881" transform="translate(89.493 -41.008)" fill="#972824"/>
            <path id="Path_997834" data-name="Path 997834" d="M153,63.955a10.5,10.5,0,0,0-.758-1.332,11.236,11.236,0,0,1-1.713-5.713,5.882,5.882,0,0,1,2.31-4.748c1.06-.8,4.353-.672,4.353-.672s2.045-3.435,3.488-4.567a11.735,11.735,0,0,1,5.483-2.56,6.708,6.708,0,0,1,5.66,1.683,6.31,6.31,0,0,0,1.151,1.076,5.037,5.037,0,0,0,2.812.288,6.722,6.722,0,0,1,5.523,2.145c1.292,1.59,1.344,4.222-.225,5.539-.65.546-1.587.956-1.7,1.8a3.635,3.635,0,0,0,.428,1.587,3.147,3.147,0,0,1-.493,2.9,3.235,3.235,0,0,1-2.682,1.089l-.056-1.359s-.248-5.262-1.693-4.432c-3.133,1.8-5.759.265-7.345-.809a5.2,5.2,0,0,0-2.972-.7,4.48,4.48,0,0,0-4.619,4.308c-.238,2.62.342,6.233.073,7.687-.068.369-.083,1.487-1.373,1.487,0,0-.468.3-.92-.885s-1.043-2.438-3.622-1.7Z" transform="translate(96.948 -19.907)" fill="#221f4a"/>
            <path id="Path_997835" data-name="Path 997835" d="M214.441,192.218a62.511,62.511,0,0,1-12.979-5.254c-3.839-2.111-7.724-4.241-11.954-5.378-1.653-.444-3.572-.686-4.944.338a4.207,4.207,0,0,0-1.374,4.047,10.243,10.243,0,0,0,1.894,4.035,8.572,8.572,0,0,0,3.571,3.332,9.582,9.582,0,0,0,3.738.443c4.312-.062,18.1-1.44,22.417-1.5" transform="translate(46.472 -81.45)" fill="#17428d"/>
            <path id="Path_997836" data-name="Path 997836" d="M186.517,351.155l-5.278,9.211,22.6,8.625,5.636-12.594Z" transform="translate(52.848 -157.842)" fill="#c25a41"/>
            <path id="Path_997837" data-name="Path 997837" d="M215.6,392.111s3.1-8.118-6.058-13.717l2-3.223-22.212-9.4-6.586,12.273Z" transform="translate(45.382 -164.412)" fill="#4f5dc3"/>
            <path id="Path_997838" data-name="Path 997838" d="M191.42,393.448a35.261,35.261,0,0,0-5.679.4.214.214,0,0,1-.254-.144.208.208,0,0,1,.144-.254,36.012,36.012,0,0,1,5.789-.417.207.207,0,0,1,0,.413" transform="translate(68.365 -176.666)" fill="#221f4a"/>
            <path id="Path_997839" data-name="Path 997839" d="M194.313,390.452l-5.269.693a.207.207,0,0,1-.206-.206.212.212,0,0,1,.206-.206l5.269-.693a.208.208,0,0,1,.206.206.212.212,0,0,1-.206.206" transform="translate(63.617 -175.32)" fill="#221f4a"/>
            <path id="Path_997840" data-name="Path 997840" d="M185.086,203.878s8.981,41.27,9.332,47.136c.344,5.76-18.62,48.583-19.028,48.462l-23.38-11.158s19.8-35.341,19.522-38.7-6.4-25.747-6.4-25.747l.744-19.074Z" transform="translate(83.988 -91.642)" fill="#221f4a"/>
            <path id="Path_997841" data-name="Path 997841" d="M297.279,365.671,288.9,380.765,270.789,367.5l7.173-12.071Z" transform="translate(-84.259 -159.764)" fill="#c25a41"/>
            <path id="Path_997842" data-name="Path 997842" d="M284.93,382.034s4.766-6.506,13.744-2.194l1.506-3.18L318.7,389.233l-6.244,11.321Z" transform="translate(-113.468 -169.307)" fill="#4f5dc3"/>
            <path id="Path_997843" data-name="Path 997843" d="M324.786,377.671a33.036,33.036,0,0,1,2.571,4.675.213.213,0,0,1-.074.282.208.208,0,0,1-.282-.074,32.947,32.947,0,0,0-2.571-4.675c-.146-.222.211-.429.357-.209" transform="translate(-143.87 -169.719)" fill="#221f4a"/>
            <path id="Path_997844" data-name="Path 997844" d="M321.566,378.782l2.117,4.456a.212.212,0,0,1-.074.282.208.208,0,0,1-.282-.074l-2.117-4.456a.213.213,0,0,1,.074-.283.208.208,0,0,1,.282.074" transform="translate(-138.43 -170.215)" fill="#221f4a"/>
            <path id="Path_997845" data-name="Path 997845" d="M239.793,186.373l-9.957,21.4c-11.863,28.577-27.736,55.836-39.874,79.9.588.021,20.537,12.893,20.537,12.893,11.256-21.481,24.04-42.378,34.417-68.074l13.211-28.81,2-7.2c-8.285-4.065-15.567-8.672-20.331-10.1" transform="translate(-2.607 -83.774)" fill="#221f4a"/>
            <path id="Path_997846" data-name="Path 997846" d="M203.477,177.767c-.157,1.218-9.511,2.024-13.785.746s-7.55-3.476-11.534-5.484-8.309-5.226-12.706-5.977a9.5,9.5,0,0,0-3.857.309c-1,.35-1.268,2.027-1.234,3.086-1.718-1.519-.963-4.407.865-6.093,1.5-1.383,3.967-1.064,5.677-2.176,1.607-1.044,2.329-2.992,2.95-4.806,1.386-4.05,2.236-8.863,3.621-12.913l31.064,6.454-2.246,23.568a3.2,3.2,0,0,1,1.185,3.288" transform="translate(69.805 -64.933)" fill="#26c7ff"/>
            <path id="Path_997847" data-name="Path 997847" d="M152.339,118.266a32.086,32.086,0,0,1,6.616-3.284l.829-.172a14.952,14.952,0,0,1,2.189-.288l5.478-.318c.413,3.873,9.25,1.13,11.769-.418l12.048,1.475-6.021,37.031L158.82,149.8c-.426-2.775-1.076-6.225-1.788-12.878Z" transform="translate(86.96 -51.147)" fill="#26c7ff"/>
            <path id="Path_997848" data-name="Path 997848" d="M138.749,120.846l-9.124,17.4-16.161-3.859,1.96-18.319a12.268,12.268,0,0,1,5.061,1.273c2.333,1.255,18.264,3.5,18.264,3.5" transform="translate(160.88 -52.173)" fill="#26c7ff"/>
            <path id="Path_997849" data-name="Path 997849" d="M157.916,118.913a10.877,10.877,0,0,0-4.022,5.861,10.451,10.451,0,0,0-.352,2.043c-.019.264-.432.266-.413,0a11.33,11.33,0,0,1,2.97-6.834,11.032,11.032,0,0,1,1.608-1.427c.215-.156.421.2.209.357" transform="translate(119.788 -53.273)" fill="#221f4a"/>
            <path id="Path_997850" data-name="Path 997850" d="M227.766,117.159l-2.089,18.566c-3.728,1.009-7.313,5.25-11.174,5.356-.6-5.406-1.763-11.139-2.363-16.545,5.518-1.451,10.107-5.925,15.626-7.377" transform="translate(17.542 -52.662)" fill="#26c7ff"/>
            <path id="Path_997851" data-name="Path 997851" d="M215.009,140.583a47.626,47.626,0,0,0,1.942-14.847.207.207,0,0,1,.413,0,48,48,0,0,1-1.957,14.957.207.207,0,0,1-.4-.11" transform="translate(26.351 -56.428)" fill="#221f4a"/>
            <path id="Path_997852" data-name="Path 997852" d="M181.852,196.663a25.8,25.8,0,0,1-14.429-1.092,25.472,25.472,0,0,1-3.757-1.78.207.207,0,0,1,.209-.357,25.407,25.407,0,0,0,13.794,3.356,24.752,24.752,0,0,0,4.074-.525c.259-.056.37.342.11.4" transform="translate(90.047 -86.934)" fill="#221f4a"/>
            <path id="Path_997853" data-name="Path 997853" d="M195.269,231.429a68.646,68.646,0,0,0,5.355-14.437.207.207,0,0,1,.4.11,69.116,69.116,0,0,1-5.4,14.536c-.12.237-.476.028-.357-.209" transform="translate(53.58 -97.47)" fill="#4f5dc3"/>
            <path id="Path_997854" data-name="Path 997854" d="M429.361,182.16l10.13,16.184-8.67,6.685-11.15-17.3Z" transform="translate(-308.431 -81.88)" fill="#ffb498"/>
            <path id="Path_997855" data-name="Path 997855" d="M492.52,352.029l-9.852,10.1,18.034,12.8,9.618-9.785Z" transform="translate(-413.939 -158.235)" fill="#ffb498"/>
            <path id="Path_997856" data-name="Path 997856" d="M523.215,398.088s4.6-6.479-2.229-13.527l2.5-2.4-17.517-13.4-8.635,9.36Z" transform="translate(-436.425 -165.758)" fill="#4f5dc3"/>
            <path id="Path_997857" data-name="Path 997857" d="M502.361,402.9a32.212,32.212,0,0,0-5.115-.94.212.212,0,0,1-.206-.206.208.208,0,0,1,.206-.206,32.933,32.933,0,0,1,5.225.955.207.207,0,0,1-.11.4" transform="translate(-414.148 -180.492)" fill="#221f4a"/>
            <path id="Path_997858" data-name="Path 997858" d="M504.358,399.775l-4.823-.591a.213.213,0,0,1-.206-.206.208.208,0,0,1,.206-.206l4.823.591a.213.213,0,0,1,.206.206.208.208,0,0,1-.206.206" transform="translate(-417.356 -179.245)" fill="#221f4a"/>
            <path id="Path_997859" data-name="Path 997859" d="M514.465,101.719c-2.073,4.45-9.459,8.912-12.831,9.611-2.632.546-5.272-.96-7.96-.918a7.162,7.162,0,0,0-6.606,5.122,2.32,2.32,0,0,0-3.035-.985,4.827,4.827,0,0,0-2.279,2.625c-2.045,4.666-.534,10.387,2.883,14.166s8.428,5.811,13.464,6.582c9.531,1.46,19.988-.075,28.8-9.422" transform="translate(-429.511 -45.722)" fill="#221f4a"/>
            <path id="Path_997860" data-name="Path 997860" d="M483.1,115.477c.591-4.424,2.52-7.14,2.231-11.6s-1.306-6.731-4-10.106-6.147-5.006-11.008-4.787c-5.686,0-9.681,4.131-11.758,7.862a25.75,25.75,0,0,0-2.886,12.534,13.1,13.1,0,0,0,10.607,12.688c8.362.137,13.255,10.478,14.527,2.21.07-.456,1.255-1.776,1.332-2.189.454-2.434.848-5.8.957-6.613" transform="translate(-374.119 -39.99)" fill="#221f4a"/>
            <path id="Path_997861" data-name="Path 997861" d="M485.912,132.368v9.226H475.365V129.305Z" transform="translate(-385.511 -58.122)" fill="#ffb498"/>
            <path id="Path_997862" data-name="Path 997862" d="M474.805,119.055a8.335,8.335,0,0,0,6.8-8.592,83.4,83.4,0,0,0-.532-10.108c-.551-5.158-4.423-7.288-9.942-7.175l-.549.011c-5.906.445-9.619,3.648-9,9.18l.662,5.329s-.486,11.637,12.549,11.362" transform="translate(-373.582 -41.882)" fill="#ffb498"/>
            <path id="Path_997863" data-name="Path 997863" d="M466.877,115.93a.8.8,0,0,1-.766.822.773.773,0,0,1-.852-.7.805.805,0,0,1,.765-.824.774.774,0,0,1,.853.7" transform="translate(-360.914 -51.792)" fill="#221f4a"/>
            <path id="Path_997864" data-name="Path 997864" d="M480.461,116.875a.8.8,0,0,1-.766.822.773.773,0,0,1-.852-.7.8.8,0,0,1,.765-.823.774.774,0,0,1,.853.7" transform="translate(-381.976 -52.217)" fill="#221f4a"/>
            <path id="Path_997865" data-name="Path 997865" d="M480.259,112.809a2.6,2.6,0,0,1,2.617-.117" transform="translate(-385.17 -50.52)" fill="none" stroke="#221f4a" stroke-linecap="round" stroke-linejoin="round" stroke-width="1"/>
            <path id="Path_997866" data-name="Path 997866" d="M465.026,112.213a2.6,2.6,0,0,1,2.617-.117" transform="translate(-361.551 -50.252)" fill="none" stroke="#221f4a" stroke-linecap="round" stroke-linejoin="round" stroke-width="1"/>
            <path id="Path_997867" data-name="Path 997867" d="M466.253,107.068a6.115,6.115,0,0,1,2.147-.007" transform="translate(-362.983 -48.082)" fill="none" stroke="#221f4a" stroke-linecap="round" stroke-linejoin="round" stroke-width="3"/>
            <path id="Path_997868" data-name="Path 997868" d="M481.044,108.545a6.1,6.1,0,0,1,2.147-.008" transform="translate(-385.917 -48.746)" fill="none" stroke="#221f4a" stroke-linecap="round" stroke-linejoin="round" stroke-width="3"/>
            <path id="Path_997869" data-name="Path 997869" d="M473.346,106.189c2.876.444,6.4-4.334,9.135-7.373,2-2.225,4.339-5.321,4.926-8.325,0,0-6.584-3.644-11.941.126s-5.686,10.638-5.686,10.638Z" transform="translate(-383.932 -39.964)" fill="#221f4a"/>
            <path id="Path_997870" data-name="Path 997870" d="M494.757,117.7a3.218,3.218,0,0,1,2.874.275l.358,4.751a3.3,3.3,0,0,1-2.957.1,3.1,3.1,0,0,1-1.7-2.5,2.734,2.734,0,0,1,1.428-2.629" transform="translate(-407.474 -52.801)" fill="#ffb498"/>
            <path id="Path_997871" data-name="Path 997871" d="M497.595,121.934a1.6,1.6,0,0,0-2.207-1" transform="translate(-408.217 -54.282)" fill="none" stroke="#ff7a6a" stroke-linecap="round" stroke-linejoin="round" stroke-width="1"/>
            <path id="Path_997872" data-name="Path 997872" d="M479.635,138.9a7.164,7.164,0,0,1-5.618-1.815" transform="translate(-378.493 -61.618)" fill="none" stroke="#ff7a6a" stroke-linecap="round" stroke-linejoin="round" stroke-width="1"/>
            <path id="Path_997873" data-name="Path 997873" d="M470.89,115.813l.241,1.294q.059.318.118.636.029.154.057.307a1.929,1.929,0,0,0,.066.332c.043.113.189.1.291.094a1.544,1.544,0,0,1,.453.014.516.516,0,0,1,.374.315.608.608,0,0,1-.1.532c-.127.2-.286.378-.429.563l-.459.593a.207.207,0,0,1-.292,0,.212.212,0,0,1,0-.292c.252-.326.508-.649.755-.978.046-.061.2-.23.117-.306s-.22-.045-.3-.039c-.33.023-.679-.01-.8-.37a4.275,4.275,0,0,1-.117-.591q-.057-.307-.115-.614-.128-.69-.257-1.382a.212.212,0,0,1,.144-.254.208.208,0,0,1,.254.144" transform="translate(-369.433 -51.99)" fill="#221f4a"/>
            <path id="Path_997874" data-name="Path 997874" d="M473.746,125.515a.719.719,0,0,1,.423-.36.947.947,0,0,1,.647.173L477,126.535l.21.466a2.324,2.324,0,0,1-1.588,1,1.922,1.922,0,0,1-1.723-.673,1.645,1.645,0,0,1-.151-1.812" transform="translate(-375.804 -56.251)" fill="#ff7a6a"/>
            <path id="Path_997875" data-name="Path 997875" d="M404.184,408.279a18.964,18.964,0,0,0,8.749.45,28.606,28.606,0,0,0,9.215-3.769,11.333,11.333,0,0,0,5.084-5.438,20.553,20.553,0,0,0-12.368.089,20.928,20.928,0,0,0-10.327,7.013" transform="translate(-287.646 -179.174)" fill="#4f5dc3"/>
            <path id="Path_997876" data-name="Path 997876" d="M403.8,384.8l6,18.061,22.141-9.135L427.577,379.4Z" transform="translate(-292.139 -170.538)" fill="#ffb498"/>
            <path id="Path_997877" data-name="Path 997877" d="M414.568,414.074s-3.283-7.954-13.683-5.769l-.752-3.678-22.392,8.315,3.591,13.318Z" transform="translate(-260.424 -181.878)" fill="#4f5dc3"/>
            <path id="Path_997878" data-name="Path 997878" d="M396.863,408.69A35.135,35.135,0,0,0,393.8,411.9q-.4.483-.792.98a.207.207,0,0,1-.292,0,.211.211,0,0,1,0-.292,35.008,35.008,0,0,1,2.944-3.319q.447-.444.91-.871c.195-.181.487.111.292.292" transform="translate(-250.996 -183.547)" fill="#221f4a"/>
            <path id="Path_997879" data-name="Path 997879" d="M400.81,408.818l-2.585,3.169-.742.91a.208.208,0,0,1-.292,0,.211.211,0,0,1,0-.292l2.585-3.169.742-.909a.208.208,0,0,1,.292,0,.211.211,0,0,1,0,.292" transform="translate(-257.401 -183.603)" fill="#221f4a"/>
            <path id="Path_997880" data-name="Path 997880" d="M493.743,225.081c-4.266,2.083-8.576,4.182-13.2,5.27s-9.646,1.093-13.946-.919c-1.543-.722-3.1-1.89-3.349-3.575a4.057,4.057,0,0,1,1.883-3.753,9.161,9.161,0,0,1,4.178-1.318c6.746-.783,13.486,1.092,20.019,2.949" transform="translate(-386.655 -99.16)" fill="#4f5dc3"/>
            <path id="Path_997881" data-name="Path 997881" d="M423.976,208.193l4.772,16.969c6.019,31.08,14.19,62.175,21.414,88.784-8.216.23-18.468,3.8-24.42,8.823-6.87-23.844-14.267-50.6-17.283-74.84L404.029,216l11.185-4.412Z" transform="translate(-310.49 -93.582)" fill="#221f4a"/>
            <path id="Path_997882" data-name="Path 997882" d="M443.407,232.442c2.324-6.672,8.814-14.834,8.814-14.834l18.441,4.675-3.351,10.9,16.7,23.276a17.378,17.378,0,0,1-.626,21.08l-28.676,35.337L437.15,298.419l25.827-32.192L446.634,246.35s-5.551-7.236-3.227-13.908" transform="translate(-365.827 -97.814)" fill="#221f4a"/>
            <path id="Path_997883" data-name="Path 997883" d="M435.421,328.04,465,292.009a16.882,16.882,0,0,0,3.792-8.463,12.569,12.569,0,0,0-2.247-9.424c-5.309-7.128-17.072-22.776-17.072-22.776" transform="translate(-346.542 -112.979)" fill="none" stroke="#4f5dc3" stroke-miterlimit="10" stroke-width="1"/>
            <path id="Path_997884" data-name="Path 997884" d="M335.882,247.475l71.606-11.443-.791-4.95a8.288,8.288,0,0,0-9.492-6.876l-55.238,8.828a8.288,8.288,0,0,0-6.876,9.492Z" transform="translate(-229.808 -100.732)" fill="#ff6854"/>
            <path id="Path_997885" data-name="Path 997885" d="M354.182,228.245,409.54,219.4,409,216.026a5.648,5.648,0,0,0-6.468-4.685l-44.205,7.065a5.647,5.647,0,0,0-4.685,6.468Z" transform="translate(-242.091 -94.964)" fill="#ff6854"/>
            <path id="Path_997886" data-name="Path 997886" d="M369.142,180.441c12.477-16.183,7.633-51.2,7.633-51.2l11.179-1.786c6.279,31.489,22.007,46.46,22.007,46.46Z" transform="translate(-251.084 -57.291)" fill="#ff6854"/>
            <path id="Path_997887" data-name="Path 997887" d="M403.035,127.534l16.123-2.577a3.031,3.031,0,0,0,2.515-3.471l-.014-.083a3.03,3.03,0,0,0-3.471-2.515l-16.123,2.576a3.031,3.031,0,0,0-2.515,3.471l.013.083a3.031,3.031,0,0,0,3.471,2.515" transform="translate(-279.552 -53.422)" fill="#ff6854"/>
            <path id="Path_997888" data-name="Path 997888" d="M404.13,101.649a10.244,10.244,0,1,0,8.5-11.732,10.244,10.244,0,0,0-8.5,11.732" transform="translate(-284.803 -40.359)" fill="#ff6854"/>
            <path id="Path_997889" data-name="Path 997889" d="M419.445,130.146l-5,.781-7.98,1.245-1.839.287c-.26.041-.372-.357-.11-.4l5-.781,7.98-1.245,1.839-.287c.26-.041.372.357.11.4" transform="translate(-280.107 -58.32)" fill="#221f4a"/>
            <path id="Path_997890" data-name="Path 997890" d="M421.833,119.138l-5.01.782-7.983,1.246-1.829.285c-.26.041-.372-.357-.11-.4l5.01-.782,7.983-1.246,1.829-.285c.26-.041.372.357.11.4" transform="translate(-283.809 -53.372)" fill="#221f4a"/>
            <path id="Path_997891" data-name="Path 997891" d="M408.1,224.359l-1.453.22-3.956.6-5.851.886-7.138,1.081-7.818,1.184-7.858,1.19-7.36,1.115-6.22.941-4.473.678c-.706.107-1.412.216-2.119.321l-.091.014c-.26.039-.372-.359-.11-.4l1.453-.22,3.956-.6,5.85-.886,7.138-1.081,7.818-1.184,7.857-1.19,7.36-1.114,6.221-.942,4.473-.677c.706-.107,1.413-.216,2.119-.321l.091-.014c.26-.04.372.358.11.4" transform="translate(-240.759 -100.668)" fill="#221f4a"/>
            <path id="Path_997892" data-name="Path 997892" d="M409.876,211.606l-16.009,2.5-16.076,2.514-9.022,1.411c-.26.041-.372-.357-.11-.4l16.009-2.5,16.077-2.514,9.022-1.41c.26-.041.372.357.11.4" transform="translate(-250.799 -94.935)" fill="#221f4a"/>
            <path id="Path_997893" data-name="Path 997893" d="M486.192,203.841c.188,1.146-7.29,3.737-11.509,3.739a71.839,71.839,0,0,1-12.537-1.606,42.588,42.588,0,0,0-12.581-.842,5.972,5.972,0,0,0-2.828.911,2.444,2.444,0,0,0-1.029,2.612,3.856,3.856,0,0,1-1.439-5.51c1.131-1.563,3.306-2.04,4.554-3.511,1.174-1.383,1.2-2.993.744-5.7-.672-3.993.248-8.1.405-12.141l29.9-2.577,4.357,21.965a3.029,3.029,0,0,1,1.965,2.658" transform="translate(-368.329 -80.558)" fill="#abacff"/>
            <path id="Path_997894" data-name="Path 997894" d="M488.893,149.36a10.451,10.451,0,0,0-3.8-1.675l-.784-.163a14.17,14.17,0,0,0-2.071-.272l-4.978-.294c-.391,3.663-8.164,1.089-10.547-.374-6.22.761-13.391,4.091-12.386,10.277l4.225,25.113,26.668-1.353c.4-2.625,1.018-5.888,1.691-12.181Z" transform="translate(-376.859 -65.888)" fill="#abacff"/>
            <path id="Path_997895" data-name="Path 997895" d="M439.51,151.628c4.11,1.841,9.773,12.386,11.994,17.306l-12.989,8.336a56.986,56.986,0,0,1-6.07-10.5Z" transform="translate(-327.475 -68.156)" fill="#abacff"/>
            <path id="Path_997896" data-name="Path 997896" d="M454.235,180.249c-.378-2.83-.878-5.645-1.327-8.465-.521-3.27-1.035-6.547-1.375-9.841a31.713,31.713,0,0,1-.232-4.119.207.207,0,0,1,.413,0,29.3,29.3,0,0,0,.177,3.57c.15,1.577.353,3.149.572,4.718.465,3.313,1.013,6.614,1.543,9.917.226,1.4.453,2.81.641,4.22.035.263-.378.26-.413,0" transform="translate(-340.999 -70.851)" fill="#221f4a"/>
            <path id="Path_997897" data-name="Path 997897" d="M484.976,218.643a23.582,23.582,0,0,1,14.809,1.377c.242.107.033.462-.209.356a23.117,23.117,0,0,0-14.49-1.336c-.258.061-.369-.337-.11-.4" transform="translate(-404.7 -98.004)" fill="#221f4a"/>
            <path id="Path_997898" data-name="Path 997898" d="M442.676,170.789l30.38,38.577-7.392,6.31-30.631-33.6Z" transform="translate(-350.453 -76.769)" fill="#ffb498"/>
            <path id="Path_997899" data-name="Path 997899" d="M433.234,248.863s1.683-1.179-.612-4.7-7.535-3.3-7.535-3.3l-1.228-1.592-8.041,5.77s7.248,8.823,8.792,9.7a2.177,2.177,0,0,0,2.657-.285c1.476.359,1.807-.705,1.807-.705a1.459,1.459,0,0,0,1.759-.76s2,2.195,3.732.807c1.456-1.165-1.331-4.937-1.331-4.937" transform="translate(-301.803 -107.55)" fill="#ffb498"/>
            <path id="Path_997900" data-name="Path 997900" d="M418.58,251l3.089,3.454" transform="translate(-290.008 -112.824)" fill="none" stroke="#ff7a6a" stroke-linecap="round" stroke-linejoin="round" stroke-width="1"/>
            <path id="Path_997901" data-name="Path 997901" d="M423,261.819l1.284,1.446" transform="translate(-295.053 -117.686)" fill="none" stroke="#ff7a6a" stroke-linecap="round" stroke-linejoin="round" stroke-width="1"/>
            <path id="Path_997902" data-name="Path 997902" d="M499.42,169.354l-13.206,9.881s-8.535-12.514-9.228-14.7c-1.273-4.005-1.869-9.4,3.62-12.486,5.073-2.854,18.814,17.3,18.814,17.3" transform="translate(-399.438 -68.223)" fill="#abacff"/>
            <path id="Path_997903" data-name="Path 997903" d="M478.382,151.591c3.054-1.318,6.066.5,8.289,2.545a48.213,48.213,0,0,1,7.479,9.589c1.122,1.739,2.2,3.506,3.328,5.241a.211.211,0,0,1-.074.282L492.88,172.5l-7.208,5.181-1.65,1.187a.209.209,0,0,1-.282-.074l-2.694-4.162-4.274-6.6-.989-1.527c-.145-.224.213-.431.357-.209l2.694,4.162,4.275,6.6.988,1.527-.282-.074,4.525-3.252,7.208-5.181,1.65-1.186c-.025.094-.05.188-.074.282-2.052-3.157-3.971-6.4-6.187-9.447a39.1,39.1,0,0,0-3.75-4.519,14.484,14.484,0,0,0-4-3.033,5.512,5.512,0,0,0-4.591-.228c-.242.1-.452-.252-.209-.357" transform="translate(-397.318 -67.938)" fill="#221f4a"/>
            <path id="Path_997904" data-name="Path 997904" d="M91.992,410.943h12.76a2.3,2.3,0,0,0,2.3-2.3V371.773a2.3,2.3,0,0,0-2.3-2.3H91.992a2.3,2.3,0,0,0-2.3,2.3v36.865a2.305,2.305,0,0,0,2.3,2.3" transform="translate(205.662 -166.074)" fill="#ff6854"/>
            <path id="Path_997905" data-name="Path 997905" d="M131.8,421.941h12.783a2.293,2.293,0,0,0,2.293-2.293V395.786a2.293,2.293,0,0,0-2.293-2.293H131.8a2.293,2.293,0,0,0-2.293,2.293v23.862a2.293,2.293,0,0,0,2.293,2.293" transform="translate(143.919 -176.873)" fill="#ff6854"/>
            <path id="Path_997906" data-name="Path 997906" d="M169.73,430.988h13.586a1.892,1.892,0,0,0,1.892-1.892V415.51a1.892,1.892,0,0,0-1.892-1.892H169.73a1.891,1.891,0,0,0-1.892,1.892V429.1a1.891,1.891,0,0,0,1.892,1.892" transform="translate(84.488 -185.919)" fill="#ff6854"/>
            <path id="Path_997907" data-name="Path 997907" d="M361.868,444.845H.2a.207.207,0,0,1,0-.413H361.868a.207.207,0,0,1,0,.413" transform="translate(0.024 -199.77)" fill="#221f4a"/>
            <path id="Path_997908" data-name="Path 997908" d="M615.011,407.165c-8-4.161-10.926-11.188-11.256-18.763a.814.814,0,0,1,1.159-.776,19.988,19.988,0,0,1,10.376,12.212,10.57,10.57,0,0,1-.054,7.094" transform="translate(-586.157 -174.199)" fill="#00b557"/>
            <path id="Path_997909" data-name="Path 997909" d="M608.824,425.151a45.443,45.443,0,0,0-7.584-23.1c-.148-.222.21-.429.356-.209a45.9,45.9,0,0,1,7.64,23.308c.012.266-.4.265-.413,0" transform="translate(-578.113 -180.584)" fill="#221f4a"/>
            <path id="Path_997910" data-name="Path 997910" d="M576.064,417.661c-.593-1.707.513-3.54,1.5-5.053a13.358,13.358,0,0,1,10.758-5.953,1.049,1.049,0,0,1,1.233,1.556c-1.628,5.037-8.249,8.841-13.491,9.579" transform="translate(-544.628 -182.789)" fill="#00b557"/>
            <path id="Path_997911" data-name="Path 997911" d="M590.7,424.427a18.861,18.861,0,0,1,4.8-6.721,9.515,9.515,0,0,1,1.979-1.279c.239-.113.449.243.209.357-2.525,1.2-4.32,3.572-5.66,5.949q-.525.931-.972,1.9c-.112.241-.468.031-.357-.209" transform="translate(-560.874 -187.172)" fill="#221f4a"/>
            <path id="Path_997912" data-name="Path 997912" d="M23.539,417.653c7.5-3.9,10.538-10.315,11.162-17.34a1.585,1.585,0,0,0-2.366-1.508,20,20,0,0,0-9.075,11.521,10.571,10.571,0,0,0,.054,7.095" transform="translate(314.903 -179.164)" fill="#00b557"/>
            <path id="Path_997913" data-name="Path 997913" d="M32.5,429.907a46.254,46.254,0,0,1,4.851-14.3q1.029-1.919,2.238-3.732c.146-.22.5-.013.357.209a45.65,45.65,0,0,0-6.157,13.735q-.543,2.077-.89,4.2c-.043.261-.441.151-.4-.11" transform="translate(304.228 -185.093)" fill="#221f4a"/>
            <path id="Path_997914" data-name="Path 997914" d="M60.967,427.7c.593-1.707-.513-3.54-1.5-5.053a13.356,13.356,0,0,0-10.758-5.953,1.049,1.049,0,0,0-1.233,1.556c1.628,5.037,8.249,8.841,13.491,9.579" transform="translate(274.894 -187.299)" fill="#00b557"/>
            <path id="Path_997915" data-name="Path 997915" d="M51.423,434.669a18.721,18.721,0,0,0-4.669-6.581,9.176,9.176,0,0,0-1.963-1.271c-.24-.114-.031-.47.208-.357,2.575,1.219,4.424,3.649,5.795,6.073.355.628.683,1.272.986,1.927.111.24-.245.45-.357.209" transform="translate(285.692 -191.682)" fill="#221f4a"/>
            <path id="Path_997916" data-name="Path 997916" d="M50.162,425.06A51.27,51.27,0,0,0,46.6,410.277q-.825-2.033-1.826-3.986c-.121-.237.236-.445.357-.209a51.632,51.632,0,0,1,4.886,14.646q.372,2.154.562,4.333c.023.265-.39.263-.413,0" transform="translate(286.883 -182.485)" fill="#221f4a"/>
          </g>
        </g>
      </g>
    </g>
  </g>
</svg>
