<svg xmlns="http://www.w3.org/2000/svg" xmlns:xlink="http://www.w3.org/1999/xlink" width="96" height="96" viewBox="0 0 96 96">
  <defs>
    <clipPath id="clip-path">
      <rect id="Rectangle_454533" data-name="Rectangle 454533" width="96" height="96" fill="none"/>
    </clipPath>
    <clipPath id="clip-path-2">
      <path id="Path_991615" data-name="Path 991615" d="M36.734,1.8C13.921,5.534-1.739,28.323,1.758,52.7S26.586,93.806,49.4,90.07s38.471-26.528,34.973-50.9C81.205,17.082,63.4,1.273,43.119,1.273a39.448,39.448,0,0,0-6.385.523" transform="translate(-1.27 -1.273)" fill="#e8e8ff"/>
    </clipPath>
    <clipPath id="clip-path-4">
      <rect id="Rectangle_455194" data-name="Rectangle 455194" width="59.614" height="59.817" fill="#12263f"/>
    </clipPath>
  </defs>
  <g id="img20" transform="translate(-734.746 -8622)">
    <g id="Group_1177416" data-name="Group 1177416" transform="translate(417.355 847.008)">
      <g id="Group_1177395" data-name="Group 1177395" transform="translate(317.391 7774.993)">
        <g id="Group_1176807" data-name="Group 1176807">
          <g id="Group_1176806" data-name="Group 1176806" clip-path="url(#clip-path)">
            <path id="Path_991613" data-name="Path 991613" d="M5.134,55.231C1.428,30.668,18.021,7.7,42.2,3.936S88.975,17.03,92.681,41.595,79.794,89.123,55.619,92.889,8.84,79.795,5.134,55.231" transform="translate(1.197 0.954)" fill="#12263f"/>
            <path id="Path_991614" data-name="Path 991614" d="M49.137,95.4a45.064,45.064,0,0,1-27.057-9.05,46.437,46.437,0,0,1-18.2-30.519C.046,30.422,17.274,6.579,42.283,2.683,67.311-1.229,90.761,16.289,94.594,41.7a46.886,46.886,0,0,1-8.369,34.656A45.647,45.647,0,0,1,49.137,95.4m.19-90.012A42.714,42.714,0,0,0,42.77,5.9C19.505,9.526,3.481,31.7,7.046,55.341A43.2,43.2,0,0,0,23.977,83.728,41.877,41.877,0,0,0,55.7,91.636a42.3,42.3,0,0,0,27.941-17.2A43.821,43.821,0,0,0,74.5,13.811a41.913,41.913,0,0,0-25.169-8.42" transform="translate(0.867 0.598)" fill="#12263f"/>
          </g>
        </g>
        <g id="Group_1176809" data-name="Group 1176809" transform="translate(2.881 2.063)">
          <g id="Group_1176808" data-name="Group 1176808" clip-path="url(#clip-path-2)">
            <path id="Path_997335" data-name="Path 997335" d="M4.267,4.267,133.134,0l-4.267,128.867L0,133.134Z" transform="translate(-52.344 46.267) rotate(-45)" fill="#e8e8ff"/>
          </g>
        </g>
        <g id="Group_1176811" data-name="Group 1176811">
          <g id="Group_1176810" data-name="Group 1176810" clip-path="url(#clip-path)">
            <path id="Path_991616" data-name="Path 991616" d="M45.794,93.264a45.066,45.066,0,0,1-27.059-9.05A46.431,46.431,0,0,1,.534,53.7C-3.3,28.285,13.929,4.442,38.938.546S87.414,14.153,91.249,39.568s-13.395,49.253-38.4,53.149a45.807,45.807,0,0,1-7.054.548m.188-90.011a42.715,42.715,0,0,0-6.557.511C16.16,7.389.136,29.566,3.7,53.2A43.2,43.2,0,0,0,20.632,81.591,41.938,41.938,0,0,0,52.36,89.5C75.623,85.875,91.645,63.7,88.082,40.06A43.189,43.189,0,0,0,71.15,11.674a41.907,41.907,0,0,0-25.168-8.42" transform="translate(0 0.001)" fill="#12263f"/>
          </g>
        </g>
      </g>
    </g>
    <g id="Group_1190934" data-name="Group 1190934" transform="translate(750 8637)">
      <g id="Group_1190934-2" data-name="Group 1190934" clip-path="url(#clip-path-4)">
        <path id="Path_998446" data-name="Path 998446" d="M192.288,165.925l-.02-2.609c-1.343-.216-2.147-1.325-3.195-1.97-2.24-.081-3.919-1.144-4.417-3.458-.309-1.438.956-2.227,1.18-3.3.294-1.414-.08-2.867,1.143-4.015a4.381,4.381,0,0,1,3.877-1.259,5.083,5.083,0,0,1,9.334,1.264,4.144,4.144,0,0,1,4.555,4.119,4.228,4.228,0,0,1-4.41,4.209,3.618,3.618,0,0,1-3.817,3.191,5.226,5.226,0,0,0-2.521.249c-.413,1.445.508,4.133-.791,4.379a.807.807,0,0,1-.919-.8m2.15-9.256a2.818,2.818,0,0,1-1.977,1.362,3.28,3.28,0,0,1-1.638,2.548,3.075,3.075,0,0,0,1.713,1.077c1.31-2.424,5.7.178,6.207-2.863.366-2.205-2.08-1.683-1.935-2.947.063-.545.513-.66.991-.647,1.283.036,1.651,1.224,2.435,1.834.866.674,2.241-.4,2.588-1.116a2.562,2.562,0,0,0-.331-2.887c-1.89-2.1-3.66.716-3.895-1.805a3.177,3.177,0,0,0-2.92-2.823,3.352,3.352,0,0,0-3.6,2.159c-.511,1.363-2.1-.723-3.856,1.087a2.542,2.542,0,0,0-.439,2.873c.657,1.4-1.394,1.035-1.516,3a2.144,2.144,0,0,0,.854,1.584,2.116,2.116,0,0,0,2.439.293c.477-.214,1.555-.933,1.113-1.518-.638-.844-1.63-1.536-1.322-2.8a.79.79,0,0,1,.871-.573c1.06.168.291,1.631,1.567,1.9,1.293.269,1.383-1.5,2.367-.859a.817.817,0,0,1,.282,1.124" transform="translate(-150.029 -119.271)" fill="#12263f"/>
        <path id="Path_998447" data-name="Path 998447" d="M50.8,55.061c-.454,1.672.48,4.756-1.142,4.756H33.776a.985.985,0,0,1-.826-.358c-.546-.857.941-1.957,1.215-3.473L7.732,55.963a.769.769,0,0,1-.855-.819l-.014-17.4L.151,27.568c-.421-.638.121-1.415.575-1.848l3.831-2.514a1.649,1.649,0,0,1,2.288.586l.04-16.06a.716.716,0,0,1,.64-.7l7.429-.075c.343-1.222-.576-3.453,1.013-3.458L21.9,3.482a4.477,4.477,0,0,1,8.731.006l5.929.022c1.559.006.7,2.2.979,3.5h7.47c.569,0,.8.423.8.981l.014,16.353c7.348.925,12.882,7.266,11.43,14.722l2.078,3.686a1.854,1.854,0,0,1-.858,2.721c-1.931.821.522,2.291-1.608,3.12.9.58.6,1.326.659,2.089a3.516,3.516,0,0,1-3.12,3.994ZM35.877,11.227l-.019-6.065H30.006a.856.856,0,0,1-.888-.755A2.858,2.858,0,0,0,23.4,4.4a.807.807,0,0,1-.886.744l-5.85.021,0,6.081ZM32.241,42.413a11.753,11.753,0,0,1-1.323-7.642l-7.811-.025a.812.812,0,0,1-.712-.972.787.787,0,0,1,.877-.638l7.856-.044c.34,0,.566-.875.421-1.053l-8.269-.026c-.611,0-.941-.368-.9-.882a.775.775,0,0,1,.887-.692l9.309-.033A13.7,13.7,0,0,1,44.22,24.25L44.206,8.6l-6.7.019-.018,3.49a.745.745,0,0,1-.76.744H15.8a.744.744,0,0,1-.76-.753L15,8.6H8.479l0,17.861,2.833,4.163a4.99,4.99,0,0,1,6.015-2.771,4.933,4.933,0,0,1,3.457,5.421,5.079,5.079,0,0,1-4.847,4.3l1.478,2.31a4.949,4.949,0,1,1-6.45,4.054l-2.45-3.585L8.473,54.424,34.75,54.4a13.738,13.738,0,0,0-.548-7.837,5.267,5.267,0,0,1-1.763.206l-9.175-.01a.8.8,0,0,1-.885-.844.858.858,0,0,1,.9-.8l10.266-.025c-.006-.3-.181-.987-.538-.988l-9.729-.04a.828.828,0,0,1-.892-.777.741.741,0,0,1,.7-.819ZM5.335,24.606,1.7,27.014l.676,1.021,3.636-2.409ZM55.919,50.783c-.043-1.8-1.379-1.241-1.309-2.42.046-.785,1.2-.822,1.427-1.23.264-.471-.375-1.729.183-2.261.514-.49,1.28-.52,1.791-1.091l-2.472-4.458a10.222,10.222,0,0,0-2.67-9.833,12.419,12.419,0,0,0-17.184-.312A10.114,10.114,0,0,0,34.1,42.3c2.757,5.082,3.682,10.458.938,15.875l13.894.006c.409-1.134-.252-4.441.784-4.592,1.479-.215,2.954-.379,4.425-.507,1.249-.108,1.811-1,1.78-2.3m-39.968-6.2a16.87,16.87,0,0,0,.161-3.757L6.885,26.992l-3.592,2.4,9.215,13.9Zm-1.28-9.032c1.926,1.108,4.086-.511,4.445-2.207a3.279,3.279,0,0,0-2.885-4.049c-1.822-.187-3.886,1.293-3.53,3.342a11.03,11.03,0,0,0,1.97,2.915m1.806,10.975-3.858-1.353a3.36,3.36,0,0,0,2.922,2.724,3.306,3.306,0,0,0,3.414-2.037,3.241,3.241,0,0,0-1.094-3.9l-.339,4.1c-.036.434-.6.619-1.045.463" transform="translate(0 0)" fill="#12263f"/>
        <path id="Path_998448" data-name="Path 998448" d="M68.359,88.277a4.939,4.939,0,1,1-4.939-4.939,4.939,4.939,0,0,1,4.939,4.939m-1.622,0a3.316,3.316,0,1,0-3.316,3.316,3.316,3.316,0,0,0,3.316-3.316" transform="translate(-47.528 -67.728)" fill="#12263f"/>
        <rect id="Rectangle_455193" data-name="Rectangle 455193" width="19.455" height="1.606" transform="translate(22.376 18.393)" fill="#12263f"/>
        <path id="Path_998449" data-name="Path 998449" d="M130.517,114.222l-10.108.016a.874.874,0,0,1-.928-.794.821.821,0,0,1,.894-.854h10.1a.819.819,0,1,1,.039,1.63" transform="translate(-97.102 -91.501)" fill="#12263f"/>
        <path id="Path_998450" data-name="Path 998450" d="M74.618,167.155a4.9,4.9,0,0,1-1.042-1.445.738.738,0,0,1,.58-.9,1.058,1.058,0,0,1,1.091.554c.692-.409,1.4-2.33,2.377-1.4a.8.8,0,0,1,.051,1.126l-1.689,2.045a.876.876,0,0,1-1.368.019" transform="translate(-59.774 -133.051)" fill="#12263f"/>
        <path id="Path_998451" data-name="Path 998451" d="M74.53,103.031c-.572-.776-1.2-1.166-.918-1.825a.832.832,0,0,1,.711-.474,1.287,1.287,0,0,1,.92.6c.743-.453,1.2-2.02,2.192-1.534a.817.817,0,0,1,.225,1.262l-1.689,2.048a.89.89,0,0,1-1.44-.075" transform="translate(-59.769 -81.029)" fill="#12263f"/>
      </g>
    </g>
  </g>
</svg>
