<svg xmlns="http://www.w3.org/2000/svg" xmlns:xlink="http://www.w3.org/1999/xlink" width="96" height="96" viewBox="0 0 96 96">
  <defs>
    <clipPath id="clip-path">
      <rect id="Rectangle_454533" data-name="Rectangle 454533" width="96" height="96" fill="none"/>
    </clipPath>
    <clipPath id="clip-path-2">
      <path id="Path_991615" data-name="Path 991615" d="M36.734,1.8C13.921,5.534-1.739,28.323,1.758,52.7S26.586,93.806,49.4,90.07s38.471-26.528,34.973-50.9C81.205,17.082,63.4,1.273,43.119,1.273a39.448,39.448,0,0,0-6.385.523" transform="translate(-1.27 -1.273)" fill="#e8e8ff"/>
    </clipPath>
    <clipPath id="clip-path-4">
      <rect id="Rectangle_455198" data-name="Rectangle 455198" width="52.434" height="52.4" fill="#12263f"/>
    </clipPath>
  </defs>
  <g id="img21" transform="translate(-734.746 -8622)">
    <g id="Group_1177416" data-name="Group 1177416" transform="translate(417.355 847.008)">
      <g id="Group_1177395" data-name="Group 1177395" transform="translate(317.391 7774.993)">
        <g id="Group_1176807" data-name="Group 1176807">
          <g id="Group_1176806" data-name="Group 1176806" clip-path="url(#clip-path)">
            <path id="Path_991613" data-name="Path 991613" d="M5.134,55.231C1.428,30.668,18.021,7.7,42.2,3.936S88.975,17.03,92.681,41.595,79.794,89.123,55.619,92.889,8.84,79.795,5.134,55.231" transform="translate(1.197 0.954)" fill="#12263f"/>
            <path id="Path_991614" data-name="Path 991614" d="M49.137,95.4a45.064,45.064,0,0,1-27.057-9.05,46.437,46.437,0,0,1-18.2-30.519C.046,30.422,17.274,6.579,42.283,2.683,67.311-1.229,90.761,16.289,94.594,41.7a46.886,46.886,0,0,1-8.369,34.656A45.647,45.647,0,0,1,49.137,95.4m.19-90.012A42.714,42.714,0,0,0,42.77,5.9C19.505,9.526,3.481,31.7,7.046,55.341A43.2,43.2,0,0,0,23.977,83.728,41.877,41.877,0,0,0,55.7,91.636a42.3,42.3,0,0,0,27.941-17.2A43.821,43.821,0,0,0,74.5,13.811a41.913,41.913,0,0,0-25.169-8.42" transform="translate(0.867 0.598)" fill="#12263f"/>
          </g>
        </g>
        <g id="Group_1176809" data-name="Group 1176809" transform="translate(2.881 2.063)">
          <g id="Group_1176808" data-name="Group 1176808" clip-path="url(#clip-path-2)">
            <path id="Path_997335" data-name="Path 997335" d="M4.267,4.267,133.134,0l-4.267,128.867L0,133.134Z" transform="translate(-52.344 46.267) rotate(-45)" fill="#e8e8ff"/>
          </g>
        </g>
        <g id="Group_1176811" data-name="Group 1176811">
          <g id="Group_1176810" data-name="Group 1176810" clip-path="url(#clip-path)">
            <path id="Path_991616" data-name="Path 991616" d="M45.794,93.264a45.066,45.066,0,0,1-27.059-9.05A46.431,46.431,0,0,1,.534,53.7C-3.3,28.285,13.929,4.442,38.938.546S87.414,14.153,91.249,39.568s-13.395,49.253-38.4,53.149a45.807,45.807,0,0,1-7.054.548m.188-90.011a42.715,42.715,0,0,0-6.557.511C16.16,7.389.136,29.566,3.7,53.2A43.2,43.2,0,0,0,20.632,81.591,41.938,41.938,0,0,0,52.36,89.5C75.623,85.875,91.645,63.7,88.082,40.06A43.189,43.189,0,0,0,71.15,11.674a41.907,41.907,0,0,0-25.168-8.42" transform="translate(0 0.001)" fill="#12263f"/>
          </g>
        </g>
      </g>
    </g>
    <g id="Group_1190935" data-name="Group 1190935" transform="translate(753.746 8639.916)">
      <path id="Path_998452" data-name="Path 998452" d="M131.667,6.775l-5.912-.064L125.749,1.7l16.881-.021.013,5.043-7,.01-3.9,3.192ZM144.321,0,124.087.005l.009,8.457,5.871.022.067,5.087,6.2-5.115,8.1-.009Z" transform="translate(-103.768)" fill="#12263f"/>
      <rect id="Rectangle_455195" data-name="Rectangle 455195" width="6.747" height="1.679" transform="translate(27.063 3.385)" fill="#12263f"/>
      <rect id="Rectangle_455196" data-name="Rectangle 455196" width="1.703" height="1.683" transform="translate(23.668 3.382)" fill="#12263f"/>
      <rect id="Rectangle_455197" data-name="Rectangle 455197" width="1.679" height="1.66" transform="matrix(0.002, -1, 1, 0.002, 35.538, 5.062)" fill="#12263f"/>
      <g id="Group_1190936" data-name="Group 1190936">
        <g id="Group_1190935-2" data-name="Group 1190935" clip-path="url(#clip-path-4)">
          <path id="Path_998453" data-name="Path 998453" d="M42.392,108.6l.657,6.858,9.342.026a5.933,5.933,0,0,1-.034,1.667H.075a5.935,5.935,0,0,1-.033-1.661l7.565-.068L7.595,101.96,5.928,101.9l0-5.039,3.4-.036.021-3.28a3.233,3.233,0,0,1,2.32-3.055l3.519-1.033c.56-2.229-1.388-2-1.578-4.569a12.69,12.69,0,0,1,.056-3.4A5.057,5.057,0,0,1,19.439,77.5c2.933.516,4.414,3.058,4.248,5.906-.1,1.711-.215,3.329-1.679,4.487a4.381,4.381,0,0,0,.024,1.549l3.739,1.132a3.406,3.406,0,0,1,2.149,2.912,45.924,45.924,0,0,0,4.7-.02l4.5-4.512c-3.095-1.465-3.537-3.8-3.258-6.927a5.066,5.066,0,0,1,5.468-4.577,5.217,5.217,0,0,1,4.645,5.793c-.1,1.723-.108,3.378-1.666,4.618,1.73,1.232,1.608,1.951,1.635,3.888l3.395.061.008,10.919a5.951,5.951,0,0,1-4.954,5.87M22.056,83.327c0-2.158-.944-3.982-3.137-4.193a3.365,3.365,0,0,0-3.682,3.284v1.82a3.351,3.351,0,0,0,3.825,3.276c2.124-.284,2.99-2.071,2.994-4.187m20.182,1.154a17.98,17.98,0,0,0,.015-2.064,3.359,3.359,0,0,0-3.191-3.291,3.314,3.314,0,0,0-3.471,2.826,11.947,11.947,0,0,0,0,2.753,3.349,3.349,0,0,0,6.647-.224M20.27,88.974a5.886,5.886,0,0,1-3.349,0A1.644,1.644,0,0,0,18.6,90.913a1.606,1.606,0,0,0,1.668-1.939m5.216,7.877,8.862-.021,5.987-6.013a.932.932,0,0,0-1.328-1.3L33.3,95.18l-7.9.009a.806.806,0,0,0-.84.909.843.843,0,0,0,.929.752M33,101.944a4.331,4.331,0,0,0,.042,1.675l6.611.005a2.5,2.5,0,0,0,2.582-2.362l.017-10.316a10.379,10.379,0,0,1-.879,1.25L35.56,98.024l-.068,3.88Zm-6.925-8.455a1.383,1.383,0,0,0-1.022-1.383L21.5,91.087a3.686,3.686,0,0,1-2.9,1.54,3.729,3.729,0,0,1-2.894-1.537L12.14,92.117c-1.7.49-1.01,3.172-1.121,4.726H22.937a2.735,2.735,0,0,1,.544-2.5,3,3,0,0,1,2.6-.851M33.025,107l8.589-.031a4.11,4.11,0,0,0,4.027-4.092l.038-9.3a3.569,3.569,0,0,0-1.733,0l-.051,7.863a4,4,0,0,1-3.962,3.849L33,105.334A5.134,5.134,0,0,0,33.025,107m.782-8.471H7.61v1.738h26.2Zm-6.23,13.537,1.737,3.386a8.175,8.175,0,0,0,1.977-.053l-.007-10.078-17.651.008a3.226,3.226,0,0,1-.007-1.7l17.618-.016a5.737,5.737,0,0,0-.006-1.684l-21.857,0a7.124,7.124,0,0,0-.019,1.631l2.451.119a8.729,8.729,0,0,1-.026,1.624l-2.449.05,0,10.062a5.486,5.486,0,0,0,2.011-.029l1.71-3.319Zm10.366,3.359-.671-6.74-4.295,0v6.769Zm3.4-.12-.69-6.579a3.622,3.622,0,0,0-1.686.021l.707,6.661a2.466,2.466,0,0,0,1.67-.1m-14.033.147a7.524,7.524,0,0,0-.83-1.726l-12.351,0a6.719,6.719,0,0,0-.861,1.751Z" transform="translate(0 -64.751)" fill="#12263f"/>
        </g>
      </g>
    </g>
  </g>
</svg>
