<svg xmlns="http://www.w3.org/2000/svg" xmlns:xlink="http://www.w3.org/1999/xlink" width="287.483" height="281.902" viewBox="0 0 287.483 281.902">
  <defs>
    <clipPath id="clip-path">
      <rect id="Rectangle_455216" data-name="Rectangle 455216" width="287.483" height="281.902" fill="#fff"/>
    </clipPath>
  </defs>
  <g id="img36_2" clip-path="url(#clip-path)">
    <path id="Path_998564" data-name="Path 998564" d="M146.078,166.333c4.408,13.422,16.135,7.8,29.039,9,5.405,12.961,16,8.248,27.125,9.826l-15.3,42.946a39.053,39.053,0,0,0-1.988,13.006L184.88,292l-66.966-.173-.012-38.683A44.215,44.215,0,0,0,107,223.6a234.1,234.1,0,0,0-22.618-22.721c-11.233-10.014-16.324-23.862-11.407-38.6,4.144-12.419,15.843-23.792,30.549-23.854l52.5-.223c-2.437,12.18-12.553,21.234-24.631,21.33l-16.617.133a5.292,5.292,0,0,0-4.91,4.135c-.475,2.487.844,4.619,3.285,5.768,23.513,11.074,49.9,30.093,52.953,57.955.322,2.933,3.275,4.6,5.576,4.466a5.353,5.353,0,0,0,5.054-5.78c-1.91-25.115-20.977-43.9-40.69-56.862Z" transform="translate(-5.194 -10.096)" fill="#fff"/>
    <rect id="Rectangle_455215" data-name="Rectangle 455215" width="23.087" height="70.652" transform="translate(179.99 93.521)" fill="#fff"/>
    <path id="Path_998565" data-name="Path 998565" d="M163.385,162.2c-4.917-8.216,10.355-11.743,10.332-31.814-.01-8.655-9.889-4.759-15.181-6.093l-.006-26.279a3.45,3.45,0,0,1,3.354-3.459c13.358.034,19.443-2.1,19.425,5.184l-.147,62.571Z" transform="translate(-11.581 -6.888)" fill="#fff"/>
    <path id="Path_998566" data-name="Path 998566" d="M169.515,77.694c-3.135.841-5.871.5-8.951.187l-.225-48.694a15.369,15.369,0,0,1-9.922-16.325,14.76,14.76,0,0,1,29.114-.981c1.451,7.367-2.43,14.37-9.9,17.356Z" transform="translate(-10.979 0)" fill="#fff"/>
    <path id="Path_998567" data-name="Path 998567" d="M263.612,256.59a14.71,14.71,0,0,1-19.645,7.667c-7.724-3.634-10.838-12.52-7.1-20.666l-24.284-24.407a25.438,25.438,0,0,1,3.6-9.28l27.43,27.225c6.12-2.678,12.506-1.729,16.737,2.326a15.069,15.069,0,0,1,3.265,17.135" transform="translate(-15.529 -15.334)" fill="#fff"/>
    <path id="Path_998568" data-name="Path 998568" d="M223.049,89.058,212.8,87.31l24.016-24.454c-3.116-7.009-1.254-14.516,4.512-18.771a14.745,14.745,0,1,1,1.938,24.93Z" transform="translate(-15.545 -3.007)" fill="#fff"/>
    <path id="Path_998569" data-name="Path 998569" d="M69.146,244.151c3.25,7.177,1.232,14.515-4.45,18.7a14.746,14.746,0,1,1-2.083-24.984l19.182-18.9a17.357,17.357,0,0,1,6.25,5.612Z" transform="translate(-3.005 -15.996)" fill="#fff"/>
    <path id="Path_998570" data-name="Path 998570" d="M86.623,81.046c-3.2,1.03-6.071,1.336-8.833,3.586L62.421,69.269a15.061,15.061,0,0,1-18.354-3.847A14.383,14.383,0,0,1,45.076,46a14.558,14.558,0,0,1,18.964-1.524c5.773,4.113,7.948,11.619,4.512,18.846Z" transform="translate(-2.978 -3.043)" fill="#fff"/>
    <path id="Path_998571" data-name="Path 998571" d="M145.027,123.268l-22.786.11-.09-32.476a3.557,3.557,0,0,1,3.613-3.636l15.776.017a3.5,3.5,0,0,1,3.491,3.618Z" transform="translate(-8.923 -6.375)" fill="#fff"/>
    <path id="Path_998572" data-name="Path 998572" d="M109.215,123.735A60.751,60.751,0,0,0,86.2,129.741l-.052-31.846a3.6,3.6,0,0,1,3.662-3.708l15.705-.023a3.585,3.585,0,0,1,3.655,3.707Z" transform="translate(-6.293 -6.879)" fill="#fff"/>
    <path id="Path_998573" data-name="Path 998573" d="M229.444,158.785c-1.088-2.941-.78-5.506-.235-8.72l45.772-.154c3.024-7.095,9.636-11.1,16.323-10.162a14.739,14.739,0,0,1,1.052,29.073c-7.725,1.409-14.337-2.588-17.267-10.019Z" transform="translate(-16.708 -10.199)" fill="#fff"/>
    <path id="Path_998574" data-name="Path 998574" d="M63.855,150.076,60,158.668l-30.91.17c-2.92,7.341-9.53,11.4-17.264,10a14.741,14.741,0,0,1,1.037-29.073,15.328,15.328,0,0,1,16.385,10.188Z" transform="translate(0 -10.2)" fill="#fff"/>
  </g>
</svg>
