<svg xmlns="http://www.w3.org/2000/svg" xmlns:xlink="http://www.w3.org/1999/xlink" width="290.055" height="303.151" viewBox="0 0 290.055 303.151">
  <defs>
    <clipPath id="clip-path">
      <rect id="Rectangle_455220" data-name="Rectangle 455220" width="290.055" height="303.151" fill="#fff"/>
    </clipPath>
  </defs>
  <g id="img36_6" clip-path="url(#clip-path)">
    <path id="Path_998590" data-name="Path 998590" d="M183.872,188.934c-6.432,5.208-11.174,10.805-13.787,18.157-7.4,5.06-14.648,9.447-22.3,14.048a5.71,5.71,0,0,1-5.791-.008c-7.71-4.491-14.828-9.081-22.31-14.015-2.683-7.605-7.741-13.343-14.039-18.418a365.139,365.139,0,0,1-38.191-35.531c-4.063-4.353-11.236-3.475-16.562-3.75-5.06-4.555-8.857-9.8-13.267-15.221l0-47.348c-1.294-15.281-5.616-33.1-24.348-33.649C18.853,24.244,41.98,3.046,71.371.336c28.6-2.542,53.217,10.488,73.534,30.427C164.789,11.177,189.4-2.028,217.559.257c29.711,2.332,53.3,23.688,58.922,52.964-18.637.516-23.137,18.337-24.337,33.625V134.2c-4.414,5.441-8.258,10.66-13.242,15.293-5.433.112-12.649-.62-16.738,3.788a361.947,361.947,0,0,1-38.292,35.657M104.951,75.8A19.537,19.537,0,1,0,85.413,95.341,19.538,19.538,0,0,0,104.951,75.8m118.941.01A19.542,19.542,0,1,0,204.35,95.355a19.542,19.542,0,0,0,19.542-19.542m-59.476,5.6a19.531,19.531,0,1,0-19.531,19.531,19.531,19.531,0,0,0,19.531-19.531M97.188,136.061c2.168-10.218,6.744-17.881,13.536-24.983a38.816,38.816,0,0,0-37.772-7.287c-19.9,6.426-31.861,32.466-19.933,32.424Zm140.581-.16c10.07-.08-.9-26.12-21.812-32.383a38.726,38.726,0,0,0-36.887,7.576,50.226,50.226,0,0,1,13.6,25.161Zm-60.538,5.921a5.15,5.15,0,0,0,4.439-2.738c3.1-5.687-10.386-32.073-37.268-31.766-29.4.337-45.051,34.484-31.885,34.487Z" transform="translate(0.147 0)" fill="#fff"/>
    <path id="Path_998591" data-name="Path 998591" d="M187.63,196.766a405.529,405.529,0,0,0,39.006-36c3.6-3.8,10.315-2.019,13.049.968,3.479,3.8,3.059,9.3-.689,13.518-7.417,8.344-15.591,15.711-23.512,23.66-2.2,2.212-3.169,4.678-1.525,6.906,1.707,2.315,5.124,3.593,7.605,1.159,12.372-12.144,38.447-34.127,38.581-51.109l.567-71.559c.053-6.626,1.8-13.323,5.829-18.131,3.29-3.927,8.1-3.9,12.14-1.96A10.978,10.978,0,0,1,285.194,74.5l2.9,106.182c.271,9.961-1.919,18.306-9.07,25.466l-50.358,50.42c-1.167,1.169-.915,3.036-2.148,4.456l-50.539.04-.026-41c-.006-9.436,4.193-16.948,11.684-23.3" transform="translate(1.944 0.695)" fill="#fff"/>
    <path id="Path_998592" data-name="Path 998592" d="M61.179,160.568a425.518,425.518,0,0,0,39.07,35.957c7.473,6.166,11.926,13.792,11.932,23.539l.027,40.956-50.769.223c-1.021-1.908-1.112-3.85-2.461-5.2L9.1,206.146c-7.135-7.137-9.355-15.518-9.075-25.46L3.056,72.83c.13-4.651,3.882-7.467,7.061-8.894,3.921-1.76,8.416-1.359,11.45,2.252,4.006,4.766,5.8,11.513,5.831,18.134l.336,70.622c.064,13.552,16.038,30.4,25.4,39.282l13.424,12.742c2.318,2.2,5.307,1.387,7.127-.543,2.173-2.306,1.433-5.055-1.038-7.526-7.93-7.928-16.1-15.315-23.516-23.671-3.544-3.993-4.163-9.059-1.168-12.953,2.331-3.03,9.242-5.805,13.221-1.708" transform="translate(0 0.695)" fill="#fff"/>
    <path id="Path_998593" data-name="Path 998593" d="M127.827,299.253,43.6,300.18c-5.018.056-8.246-2.954-8.257-8.024l-.031-15.234a6.961,6.961,0,0,1,7.2-7.251l82.83-.782a7.317,7.317,0,0,1,7.706,7.3c.33,6.641,2.255,22.052-5.223,23.065M121.3,284.265a4.949,4.949,0,1,0-4.949,4.949,4.949,4.949,0,0,0,4.949-4.949" transform="translate(0.39 2.971)" fill="#fff"/>
    <path id="Path_998594" data-name="Path 998594" d="M244.841,300.148l-84.253-.976c-7.983-.093-6-16.291-5.665-23.048.178-3.564,2.728-7.193,6.74-7.16l83.727.7a7,7,0,0,1,7.25,7.275l-.027,15.26c-.008,4.374-2.57,8.014-7.772,7.953m-68.278-15.895a4.954,4.954,0,1,0-4.954,4.955,4.954,4.954,0,0,0,4.954-4.955" transform="translate(1.706 2.971)" fill="#fff"/>
  </g>
</svg>
