<svg xmlns="http://www.w3.org/2000/svg" xmlns:xlink="http://www.w3.org/1999/xlink" width="292" height="291.755" viewBox="0 0 292 291.755">
  <defs>
    <clipPath id="clip-path">
      <rect id="Rectangle_455219" data-name="Rectangle 455219" width="292" height="291.755" fill="#fff"/>
    </clipPath>
  </defs>
  <g id="img36_4" clip-path="url(#clip-path)">
    <path id="Path_998584" data-name="Path 998584" d="M109.7,306.784c-5.1,0-8.733-3.166-9.012-7.644a86.824,86.824,0,0,1,.475-18.822c3.89-25.61,24.725-44.286,50.35-46.133-19.651-3.013-31.306-19.6-27.509-38.719,3.173-15.981,17.732-25.916,33.923-24.576,15.516,1.284,28.081,14.533,28.518,30.475.44,16.073-10.48,29.476-27.523,32.816,31.164,2.879,52.857,29.54,50.079,60.811-.272,3.066.444,5.793-1.575,8.287a9.828,9.828,0,0,1-8.011,3.543Z" transform="translate(-8.859 -15.068)" fill="#fff"/>
    <path id="Path_998585" data-name="Path 998585" d="M192.964,75.282a93.238,93.238,0,0,0-75.562-.064,110.423,110.423,0,0,0-13.528-12.165c28.88-16.807,72.5-17.057,102.586-.13-4.852,4.054-9.427,7.421-13.5,12.359" transform="translate(-9.165 -4.442)" fill="#fff"/>
    <path id="Path_998586" data-name="Path 998586" d="M208.012,135.7c-6.9.005-6.677-7.4-7.045-11.694-2.691-31.408,19.358-57.841,50.7-60.685-16.911-2.637-27.87-15.1-27.966-31.493-.071-12.139,6.181-23.2,17.075-28.354a31.622,31.622,0,0,1,44.553,18.437c6.13,19.09-6.225,38.134-26.2,41.451,31.931,3.284,52.719,29.621,50.4,60.711-.306,4.089-.356,11.547-6.648,11.553Z" transform="translate(-17.713 0)" fill="#fff"/>
    <path id="Path_998587" data-name="Path 998587" d="M230.367,257.7c-3.223-5.006-5.544-9.637-9.326-14.352,23.481-18.13,37.093-45.474,36.57-75.3l17.038-.006A109.117,109.117,0,0,1,230.367,257.7" transform="translate(-19.504 -14.827)" fill="#fff"/>
    <path id="Path_998588" data-name="Path 998588" d="M8.743,135.922c-5.812.018-8.614-4.451-8.707-9.173a93.69,93.69,0,0,1,1.336-19.786C6.117,81.786,26.288,65.1,52.514,63.48c-15.536-1.689-27.3-11.79-29.333-27.257C21.369,22.441,27.762,9.03,40.455,3.236A31.576,31.576,0,0,1,84.883,23.268c5.237,19.7-8.2,38.454-28.606,40.119,35.307,3.357,53.384,27.138,52.449,61.576-.1,3.87-1.066,10.65-6.619,10.668Z" transform="translate(0 0)" fill="#fff"/>
    <path id="Path_998589" data-name="Path 998589" d="M93.66,243.089c-2.837,4.964-6.167,9.162-8.9,14.7a108.953,108.953,0,0,1-44.482-89.725l17.048-.011c-.426,29.339,12.44,56.55,36.33,75.036" transform="translate(-3.553 -14.828)" fill="#fff"/>
  </g>
</svg>
