<svg xmlns="http://www.w3.org/2000/svg" xmlns:xlink="http://www.w3.org/1999/xlink" width="235.776" height="262.36" viewBox="0 0 235.776 262.36">
  <defs>
    <clipPath id="clip-path">
      <rect id="Rectangle_454878" data-name="Rectangle 454878" width="235.776" height="210.45" fill="none"/>
    </clipPath>
    <clipPath id="clip-path-3">
      <rect id="Rectangle_454871" data-name="Rectangle 454871" width="44.085" height="10.925" fill="none"/>
    </clipPath>
    <clipPath id="clip-path-4">
      <rect id="Rectangle_454872" data-name="Rectangle 454872" width="45.077" height="55.101" fill="#b6cfe3"/>
    </clipPath>
    <clipPath id="clip-path-5">
      <rect id="Rectangle_454873" data-name="Rectangle 454873" width="45.077" height="9.645" fill="none"/>
    </clipPath>
    <clipPath id="clip-path-6">
      <rect id="Rectangle_454876" data-name="Rectangle 454876" width="84.057" height="6.987" fill="none"/>
    </clipPath>
  </defs>
  <g id="img3" transform="translate(-221 -1173.7)">
    <g id="Group_1099281" data-name="Group 1099281" transform="translate(221 1173.7)">
      <path id="Path_873129" data-name="Path 873129" d="M234.018,117V262.008H0V117q0-3.674.236-7.274c.087-1.654.224-3.3.4-4.937.037-.4.087-.8.137-1.181.236-2.151.535-4.29.908-6.4q.69-4.122,1.679-8.132a117.2,117.2,0,0,1,35.14-58.8c2.611-2.375,5.347-4.638,8.17-6.764A116.331,116.331,0,0,1,73.874,8.219c1.778-.709,3.594-1.38,5.421-2A116.661,116.661,0,0,1,186.431,22.83c.6.435,1.181.87,1.753,1.318a117.009,117.009,0,0,1,44.5,75.241A117.5,117.5,0,0,1,234.018,117" fill="#c8eefe"/>
      <path id="Path_873131" data-name="Path 873131" d="M220.238,117v25.864c-1.268.485-2.562.92-3.855,1.331C197.794,150,177.4,148.344,159,142.015c-14.337-4.937-29.109-14.524-31.721-29.457-1.094-6.329.174-12.8.609-19.211s-.174-13.38-4.315-18.3c-3.531-4.178-9.052-6.168-14.474-6.914-11.577-1.592-23.949,1.529-34.68-3.084C62.667,60,56.189,46.393,56.624,33.611c.336-9.885,4.253-18.863,8.891-27.393A116.661,116.661,0,0,1,172.651,22.83c.6.435,1.181.87,1.753,1.318a117.009,117.009,0,0,1,44.5,75.241A117.5,117.5,0,0,1,220.238,117" transform="translate(13.782)" fill="#c8eefe"/>
    </g>
    <g id="Group_1190303" data-name="Group 1190303" transform="translate(221 1225.61)">
      <g id="Group_1190301" data-name="Group 1190301" clip-path="url(#clip-path)">
        <g id="Group_1190300" data-name="Group 1190300">
          <g id="Group_1190299" data-name="Group 1190299" clip-path="url(#clip-path)">
            <path id="Path_997462" data-name="Path 997462" d="M235.755,72.17c-.116,6.978-.36,13.956-.592,20.845,0,.1-.013.218-.013.321a2.569,2.569,0,0,1-.013.321v.282c-.077,2.322-.154,4.631-.219,6.914-.154,5.247-.257,10.416-.257,15.47v73.72H0V91.95Z" transform="translate(0 20.407)" fill="#26c7ff"/>
            <rect id="Rectangle_454870" data-name="Rectangle 454870" width="31.074" height="4.878" transform="translate(22.629 93.881)" fill="#12263f"/>
            <path id="Path_997463" data-name="Path 997463" d="M16.37,54.638H7.45a4.167,4.167,0,0,1-4.172-4.161V47.032A4.168,4.168,0,0,1,7.45,42.871h8.92Z" transform="translate(0.938 12.122)" fill="#12263f"/>
            <path id="Path_997464" data-name="Path 997464" d="M44.332,54.638h8.92a4.167,4.167,0,0,0,4.172-4.161V47.032a4.168,4.168,0,0,0-4.172-4.161h-8.92Z" transform="translate(12.68 12.122)" fill="#12263f"/>
            <path id="Path_997465" data-name="Path 997465" d="M56.231,30.129v.012c0,1.157-.012,2.226-.045,3.158,0,.169-.012.326-.012.484-.033,1.067-.078,1.945-.1,2.563-.022.437-.033.741-.045.888v.1l-2.716.033c-.112,0-.225.012-.337.012-1.375.012-3.156.033-5.207.068H47.43l-2.253.033c-.17,0-.338.012-.508.012l-2.445.033h-.338l-5.206.068a.135.135,0,0,1-.057.01h-.518c-1.656.035-3.324.056-4.97.08h-.327c-.935.01-1.86.033-2.771.045h-.518c-.655.01-1.285.022-1.916.033-.113,0-.215.012-.327.012-1.86.022-3.618.056-5.207.09h-.642c-.18.012-.35.012-.518.012-4.114.078-6.864.146-6.9.18,0,0-.012-.158-.012-.45,0-.112-.01-.236,0-.382-.01-.1-.01-.213-.01-.337-.012-1.135.022-3.023.19-5.361.012-.113.012-.236.023-.349.1-1.213.237-2.551.417-3.957.023-.135.045-.269.057-.416.012-.045.012-.078.023-.123.055-.394.112-.786.168-1.192.023-.123.033-.248.057-.382.213-1.518.45-3.1.732-4.71.023-.123.045-.258.08-.393.045-.248.09-.505.135-.765a3.717,3.717,0,0,0,.078-.382,44.554,44.554,0,0,1,1.183-4.619,3.362,3.362,0,0,1,.113-.349c.158-.505.338-1,.518-1.5.068-.145.123-.3.18-.449A25.29,25.29,0,0,1,17.3,9.1c.057-.09.1-.18.157-.269a18.462,18.462,0,0,1,2.8-3.676c.067-.067.135-.135.2-.191a15.647,15.647,0,0,1,3.528-2.6c.078-.045.158-.09.248-.135A18.635,18.635,0,0,1,28.442.679c.09-.023.192-.045.293-.068A25.6,25.6,0,0,1,33.614.038h.237a.153.153,0,0,1,.1,0c.135-.012.282-.012.417-.012h.08a25.422,25.422,0,0,1,5.082.5c.147.033.282.068.405.1.35.078.688.168,1.026.269a2.1,2.1,0,0,1,.349.1,17.583,17.583,0,0,1,4.632,2.169c.09.056.168.113.247.169a17.121,17.121,0,0,1,3.348,3.012c.057.068.123.135.18.214a20.882,20.882,0,0,1,2.434,3.63c.045.078.09.158.135.248a29.034,29.034,0,0,1,1.725,4.091,2.544,2.544,0,0,0,.09.281,36.849,36.849,0,0,1,1.138,4.486c.022.1.045.191.067.292.3,1.629.52,3.248.655,4.81.012.078.012.158.022.224,0,.035.012.056.012.09v.012c.012.169.023.326.033.484.135,1.63.18,3.181.192,4.6a3.065,3.065,0,0,1,.012.326" transform="translate(3.429 0.007)" fill="#17428d"/>
            <path id="Path_997466" data-name="Path 997466" d="M33.112.045c.135-.012.282-.012.417-.012l-.292.191L33,.382,29.36,2.8l-.237.158L25.484,5.384l-.226.146L21.606,7.958l-.225.146-3.639,2.417-.226.158L14.924,12.4c.068-.146.123-.3.18-.449l2.254-1.5L17.6,10.3,21.235,7.88l.225-.158L25.1,5.306l.237-.158,3.639-2.417.237-.156L32.842.158l.168-.113L33.079,0Z" transform="translate(4.269)" fill="#c8eefe"/>
            <path id="Path_997467" data-name="Path 997467" d="M40.892.8l-.778.517-.237.158L36.238,3.894,36,4.05,32.362,6.467l-.237.158L28.5,9.042l-.237.158L24.62,11.628l-.237.146-3.629,2.415-.237.158-3.639,2.428-.237.146-3.189,2.124a3.718,3.718,0,0,0,.078-.382L16.483,16.7l.237-.158,3.639-2.417.237-.158,3.641-2.417.225-.156L28.1,8.974l.237-.156L31.979,6.4l.237-.158,3.628-2.428.237-.156L39.72,1.241l.237-.158L40.542.7a2.114,2.114,0,0,1,.35.1" transform="translate(3.848 0.198)" fill="#c8eefe"/>
            <path id="Path_997468" data-name="Path 997468" d="M45.994,2.639,42.918,4.685l-.237.158L39.052,7.26l-.237.156L35.176,9.833l-.237.158L31.3,12.407l-.237.158-3.639,2.417-.225.156-3.641,2.417-.237.158-3.639,2.417-.237.158L15.8,22.7l-.237.156-2.895,1.933c.022-.123.032-.246.054-.382l2.684-1.787.237-.156,3.639-2.417.237-.158,3.639-2.417.237-.158L27.039,14.9l.225-.156,3.642-2.418.237-.156,3.639-2.417.237-.158L38.658,7.18l.237-.158,3.628-2.415.237-.158,2.986-1.978c.09.055.17.112.248.168" transform="translate(3.625 0.699)" fill="#c8eefe"/>
            <path id="Path_997469" data-name="Path 997469" d="M49.675,5.164,45.652,7.84,45.416,8l-3.641,2.417-.237.158L37.91,12.987l-.237.158-3.641,2.427-.237.146-3.639,2.428-.237.146-3.629,2.428-.237.146-3.639,2.427-.237.158-3.639,2.417-.237.158-3.629,2.417-.237.156-2.3,1.529c.012-.113.012-.236.023-.349l2.118-1.416.237-.156,3.641-2.417.237-.158,3.628-2.417.237-.158L25.9,20.642l.237-.156,3.639-2.417L30,17.911l3.641-2.417.237-.158,3.639-2.417.237-.156,3.639-2.417.237-.158,3.641-2.417.237-.158,3.989-2.663c.057.067.123.135.18.213" transform="translate(3.472 1.4)" fill="#c8eefe"/>
            <path id="Path_997470" data-name="Path 997470" d="M52.287,8.195l-4.011,2.664-.237.156L44.41,13.432l-.237.158-3.639,2.417-.237.158-3.641,2.417-.237.156L32.78,21.166l-.225.146L28.914,23.74l-.237.146-3.639,2.428-.237.156-3.629,2.417-.237.158L17.3,31.463l-.237.158L12,34.981c-.01-.1-.01-.214-.01-.337L16.9,31.383l.237-.156,3.639-2.417.237-.158,3.641-2.417.225-.158,3.639-2.417.237-.156L32.4,21.088l.225-.158L36.261,18.5l.237-.146,3.641-2.428.237-.158,3.639-2.417.237-.158,3.641-2.417.237-.156,4.023-2.676c.045.08.09.158.135.248" transform="translate(3.429 2.247)" fill="#c8eefe"/>
            <path id="Path_997471" data-name="Path 997471" d="M52.562,11.611l-3.234,2.147-.237.156-3.639,2.428-.237.158-3.641,2.417-.237.156L37.7,21.491l-.237.158-3.639,2.417v.012l-.226.146L29.957,26.64l-.237.158-3.639,2.427-.226.146L22.215,31.8l-.237.146-3.639,2.428-.44.291h-.012c-.18.012-.35.012-.518.012l.575-.382.237-.156,3.639-2.428.237-.146L25.7,29.135l.225-.146,3.639-2.428L29.8,26.4l3.641-2.417.225-.146v-.012l3.651-2.417.225-.158,3.641-2.417.237-.156,3.639-2.417.237-.158,3.639-2.428.237-.156,3.3-2.192a2.635,2.635,0,0,0,.09.281" transform="translate(4.968 3.204)" fill="#c8eefe"/>
            <path id="Path_997472" data-name="Path 997472" d="M51.854,15.337l-1.861,1.237-.237.158-3.639,2.427-.237.158-3.641,2.417L42,21.891l-3.641,2.417-.225.156L34.5,26.881l-.237.158-3.639,2.417-.224.158L26.745,32.04l-.225.146L24.582,33.48h-.518l2.3-1.529.225-.146,3.651-2.427.225-.158L34.105,26.8l.237-.158,3.638-2.417.225-.156,3.641-2.417.238-.158,3.638-2.417.238-.158L49.6,16.5l.238-.158,1.948-1.293c.023.1.045.191.069.292" transform="translate(6.883 4.254)" fill="#c8eefe"/>
            <path id="Path_997473" data-name="Path 997473" d="M50.664,19.315l-.033.024v.009l-.2.124L46.788,21.89l-.238.158-3.628,2.427-.237.158-3.639,2.418-.237.158-3.641,2.417-.237.156L31.293,32.2l-.033.033h-.52l.17-.113.225-.158,3.641-2.415.237-.156,3.639-2.418.237-.158L42.528,24.4l.237-.158,3.629-2.428.237-.156,3.639-2.417.237-.158.09-.058c.012.08.012.158.023.227Z" transform="translate(8.792 5.379)" fill="#c8eefe"/>
            <path id="Path_997474" data-name="Path 997474" d="M48.963,23.565v.012l-1.5.989-.237.158L43.587,27.14l-.237.156-3.628,2.417-.237.158-1.578,1.045c-.17,0-.338.012-.508.012l1.928-1.281.237-.158L43.2,27.06l.237-.156,3.641-2.417.237-.158,1.633-1.09a3.065,3.065,0,0,1,.012.326" transform="translate(10.697 6.571)" fill="#c8eefe"/>
            <path id="Path_997475" data-name="Path 997475" d="M49.869,24.613c.012.169.023.326.033.484l-.237-.36-.157-.236-2.423-3.63-.158-.236L44.5,17l-.158-.236-2.433-3.62-.147-.236-2.434-3.63-.147-.226-2.434-3.63-.157-.236-2.423-3.63-.158-.236L33.4.412c.147.033.282.067.405.1l.44.652.158.236,2.423,3.63.157.236L39.422,8.9l.147.224L42,12.753l.147.236,2.433,3.62.158.236,2.423,3.63.158.236,2.423,3.631.112.168.045.068-.033.022Z" transform="translate(9.555 0.116)" fill="#c8eefe"/>
            <path id="Path_997476" data-name="Path 997476" d="M51.376,33.306c0,.168-.012.326-.012.484l-1.678-2.495-.147-.236-2.434-3.631-.158-.236-2.423-3.619-.157-.236L41.945,19.7l-.158-.236-2.423-3.63-.158-.236-2.434-3.631-.145-.224L34.2,8.116l-.158-.236L31.61,4.249l-.158-.236L29.029.382,28.872.158,28.8.045h.237L29.109,0l.033.045.125.18,2.422,3.631.158.236,2.434,3.63.158.236,2.423,3.63.147.226,2.433,3.63.158.236,2.423,3.63.158.236L44.6,23.178l.157.236,2.423,3.619.158.236L49.777,30.9l.147.236Z" transform="translate(8.239)" fill="#c8eefe"/>
            <path id="Path_997477" data-name="Path 997477" d="M49.652,37.238c-.113,0-.225.012-.338.012L46.96,33.731l-.147-.236-2.423-3.62-.158-.236L41.8,26.009l-.157-.236-2.423-3.63-.158-.236-2.423-3.631-.158-.236-2.423-3.63-.157-.224-2.423-3.631-.158-.236-2.434-3.63-.147-.224L26.3,2.82l-.147-.226L24.782.549c.09-.022.192-.045.292-.067l1.319,1.956.147.224L28.973,6.3l.147.224,2.434,3.631.158.236,2.423,3.63.157.224,2.423,3.631.158.236,2.423,3.63.158.236,2.423,3.63.157.236,2.434,3.632.158.236,2.423,3.619.147.236Z" transform="translate(7.088 0.136)" fill="#c8eefe"/>
            <path id="Path_997478" data-name="Path 997478" d="M45.1,36.96h-.338l-.676-1.012-.157-.224-2.423-3.63-.158-.236-2.423-3.631-.158-.236-2.433-3.63-.147-.236-2.434-3.63-.158-.236-2.423-3.631-.158-.224-2.422-3.63-.158-.237L26.011,8.9l-.158-.224L23.43,5.037l-.157-.224L21.312,1.879c.078-.046.157-.091.248-.136l1.95,2.912.145.236,2.434,3.63.158.226,2.423,3.63.158.236,2.423,3.63.157.236,2.423,3.631.158.224,2.423,3.63.158.236,2.423,3.631.157.236,2.434,3.63.158.236,2.423,3.63.157.226Z" transform="translate(6.096 0.493)" fill="#c8eefe"/>
            <path id="Path_997479" data-name="Path 997479" d="M40.386,36.437h-.338L38.46,34.065l-.158-.236L35.879,30.2l-.158-.236L33.3,26.332l-.157-.236-2.423-3.63-.158-.224L28.125,18.6l-.147-.226-2.423-3.63-.157-.236-2.434-3.63-.147-.226L20.383,7.009l-.147-.224L18.412,4.064c.067-.067.135-.135.2-.191l1.848,2.754.147.236,2.434,3.631.158.236,2.423,3.619.157.236L28.2,18.217l.158.236,2.423,3.63.158.236,2.423,3.62v.01l.157.226v.01l2.434,3.62.158.236,2.423,3.63Z" transform="translate(5.266 1.095)" fill="#c8eefe"/>
            <path id="Path_997480" data-name="Path 997480" d="M35.5,35.652a.122.122,0,0,1-.057.012h-.27l-.08-.113L32.67,31.92l-.157-.236-2.434-3.632-.158-.236L27.5,24.186l-.157-.224L24.918,20.32l-.158-.226-2.423-3.63-.158-.236L19.755,12.6l-.157-.226L17.176,8.73l-.158-.224-.9-1.349c.057-.09.1-.18.158-.269l.98,1.461.147.224,2.434,3.643.157.224,2.423,3.63.158.236L25,19.938l.158.236,2.423,3.63.157.236,2.423,3.62.158.236,2.423,3.63.158.236,2.423,3.63.157.236Z" transform="translate(4.61 1.947)" fill="#c8eefe"/>
            <path id="Path_997481" data-name="Path 997481" d="M30.435,34.627h-.327l-.835-1.248-.157-.236-2.423-3.63-.158-.236L24.1,25.656l-.147-.236-2.433-3.63-.158-.236-2.423-3.63-.158-.236-2.423-3.631-.157-.224-1.77-2.653a3.08,3.08,0,0,1,.113-.349l1.893,2.844.157.236,2.423,3.62.158.236L21.6,21.4l.158.236,2.423,3.631.157.236,2.423,3.63.158.236L29.342,33l.158.236Z" transform="translate(4.128 3.062)" fill="#c8eefe"/>
            <path id="Path_997482" data-name="Path 997482" d="M25.231,33.358c-.113,0-.215.012-.327.012l-1.758-2.631-.158-.236-2.423-3.619-.158-.236-2.433-3.632-.147-.236-2.434-3.63-.158-.236-1.95-2.922c.023-.124.045-.259.08-.394l2.107,3.158.158.236,2.434,3.632.147.236,2.434,3.63.157.236,2.423,3.63.158.236Z" transform="translate(3.8 4.411)" fill="#c8eefe"/>
            <path id="Path_997483" data-name="Path 997483" d="M19.928,31.959h-.338l-.09-.133-.158-.236-2.423-3.631-.157-.236-2.423-3.63-.158-.236-1.7-2.54c.022-.136.045-.271.057-.417l1.881,2.8.158.236L17,27.566l.157.236,2.423,3.63.158.236Z" transform="translate(3.569 5.909)" fill="#c8eefe"/>
            <g id="Group_1190289" data-name="Group 1190289" transform="translate(15.417 26.207)" opacity="0.27">
              <g id="Group_1190288" data-name="Group 1190288">
                <g id="Group_1190287" data-name="Group 1190287" clip-path="url(#clip-path-3)">
                  <path id="Path_997484" data-name="Path 997484" d="M56.073,30.47c-.023.439-.033.741-.045.888L12,31.728A70.286,70.286,0,0,1,12.7,20.8Z" transform="translate(-11.988 -20.803)" fill="#502750"/>
                </g>
              </g>
            </g>
            <path id="Path_997485" data-name="Path 997485" d="M56.557,30.827v49.84a5.26,5.26,0,0,1-5.274,5.261H16.754a5.267,5.267,0,0,1-5.274-5.261V30.827Z" transform="translate(3.284 8.717)" fill="#a284a3"/>
            <g id="Group_1190292" data-name="Group 1190292" transform="translate(14.764 39.544)" opacity="0.67">
              <g id="Group_1190291" data-name="Group 1190291">
                <g id="Group_1190290" data-name="Group 1190290" clip-path="url(#clip-path-4)">
                  <path id="Path_997486" data-name="Path 997486" d="M56.557,30.827v49.84a5.26,5.26,0,0,1-5.274,5.261H16.754a5.267,5.267,0,0,1-5.274-5.261V30.827Z" transform="translate(-11.48 -30.827)" fill="#b6cfe3"/>
                </g>
              </g>
            </g>
            <g id="Group_1190295" data-name="Group 1190295" transform="translate(14.764 39.544)" opacity="0.27">
              <g id="Group_1190294" data-name="Group 1190294">
                <g id="Group_1190293" data-name="Group 1190293" clip-path="url(#clip-path-5)">
                  <path id="Path_997487" data-name="Path 997487" d="M56.557,30.962v.517L42.076,34.368l-2.818.562L11.48,40.471V30.827H50.63Z" transform="translate(-11.48 -30.827)" fill="#502750"/>
                </g>
              </g>
            </g>
            <path id="Path_997488" data-name="Path 997488" d="M59.766,32.574H10.5a2.073,2.073,0,1,1,0-4.146H59.766a2.073,2.073,0,1,1,0,4.146" transform="translate(2.409 8.038)" fill="#12263f"/>
            <rect id="Rectangle_454874" data-name="Rectangle 454874" width="45.077" height="0.562" transform="translate(14.764 43.084)" fill="#12263f"/>
            <path id="Path_997489" data-name="Path 997489" d="M34.506,58.493c0,3.685-1.707,6.673-3.812,6.673s-3.813-2.988-3.813-6.673,1.707-6.673,3.813-6.673S34.506,54.808,34.506,58.493Z" transform="translate(7.689 14.653)" fill="none" stroke="#12263f" stroke-miterlimit="10" stroke-width="0.438"/>
            <rect id="Rectangle_454875" data-name="Rectangle 454875" width="2.014" height="29.416" transform="translate(37.16 97.755)" fill="#12263f"/>
            <path id="Path_997490" data-name="Path 997490" d="M47.871,101.216H18.38l13.57-2.822h2.206Z" transform="translate(5.257 27.822)" fill="#12263f"/>
            <path id="Path_997491" data-name="Path 997491" d="M8.312,50.765V75.447A14.8,14.8,0,0,0,23.13,90.227H46.579A14.8,14.8,0,0,0,61.4,75.447V50.478" transform="translate(2.377 14.273)" fill="none" stroke="#12263f" stroke-miterlimit="10" stroke-width="0.876"/>
            <path id="Path_997492" data-name="Path 997492" d="M235.3,78.132c-.013,9.557-.347,19.139-.669,28.567,0,.1-.013.218-.013.321a2.569,2.569,0,0,1-.013.321v.282c-.077,2.322-.154,4.631-.219,6.914l-44.805,52a4,4,0,0,1-3.061,1.411H9.734a3.966,3.966,0,0,1-2.908-1.257l-4.45-4.669-.719-.757,31.455-18.78,1.056-.629,11.574-6.9h.024l1.016-.629,8.333-4.977,1.016-.629h.026l8.308-4.951,1.042-.616h.026l8.308-4.977,1.042-.629,8.308-4.951,1.042-.629,5.723-3.412L91,107.93l6.314-3.758.514-.308.514-.308,8.423-5.028,40.2-24,11.523-6.876,5.723-3.412.874-.539,2.366-1.411,14.4-8.594,2.636-1.578,1.633-.962,2.546-1.526,6.186-3.694,3.459-2.065,11.214-6.7,19.548-11.66c.6,1.95,1.157,3.925,1.646,5.914a158.942,158.942,0,0,1,4.038,27.887c.4,6.209.54,12.507.54,18.818" transform="translate(0.474 7.214)" fill="#4748aa"/>
            <path id="Path_997493" data-name="Path 997493" d="M235.372,83.92c-.013,9.557-.347,19.139-.669,28.567,0,.1-.013.218-.013.321a2.572,2.572,0,0,1-.013.321v.282l-48.522,53.542a2.564,2.564,0,0,1-1.942.885H2.731a1.936,1.936,0,0,1-.284-.026,1.319,1.319,0,0,1-.6-2.258L64.318,109.1l.231-.218.077-.321L88.585,7.019A2.574,2.574,0,0,1,91.2,5.043l129.079,5.221q2.122,3.868,3.922,7.915A107.444,107.444,0,0,1,229.148,31.3c.6,1.95,1.157,3.925,1.646,5.914A158.944,158.944,0,0,1,234.832,65.1c.4,6.209.54,12.507.54,18.818" transform="translate(0.404 1.425)" fill="#12263f"/>
            <path id="Path_997494" data-name="Path 997494" d="M220.733,89.668c0,.1-.013.218-.013.321a2.572,2.572,0,0,1-.013.321l-137.3-3.168-32.845-.757a.317.317,0,0,1-.219-.1.341.341,0,0,1-.09-.231.357.357,0,0,1,.334-.308h.064l33.784.782Z" transform="translate(14.375 24.245)" fill="#becce3"/>
            <path id="Path_997495" data-name="Path 997495" d="M219.917,82.255l-5.774,21.91L91.379,102.65,55.447,102.2,77.335,10.933l131.406,5.58a107.451,107.451,0,0,1,4.951,13.123c.6,1.95,1.157,3.925,1.646,5.914a158.941,158.941,0,0,1,4.038,27.887c.4,6.209.54,12.507.54,18.818" transform="translate(15.859 3.091)" fill="#e8e8ff"/>
            <path id="Path_997496" data-name="Path 997496" d="M136.83,9.363a1.636,1.636,0,1,0,1.646,1.629,1.633,1.633,0,0,0-1.646-1.629m0,2.95a1.315,1.315,0,1,1,1.325-1.321,1.318,1.318,0,0,1-1.325,1.321" transform="translate(38.67 2.647)" fill="#becce3"/>
            <path id="Path_997497" data-name="Path 997497" d="M213.332,92.033a.325.325,0,0,0-.3-.192l-13.992-.218-.862-.013-17.13-.269-.862-.013-17.117-.269h-.013l-.874-.013-17.1-.257-.887-.013h-.013l-17.066-.269-.9-.013-17.066-.269-.913-.013L91.2,89.943l-.913-.013-5.607-.09-11.433-.167-.926-.013-10.43-.167a.273.273,0,0,0-.219.09l-4.36,3.951-.694.629-5.53,5-.694.641-5.53,5.016-.694.629-5.53,5-.694.629-5.53,5.016-.694.629-7.87,7.132.026.026c-.077.026-.09.051-.1.09a.323.323,0,0,0,.116.385.33.33,0,0,0,.244.051c.167-.013,1.093-.013,2.662-.013,2.019.013,5.093.026,9.015.051.3,0,.592.013.913.013h.013c4.874.026,10.931.077,17.811.128.3.013.592.013.9.013h.013c5.5.038,11.5.09,17.8.141h.013c.309,0,.592.013.9.013,5.749.051,11.729.1,17.811.141H92c.3.013.6.013.9.013h.013l17.811.154c.3,0,.592.013.887,0h.013c6.044.064,12.024.115,17.811.167.3,0,.592,0,.887.013,6.25.051,12.269.1,17.837.167.3-.013.579,0,.862,0,6.713.051,12.77.115,17.863.154.3,0,.592.013.875,0,9.362.09,15.252.154,15.561.154a.352.352,0,0,0,.244-.1l5.607-6.26.566-.641,4.488-5.016.566-.629,4.488-5.028.566-.629,4.5-5.041.566-.629,4.488-5.028.566-.629,3.318-3.707a.341.341,0,0,0,.051-.346M209.1,96.074l-.566.629-4.488,5.028-.566.629-4.5,5.041-.566.629-4.488,5.016-.566.641-4.488,5.016-.566.641-5.131,5.734c-.939-.013-6.43-.051-14.841-.141-.283,0-.566,0-.862-.013-5.067-.038-11.124-.09-17.85-.154-.283,0-.579,0-.862-.013-5.568-.038-11.574-.09-17.837-.154h-.887c-5.774-.051-11.767-.1-17.811-.154h-.013c-.3,0-.592-.013-.887-.013-2.521-.026-5.067-.038-7.6-.064-3.408-.026-6.816-.064-10.2-.09-.309,0-.617-.013-.913-.013-6.07-.051-12.037-.1-17.786-.154H73.9c-6.289-.051-12.269-.1-17.786-.154-.309,0-.6,0-.9-.013H55.2l-6.212-.038c-4.681-.038-8.488-.064-11.587-.09h-.939c-4.012-.038-6.752-.051-8.616-.051h-.167c-1.35,0-2.225.013-2.8.026l7.78-7.042.694-.641,5.53-5.016.694-.629,5.517-5,.694-.629,5.543-5.016.694-.629,5.517-5,.694-.641,3.768-3.412,9.658.154.913.013,11.06.167,5.993.09h.013l.9.026,17.066.257.9.013,17.078.269.9.013,17.091.269.887.013,17.117.269.874.013,17.143.257.862.013,17.143.269.862.013,13.863.218Z" transform="translate(6.793 25.305)" fill="#becce3"/>
            <path id="Path_997498" data-name="Path 997498" d="M202.654,95.195l-.566.629-.862-.013L187.26,95.58l-.849-.013L169.2,95.285h-.013l-.849-.026-17.194-.282-.874-.013-17.168-.282h-.013l-.875-.026-17.143-.282-.9-.013-17.143-.282-.887-.026h-.013l-17.1-.282-.913-.013-17.1-.282H61l-.9-.026h-.013L50.234,93.3l-.926-.026L50,92.642l.926.013,9.825.167.913.013h.013l17.078.3h.013l.9.013,17.1.282.9.013,17.117.3h.013l.887.013h.013l17.13.282.887.013,17.156.3.875.013,17.181.282.862.013,17.194.3.849.013h.013l13.941.231Z" transform="translate(14.104 26.196)" fill="#becce3"/>
            <path id="Path_997499" data-name="Path 997499" d="M198.984,99.611l-.566.629-.862-.013L183.436,100l-.849-.013h-.013l-17.3-.3-.862-.013-17.284-.3h-.013l-.875-.013-17.271-.282-.887-.013-17.246-.3-.9-.013-17.233-.3-.9-.013-17.22-.282-.9-.013h-.013l-17.194-.3-.926-.013-10.147-.167-.939-.013.694-.641.939.026,10.108.167h.013l.913.013,17.194.282h.013l.887.026h.013l17.194.282h.013l.9.013,17.22.3.9.013,17.233.282.887.026,17.259.282.874.013h.013l17.271.3.862.013,17.3.282.862.013,14.095.244Z" transform="translate(12.719 27.437)" fill="#becce3"/>
            <path id="Path_997500" data-name="Path 997500" d="M180.191,103.777l-.579.629H179.6l-.849-.013-17.413-.3-.862-.013-17.387-.282h-.013l-.874-.013-17.361-.3h-.013l-.874-.013h-.013l-17.336-.3-.9-.013-17.336-.3-.9-.013h-.013l-17.31-.282h-.013l-.887-.026h-.013l-17.31-.282-.913-.013H51l-10.443-.18-.926-.013.694-.629.926.013,10.417.18.913.013h.013l17.3.282.9.013H70.8l17.3.3.9.013,17.323.3.9.013h.013l17.323.3h.013l.875.013h.013l17.349.282h.013l.874.013,17.374.3.862.013,17.4.3Z" transform="translate(11.335 28.684)" fill="#becce3"/>
            <path id="Path_997501" data-name="Path 997501" d="M161,103.465l-.566.629-.862-.013.566-.629Z" transform="translate(45.641 29.252)" fill="#becce3"/>
            <path id="Path_997502" data-name="Path 997502" d="M191.632,108.449l-.566.629-.862-.013-14.429-.244-.862-.013-17.5-.3-.862-.013-17.49-.3-.887-.013-17.464-.3-.887-.013-17.451-.3-.9-.013-17.439-.3-.9-.013-17.426-.3-.9-.013-17.413-.282h-.013l-.9-.026h-.013l-10.738-.18-.939-.013.694-.629.939.013,10.713.18.913.013h.013l17.387.3h.013l.9.013,17.413.3.9.013,17.426.3.9.013,17.439.3.887.013,17.451.3.887.013,17.477.3.862.013,17.5.282.849.026h.013l14.4.231Z" transform="translate(9.95 29.925)" fill="#becce3"/>
            <path id="Path_997503" data-name="Path 997503" d="M187.962,112.849l-.566.641-.862-.013-14.584-.244-.849-.026h-.013l-17.606-.282h-.013l-.849-.013h-.013l-17.58-.3h-.013l-.874-.013-17.567-.3-.887-.013h-.013L98.133,112l-.9-.013H97.22l-17.529-.3-.9-.013-17.529-.3-.9-.013-17.516-.3-.926-.013-11.034-.18-.939-.026.694-.629.939.013,11,.192h.013l.913.013,17.5.3.9.013,17.516.3.9.013h.013l17.529.282.9.026,17.541.282.875.026h.013l17.554.282h.013l.874.013,17.58.3.862.013,17.593.3h.013l.849.013h.013l14.558.244Z" transform="translate(8.566 31.169)" fill="#becce3"/>
            <path id="Path_997504" data-name="Path 997504" d="M47.609,105.982l.913.013-.656.641h-.013l-5.26,5.016-.656.629-7.215,6.876-.669.641h-.013c-.322,0-.617-.013-.913-.013l.656-.629,7.227-6.888.656-.629h.013l5.26-5.028h.013Z" transform="translate(9.476 29.968)" fill="#becce3"/>
            <path id="Path_997505" data-name="Path 997505" d="M60.991,92.782l.913.013-.656.641h-.013l-5.247,5-.656.629L50.06,104.1h-.013l-.656.629-.913-.013.656-.629,5.273-5.028.656-.629h.013l5.247-5.016h.013Z" transform="translate(13.866 26.235)" fill="#becce3"/>
            <path id="Path_997506" data-name="Path 997506" d="M62.59,89.635l-.669.629-.913-.013.656-.629Z" transform="translate(17.45 25.342)" fill="#becce3"/>
            <path id="Path_997507" data-name="Path 997507" d="M84.35,89.845l-.656.641-3.562,3.451-.643.629-5.17,5.016h-.013l-.643.629-5.17,5.016H68.48l-.643.641h-.013l-5.157,5-.656.629-5.183,5.028-.643.629-6.919,6.709-.656.641H48.6c-.309,0-.6,0-.9-.013l.656-.641h.013l6.919-6.709.643-.629,5.183-5.028.643-.629h.013l5.157-5.016h.013l.643-.629,5.17-5.016h.013l.643-.641h.013l5.157-5,.643-.629h.013l3.549-3.463h.013l.643-.629Z" transform="translate(13.643 25.401)" fill="#becce3"/>
            <path id="Path_997508" data-name="Path 997508" d="M98.138,90.065l-.643.629L93.971,94.17l-.643.641-5.067,5-.643.629-5.093,5.028-.63.629-5.08,5.016-.643.629-5.08,5.028H71.08l-.63.629-6.636,6.555H63.8l-.643.641c-.309,0-.592-.013-.9-.013l.63-.629H62.9l6.649-6.568.63-.629,5.093-5.028.643-.629,5.067-5.016H81l.63-.629,5.093-5.028.63-.629h.013l5.067-5.016h.013l.63-.629,3.524-3.476.63-.629Z" transform="translate(17.807 25.463)" fill="#becce3"/>
            <path id="Path_997509" data-name="Path 997509" d="M77.435,116.6c.3,0,.6.013.913.013l-.617.629h-.013c-.3,0-.6,0-.9-.013Z" transform="translate(21.972 32.971)" fill="#becce3"/>
            <path id="Path_997510" data-name="Path 997510" d="M110.381,90.285l-.63.629-3.472,3.5h-.013l-.617.629-4.99,5.016-.63.629-4.99,5.028h-.013l-.617.629-4.99,5.016-.63.629-4.99,5.028-.63.629-.9-.013.63-.641,4.99-5.016.63-.629,4.99-5.016.617-.629,5-5.028.63-.629,4.99-5.016.617-.629h.013l3.472-3.5.63-.629Z" transform="translate(23.531 25.525)" fill="#becce3"/>
            <path id="Path_997511" data-name="Path 997511" d="M91.982,116.732c.3,0,.592.013.887.013l-.592.616h-.013c-.3.013-.592,0-.887,0Z" transform="translate(26.137 33.007)" fill="#becce3"/>
            <path id="Path_997512" data-name="Path 997512" d="M124.242,90.5l-.617.629-3.434,3.515-.617.641h-.013l-4.887,5.016-.617.629-4.9,5.028h-.013l-.6.629h-.013l-4.887,5.016-.617.629-4.9,5.028H98.11l-.6.629-.887-.013.617-.641,4.9-5.016.617-.629,4.887-5.016h.013l.6-.629h.013l4.9-5.028.617-.641,4.9-5.016.617-.629,3.434-3.515.6-.629h.013Z" transform="translate(27.635 25.588)" fill="#becce3"/>
            <path id="Path_997513" data-name="Path 997513" d="M139.558,90.715l-.6.641-3.4,3.54-.6.629-4.8,5.016h-.013l-.592.629h-.013l-4.81,5.028-.6.641h-.013l-4.8,5.016-.6.629L113.9,117.5l-.6.641h-.013l-5.864,6.119-.6.641c-.3-.013-.592-.013-.887-.013l.6-.629,5.877-6.132.6-.641h.013l4.8-5.016.6-.629,4.81-5.016.6-.641h.013l4.81-5.028.6-.629,4.81-5.016.6-.629,3.4-3.54.6-.641Z" transform="translate(30.298 25.647)" fill="#becce3"/>
            <path id="Path_997514" data-name="Path 997514" d="M153.385,90.935l-.592.629-3.357,3.566-.592.641h-.013l-4.707,5.016-.592.629-4.733,5.028-.592.629-4.72,5.028-.592.629-4.72,5.016-.592.641h-.013l-5.62,5.978-.6.641c-.283,0-.566-.013-.862,0l.6-.654,5.62-5.978h.013l.592-.641,4.72-5.016.592-.629,4.72-5.028.592-.629,4.733-5.028.592-.629,4.72-5.028.592-.629,3.357-3.566.592-.629Z" transform="translate(34.463 25.709)" fill="#becce3"/>
            <path id="Path_997515" data-name="Path 997515" d="M146.828,107.652l.849.026-.579.629-4.617,5.016h-.013l-.579.641L136.5,119.8l-.579.629c-.283.013-.579,0-.875,0l.592-.641,5.388-5.849h.013l.566-.629h.013l4.617-5.016Z" transform="translate(38.627 30.44)" fill="#becce3"/>
            <path id="Path_997516" data-name="Path 997516" d="M158.817,94.432l.849.013-.579.629-4.617,5.016-.592.641-4.63,5.028-.579.629h-.013l-.849-.013.579-.629,4.63-5.028h.013l.579-.641,4.63-5.016Z" transform="translate(42.277 26.702)" fill="#becce3"/>
            <path id="Path_997517" data-name="Path 997517" d="M160.379,91.155l-.579.629-.862-.013.579-.629Z" transform="translate(45.461 25.771)" fill="#becce3"/>
            <path id="Path_997518" data-name="Path 997518" d="M50.514,129.006l9.784-9.1a1.393,1.393,0,0,1,.971-.371l63.8,1.094a1.384,1.384,0,0,1,1.152,2.12l-5.121,8.131a1.374,1.374,0,0,1-1.175.649c-6.642-.038-54.684-.309-68.451-.13a1.381,1.381,0,0,1-.957-2.4" transform="translate(14.321 33.8)" fill="#becce3"/>
            <path id="Path_997519" data-name="Path 997519" d="M74.52,61.935l5.289-24.317a7.516,7.516,0,0,1,7.625-5.9L193.617,35.6a7.506,7.506,0,0,1,7.117,8.874L196.119,69.1a7.516,7.516,0,0,1-7.688,6.116l-106.859-4.2a7.505,7.505,0,0,1-7.053-9.086" transform="translate(21.265 11.284)" fill="#abacff"/>
            <path id="Path_997520" data-name="Path 997520" d="M95.679,44.066a3.615,3.615,0,0,0-.965-1.334,4.788,4.788,0,0,0-1.273-.8,3.92,3.92,0,0,0-1.325-.321l-3.292-.167a2.919,2.919,0,0,0-.8.051.712.712,0,0,0-.424.308,1.1,1.1,0,0,0-.167.4,3.773,3.773,0,0,0-.051.526l-.424,8.543c-.013.192-.013.334-.013.436a1.518,1.518,0,0,0,.064.359.618.618,0,0,0,.193.321,1.332,1.332,0,0,0,.386.205,2.23,2.23,0,0,0,.656.115,2.849,2.849,0,0,0,.8-.064.649.649,0,0,0,.424-.3,1.1,1.1,0,0,0,.167-.4,3.793,3.793,0,0,0,.051-.539l.09-1.732,1.929.09a3.925,3.925,0,0,0,1.35-.18,5.092,5.092,0,0,0,1.35-.667A3.533,3.533,0,0,0,95.5,47.7a4.1,4.1,0,0,0,.489-1.8,4.31,4.31,0,0,0-.309-1.834M92.773,46.76a1.468,1.468,0,0,1-.926.3l-1.942-.09.141-2.719,1.929.09a1.423,1.423,0,0,1,.9.4,1.181,1.181,0,0,1,.4,1.026,1.2,1.2,0,0,1-.5,1" transform="translate(24.869 14.037)" fill="#12263f"/>
            <path id="Path_997521" data-name="Path 997521" d="M106.618,43.824a5.49,5.49,0,0,0-3.884-1.834,5.289,5.289,0,0,0-2.083.321,5.95,5.95,0,0,0-1.839,1.1,5.693,5.693,0,0,0-1.325,1.809,6.252,6.252,0,0,0-.579,2.36,5.636,5.636,0,0,0,1.44,4.118,5.4,5.4,0,0,0,3.948,1.886,5.141,5.141,0,0,0,3.987-1.526,5.715,5.715,0,0,0,1.8-3.989,5.549,5.549,0,0,0-1.466-4.246m-2.251,6.3a2.782,2.782,0,0,1-2.019.731,2.735,2.735,0,0,1-1.929-.949,2.873,2.873,0,0,1-.772-2.245,2.941,2.941,0,0,1,.99-2.194,2.754,2.754,0,0,1,2.019-.757,2.786,2.786,0,0,1,1.929.949,3.273,3.273,0,0,1-.219,4.464" transform="translate(27.716 14.189)" fill="#12263f"/>
            <path id="Path_997522" data-name="Path 997522" d="M117.184,44.459a5.566,5.566,0,0,0-3.858-1.8q-.482-.019-1.427-.077c-.643-.038-1.106-.064-1.415-.077a2.919,2.919,0,0,0-.8.051.692.692,0,0,0-.437.308.927.927,0,0,0-.154.385,3.794,3.794,0,0,0-.051.539l-.424,8.543a4.056,4.056,0,0,0,0,.564,1.1,1.1,0,0,0,.141.423.644.644,0,0,0,.4.321,2.3,2.3,0,0,0,.746.128l2.816.141a5.43,5.43,0,0,0,4.1-1.475,5.526,5.526,0,0,0,1.852-3.938,5.279,5.279,0,0,0-1.492-4.041m-2.238,6.016a2.885,2.885,0,0,1-2.045.718l-1.492-.077.283-5.811,1.492.077a2.841,2.841,0,0,1,1.993.936,2.784,2.784,0,0,1,.772,2.117,2.708,2.708,0,0,1-1,2.04" transform="translate(31.065 14.337)" fill="#12263f"/>
            <path id="Path_997523" data-name="Path 997523" d="M123.361,46.451a3.579,3.579,0,0,1,1-.475,3.082,3.082,0,0,1,1-.128,2.661,2.661,0,0,1,1.7.616,1.709,1.709,0,0,0,.772.372c.309.013.694-.244,1.119-.782a1.4,1.4,0,0,0,.36-.808.756.756,0,0,0-.1-.436,1.455,1.455,0,0,0-.27-.334c-.09-.077-.231-.18-.412-.308l-.347-.231a5.867,5.867,0,0,0-1.119-.513,5.414,5.414,0,0,0-1.466-.3,6.658,6.658,0,0,0-1.479.128,6.652,6.652,0,0,0-3.074,1.552,5.337,5.337,0,0,0-1.106,1.565,5.759,5.759,0,0,0-.5,2.142,6.16,6.16,0,0,0,.3,2.258,5.315,5.315,0,0,0,.952,1.732,6.634,6.634,0,0,0,1.376,1.167,6.223,6.223,0,0,0,1.5.731,6,6,0,0,0,1.427.257,5.2,5.2,0,0,0,1.582-.167,6.091,6.091,0,0,0,1.055-.346c.18-.09.309-.167.412-.231a3.458,3.458,0,0,0,.643-.423.709.709,0,0,0,.232-.513,1.685,1.685,0,0,0-.3-.9c-.334-.59-.669-.9-.99-.911a1.671,1.671,0,0,0-.746.269l-.1.051-.193.141a2.267,2.267,0,0,1-.617.205,3.028,3.028,0,0,1-.913.09,3.466,3.466,0,0,1-.965-.218,3.871,3.871,0,0,1-.952-.564,2.627,2.627,0,0,1-.746-1,3.171,3.171,0,0,1-.231-1.411,2.987,2.987,0,0,1,.373-1.373,2.6,2.6,0,0,1,.823-.911" transform="translate(34.16 14.513)" fill="#12263f"/>
            <path id="Path_997524" data-name="Path 997524" d="M140.536,53.355l-3.729-8.787a1.323,1.323,0,0,0-1.2-.859,1.425,1.425,0,0,0-.746.18,1.45,1.45,0,0,0-.54.539l-4.591,8.389a1.867,1.867,0,0,0-.3.782c-.026.359.257.706.849,1.026a2.066,2.066,0,0,0,.862.308.8.8,0,0,0,.45-.128.956.956,0,0,0,.283-.269c.064-.09.154-.244.27-.436l.875-1.629,4.27.218.72,1.693c.1.218.167.372.219.475a1.09,1.09,0,0,0,.257.308.766.766,0,0,0,.437.167,2.224,2.224,0,0,0,.887-.218c.617-.269.926-.59.952-.962a2.013,2.013,0,0,0-.231-.8m-6.289-3.1,1.132-2.052.926,2.155Z" transform="translate(37.022 14.677)" fill="#12263f"/>
            <path id="Path_997525" data-name="Path 997525" d="M148.87,50.64a1.107,1.107,0,0,0-.09-.218,2.265,2.265,0,0,0-.939-1.013,7.915,7.915,0,0,0-1.247-.526,10.723,10.723,0,0,0-1.273-.346,2.232,2.232,0,0,1-.952-.41.8.8,0,0,1-.36-.731.75.75,0,0,1,.36-.616,1.325,1.325,0,0,1,.707-.205,2.454,2.454,0,0,1,.592.1,1.416,1.416,0,0,1,.36.154,2.684,2.684,0,0,1,.231.205,1.909,1.909,0,0,0,.167.167,1.615,1.615,0,0,0,.784.346,1.416,1.416,0,0,0,1.119-.718,1.781,1.781,0,0,0,.412-.847c.013-.192-.141-.436-.437-.757l-.077-.064-.3-.244a3.07,3.07,0,0,0-1.029-.539,5.7,5.7,0,0,0-1.685-.321,3.752,3.752,0,0,0-2.8.872,3.256,3.256,0,0,0-1.119,2.309,3.3,3.3,0,0,0,.309,1.706,2.532,2.532,0,0,0,.926,1.065,7.961,7.961,0,0,0,1.235.629,8.8,8.8,0,0,0,1.247.41,3.026,3.026,0,0,1,.965.385.7.7,0,0,1,.36.616.355.355,0,0,1-.013.115c-.077.706-.566,1.026-1.479.988a.647.647,0,0,1-.154-.026,1.647,1.647,0,0,1-.527-.218,2.5,2.5,0,0,1-.463-.359c-.077-.09-.129-.154-.167-.205l-.077-.077a1.9,1.9,0,0,0-1.132-.757,1.165,1.165,0,0,0-.8.334,1.822,1.822,0,0,0-.72,1.078,1.51,1.51,0,0,0,.373.834l.129.18a2.661,2.661,0,0,0,.4.462,4.2,4.2,0,0,0,.347.308c.1.077.219.167.334.244a4.063,4.063,0,0,0,1.029.475,4.828,4.828,0,0,0,1.363.244,4.558,4.558,0,0,0,1.376-.128,5.449,5.449,0,0,0,1.35-.552A3.082,3.082,0,0,0,148.6,53.86a3.683,3.683,0,0,0,.489-1.719,3.625,3.625,0,0,0-.219-1.5" transform="translate(40.275 14.775)" fill="#12263f"/>
            <path id="Path_997526" data-name="Path 997526" d="M160.543,45.459a.527.527,0,0,0-.258-.346,1.074,1.074,0,0,0-.307-.141c-.091-.013-.244-.026-.451-.038l-3.575-.18-4.99-.244a2.715,2.715,0,0,0-.463,0,1.1,1.1,0,0,0-.334.1.513.513,0,0,0-.283.321,2.467,2.467,0,0,0-.1.629,2.528,2.528,0,0,0,.039.654.563.563,0,0,0,.244.346,1.129,1.129,0,0,0,.334.128,2.542,2.542,0,0,0,.439.051l1.658.077,1.3.064-.386,7.722a3.173,3.173,0,0,0,0,.526,1.454,1.454,0,0,0,.116.41.709.709,0,0,0,.386.334,2.3,2.3,0,0,0,.757.128,2.874,2.874,0,0,0,.786-.051.7.7,0,0,0,.424-.3,1.538,1.538,0,0,0,.153-.385c.014-.115.039-.282.053-.526l.372-7.735,2.945.154h.463a1.6,1.6,0,0,0,.336-.1.59.59,0,0,0,.283-.321,2.573,2.573,0,0,0,.1-.629,2.472,2.472,0,0,0-.039-.654" transform="translate(42.839 14.901)" fill="#12263f"/>
            <g id="Group_1190298" data-name="Group 1190298" transform="translate(64.412 196.778)" opacity="0.15">
              <g id="Group_1190297" data-name="Group 1190297">
                <g id="Group_1190296" data-name="Group 1190296" clip-path="url(#clip-path-6)">
                  <path id="Path_997527" data-name="Path 997527" d="M134.143,156.895c0,1.929-18.817,3.493-42.029,3.493s-42.029-1.564-42.029-3.493S68.9,153.4,92.115,153.4s42.029,1.564,42.029,3.493" transform="translate(-50.087 -153.402)" fill="#502750"/>
                </g>
              </g>
            </g>
            <path id="Path_997528" data-name="Path 997528" d="M130.6,153.33c-4.775,0-9.838-2.467-14.15-6.954l2.786-2.664c1.889,1.967,6.915,6.452,12.639,5.685a12.628,12.628,0,0,0,7.9-4.9c3.229-4,6.136-10.6,5.44-15.464a6.814,6.814,0,0,0-2.926-4.9,7.85,7.85,0,0,0-6.581-.793c-4.065,1.165-7.159,4.542-9.89,7.521l-2.849-2.6c2.923-3.189,6.561-7.159,11.672-8.624a11.729,11.729,0,0,1,9.855,1.337,10.618,10.618,0,0,1,4.538,7.512c.89,6.233-2.62,13.918-6.257,18.422a16.448,16.448,0,0,1-10.392,6.3,13.628,13.628,0,0,1-1.79.118" transform="translate(33.307 33.685)" fill="#c8eefe"/>
            <path id="Path_997529" data-name="Path 997529" d="M70.9,111.4h75.849l-17.683,54.7a7.562,7.562,0,0,1-7.2,5.23H94.816a7.563,7.563,0,0,1-7.065-4.849Z" transform="translate(20.278 31.5)" fill="#c8eefe"/>
            <path id="Path_997530" data-name="Path 997530" d="M72.427,112.168h72.564s-13.462,7.861-35.953,7.7-36.611-7.7-36.611-7.7" transform="translate(20.716 31.717)" fill="#17428d"/>
          </g>
        </g>
      </g>
    </g>
    <g id="Group_1099280" data-name="Group 1099280" transform="translate(376 1185.104)">
      <path id="Path_873137" data-name="Path 873137" d="M159.539,42.632a38.193,38.193,0,0,0-20.082,68.935L126.023,133.74,148.566,116.5a38.2,38.2,0,1,0,10.973-73.866" transform="translate(-123.817 -42.55)" fill="#ff9581"/>
      <rect id="Rectangle_401286" data-name="Rectangle 401286" width="1.616" height="31.233" transform="translate(39.141 23.271)" fill="#502750"/>
      <path id="Path_873138" data-name="Path 873138" d="M152.484,94.427a1.257,1.257,0,0,1-1.258-1.256V58.058a1.258,1.258,0,0,1,2.516,0V93.171a1.257,1.257,0,0,1-1.258,1.256" transform="translate(-112.534 -36.684)" fill="#fff"/>
      <path id="Path_873139" data-name="Path 873139" d="M157.637,88.8a1.256,1.256,0,0,1-1.258-1.256V61.1a1.258,1.258,0,0,1,2.516,0V87.544a1.256,1.256,0,0,1-1.258,1.256" transform="translate(-110.414 -35.433)" fill="#fff"/>
      <path id="Path_873140" data-name="Path 873140" d="M146.726,88.8a1.256,1.256,0,0,1-1.258-1.256V61.1a1.258,1.258,0,0,1,2.516,0V87.544a1.256,1.256,0,0,1-1.258,1.256" transform="translate(-114.904 -35.433)" fill="#fff"/>
      <path id="Path_873141" data-name="Path 873141" d="M162.79,84.707a1.257,1.257,0,0,1-1.259-1.256V63.341a1.258,1.258,0,0,1,2.516,0V83.45a1.256,1.256,0,0,1-1.256,1.256" transform="translate(-108.291 -34.508)" fill="#fff"/>
      <path id="Path_873142" data-name="Path 873142" d="M141.876,84.707a1.257,1.257,0,0,1-1.258-1.256V63.341a1.258,1.258,0,0,1,2.516,0V83.45a1.257,1.257,0,0,1-1.258,1.256" transform="translate(-116.899 -34.508)" fill="#fff"/>
      <path id="Path_873143" data-name="Path 873143" d="M167.335,79.509a1.257,1.257,0,0,1-1.258-1.256V66.192a1.258,1.258,0,0,1,2.516,0v12.06a1.257,1.257,0,0,1-1.258,1.256" transform="translate(-106.42 -33.335)" fill="#fff"/>
      <path id="Path_873144" data-name="Path 873144" d="M136.724,79.509a1.257,1.257,0,0,1-1.258-1.256V66.192a1.258,1.258,0,0,1,2.516,0v12.06a1.257,1.257,0,0,1-1.258,1.256" transform="translate(-119.021 -33.335)" fill="#fff"/>
    </g>
  </g>
</svg>
